<svg width="146" height="94" viewBox="0 0 146 94" fill="none" xmlns="http://www.w3.org/2000/svg">
<path d="M110.787 37.5882C111.448 37.9142 112.173 38.0921 112.91 38.1095C112.951 38.1047 112.991 38.0918 113.028 38.0715C113.064 38.0511 113.096 38.0237 113.122 37.9909C113.147 37.9581 113.166 37.9205 113.177 37.8803C113.188 37.8402 113.191 37.7982 113.186 37.7569C113.124 37.274 112.58 37.6879 111.07 36.9903L111.147 36.4231C111.185 36.2621 110.994 36.0015 110.787 36.0782C110.58 36.1548 110.526 36.4001 110.465 36.8447C110.403 37.2893 110.373 37.3813 110.787 37.5882ZM30.7761 39.7652C31.6985 39.5144 32.5648 39.0904 33.3287 38.5157C33.6276 38.2858 33.528 37.7492 33.4436 37.4426C33.4196 37.3631 33.3671 37.2952 33.2961 37.252C33.2252 37.2088 33.1408 37.1933 33.0591 37.2085C32.9774 37.2237 32.9042 37.2685 32.8535 37.3343C32.8028 37.4002 32.7782 37.4824 32.7844 37.5652C32.799 37.7314 32.8298 37.8957 32.8764 38.0558C31.0597 39.3819 30.3545 39.0523 30.4618 39.5889C30.4857 39.6501 30.5301 39.7012 30.5874 39.7334C30.6447 39.7655 30.7114 39.7768 30.7761 39.7652ZM28.6912 38.3471C30.2242 38.3471 29.703 37.4426 29.2891 37.5806L28.6988 37.6726C28.1929 35.2733 28.5992 34.7674 28.1623 34.7521C28.0964 34.7478 28.0314 34.7695 27.9813 34.8124C27.9312 34.8554 27.8998 34.9163 27.894 34.982C27.8398 35.9299 27.9094 36.8807 28.1009 37.8105C28.1852 38.2245 28.3386 38.3471 28.6912 38.3471ZM73.2036 37.0287C73.6405 37.0287 75.9401 36.5304 76.331 36.4691C76.9059 36.3695 77.5881 36.1932 77.6341 35.5723C77.6341 35.189 77.3582 34.7444 77.0439 34.9744C76.9785 35.0203 76.9302 35.0866 76.9066 35.1629C76.8831 35.2392 76.8855 35.3212 76.9136 35.396C77.0286 35.6949 76.7833 35.6719 73.0809 36.4768C73.0129 36.4978 72.9552 36.5437 72.9194 36.6053C72.8837 36.6669 72.8724 36.7397 72.8878 36.8093C72.9033 36.8788 72.9444 36.94 73.0029 36.9806C73.0614 37.0213 73.133 37.0384 73.2036 37.0287ZM22.7889 18.264C22.9575 18.4556 23.3714 18.264 23.2488 17.9727C22.4823 16.1024 21.0718 14.0174 20.1827 11.9631C20.0447 11.6335 19.7687 11.0739 19.5005 11.0433C19.4669 11.0386 19.4326 11.0432 19.4015 11.0567C19.3704 11.0703 19.3436 11.0921 19.3242 11.1199C19.1555 11.3499 19.4008 11.9861 19.5158 12.2544C19.8684 13.0133 21.5778 16.8766 22.7889 18.264ZM47.6398 15.0292C47.6542 15.0891 47.6839 15.1441 47.7262 15.1889C47.7684 15.2337 47.8216 15.2666 47.8805 15.2844C47.9394 15.3023 48.002 15.3044 48.0619 15.2905C48.1219 15.2767 48.1772 15.2474 48.2224 15.2055C48.8552 14.6293 49.4303 13.9926 49.9394 13.3045C52.239 20.6632 52.239 20.9239 52.5992 20.9239C52.6509 20.9224 52.7016 20.9099 52.748 20.8871C52.7944 20.8643 52.8353 20.8319 52.868 20.7919C52.9007 20.7519 52.9245 20.7053 52.9376 20.6554C52.9508 20.6054 52.953 20.5532 52.9442 20.5023C52.0857 17.7888 51.1812 15.1366 50.3993 12.4307C50.3818 12.3635 50.3448 12.3029 50.2929 12.2566C50.2411 12.2103 50.1767 12.1804 50.108 12.1705C50.0392 12.1607 49.969 12.1714 49.9063 12.2014C49.8435 12.2313 49.7911 12.2791 49.7554 12.3387C49.3152 13.0311 48.8012 13.6736 48.2224 14.255C47.7624 12.1548 46.6893 7.35627 46.6893 7.35627C46.67 7.27902 46.6208 7.2126 46.5525 7.17164C46.4842 7.13067 46.4024 7.1185 46.3252 7.13781C46.2479 7.15713 46.1815 7.20634 46.1405 7.27462C46.0996 7.3429 46.0874 7.42466 46.1067 7.50191C46.3674 8.69004 47.4788 14.5003 47.6398 15.0292ZM7.71121 54.9042C5.24298 53.7237 3.04304 52.5126 0.513491 51.1788C0.0229111 50.9182 -0.314362 51.8151 0.452168 52.022C2.66066 53.4005 5.01561 54.5291 7.47359 55.3871C7.7802 55.4714 7.99483 55.0728 7.71121 54.9042ZM9.67353 37.205C9.72623 37.2516 9.79192 37.281 9.86179 37.2892C9.93167 37.2974 10.0024 37.2841 10.0645 37.251C10.5704 37.0057 9.91882 36.4001 10.1641 32.7591C16.3807 40.2634 16.0357 40.0718 16.2964 40.0718C16.3503 40.0752 16.4041 40.063 16.4514 40.0368C16.4987 40.0106 16.5375 39.9715 16.5633 39.924C16.5891 39.8764 16.6008 39.8225 16.5969 39.7686C16.5931 39.7146 16.5739 39.6629 16.5416 39.6195C15.5682 38.3931 11.3062 33.0964 10.1718 31.6553C10.1291 31.6012 10.0719 31.5605 10.0068 31.538C9.9417 31.5155 9.87153 31.5121 9.80458 31.5283C9.73764 31.5444 9.67672 31.5794 9.62904 31.629C9.58136 31.6787 9.54892 31.741 9.53556 31.8086C9.37973 33.2085 9.35406 34.6199 9.4589 36.0245C7.15931 33.9625 4.95937 31.7779 2.63678 29.7696C2.56647 29.7132 2.47851 29.6834 2.38838 29.6854C2.29824 29.6874 2.2117 29.7211 2.14397 29.7806C2.07623 29.8401 2.03164 29.9216 2.01803 30.0107C2.00442 30.0998 2.02266 30.1909 2.06955 30.2679C2.97405 31.6706 8.07915 35.7562 9.67353 37.205ZM70.1375 8.77435C70.1375 8.84957 70.1673 8.92171 70.2205 8.9749C70.2737 9.02809 70.3459 9.05797 70.4211 9.05797C70.4963 9.05797 70.5684 9.02809 70.6216 8.9749C70.6748 8.92171 70.7047 8.84957 70.7047 8.77435C70.8361 5.95884 70.7181 3.13723 70.3521 0.342517C70.3442 0.268778 70.3151 0.198912 70.2683 0.141386C70.2215 0.0838614 70.159 0.0411484 70.0884 0.0184288C70.0178 -0.00429078 69.9422 -0.00604118 69.8706 0.0133877C69.799 0.0328166 69.7346 0.0725909 69.6852 0.127889C69.3403 0.572477 70.1681 1.97523 70.1375 8.77435ZM90.8798 22.089C96.7131 12.2467 96.3988 12.7373 96.3528 12.561C96.2225 12.1164 95.8546 12.3311 92.9034 13.2202C93.67 10.499 94.6281 7.5939 95.2643 4.84205C95.2776 4.75307 95.257 4.66236 95.2067 4.58777C95.1564 4.51317 95.0801 4.46008 94.9926 4.43894C94.9052 4.4178 94.813 4.43014 94.7342 4.47353C94.6554 4.51692 94.5957 4.58822 94.5668 4.67342C93.7006 7.73954 92.8421 10.7367 92.0142 13.6802C92.0009 13.741 92.0032 13.8042 92.0209 13.864C92.0386 13.9237 92.0713 13.9779 92.1157 14.0216C92.1601 14.0652 92.2149 14.0969 92.2749 14.1136C92.3349 14.1303 92.3982 14.1315 92.4588 14.1171C92.4588 14.1171 94.4901 13.4885 95.3103 13.2202L90.4122 21.8284C90.3832 21.8899 90.3787 21.9601 90.3995 22.0248C90.4203 22.0895 90.4649 22.1439 90.5243 22.177C90.5837 22.2101 90.6534 22.2194 90.7194 22.2031C90.7854 22.1867 90.8427 22.146 90.8798 22.089ZM145.687 44.5713C145.288 44.3797 137.914 48.9636 137.837 49.0172C137.569 49.2088 137.837 49.6841 138.113 49.5385C138.558 49.3392 145.602 45.4222 145.84 45.0006C145.858 44.9623 145.869 44.9209 145.871 44.8786C145.873 44.8363 145.867 44.794 145.852 44.7542C145.838 44.7143 145.816 44.6776 145.788 44.6462C145.759 44.6149 145.725 44.5894 145.687 44.5713ZM126.171 35.8099C126.171 35.8099 133.56 30.1759 134.94 29.1027C135.239 28.8651 134.94 28.3362 134.587 28.3745C133.196 28.4077 131.811 28.5642 130.448 28.8421C132.427 26.7313 134.179 24.4191 135.676 21.9434C135.929 21.5294 135.316 21.1002 135.07 21.5218C133.381 24.2766 131.372 26.8213 129.084 29.1027C128.838 29.3404 128.992 29.9229 129.39 29.8693C130.743 29.5248 132.123 29.294 133.514 29.1794C133.514 29.1794 127.658 33.8936 125.849 35.3883C125.818 35.4372 125.804 35.4942 125.806 35.5517C125.809 35.6092 125.829 35.6645 125.864 35.7103C125.899 35.756 125.947 35.7901 126.002 35.8079C126.057 35.8257 126.116 35.8264 126.171 35.8099ZM115.6 13.6188C120.307 5.50893 121.127 4.32848 120.338 4.12918C120 4.04486 120.016 4.07552 115.071 13.3275C115.048 13.3957 115.05 13.4699 115.076 13.5371C115.102 13.6043 115.151 13.6601 115.214 13.6949C115.277 13.7296 115.35 13.7411 115.421 13.7271C115.492 13.7132 115.555 13.6749 115.6 13.6188Z" fill="#fff"/>
<path d="M137.324 63.6503C134.196 53.7851 126.294 46.1964 115.623 42.839C115.616 42.6437 115.596 42.449 115.562 42.2565C118.475 40.984 119.126 36.6071 118.483 32.7975C119.042 31.8853 120.529 27.1941 119.433 27.838L117.432 29.0185C117.149 28.2519 116.819 27.5391 116.467 26.8339C116.543 25.6074 115.424 23.4151 113.454 21.9817C111.645 20.6633 108.533 19.4828 103.995 21.3685C100.454 22.8402 96.4602 26.0903 95.8546 30.8122C95.0881 36.9444 97.1194 39.9185 93.3251 45.6139C89.1325 43.7155 84.6635 42.4993 80.0871 42.0112C80.0873 41.6676 80.0642 41.3245 80.0181 40.984C81.9727 39.9952 82.3867 36.7758 82.471 35.7256C84.7706 33.7326 85.0389 29.762 83.2375 29.67C83.7004 26.8255 83.8776 23.9417 83.7664 21.0619C83.6668 19.2759 82.9002 18.8773 82.5476 18.8006C82.2988 18.7536 82.0418 18.7775 81.8059 18.8697C81.57 18.9619 81.3649 19.1186 81.2139 19.3219C80.639 18.1491 79.5352 18.2947 78.9143 19.1839C78.8533 18.8683 78.6947 18.5799 78.4608 18.3593C78.227 18.1388 77.9298 17.9974 77.6111 17.955C77.2925 17.9126 76.9686 17.9715 76.6853 18.1232C76.4019 18.275 76.1734 18.5119 76.0321 18.8006C75.8835 18.4842 75.6442 18.219 75.3445 18.0389C75.0449 17.8588 74.6985 17.7719 74.3493 17.7891C74.0001 17.8064 73.6639 17.9271 73.3835 18.1358C73.1031 18.3446 72.8911 18.632 72.7744 18.9616C72.0078 17.2982 70.0532 17.6815 69.6163 19.3679C69.0414 18.0724 67.47 18.0801 66.9257 19.5825C65.4923 18.5247 64.3655 19.5825 64.1356 21.3225C63.9963 24.2813 64.1194 27.2466 64.5035 30.1836C61.905 29.601 63.9286 35.6873 65.477 35.8329C65.7453 38.1325 66.6958 40.6621 68.5431 41.2753C68.5431 41.5819 68.4971 41.8962 68.4971 42.2028C63.541 42.9943 58.7713 44.6855 54.4236 47.1929C52.032 45.5065 46.7123 43.2146 41.5996 43.6362C40.6732 41.679 39.9761 39.6213 39.5223 37.504C39.185 35.6566 40.0512 34.9284 40.0435 33.334C41.036 31.334 41.2833 29.0458 40.7411 26.8799C38.3265 19.2145 23.7394 22.1274 24.1533 30.5439C24.207 31.502 24.2913 32.4602 24.3756 33.2037C22.5743 33.748 22.8426 33.8783 23.3408 36.0706C23.6091 37.2663 23.9157 38.2552 25.1728 37.9945C25.7477 40.4858 27.1965 44.4641 30.6152 44.4641C30.8221 44.4641 30.6152 44.3338 30.8068 45.6215C22.2293 49.3545 11.4596 56.353 8.66941 68.6174C7.99486 71.5763 7.5886 75.7768 9.52026 78.9503C11.6436 82.484 15.3995 82.7063 18.0977 82.53C17.4662 86.0002 17.2628 89.5347 17.4922 93.0544C17.4936 93.1036 17.5085 93.1515 17.5352 93.1927C17.5619 93.234 17.5995 93.2672 17.6438 93.2885C17.6881 93.3099 17.7375 93.3187 17.7864 93.3139C17.8354 93.3091 17.8821 93.2909 17.9214 93.2614C18.3354 93.0161 17.5228 92.7555 18.8183 82.4763C26.039 81.8094 32.9224 78.705 39.2846 75.4396C40.3348 76.2061 41.3773 76.9726 42.4581 77.6625C43.3467 79.4593 44.7084 80.9797 46.3967 82.0602C48.085 83.1407 50.036 83.7404 52.0397 83.7948C51.8481 87.0216 51.8481 90.2569 52.0397 93.4837C52.0426 93.5227 52.0533 93.5607 52.0711 93.5955C52.089 93.6303 52.1137 93.6611 52.1437 93.6862C52.1738 93.7112 52.2086 93.7299 52.246 93.7413C52.2834 93.7526 52.3228 93.7562 52.3617 93.752C53.0209 93.6907 52.17 93.3611 52.6913 83.7871C59.0688 83.7871 64.3042 79.6248 69.5549 76.4437C75.7332 79.2722 90.8798 84.5383 98.8901 83.0206C99.258 86.286 99.2043 89.3828 99.5186 92.5409C99.5288 92.5975 99.5585 92.6488 99.6026 92.6858C99.6468 92.7227 99.7025 92.743 99.7601 92.743C99.8176 92.743 99.8734 92.7227 99.9175 92.6858C99.9617 92.6488 99.9914 92.5975 100.002 92.5409C100.203 89.314 100.072 86.075 99.6106 82.8749C105.168 81.5565 108.579 77.6395 109.484 71.5533C109.851 71.308 110.25 71.032 110.664 70.7177C115.409 72.6111 125.228 77.2179 130.027 77.3866C129.804 80.9509 129.49 84.7146 129.436 88.4093C129.447 88.4717 129.479 88.5283 129.528 88.5691C129.576 88.61 129.637 88.6324 129.701 88.6324C129.764 88.6324 129.825 88.61 129.874 88.5691C129.922 88.5283 129.955 88.4717 129.965 88.4093C130.073 87.3898 130.77 78.6897 130.732 77.3636C138.412 77.1873 139.624 70.9017 137.324 63.6503ZM82.6243 30.8888C82.8312 30.6129 82.9462 30.2909 83.2452 30.3829C84.3183 30.6972 83.4598 33.3647 82.563 34.5528C82.6396 33.334 82.6626 32.0999 82.6243 30.8888ZM64.3272 30.8888C64.5725 30.8888 64.5418 30.9961 65.0937 31.1034L65.4003 34.8901C64.2659 33.84 63.4457 30.9041 64.3272 30.9041V30.8888ZM117.586 30.1223C117.618 30.0145 117.692 29.9241 117.791 29.8709C117.891 29.8177 118.007 29.8061 118.115 29.8387C118.222 29.8712 118.313 29.9452 118.366 30.0444C118.419 30.1436 118.431 30.2598 118.398 30.3676C118.13 31.3181 117.923 32.0079 117.747 32.6672C117.701 32.7492 117.638 32.8196 117.561 32.8728C117.483 32.926 117.395 32.9606 117.302 32.9738C116.628 32.9968 117.348 30.8122 117.586 30.1069V30.1223ZM104.685 33.1884C105.122 32.8588 105.651 33.2804 105.735 33.2881C106.456 33.748 107.268 33.0811 107.061 32.8895L106.908 32.7668C106.341 32.3222 105.176 31.4024 105.421 30.7738C105.605 30.2986 106.356 30.3676 106.847 30.3446C106.864 30.344 106.881 30.3396 106.897 30.3315C106.912 30.3234 106.925 30.3119 106.936 30.2979C106.946 30.2838 106.953 30.2676 106.956 30.2505C106.959 30.2334 106.959 30.2157 106.954 30.1989C106.877 29.9536 106.785 29.7084 106.693 29.4324C109.59 27.9957 112.766 27.2108 115.999 27.1328C116.329 27.8993 116.612 28.6275 116.865 29.3481C115.907 29.8923 114.819 30.4902 114.566 31.5787C114.338 31.5504 114.107 31.5736 113.889 31.6465C113.672 31.7195 113.473 31.8404 113.309 32.0003C112.105 30.5515 107.123 30.6742 106.118 30.7125C104.823 30.7662 108.242 33.38 109.185 34.1159C112.35 36.5765 114.42 34.8824 113.63 32.6365C113.741 32.5008 113.887 32.3977 114.051 32.3383C114.216 32.2789 114.394 32.2654 114.566 32.2992C114.594 32.4449 114.641 32.5865 114.704 32.7208C114.665 32.7019 114.624 32.6921 114.581 32.6921C114.538 32.6921 114.496 32.7019 114.458 32.7208C114.144 32.9201 114.458 33.1884 115.179 34.4685C115.09 34.5589 114.995 34.6434 114.895 34.7215C114.604 34.9361 114.857 35.8713 115.83 34.7215C115.976 34.5452 115.7 34.0316 115.393 33.5793C115.763 33.8315 116.207 33.9534 116.654 33.9256C117.101 33.8978 117.526 33.7221 117.862 33.426C118.197 35.484 118.007 37.5932 117.31 39.5583C116.543 41.4363 114.619 41.5436 115.01 42.2565C115.111 44.7837 114.905 47.3138 114.397 49.7915C112.427 49.3622 108.548 44.5561 107 42.3254C107.16 40.4616 106.92 38.585 106.295 36.8218C105.781 35.9326 104.762 35.5263 104.493 34.5222C104.389 34.2982 104.351 34.0488 104.385 33.8039C104.419 33.5591 104.523 33.3293 104.685 33.1424V33.1884ZM116.306 31.9083C116.221 32.1613 116.168 32.5139 115.892 32.5139C115.616 32.5139 115.478 32.1919 115.508 31.916C115.539 31.64 115.616 31.0038 115.907 30.8352C115.963 30.8074 116.025 30.793 116.087 30.793C116.15 30.793 116.211 30.8074 116.267 30.8352C116.628 30.9348 116.436 31.4714 116.306 31.8623V31.9083ZM112.174 33.6713C112.09 33.8783 112.005 34.2539 111.76 34.3689C111.717 34.3899 111.67 34.4008 111.622 34.4008C111.574 34.4008 111.527 34.3899 111.484 34.3689C111.024 34.2002 111.53 32.4909 111.944 32.1612C111.98 32.1245 112.025 32.0974 112.074 32.0825C112.124 32.0676 112.176 32.0654 112.226 32.0761C112.277 32.0868 112.324 32.1101 112.363 32.1437C112.402 32.1773 112.432 32.2203 112.45 32.2686C112.611 32.6212 112.22 33.5103 112.174 33.6253V33.6713ZM110.495 32.9278C110.396 33.1271 110.35 33.311 110.089 33.311C110.028 33.3153 109.966 33.3044 109.91 33.2794C109.854 33.2544 109.805 33.216 109.767 33.1676C109.729 33.1192 109.704 33.0622 109.693 33.0017C109.683 32.9411 109.687 32.8789 109.706 32.8205C109.79 32.5675 109.882 31.9926 110.189 31.8393C110.237 31.8169 110.29 31.8046 110.343 31.8034C110.397 31.8021 110.45 31.8118 110.5 31.8319C110.549 31.8521 110.594 31.8821 110.632 31.9203C110.669 31.9585 110.698 32.004 110.718 32.0539C110.825 32.3069 110.649 32.6518 110.495 32.9278ZM106.663 42.7547C108.84 46.5107 114.573 51.9531 115.018 50.1287C115.519 47.9631 115.751 45.7437 115.708 43.5212C126.209 47.2312 133.338 54.0304 136.442 63.2057C134.195 62.1332 131.726 61.6079 129.237 61.6727C129.13 59.1508 125.673 54.2757 124.347 52.8116C124.078 52.5126 123.58 52.8959 123.871 53.1949C125.86 55.4463 127.381 58.07 128.348 60.9138C124.592 58.0853 117.026 54.1377 106.655 57.3878C103.964 52.7951 100.036 49.0523 95.318 46.5874C98.7128 44.3672 102.617 43.0482 106.663 42.7547ZM66.6881 25.4618C71.2977 24.2036 76.141 24.0643 80.8153 25.0555C80.7366 26.3545 80.7777 27.658 80.9379 28.9495H80.7999C80.1637 26.0213 76.0858 25.1168 74.7137 28.183C74.0128 27.9452 73.253 27.9452 72.5521 28.183C71.226 25.4234 67.3857 26.3126 66.6804 29.0415H66.5348C66.696 27.8555 66.7473 26.6572 66.6881 25.4618ZM77.1129 31.7703C77.2509 31.3794 78.4927 28.4819 79.2975 28.3976C79.3645 28.3967 79.4307 28.4119 79.4907 28.4417C79.5507 28.4716 79.6027 28.5153 79.6424 28.5692C79.6821 28.6232 79.7084 28.6858 79.7191 28.7519C79.7297 28.8181 79.7245 28.8858 79.7038 28.9495C79.0195 29.9243 78.4097 30.9492 77.8795 32.0156C77.6878 32.4909 76.9366 32.3069 77.1129 31.7703ZM76.0015 30.6972C75.9095 30.9271 75.4956 31.0651 75.3499 30.7968C75.2043 30.5285 75.5569 29.5091 76.5534 28.0143C76.8063 27.6387 77.0439 27.4548 77.2509 27.4854C77.3183 27.5047 77.3799 27.5401 77.4304 27.5886C77.4809 27.6371 77.5188 27.6973 77.5407 27.7638C77.5626 27.8303 77.5679 27.9012 77.5562 27.9703C77.5444 28.0393 77.5159 28.1044 77.4732 28.16C76.8898 28.9484 76.3962 29.7994 76.0015 30.6972ZM69.3326 31.9696C69.6623 31.2491 70.0302 30.5209 70.3828 29.808C70.4204 29.7392 70.4759 29.6819 70.5433 29.6419C70.6107 29.6019 70.6877 29.5809 70.7661 29.5809C70.8444 29.5809 70.9214 29.6019 70.9888 29.6419C71.0562 29.6819 71.1117 29.7392 71.1493 29.808C71.1974 29.8808 71.2231 29.9661 71.2231 30.0533C71.2231 30.1405 71.1974 30.2258 71.1493 30.2986C70.812 30.9655 70.4671 31.663 70.0992 32.3376C69.8079 32.7208 69.1027 32.4295 69.3326 31.9696ZM68.4051 31.0038L68.3592 31.0574C68.1215 31.4024 67.5236 31.1801 67.6846 30.7432C68.1272 29.5654 68.6924 28.4375 69.371 27.3781C69.7006 26.9795 70.3675 27.3244 70.1375 27.792C69.5933 28.8805 68.9264 29.9 68.4051 31.0038ZM65.6686 31.0728C66.1592 30.8658 66.2972 30.3062 66.4352 29.8233L66.5961 29.7773C66.556 30.3091 66.6213 30.8436 66.7884 31.3501C66.9554 31.8565 67.2209 32.325 67.5696 32.7285C67.9831 33.1345 68.5011 33.4177 69.0661 33.5464C69.6311 33.6751 70.2207 33.6444 70.7692 33.4576C71.3177 33.2708 71.8036 32.9352 72.1725 32.4884C72.5415 32.0416 72.779 31.5011 72.8587 30.9271C72.7794 31.6653 72.7462 32.4077 72.759 33.1501C72.759 33.61 72.6517 34.1849 73.219 34.2232H73.9855C74.3841 34.2232 74.4914 33.5333 74.0315 33.5257H73.4642C73.4195 32.1599 73.4939 30.7929 73.6865 29.4401C73.7402 29.0645 73.196 29.0108 73.1193 29.3634C72.782 31.0115 73.1193 30.0686 72.8204 28.8498C73.3556 28.6579 73.9408 28.6579 74.4761 28.8498C74.3073 29.4644 74.274 30.1083 74.3786 30.7369C74.4831 31.3656 74.723 31.964 75.0816 32.4909C75.3548 32.8447 75.7008 33.1358 76.0963 33.3442C76.4917 33.5527 76.9273 33.6738 77.3736 33.6992C77.8199 33.7246 78.2665 33.6539 78.6831 33.4917C79.0997 33.3295 79.4765 33.0797 79.7881 32.7591C80.5412 31.9188 80.9419 30.8209 80.9073 29.693H81.0529C81.1449 30.3599 81.2829 31.2797 81.9881 31.2261C81.9114 33.8476 82.1414 38.3395 80.0641 39.9799C79.7958 40.1945 79.4892 40.4398 79.4508 40.6851C79.3549 41.4973 79.3549 42.3181 79.4508 43.1303C79.6731 45.2536 75.9555 49.4542 74.0315 51.2479C70.3215 46.2041 69.256 45.7058 69.2637 41.283C69.2637 40.8384 69.21 40.7694 68.9034 40.6161C65.7989 39.1137 66.0826 34.7828 65.6686 31.0728ZM68.5355 42.8774C68.6198 45.2306 70.4671 48.4117 73.7249 51.8381C74.3841 52.6966 80.2097 45.5449 80.0947 43.9965V42.701C95.7856 44.5484 107.031 53.5781 108.824 65.7506C102.309 64.4705 94.0763 65.9729 92.6812 66.2412C92.0829 62.429 90.9554 58.719 89.3314 55.2185C89.304 55.1504 89.2506 55.096 89.183 55.0672C89.1155 55.0385 89.0393 55.0377 88.9712 55.0652C88.9031 55.0926 88.8486 55.146 88.8199 55.2136C88.7911 55.2811 88.7904 55.3574 88.8179 55.4255C90.2273 58.8804 91.2554 62.4788 91.884 66.1569C87.852 61.9103 81.7198 60.0246 73.173 60.4079C68.0286 60.6464 62.9184 61.3727 57.9113 62.5772C58.3119 60.2396 59.2659 58.0319 60.6938 56.1383C60.7251 56.0812 60.7346 56.0147 60.7205 55.9512C60.7064 55.8876 60.6696 55.8314 60.6171 55.7929C60.5645 55.7544 60.4998 55.7364 60.435 55.7421C60.3701 55.7479 60.3096 55.777 60.2646 55.8241C58.6539 57.8142 57.5964 60.1937 57.1985 62.7228C51.641 64.056 46.2439 65.9861 41.1013 68.4795C41.8065 53.4631 55.6884 45.4146 68.5355 42.8774ZM35.291 28.6812C35.2832 29.409 35.3267 30.1365 35.4213 30.8581C32.6618 30.9271 28.2773 32.0003 25.0118 33.0121C24.9275 32.3376 24.7359 31.1111 24.7282 30.3829C28.0139 28.817 31.6798 28.2264 35.291 28.6812ZM32.8535 32.7975C31.3204 35.4037 31.65 35.8636 31.1364 35.8636C31.0788 35.8671 31.0212 35.8567 30.9684 35.8333C30.9156 35.8099 30.8693 35.7741 30.8332 35.7291C30.7971 35.684 30.7724 35.6309 30.7612 35.5743C30.7499 35.5176 30.7524 35.4591 30.7685 35.4037C31.466 32.7668 32.1329 32.2762 32.4702 32.2149C32.5437 32.1999 32.62 32.2073 32.6893 32.2361C32.7586 32.2649 32.8177 32.3138 32.8589 32.3765C32.9002 32.4392 32.9217 32.5128 32.9207 32.5878C32.9197 32.6629 32.8963 32.7359 32.8535 32.7975ZM30.4849 33.3724C30.2013 33.84 30.1323 34.4915 29.7183 34.3919C29.3044 34.2922 29.6034 33.357 29.8487 32.8588C30.0939 32.3606 30.3086 32.3529 30.4542 32.3912C30.5363 32.4135 30.6093 32.461 30.6629 32.5271C30.7165 32.5931 30.7481 32.6742 30.7532 32.7591C30.7231 32.9847 30.6301 33.1972 30.4849 33.3724ZM24.7819 34.9054C24.6976 35.1047 24.6899 35.718 24.276 35.718C24.1954 35.7211 24.1161 35.6971 24.0508 35.6499C23.9855 35.6026 23.9379 35.5348 23.9157 35.4573C23.8751 34.9211 24.0457 34.3902 24.391 33.9779C24.4622 33.9143 24.5517 33.8748 24.6467 33.8652C24.7417 33.8555 24.8373 33.8762 24.9199 33.9243C25.1038 34.0469 25.0655 34.3689 24.7819 34.8824V34.9054ZM25.0655 36.6914C25.763 34.1849 26.1616 33.817 26.3993 33.7633C26.4481 33.752 26.4991 33.7547 26.5466 33.7709C26.594 33.7872 26.6359 33.8164 26.6675 33.8553C26.7717 33.9761 26.8241 34.1331 26.8132 34.2922L25.8014 36.9061C25.7699 37.0037 25.7009 37.0847 25.6096 37.1314C25.5183 37.1782 25.4122 37.1867 25.3146 37.1552C25.217 37.1237 25.136 37.0547 25.0893 36.9634C25.0425 36.8721 25.034 36.766 25.0655 36.6685V36.6914ZM25.832 37.8489C27.3038 37.4197 27.779 37.5423 27.618 35.304C27.5644 34.6678 27.4417 33.2191 28.0856 33.2421C28.6069 33.2421 28.6222 35.6643 29.3964 36.4155C30.1706 37.1667 31.1747 36.6378 32.0179 36.4155C34.3175 35.7869 33.8116 34.8058 33.643 31.7627L35.5746 31.6093C36.4408 36.1012 37.6059 32.7362 38.3878 32.2302C38.886 31.916 39.3153 32.6058 39.4073 33.1347C39.5836 34.2692 38.6408 35.511 38.8401 37.1744C39.2918 39.5819 40.0652 41.9178 41.1396 44.1191C39.4609 47.3079 34.6395 50.2514 32.4932 51.4165C31.5887 48.1357 31.512 43.8279 30.9601 43.8432C28.4152 43.8585 26.7442 41.9345 25.8014 37.8259L25.832 37.8489ZM30.8758 46.3574C31.0138 47.5149 31.581 52.4896 32.4089 52.0757C34.4938 51.0946 40.8407 46.9246 41.7452 44.2418C43.0866 44.5484 47.2719 43.7359 53.7721 47.6528C48.9754 50.518 45.1264 54.7295 42.7034 59.764C36.5021 58.9975 28.8292 58.0393 22.3826 61.4427C24.3526 56.7975 25.5331 56.3376 24.9735 55.9697C24.9445 55.9499 24.9119 55.9361 24.8775 55.9292C24.843 55.9224 24.8076 55.9225 24.7732 55.9297C24.7389 55.9368 24.7063 55.9508 24.6775 55.9709C24.6487 55.991 24.6242 56.0166 24.6056 56.0463C24.4063 56.3453 21.6084 60.9675 21.5395 61.9103C20.4587 62.5695 18.1514 64.2559 17.4615 65.582C14.6435 65.6369 11.8975 66.4815 9.53559 68.0196C11.8658 58.9975 19.2322 51.5085 30.8451 46.3344L30.8758 46.3574ZM10.9997 79.8318C8.07152 76.7657 8.70007 71.6376 9.30563 68.8244C16.787 63.9109 26.6752 66.0112 38.7097 75.0793C34.6625 76.8117 16.9786 86.033 10.9997 79.8318ZM18.2357 65.5667C24.322 58.8289 33.1217 59.2581 42.3891 60.4002C40.0128 65.8809 39.8059 71.6682 41.7912 76.3901C34.8924 71.2236 26.7442 65.5437 18.2357 65.5437V65.5667ZM52.6376 83.1969C45.0873 83.1969 41.0323 76.5664 41.1396 69.2077C51.8711 64.3862 61.2457 61.918 71.5173 61.2051C80.8996 60.5535 87.2158 62.2629 91.3551 66.5708C71.134 71.101 62.7865 83.1739 52.6376 83.1739V83.1969ZM98.9974 82.3537C91.493 84.0477 79.0676 79.6172 70.2372 76.0835C84.3107 67.7743 96.9737 64.6392 108.924 66.5018C109.867 75.064 106.341 80.6903 98.9974 82.3537ZM109.629 70.7484C110.027 66.316 109.09 61.8659 106.939 57.9703C115.171 55.8394 122.124 57.0812 128.164 61.757C120.23 62.3472 112.235 68.5408 109.622 70.7484H109.629ZM130.479 76.7043C125.788 76.7043 115.915 72.1052 111.369 70.2502C116.229 66.5708 121.986 62.6692 128.915 62.3932C131.622 62.226 134.322 62.8181 136.711 64.1026C138.765 71.032 137.738 76.6584 130.471 76.7043H130.479Z" fill="#fff"/>
</svg>
