<svg width="154" height="154" viewBox="0 0 154 154" fill="none" xmlns="http://www.w3.org/2000/svg">
<path d="M51.2962 87.0932C51.5185 87.5608 51.7944 88.151 52.3387 88.2276C53.5345 88.2276 55.2745 87.3078 54.7686 86.02C54.4997 85.3365 54.1926 84.6685 53.8487 84.0194C53.6571 83.3448 53.3812 82.7086 52.6989 82.6243C52.0683 82.666 51.4659 82.9016 50.9742 83.2988C49.5408 84.0194 50.338 85.0389 51.2962 87.0932ZM50.4607 84.165C50.6446 83.5901 51.7944 83.0919 52.5916 83.0459C53.1052 83.1149 53.2738 83.8737 53.5421 84.3413C53.9407 85.0159 54.9372 86.1887 54.4466 86.9399C54.213 87.2593 53.9055 87.5175 53.5505 87.6924C53.1954 87.8672 52.8033 87.9536 52.4077 87.944C51.9094 87.7984 51.7254 87.1775 51.4648 86.5643C51.2042 85.9511 50.2154 84.9546 50.4607 84.165ZM58.6932 82.8389C58.1873 81.5358 57.5204 79.8571 56.317 80.6313C55.5504 80.9763 54.8452 81.2139 54.6076 81.7658C54.5339 82.0269 54.5226 82.3016 54.5745 82.5679C54.6264 82.8342 54.7402 83.0846 54.9065 83.2988C55.3818 84.188 55.88 86.8019 57.5741 85.9051C59.1225 85.1845 59.7894 84.9316 58.6932 82.8389ZM56.3936 85.4145C56.0433 84.8907 55.7406 84.3366 55.4891 83.7588C54.9372 82.655 53.9561 81.8041 55.7881 81.2829C57.3748 80.4397 57.3211 81.0529 58.1796 82.8159C58.4479 83.3832 58.8235 83.6285 58.9462 84.464C59.0152 84.9622 58.5322 85.2305 57.9957 85.3762C58.0033 85.1309 57.0528 86.2193 56.4166 85.4145H56.3936ZM62.7865 79.5735C62.2882 78.5387 62.1043 78.3931 61.6367 78.2781C61.1156 78.286 60.6096 78.4546 60.1879 78.761C58.6549 79.6042 59.1225 80.0948 59.7127 81.5205C60.9085 84.4027 61.3454 84.326 63.2387 83.0536C63.3753 82.989 63.4975 82.8977 63.5981 82.785C63.6987 82.6723 63.7756 82.5405 63.8242 82.3975C63.8728 82.2545 63.8922 82.1031 63.8812 81.9525C63.8701 81.8018 63.8289 81.6549 63.76 81.5205C63.4899 80.8457 63.1643 80.1945 62.7865 79.5735ZM62.6945 82.9769C60.7935 83.8278 61.2841 83.6821 59.9657 81.3672C59.705 80.8536 59.2911 80.547 59.3754 79.7575C59.4751 79.3589 60.0423 79.0906 60.3872 78.9909C62.1503 78.2244 61.9203 78.761 63.0624 80.777C63.4041 81.1866 63.6079 81.6936 63.645 82.2257C63.5377 82.8313 62.4645 82.9769 62.6945 82.9769ZM69.3633 74.1848C68.4358 74.821 68.9571 75.8558 69.5473 76.814C70.1605 78.2244 70.6511 79.6502 72.0462 78.761C73.4183 78.0711 74.0315 77.9945 73.4259 76.561C73.1725 75.8932 72.8649 75.2471 72.5061 74.6294C71.7242 72.9047 70.9884 73.2803 69.3633 74.1848ZM70.1988 74.1388C70.6971 73.8705 71.2183 73.6099 71.6322 73.9012C72.0353 74.335 72.3249 74.8616 72.4754 75.4343C72.8894 76.3464 74.2078 77.7338 72.759 78.1708C71.4636 78.853 70.7814 79.0599 70.2525 77.6265C69.9612 77.0056 69.0644 75.6029 69.118 74.8594C69.3863 74.4684 69.6086 74.4531 70.1988 74.1388ZM73.8475 73.288C74.7674 75.2426 75.2119 77.4426 76.8063 76.4307C77.8105 75.9248 78.8913 75.4649 78.3394 74.3994C78.0548 73.7127 77.7323 73.0422 77.3736 72.3911C76.8753 71.3563 76.6837 71.203 76.2161 71.0957C75.695 71.1036 75.189 71.2722 74.7674 71.5786L74.4071 71.7702C74.2684 71.8305 74.1434 71.9182 74.0396 72.0281C73.9358 72.1379 73.8553 72.2677 73.803 72.4095C73.7507 72.5514 73.7277 72.7023 73.7353 72.8533C73.743 73.0043 73.7812 73.1521 73.8475 73.288ZM76.4537 71.5096C76.8535 71.9446 77.1404 72.471 77.2892 73.0427C77.9178 74.1082 78.7533 75.3423 77.5805 75.7715C75.6949 76.745 75.7332 76.4921 74.936 74.798C74.1005 73.3799 73.3186 72.4984 74.7904 71.8775C74.7904 72.0079 75.8865 71.1493 76.4537 71.5096ZM65.3007 79.4892C64.6108 78.3547 64.8868 78.2244 63.8903 76.9136C64.2122 78.3394 64.4269 78.1708 64.9788 79.4355C65.2691 80.2321 65.6579 80.9892 66.1362 81.6891C66.2435 81.5742 66.3662 81.5818 65.9676 80.7846C65.7746 80.3384 65.5518 79.9056 65.3007 79.4892ZM67.378 77.1513C67.1317 76.5728 66.8233 76.0228 66.4582 75.5109C66.5686 76.1386 66.8031 76.738 67.148 77.2739C67.7613 78.3547 67.9836 79.4279 68.7194 80.34C69.1027 79.9874 68.0142 78.692 67.378 77.1513ZM20.8956 101.519C20.0217 99.8866 20.2364 99.7639 19.4238 98.9591C19.5313 99.5254 19.7502 100.065 20.0677 100.546C20.681 101.619 20.9109 102.7 21.6391 103.612C21.8691 103.405 20.9416 101.604 20.8956 101.519ZM23.9847 102.431C24.1993 102.224 24.0537 102.179 23.9081 101.811C23.6092 101.145 23.2766 100.495 22.9116 99.8636C22.6113 99.0941 22.2202 98.3633 21.7464 97.6866C22.0914 99.1814 22.2983 98.9667 22.8426 100.232C23.1264 101.011 23.5103 101.751 23.9847 102.431ZM28.0856 97.472C27.9006 96.8208 27.5821 96.2152 27.1505 95.6936C26.6062 95.2414 26.0697 95.5173 25.5484 95.7703C24.2913 96.3835 24.138 96.5368 24.0844 97.0044C24.1013 97.5726 24.2823 98.1236 24.6056 98.5911C25.7017 100.668 25.4641 101.657 27.6717 100.576C27.9529 100.523 28.2124 100.389 28.4181 100.19C28.6238 99.9914 28.7667 99.7366 28.8292 99.4573C28.7123 98.7536 28.4598 98.0793 28.0856 97.472ZM28.5226 99.8176C27.9783 100.415 27.5951 100.362 26.9895 100.684C26.3839 101.006 26.085 100.553 25.7477 100.063C24.7052 97.9626 24.0537 97.449 24.5826 96.7975C24.6716 96.6913 24.7815 96.6045 24.9055 96.5425C25.0294 96.4805 25.1648 96.4447 25.3031 96.4372C26.3993 95.8699 26.8362 95.6707 27.3881 96.6595C28.2083 98.5451 28.7985 99.0051 28.5226 99.8176ZM32.6005 95.7167C32.2709 94.3982 31.4124 92.7732 30.3009 93.509C29.5344 93.854 28.8292 94.0916 28.5916 94.6435C28.5168 94.904 28.5042 95.1784 28.5548 95.4447C28.6054 95.7109 28.7177 95.9616 28.8828 96.1766C29.3657 97.0734 29.864 99.6796 31.5504 98.7904C33.0144 98.1465 33.0834 98.0239 33.1754 97.6636C33.2202 97.317 33.1922 96.9648 33.0932 96.6295C32.9942 96.2943 32.8264 95.9834 32.6005 95.7167ZM31.903 98.2845C30.6229 98.9514 30.4466 98.4915 30.3699 98.3535C30.139 98.0705 29.9552 97.7522 29.8257 97.4107C29.1588 95.7473 27.7407 94.7278 29.772 94.1376C31.558 93.1871 31.3051 94.1376 32.4319 96.1382C32.6862 96.4938 32.847 96.9077 32.8995 97.3417C32.9608 97.7556 32.6542 97.9013 31.903 98.2845ZM33.643 91.7537C33.3757 91.8933 33.172 92.1299 33.0736 92.415C32.9753 92.7001 32.9897 93.012 33.1141 93.2867C33.9956 95.0498 34.4249 97.4873 36.1112 96.4142C37.3607 95.7703 37.7133 95.6477 37.7133 95.1877C37.8589 94.4212 36.5021 92.068 36.5405 92.1216C35.7969 90.5272 35.1071 91.0101 33.643 91.7537ZM34.7315 91.6464C35.9349 91.0255 36.1112 92.1446 36.9544 93.6623C37.422 94.4289 37.9126 95.1954 37.0694 95.64C36.8042 95.7892 36.5304 95.9223 36.2492 96.0386C34.6701 96.7131 35.0994 95.9849 33.9496 94.2296C33.7043 93.7313 33.2827 93.4094 33.367 92.6199C33.4667 92.1753 33.85 92.1063 34.7315 91.6464ZM43.7305 90.4506C44.2518 91.5237 44.4357 91.769 44.888 91.8303C46.0608 91.8303 46.651 90.9948 46.651 91.2324C47.5479 90.5886 47.8621 90.4659 46.3674 87.6298C45.8998 86.6103 45.7235 86.3803 45.2176 86.25C44.5871 86.2982 43.9858 86.5361 43.4929 86.9322C41.8525 87.7371 43.2016 89.0555 43.7305 90.4506ZM45.072 86.6179C45.5779 86.6946 45.7542 87.4458 46.0225 87.9287C46.2907 88.4116 46.6817 89.0785 47.019 89.753C47.2872 90.2666 46.9806 90.8568 46.766 90.8952C44.658 92.0143 44.612 91.6617 43.9682 90.1823C43.8762 89.9753 43.7995 89.9753 43.0713 88.5036C42.4198 87.2925 44.1291 86.6869 45.072 86.6179ZM38.3265 91.4854C38.6178 91.9913 39.4763 93.785 39.9822 94.5975C40.3501 94.2296 39.3613 92.9725 38.7711 91.654C38.5094 91.0108 38.1357 90.4191 37.6673 89.9063C37.7753 90.4727 37.9998 91.0104 38.3265 91.4854ZM41.155 90.4506C41.4098 90.877 41.6302 91.323 41.8142 91.7843C42.0518 92.2519 42.4428 92.9265 42.6267 93.2101C42.9947 92.8498 41.9982 91.5544 41.4156 90.2666C41.1471 89.6101 40.7657 89.0056 40.2888 88.4806C40.4499 89.1863 40.7439 89.8548 41.155 90.4506ZM48.736 86.7712C48.5227 86.1212 48.1634 85.5287 47.6858 85.0389C47.9465 86.2653 48.2531 86.319 48.7513 87.4688C48.828 87.6527 49.7248 89.9063 49.9701 89.6534C50.2154 89.4004 48.6977 86.6946 48.736 86.7712ZM46.8426 78.738C47.3716 79.6118 47.9694 80.8996 47.9311 80.8153C47.9927 80.9544 48.0839 81.0783 48.1984 81.1784C48.313 81.2785 48.448 81.3523 48.5941 81.3947C48.7402 81.4371 48.8938 81.4469 49.0441 81.4237C49.1944 81.4004 49.3378 81.3445 49.4642 81.2599C50.338 80.7003 51.9554 80.7463 50.7903 78.5847C50.502 77.8446 50.1586 77.1272 49.7631 76.4384C49.0579 75.2733 47.7701 76.2621 47.4635 76.3541C47.1394 76.4919 46.8491 76.6985 46.6127 76.9596C46.1758 77.8028 46.7583 78.4007 46.8426 78.738ZM48.0691 76.4384C49.5025 75.8865 49.2879 76.676 50.5143 78.738C51.5875 80.524 50.5143 80.2711 50.5143 80.6313C50.407 80.524 50.5143 80.6313 50.315 80.6313C48.0998 81.5665 48.4754 81.0912 47.0803 78.646C46.7047 77.8795 46.5437 77.5192 46.789 77.1129C47.1596 76.7948 47.5971 76.5642 48.0691 76.4384ZM51.5262 76.3158C51.8185 77.084 52.1511 77.8362 52.5226 78.5694C52.5836 78.7092 52.6754 78.8334 52.7911 78.9327C52.9068 79.0321 53.0435 79.104 53.191 79.1431C53.3384 79.1821 53.4928 79.1874 53.6425 79.1584C53.7923 79.1294 53.9335 79.0669 54.0557 78.9756C54.6306 78.6537 55.3741 78.5234 55.7344 77.9485C55.8389 77.6975 55.8748 77.4233 55.8385 77.1539C55.8021 76.8845 55.6948 76.6297 55.5274 76.4154C55.0445 75.4879 54.9679 75.0663 54.5003 74.2001C53.7338 72.8434 52.1087 74.2461 52.2007 74.1541C51.8237 74.2636 51.4876 74.4823 51.2349 74.7827C51.0432 75.166 51.1352 75.5339 51.5262 76.3158ZM52.2927 74.3228C53.2508 73.9625 53.6034 73.7019 54.1707 74.706C55.2438 77.1206 56.7156 78.0251 54.0327 78.6997C52.9749 79.0906 52.8829 78.554 52.216 77.3122C50.8823 74.8057 51.3575 74.936 52.3157 74.3534L52.2927 74.3228ZM61.2151 71.7012C62.2729 73.8169 62.3036 74.1005 62.8555 74.3534C63.6615 74.345 64.4374 74.0456 65.0401 73.5103C65.2597 73.2601 65.3919 72.9454 65.4168 72.6135C65.4417 72.2816 65.3579 71.9506 65.1781 71.6706C64.9788 71.5556 65.0554 71.203 64.0819 69.371C63.438 68.2212 61.7823 68.9724 60.9238 69.9536C60.6172 70.5208 61.0081 70.996 61.2151 71.7012ZM61.2151 69.9536C61.4451 69.6239 62.7482 69.187 62.6792 69.233C63.783 68.8191 63.9133 70.1605 64.7411 71.41C65.0099 71.7711 65.1551 72.2092 65.1551 72.6594C65.0784 73.3416 64.4805 73.5562 63.7753 73.7939C62.8018 74.3688 62.3496 73.2113 61.9433 72.4524C61.537 71.6936 60.6632 70.5208 61.1998 69.9536H61.2151ZM57.2521 75.5262C57.4736 76.0788 57.7758 76.5954 58.149 77.0593C58.5016 76.7067 57.5128 75.4266 56.9302 74.1311C56.6582 73.4724 56.2744 72.8655 55.7957 72.3375C56.294 74.1235 56.7616 74.2615 57.2521 75.5262ZM59.7894 74.1082C60.0394 74.6685 60.3315 75.2092 60.6632 75.7255C61.0311 75.3576 60.05 74.1005 59.4521 72.7821C59.1834 72.1233 58.8021 71.5164 58.3253 70.9884C58.8848 72.9507 59.3754 72.9047 59.7894 74.1082ZM66.5808 69.3787C67.0207 70.3247 67.512 71.2459 68.0525 72.1382C68.4205 71.7626 67.447 70.5514 66.8338 69.1947C66.5778 68.5324 66.2038 67.9221 65.73 67.3933C65.8845 68.1033 66.1733 68.7771 66.5808 69.3787ZM70.0915 68.9877C70.3531 69.5438 70.6474 70.0839 70.973 70.6051C71.3333 70.2525 70.3598 68.9341 69.7772 67.654C69.5023 67.0169 69.1213 66.4312 68.6504 65.9216C69.233 67.9759 69.6776 67.7689 70.0915 68.9877ZM72.9353 67.6693C73.1953 68.2287 73.4897 68.7714 73.8169 69.2943C74.1848 68.9264 73.2036 67.677 72.6057 66.3509C72.337 65.6921 71.9557 65.0852 71.4789 64.5572C72.0538 66.5042 72.5368 66.4888 72.9353 67.6693ZM20.1061 95.7626C20.304 95.6971 20.4778 95.5736 20.6049 95.4083C20.7319 95.243 20.8065 95.0433 20.8189 94.8351C20.5343 93.4953 19.9499 92.2374 19.1096 91.1558C18.8793 90.9841 18.5997 90.8913 18.3124 90.8913C18.0251 90.8913 17.7455 90.9841 17.5152 91.1558C15.9821 91.8533 16.0894 92.2213 16.0511 92.3746C15.9515 93.1411 17.1856 95.6553 17.5842 96.1382C18.1514 96.7591 19.0482 96.3069 20.1061 95.7626ZM18.1207 95.893C17.7221 95.5787 17.4462 94.8121 16.718 93.5397C16.4344 93.0568 16.1738 92.5585 16.4727 92.1139C16.856 91.5237 18.7263 90.7725 19.2399 91.9913C20.0984 94.0303 20.9186 94.5515 20.428 95.2797C19.9374 96.0079 18.55 96.2226 18.1207 95.893ZM20.8343 91.7C22.0071 93.716 21.9151 95.1034 23.9464 93.8463C24.2913 93.7007 24.8509 93.4937 25.0119 93.0798C25.1049 92.8177 25.1325 92.5369 25.0924 92.2618C25.0524 91.9866 24.9458 91.7254 24.7819 91.5007C24.0154 89.9677 23.6244 87.5991 21.5701 89.2011C20.336 90.0673 20.1904 89.7684 20.8343 91.7ZM21.9917 89.3315L22.2753 89.2241C22.8732 88.9942 23.1722 89.2241 23.5018 89.8527C24.6976 92.4742 26.0313 93.0338 23.3868 93.7927C22.329 94.1912 22.2293 93.647 21.5625 92.4052C20.612 90.6499 19.9298 89.937 21.9917 89.3315ZM26.4376 91.4471C26.5207 91.6261 26.6509 91.7791 26.8143 91.8898C26.9776 92.0006 27.168 92.0648 27.3651 92.0756C27.7637 92.0756 27.917 91.9223 28.8982 91.3934C29.7337 91.3934 30.0173 90.2206 29.3811 89.4311C28.5609 87.898 28.2619 85.5984 26.1693 87.1315C25.8474 87.3691 24.7512 87.6987 25.1422 88.6646C25.5063 89.6221 25.9392 90.552 26.4376 91.4471ZM26.5909 87.0625L26.8745 86.9552C27.4724 86.7329 27.7714 87.0012 28.101 87.5838C29.2278 90.052 30.1476 90.4352 28.9825 91.1558H28.8368C26.7365 91.9913 27.1581 91.9223 25.6787 89.1781C25.0885 88.0973 24.9199 87.5761 26.5909 87.0625ZM30.5309 87.1085C30.788 87.5321 31.011 87.9756 31.1978 88.4346C31.443 88.9252 31.811 89.5614 32.0103 89.868C32.3705 89.5001 31.3817 88.2276 30.7915 86.9245C30.5211 86.2667 30.14 85.66 29.6647 85.1309C29.829 85.8378 30.1227 86.5083 30.5309 87.1085ZM33.7273 86.9859C33.9866 87.5471 34.2836 88.09 34.6165 88.6109C34.9844 88.243 33.9956 86.9782 33.4054 85.6674C33.1371 85.009 32.7529 84.4041 32.2709 83.8814C32.8305 85.9281 33.2904 85.7211 33.7273 86.9859ZM49.6175 92.3209C48.4754 93.0874 49.0579 93.7083 49.5485 94.8888C50.5986 97.426 50.8286 97.8399 53.1359 96.4219C53.2668 96.3513 53.3815 96.2538 53.4722 96.1359C53.563 96.018 53.6278 95.8823 53.6625 95.7376C53.6973 95.5929 53.7011 95.4425 53.6737 95.2963C53.6464 95.15 53.5885 95.0112 53.5038 94.8888C53.2504 94.2209 52.9427 93.5749 52.584 92.9571C51.7408 91.2171 51.3575 91.4624 49.6175 92.3209ZM50.591 92.2136C51.7868 91.5544 51.9324 92.7502 52.8139 94.2219C53.6954 95.6936 53.4885 96.0079 52.446 96.4525C50.43 97.3187 51.1046 96.7821 49.7785 94.7968C49.5332 94.2986 49.1116 93.9613 49.2189 93.1641C49.3645 92.7502 49.6865 92.6275 50.591 92.2136ZM56.8919 90.5886C56.6926 90.1363 56.4626 89.6304 55.8724 89.4771C55.3172 89.4651 54.7752 89.6467 54.3393 89.9907C53.4195 90.5886 53.1512 90.8415 53.4118 91.5237C53.8487 92.6275 54.4926 93.8693 54.4543 93.8233C54.7226 94.3982 55.0905 95.1188 55.7191 95.0344C56.2857 94.8848 56.8242 94.6441 57.3135 94.3216C57.4518 94.2731 57.5785 94.1963 57.6853 94.096C57.7922 93.9957 57.8768 93.8741 57.9339 93.739C57.9909 93.604 58.0191 93.4586 58.0165 93.312C58.0139 93.1655 57.9807 93.0211 57.919 92.8882C57.6234 92.1016 57.2804 91.3336 56.8919 90.5886ZM57.4131 94.0916C55.9414 94.8581 55.3971 95.2644 54.7839 93.739C54.393 92.7502 52.7986 90.9565 54.163 90.3816C54.6371 90.0401 55.1974 89.8383 55.7804 89.799C56.2863 89.8757 56.4549 90.6115 56.7232 91.0945C57.6431 92.7118 58.3023 93.5167 57.4054 94.0916H57.4131ZM71.8315 84.9392C70.3981 81.2139 69.6316 82.563 68.5661 82.8849C68.242 83.0227 67.9516 83.2293 67.7153 83.4905C67.5863 83.7316 67.5307 84.0053 67.5552 84.2776C67.5797 84.55 67.6833 84.8093 67.8532 85.0235C69.1793 87.6681 69.1334 88.7182 71.5556 87.4075C72.6594 87.0548 72.5138 85.8514 71.8315 84.9392ZM70.8581 87.4994L70.6358 87.5684C69.9535 87.8137 69.6086 87.6987 69.3097 87.1008C67.9989 84.8013 67.6693 84.2034 67.9759 83.7511C68.3253 83.4123 68.7596 83.1739 69.233 83.0612L69.5166 82.9539C70.1222 82.701 70.4365 83.0152 70.7431 83.5671C71.7932 85.8514 73.2113 86.7866 70.8581 87.4994ZM27.6564 108.61C27.5699 108.013 27.3583 107.441 27.0355 106.931C26.1846 105.222 26.0773 104.194 24.3526 105.03C22.8732 105.743 22.3137 106.049 23.4021 107.843C23.9157 108.824 24.1687 110.104 24.9812 110.281C25.7937 110.457 27.5951 109.223 27.6564 108.61ZM24.4063 109.116C23.3485 107.023 22.9959 106.816 23.1032 106.241C23.2105 105.666 25.2955 104.248 26.062 105.712C26.8285 107.406 27.3881 108.058 27.4341 108.564C27.5107 109.33 25.3721 110.526 24.4293 109.093L24.4063 109.116ZM27.5107 105.245C28.3539 106.663 28.7449 108.625 30.1323 107.782C31.0061 107.222 32.6158 107.261 31.443 105.099C31.1514 104.362 30.8055 103.647 30.4082 102.96C29.6417 101.864 28.4306 102.838 28.1086 102.96C26.9895 103.589 26.8285 103.903 27.5107 105.245ZM28.7679 102.945C30.2089 102.393 30.002 103.213 31.2131 105.245C31.5734 105.85 31.8263 106.264 31.627 106.67C31.503 106.899 31.2936 107.07 31.0445 107.146C29.0361 107.989 29.1665 107.621 28.3079 106.08C27.3344 104.325 26.7442 103.482 28.7679 102.96V102.945ZM35.1071 100.806C34.3405 99.4496 32.7155 100.852 32.8458 100.76C32.6472 100.774 32.4557 100.839 32.2904 100.95C32.1251 101.061 31.9919 101.213 31.9041 101.392C31.8163 101.571 31.7771 101.769 31.7904 101.968C31.8036 102.166 31.8689 102.358 31.9796 102.523C32.267 103.435 32.6552 104.312 33.1371 105.137C33.2007 105.275 33.2929 105.397 33.4077 105.495C33.5225 105.594 33.657 105.667 33.8023 105.709C33.9477 105.751 34.1003 105.761 34.25 105.74C34.3997 105.718 34.543 105.664 34.6701 105.582C35.0227 105.344 36.1495 104.9 36.2032 104.815C36.3963 104.558 36.4969 104.243 36.4885 103.922C36.4802 103.601 36.3634 103.291 36.1572 103.045C35.7586 102.385 35.59 101.703 35.1071 100.806ZM36.1265 104.493C35.8257 104.793 35.4659 105.026 35.0701 105.179C34.6742 105.332 34.2509 105.402 33.827 105.383C33.436 105.222 33.1907 104.57 32.3322 102.991C32.0026 102.378 31.834 102.094 31.9566 101.558C31.9566 101.289 32.7232 100.944 32.8458 100.944C34.6855 100.278 34.1489 100.607 35.6436 103.106C35.9732 103.612 36.3872 104.003 36.1265 104.493ZM44.773 100.592C45.7465 100.132 46.628 99.5876 46.0761 98.6295C45.8038 97.9473 45.4862 97.2841 45.1256 96.6441C44.6274 95.617 44.4434 95.4637 43.9758 95.3487C43.4539 95.3593 42.948 95.5306 42.5271 95.8393C40.994 96.6671 41.5766 97.472 41.6302 97.564C42.826 99.9632 42.9257 101.711 44.773 100.592ZM42.1591 98.1159C42.0163 97.9432 41.9095 97.7437 41.845 97.5292C41.7805 97.3146 41.7596 97.0892 41.7835 96.8664C41.8985 96.4525 42.3661 96.2609 42.7954 96.0999C44.5047 95.3794 44.2211 95.9159 45.3939 97.9549C46.2984 99.488 46.0838 99.7409 45.026 100.193C43.125 101.036 43.6922 100.691 42.1591 98.1159ZM37.7669 101.772C38.0323 102.365 38.3424 102.936 38.6944 103.482C38.8247 103.359 38.9397 103.367 38.5411 102.569C38.3442 102.132 38.1162 101.709 37.8589 101.305C37.2533 100.239 37.4297 99.9786 36.3258 98.6908C37.0311 100.684 37.2917 100.461 37.7669 101.772ZM38.8477 97.3494C40.9097 101.312 40.7257 101.466 41.4233 102.263C41.7759 101.91 40.7871 100.63 40.2045 99.3347C39.9055 98.5803 39.442 97.902 38.8477 97.3494ZM46.4211 93.946C46.697 95.2337 46.9806 95.2261 47.4942 96.4142C47.7769 97.2126 48.1635 97.9703 48.644 98.6678C48.759 98.5605 48.8816 98.5605 48.483 97.7709C48.2934 97.3315 48.0678 96.9085 47.8085 96.5062C47.3486 95.5787 47.3486 94.9808 46.4211 93.946ZM56.8995 98.0316C57.0595 98.6162 57.2939 99.1778 57.5971 99.7026C58.0877 100.661 58.3636 101.435 58.9768 101.527C59.8481 101.386 60.6732 101.039 61.3837 100.515C61.0848 100.216 60.3642 101.197 58.9922 101.282C58.4862 101.136 58.3023 100.515 58.0493 99.9019C57.7964 99.2887 56.225 97.472 57.5971 96.9201C58.06 96.5643 58.6232 96.3632 59.2068 96.3452C59.7127 96.4219 59.8813 97.1117 60.1573 97.6406C61.1921 99.4803 61.4527 99.8022 61.1614 100.316L61.3224 100.415C61.4268 100.259 61.4899 100.078 61.506 99.8907C61.5221 99.7031 61.4906 99.5145 61.4144 99.3423C61.0311 98.3765 60.3336 96.9738 60.3719 97.0427C60.165 96.5905 59.9427 96.0846 59.3524 95.9389C58.8705 95.9332 58.4007 96.0898 58.0187 96.3835C57.1985 96.7591 56.5929 97.2114 56.8995 98.0316ZM64.1816 99.1507L65.1934 98.6371C65.3284 98.5421 65.4428 98.4207 65.5298 98.2804C65.6168 98.1401 65.6745 97.9836 65.6996 97.8204C65.7246 97.6572 65.7165 97.4906 65.6756 97.3307C65.6347 97.1707 65.562 97.0206 65.4617 96.8894C65.2255 96.2752 64.9463 95.6784 64.6262 95.1034C64.2429 94.2679 64.0589 93.9613 63.484 93.877C62.9614 93.8835 62.4543 94.0552 62.0353 94.3676L61.6673 94.5669C61.3902 94.6974 61.1728 94.9282 61.059 95.2127C60.9452 95.4972 60.9435 95.8142 61.0541 96.0999C61.7057 97.0581 62.4799 100.316 64.1816 99.1507ZM62.3879 94.5515C63.3231 94.1606 63.7906 93.9843 64.1432 94.6052C65.9063 97.6713 66.1286 97.9549 64.6951 98.5681C62.8861 99.3347 63.3154 99.1354 62.02 96.8511C61.6102 96.4453 61.3762 95.8947 61.3684 95.3181C61.491 94.9425 61.9433 94.7508 62.3879 94.5669V94.5515ZM27.5107 114.903C26.7442 113.546 26.9129 113.209 26.039 112.335C26.1451 112.902 26.3641 113.441 26.6829 113.922C27.3191 115.026 27.5184 116.06 28.2619 116.988L28.3233 116.919C28.1344 116.217 27.8616 115.54 27.5107 114.903ZM30.6612 115.938C30.6612 115.118 29.8333 113.975 29.4807 113.247C29.1925 112.479 28.817 111.746 28.3616 111.063C28.7065 112.596 28.9058 112.343 29.4577 113.615C29.7395 114.446 30.1453 115.229 30.6612 115.938ZM35.2604 113.232C35.3638 112.98 35.3985 112.706 35.3608 112.436C35.323 112.167 35.2143 111.912 35.0457 111.699C34.5245 110.702 34.5092 110.396 34.0109 109.476C33.2444 108.119 31.581 109.56 31.7113 109.476C31.3351 109.583 30.999 109.799 30.7455 110.097C30.4389 110.564 30.7455 111.086 30.9601 111.546C31.2488 112.329 31.5789 113.097 31.949 113.845C32.5315 115.018 33.6123 114.152 34.0646 113.952C33.8959 114.129 33.8423 114.113 34.4095 113.845C34.7504 113.735 35.048 113.52 35.2604 113.232ZM35.0227 113.155C34.9163 113.347 34.7491 113.498 34.5475 113.584C33.4897 113.822 32.8151 114.489 32.2479 113.416C30.4389 110.25 30.6152 110.281 31.8263 109.514C33.666 108.824 33.1447 109.192 34.6241 111.668C35.3753 112.833 35.0151 113.01 35.0381 113.155H35.0227ZM36.3795 111.676C36.4478 111.809 36.5423 111.926 36.6574 112.022C36.7725 112.117 36.9058 112.188 37.0491 112.23C37.1925 112.273 37.3429 112.285 37.4914 112.268C37.6398 112.25 37.7831 112.203 37.9126 112.128L38.6178 111.814C39.461 111.637 40.0972 110.909 39.6219 110.112C39.241 109.137 38.8086 108.182 38.3265 107.253C37.6749 106.026 36.3795 107.008 35.9732 107.123C35.6486 107.263 35.3583 107.472 35.1224 107.736C34.9934 107.977 34.9378 108.251 34.9623 108.523C34.9868 108.795 35.0904 109.055 35.2604 109.269C35.6922 110.043 36.0663 110.847 36.3795 111.676ZM35.4367 108.004C35.7884 107.663 36.2251 107.422 36.7014 107.307L36.9851 107.199C37.583 106.946 37.8972 107.276 38.2038 107.82C39.162 109.928 39.7369 110.12 39.461 110.94C39.2638 111.298 38.9419 111.571 38.5565 111.706C36.7704 112.281 37.238 112.09 35.7509 109.545C35.0074 108.372 35.4367 108.081 35.4367 108.004ZM43.9145 107.314C43.148 105.781 42.7954 103.482 40.7027 105.015C40.3195 105.298 39.9362 105.36 39.7369 105.705C39.415 106.218 39.7369 106.647 39.9822 107.445C40.9864 109.223 40.9634 110.02 41.9139 110.066C42.3738 110.066 44.1215 109.392 44.2134 108.41C44.2443 108.217 44.2336 108.019 44.182 107.83C44.1305 107.641 44.0393 107.465 43.9145 107.314ZM43.9912 108.778C43.8685 109.062 41.8065 110.311 41.1933 109.07C41.155 108.993 39.9822 106.893 39.8136 106.456C39.7577 106.292 39.7497 106.115 39.7904 105.947C39.8311 105.779 39.9189 105.626 40.0435 105.505C40.4726 105.248 40.9306 105.042 41.4079 104.892C42.5041 104.486 42.5884 105.712 43.5696 107.391C43.9988 108.081 44.2134 108.372 43.9912 108.763V108.778ZM52.6606 100.232C52.5672 100.071 52.4396 99.9338 52.2871 99.8284C52.1345 99.723 51.9607 99.6525 51.7778 99.6218C51.595 99.5911 51.4076 99.6009 51.229 99.6507C51.0504 99.7004 50.8849 99.7888 50.7443 99.9096C50.2643 100.09 49.8262 100.367 49.4565 100.722C49.3296 100.964 49.2758 101.238 49.3016 101.51C49.3275 101.782 49.4319 102.041 49.6022 102.255C50.43 103.842 50.6063 105.107 51.7255 105.183C52.0091 105.183 52.0857 105.107 53.0286 104.639C54.7686 104.018 54.094 103.167 52.6606 100.232ZM52.9289 104.524C52.0014 104.884 51.6641 105.59 50.8669 103.88C50.315 102.707 48.9889 101.098 50.223 100.676C50.714 100.31 51.3048 100.101 51.9171 100.078C52.3617 100.14 52.285 100.316 53.8564 103.206C54.071 104.171 53.2892 104.248 52.9289 104.524ZM46.5667 107.92C46.6434 107.843 46.6893 107.805 46.6817 107.721C46.628 107.245 45.4936 105.498 45.1486 104.57C44.9532 104.053 44.6791 103.57 44.3361 103.137C44.4503 103.748 44.682 104.331 45.0183 104.854C45.5319 105.781 46.0378 107.391 46.5667 107.92ZM49.2419 106.617C49.4489 106.41 49.3109 106.356 49.1652 105.988C48.8657 105.324 48.5305 104.677 48.1611 104.049C47.8607 103.278 47.4723 102.545 47.0036 101.864C47.3332 103.328 47.5785 103.206 48.0921 104.378C48.383 105.168 48.7691 105.92 49.2419 106.617ZM56.5163 102.983C56.7616 102.746 56.5163 102.401 56.4319 102.309C56.0334 101.343 55.7881 101.136 55.4278 100.385C55.113 99.6138 54.7254 98.8746 54.2703 98.1772C54.6076 99.7103 54.8146 99.465 55.3665 100.73C55.6492 101.528 56.0358 102.286 56.5163 102.983ZM59.1915 106.333C58.9615 105.912 58.8005 105.145 58.0493 104.953C57.2828 104.953 55.7497 105.774 55.5964 106.379C55.3818 107.146 56.8612 110.434 57.6891 110.549C58.4556 110.549 60.0576 109.782 60.1496 109.1C60.2416 108.418 59.5057 106.908 59.1915 106.333ZM57.6124 110.281C57.2445 110.158 57.0682 109.69 56.7462 108.932C56.6542 108.717 55.5811 107.138 55.7957 106.417C55.949 105.904 57.1755 105.421 57.873 105.375C58.2563 105.436 58.4479 105.881 58.6396 106.272C58.9922 107.153 60.0193 108.403 59.912 109.085C59.7894 109.905 57.988 110.38 57.6124 110.281ZM64.4575 106.264C64.0743 105.298 63.3844 103.896 63.415 103.965C63.3465 103.712 63.218 103.48 63.0405 103.288C62.863 103.096 62.6418 102.949 62.3956 102.861C61.9151 102.857 61.4476 103.017 61.0695 103.313C60.6939 103.543 60.1036 103.773 59.9273 104.256C59.8375 104.488 59.8375 104.745 59.9273 104.976C60.2426 105.774 60.6008 106.555 61.0005 107.314C61.2151 107.79 61.491 108.372 62.0353 108.456C62.7405 108.456 64.2736 107.797 64.5188 107.031C64.5603 106.905 64.5763 106.773 64.5658 106.641C64.5552 106.51 64.5184 106.381 64.4575 106.264ZM62.0889 108.134C61.698 108.027 60.0423 105.114 60.1573 104.386C60.2723 103.658 61.5677 103.244 62.2959 103.198C62.7098 103.259 64.4958 106.456 64.3349 107.031C64.1739 107.606 62.7482 108.081 62.0889 108.134ZM68.1369 102.002C67.6769 100.983 67.5006 100.745 66.9947 100.622C66.3641 100.664 65.7617 100.9 65.27 101.297C64.5878 101.642 64.3349 102.132 64.5648 102.746C64.8681 103.543 65.2136 104.323 65.5997 105.084C65.9293 105.812 66.2129 106.157 66.6191 106.21C67.1864 106.287 68.9954 105.551 69.164 104.754C69.218 104.523 69.1937 104.28 69.095 104.064C68.2212 101.765 67.9759 102.002 68.1369 102.002ZM66.6881 105.919C66.1975 105.781 66.0136 105.153 65.7453 104.539C65.5537 104.087 64.5418 102.868 64.7871 102.102C64.9788 101.512 66.1362 101.029 66.9028 100.983C67.401 101.059 67.5773 101.749 67.8456 102.278C68.4665 103.359 69.0184 104.148 68.9724 104.677C68.8804 105.375 67.2707 105.888 66.6881 105.919ZM69.1793 99.511C69.463 100.868 70.2678 101.611 70.4058 102.355C69.9842 102.508 69.3173 103.121 69.5703 103.336C69.9733 103.464 70.3827 103.572 70.7967 103.658C71.1187 103.704 71.1417 103.658 71.41 104.21C71.5863 104.033 71.5939 103.988 71.4943 103.811C73.196 103.811 73.8552 103.19 75.166 101.872C75.3995 101.66 75.6149 101.43 75.8098 101.182C76.4001 101.864 79.6425 100.822 78.738 99.327C79.3686 98.9686 80.0695 98.7515 80.7923 98.6908C80.9084 98.9435 81.0636 99.1763 81.2522 99.3807C81.4285 99.2044 81.3748 99.1047 81.1296 98.6141C82.194 98.4685 83.2716 98.4454 84.3413 98.5451C86.1887 99.0127 87.7141 97.6023 86.7482 96.6518C84.5866 95.1187 79.8495 95.7013 77.3506 96.5522C77.1273 96.2801 76.8286 96.0801 76.4921 95.9773C76.0112 95.9712 75.5429 96.1309 75.166 96.4295L74.7827 96.6441C74.6506 96.6893 74.5297 96.7623 74.4284 96.8583C74.327 96.9542 74.2474 97.0709 74.1951 97.2003C74.1427 97.3297 74.1188 97.4689 74.125 97.6083C74.1311 97.7478 74.1672 97.8843 74.2308 98.0086C74.5681 98.5298 74.2998 98.3842 74.0928 98.7751C72.2378 101.006 73.7785 100.684 71.7932 98.2309C72.0462 99.4266 72.3528 99.5263 72.759 100.484C72.2366 101.261 71.4986 101.869 70.6358 102.232C69.8002 100.415 69.9305 100.262 69.1793 99.511ZM78.3777 99.281C78.4721 99.417 78.5383 99.5704 78.5726 99.7323C78.6068 99.8942 78.6083 100.061 78.577 100.224C77.9743 100.771 77.2104 101.107 76.4001 101.182C76.2548 101.112 76.1184 101.024 75.9938 100.921C76.6509 100.187 77.477 99.6241 78.4007 99.281H78.3777ZM76.8447 96.2609C77.5269 96.7745 76.561 96.2609 74.5451 98.0392C73.9012 96.7975 76.4614 96.0233 76.86 96.2609H76.8447ZM33.0988 119.218C32.9301 118.904 32.7308 118.038 31.9566 117.839C31.3259 117.88 30.7236 118.116 30.2319 118.513C29.1358 118.897 29.3428 120.2 30.0096 121.142C30.6075 122.522 30.9831 123.358 31.5964 123.442C32.6235 123.442 34.3942 122.576 33.9726 121.265C33.7581 120.553 33.465 119.866 33.0988 119.218ZM31.5657 123.197C31.0674 123.059 30.8758 122.43 30.6229 121.817C30.5692 121.694 30.1399 120.997 30.1859 121.05C29.772 120.138 29.2278 119.188 30.1476 118.82C30.6214 118.483 31.1778 118.282 31.7573 118.237C32.1406 118.299 32.3322 118.743 32.5239 119.134C33.0911 120.537 34.2639 121.51 33.6123 122.354C33.0417 122.833 32.3385 123.127 31.5964 123.197H31.5657ZM38.3801 118.966C37.0081 116.198 36.9851 115.899 36.3105 115.746C35.8026 115.732 35.305 115.891 34.9001 116.198C34.1872 116.597 33.528 117.019 33.8806 117.731C34.3175 118.835 34.9614 120.085 34.9231 120.031C35.1837 120.591 35.5593 121.342 36.1879 121.242C37.146 121.112 38.8247 120.345 38.3801 118.966ZM35.8966 120.882C35.6053 120.775 35.429 120.453 35.2067 119.908C34.8005 118.881 33.6737 117.655 34.1949 116.896C34.7507 116.38 35.4629 116.064 36.2185 115.999C36.7321 116.076 36.9007 116.827 37.169 117.294C37.4373 117.762 37.8359 118.467 38.1732 119.134C38.8171 120.468 36.1572 120.981 35.8966 120.882ZM39.8059 113.791C39.484 113.998 38.8707 114.083 38.5181 114.604C38.394 114.847 38.3418 115.12 38.3676 115.392C38.3934 115.663 38.4961 115.922 38.6638 116.137C39.5299 117.448 39.8519 119.632 41.3006 118.889C42.4274 118.299 43.1863 118.176 43.0483 117.034C43.0101 116.69 42.8833 116.363 42.6804 116.083C42.1591 115.37 41.7682 112.55 39.8059 113.791ZM41.2776 118.582C40.4268 118.759 40.1278 118.437 39.461 117.195C38.6944 115.746 38.2575 115.21 38.6178 114.773C39.1428 114.268 39.8241 113.957 40.5494 113.891C41.27 113.891 41.2546 114.872 42.3201 116.367C43.5542 118.107 41.3926 118.567 41.2776 118.582ZM51.1506 108.939C51.007 108.786 50.8195 108.682 50.614 108.64C49.9752 108.656 49.3589 108.879 48.8586 109.277C47.7625 109.66 47.9618 110.963 48.6287 111.898C49.2266 113.278 49.6022 114.113 50.223 114.198C51.1413 114.117 51.9953 113.692 52.6146 113.01C52.68 112.854 52.7136 112.687 52.7136 112.519C52.7136 112.35 52.68 112.184 52.6146 112.028C52.2587 110.941 51.7668 109.903 51.1506 108.939ZM50.2537 113.991C49.7478 113.853 49.5638 113.224 49.3109 112.611C49.2572 112.488 48.2607 110.948 48.3221 110.181C48.5137 109.606 49.6558 109.116 50.4453 109.054C50.8286 109.116 51.0202 109.56 51.2119 109.951C51.4035 110.342 51.7944 110.971 52.4077 112.189C52.5046 112.376 52.5344 112.589 52.492 112.795C52.2927 113.515 50.8899 113.945 50.2537 113.991ZM44.5584 114.903C43.6922 113.27 43.8992 113.148 43.0866 112.335C43.1915 112.902 43.4106 113.442 43.7305 113.922C44.3744 115.026 44.5661 116.06 45.3096 116.988C45.5472 116.781 44.6044 114.98 44.5584 114.903ZM47.5785 114.359C47.3364 113.784 47.0625 113.224 46.7583 112.68C46.5418 112.03 46.18 111.437 45.7005 110.948C45.9611 112.174 46.2754 112.228 46.766 113.378C48.3374 117.088 48.1151 115.317 47.5785 114.359ZM54.508 109.936C53.6418 108.303 53.8487 108.18 53.0362 107.368C53.148 107.933 53.3666 108.471 53.6801 108.955C54.3087 110.058 54.5233 111.101 55.2132 112.021C55.3818 111.913 55.4891 111.775 54.508 109.936ZM63.7523 116.651C64.1077 116.5 64.4078 116.243 64.6119 115.915C64.816 115.587 64.914 115.204 64.8927 114.819C64.8713 114.433 64.7317 114.063 64.4927 113.76C64.2537 113.457 63.927 113.234 63.5572 113.124C63.1873 113.013 62.7922 113.018 62.4257 113.14C62.0593 113.262 61.7392 113.493 61.5092 113.804C61.2791 114.114 61.1503 114.487 61.1402 114.873C61.1301 115.259 61.2392 115.639 61.4527 115.961C61.7262 116.289 62.09 116.529 62.4988 116.651C62.9077 116.774 63.3436 116.774 63.7523 116.651ZM64.0819 116.114C63.9024 116.242 63.6984 116.331 63.4827 116.377C63.2671 116.422 63.0443 116.422 62.8285 116.378C62.6127 116.333 62.4083 116.245 62.2283 116.117C62.0483 115.99 61.8965 115.827 61.7823 115.639C61.6101 115.357 61.5248 115.031 61.5371 114.701C61.5494 114.371 61.6587 114.052 61.8513 113.784C63.1161 112.044 66.0826 114.619 64.0819 116.114ZM73.0657 119.847C72.9353 119.717 72.6134 119.487 72.4294 119.525C72.1628 119.626 71.9062 119.752 71.6629 119.901C66.1439 122.522 64.4499 123.442 64.6185 123.35C62.7328 124.408 62.02 124.393 61.928 124.883C61.928 125.266 62.0123 125.151 62.1963 126.087C62.2745 126.83 62.426 127.565 62.6485 128.279H62.8555C63.0011 128.233 75.2349 122.147 75.3193 122.101C75.4036 122.055 75.5722 122.001 75.6105 121.894C75.6872 121.641 74.6217 121.181 73.0657 119.847ZM62.7788 128.08C62.6179 127.367 62.5105 126.638 62.4186 125.903C62.4186 125.811 62.2422 124.829 62.2806 124.822C63.5224 124.331 70.2295 120.867 71.5556 120.223C71.7646 120.147 71.9693 120.06 72.1688 119.962C72.5981 119.732 72.828 120.062 73.15 120.315C74.3764 121.28 74.798 121.602 75.2656 121.901C62.6792 128.087 66.2359 126.386 62.7788 128.08ZM73.3953 29.2048C73.5716 29.2048 73.4719 29.2048 73.8015 29.1358C73.3776 29.0326 72.9953 28.8026 72.7054 28.4766V28.3156L72.6517 28.4996C72.5444 28.8905 73.0197 29.1741 73.3953 29.2048ZM75.12 29.8947C75.0422 29.9472 74.9827 30.0227 74.9497 30.1106C74.9167 30.1985 74.9119 30.2945 74.936 30.3852C75.097 30.6919 75.4956 30.3163 75.3729 29.9253C75.4571 29.9203 75.5394 29.898 75.6146 29.8597C75.6897 29.8215 75.7562 29.7681 75.8098 29.703L75.9401 29.4961L75.7102 29.5727C75.5799 29.5727 74.8057 29.6647 74.7367 29.5727L74.821 29.7107C74.9207 29.8333 75.0203 29.8487 75.12 29.8947Z" fill="white"/>
<path d="M72.8204 29.7797C73.0581 29.7797 73.2804 29.2431 73.0197 29.1205C72.6058 28.9288 72.3375 29.7797 72.8204 29.7797ZM72.0922 32.0563C72.2192 32.2904 72.2676 32.5591 72.2302 32.8228C72.3015 32.7731 72.3622 32.7097 72.4086 32.6363C72.4551 32.5629 72.4864 32.4809 72.5006 32.3952C72.5149 32.3095 72.5119 32.2218 72.4918 32.1372C72.4717 32.0527 72.4349 31.973 72.3835 31.903C72.2627 31.7671 72.1117 31.6616 71.9425 31.5951C71.7734 31.5285 71.591 31.5027 71.41 31.5197C71.6887 31.6215 71.9277 31.8094 72.0922 32.0563ZM22.8503 49.0579C23.2926 49.3231 23.8095 49.4361 24.322 49.3799H25.0886C25.226 49.3566 25.367 49.366 25.5002 49.4073C25.6333 49.4485 25.7549 49.5206 25.8551 49.6175C25.5638 49.7478 25.2419 49.8474 25.2419 50.2384C26.0276 52.2966 26.9974 54.2797 28.1394 56.1636C29.6533 58.9728 31.8357 61.3658 34.4939 63.1314C36.2973 64.1188 38.1917 64.93 40.1509 65.5536C39.8827 63.5363 39.504 61.5352 39.0164 59.5594C38.9091 59.0228 37.0695 52.8906 36.9315 52.8906C36.3417 53.0859 35.7046 53.0859 35.1148 52.8906C33.9724 52.4769 32.9016 51.8872 31.9414 51.1429C31.3051 50.6983 30.6536 50.3074 30.002 49.8551C29.7874 49.7095 29.0209 49.9088 29.1665 49.4258C29.3428 46.9959 28.7219 46.6127 26.7826 47.1263C25.9011 47.3409 22.3137 47.9541 22.5667 48.8126C22.6344 48.921 22.7333 49.0065 22.8503 49.0579ZM27.1965 47.2642C27.7254 47.2029 28.3693 47.1186 28.7296 47.6322C28.9672 48.0001 28.8676 48.322 28.8676 48.736V49.5715C27.9666 49.5131 27.0627 49.5131 26.1617 49.5715C26.0605 49.4116 25.9135 49.286 25.7399 49.2108C25.5663 49.1356 25.3741 49.1144 25.1882 49.1499C23.9465 49.1499 23.2029 49.1499 23.0343 48.8126C22.8656 48.4753 23.4252 48.2454 23.6782 48.1534C24.8132 47.727 25.9939 47.4338 27.1965 47.2796V47.2642ZM104.248 107.475L103.244 106.64C102.918 106.395 102.517 106.27 102.11 106.287C101.798 106.324 101.505 106.45 101.263 106.65C101.022 106.849 100.844 107.115 100.75 107.414C100.656 107.712 100.65 108.032 100.734 108.334C100.817 108.636 100.986 108.907 101.22 109.116L102.217 109.951C102.358 110.082 102.525 110.182 102.707 110.244C102.89 110.307 103.083 110.329 103.275 110.311C103.605 110.31 103.926 110.207 104.194 110.015C104.462 109.823 104.664 109.552 104.771 109.24C104.878 108.928 104.885 108.59 104.792 108.274C104.698 107.958 104.508 107.679 104.248 107.475ZM104.133 109.415C103.948 109.635 103.684 109.774 103.398 109.803C103.111 109.832 102.825 109.747 102.6 109.568L101.596 108.732C101.368 108.547 101.223 108.279 101.193 107.988C101.163 107.696 101.25 107.404 101.435 107.176C101.62 106.949 101.888 106.804 102.18 106.774C102.472 106.743 102.763 106.83 102.991 107.015L103.988 107.851C104.203 108.046 104.337 108.316 104.362 108.606C104.388 108.895 104.303 109.184 104.126 109.415H104.133ZM108.341 98.5298C108.001 98.2793 107.576 98.1709 107.156 98.2274C106.737 98.284 106.356 98.5011 106.094 98.833C105.831 99.165 105.708 99.5858 105.75 100.007C105.792 100.428 105.995 100.816 106.318 101.09L107.406 101.926C109.139 103.213 110.978 100.691 109.43 99.373L108.341 98.5298ZM109.307 101.305C109.117 101.535 108.844 101.681 108.547 101.711C108.25 101.741 107.953 101.653 107.721 101.466L106.624 100.63C106.423 100.438 106.302 100.177 106.286 99.8986C106.27 99.6207 106.361 99.3472 106.539 99.1336C106.718 98.92 106.971 98.7823 107.247 98.7484C107.524 98.7146 107.802 98.7872 108.027 98.9514L109.116 99.7946C109.337 99.9725 109.481 100.229 109.516 100.511C109.552 100.793 109.477 101.077 109.307 101.305Z" fill="white"/>
<path d="M146.561 88.68C146.426 88.4505 146.225 88.2669 145.984 88.1531C145.744 88.0393 145.474 88.0006 145.211 88.0419C144.949 88.0833 144.704 88.2028 144.51 88.385C144.316 88.5671 144.181 88.8035 144.123 89.0633H142.912C137.271 89.3466 131.97 91.8418 128.156 96.008C128.088 95.9824 128.026 95.9434 127.974 95.8934C127.921 95.8434 127.879 95.7833 127.85 95.7168C127.637 95.1421 127.465 94.5529 127.336 93.9537C127.234 93.758 127.159 93.5491 127.114 93.3328C127.151 92.6862 127.261 92.0458 127.443 91.4242C127.984 88.5959 128.113 85.7043 127.827 82.839C128.278 82.4322 128.796 82.1078 129.36 81.8809C129.506 82.049 129.69 82.1802 129.896 82.2637C130.103 82.3472 130.326 82.3806 130.548 82.3612C130.77 82.3417 130.984 82.2701 131.173 82.152C131.361 82.0339 131.52 81.8728 131.634 81.6818C131.749 81.4908 131.816 81.2754 131.832 81.0532C131.847 80.831 131.81 80.6084 131.722 80.4035C131.635 80.1986 131.501 80.0172 131.33 79.8743C131.159 79.7314 130.957 79.631 130.74 79.5813C130.557 79.534 130.367 79.5251 130.18 79.5552C129.994 79.5852 129.816 79.6535 129.658 79.7558C129.499 79.8581 129.364 79.9921 129.26 80.1494C129.156 80.3067 129.085 80.4839 129.053 80.6698C129.045 80.7948 129.045 80.9203 129.053 81.0454C128.542 81.2746 128.064 81.5739 127.635 81.9345C126.447 74.2692 121.725 66.6039 114.918 63.2235L111.147 61.4988C110.967 61.4659 110.785 61.4454 110.603 61.4375C111.586 62.1732 112.371 63.1421 112.886 64.2569C113.401 65.3716 113.631 66.5971 113.554 67.8227C113.538 68.0838 113.46 68.3374 113.326 68.5626C113.193 68.7877 113.008 68.9781 112.787 69.1181C113.153 69.7974 113.412 70.5291 113.554 71.2874C114.203 73.9093 115.067 76.4731 116.137 78.9527C115.922 78.4392 114.78 78.1172 114.328 77.8719C109.461 75.1277 103.926 74.1619 103.198 74.2846C102.761 73.518 101.772 71.5557 101.803 71.6324C101.45 70.8198 100.983 70.153 100.094 70.2449C98.6986 70.2449 96.8282 68.7119 96.5063 66.5579C96.3241 65.0324 96.4812 63.4855 96.9662 62.0277C94.7266 63.4875 92.881 65.4763 91.5922 67.8185C90.3035 70.1607 89.6113 72.7842 89.5768 75.4574C88.91 75.1201 87.6605 75.9556 87.4459 75.8636C87.3692 75.8176 78.8224 58.5247 78.5158 57.7352C78.0636 56.7617 77.4427 55.4356 75.9173 55.6809C75.4153 55.7742 74.9363 55.9643 74.5068 56.2404C74.5068 56.2404 52.8217 66.8645 51.1353 67.7384C53.1896 62.3727 53.7875 56.1944 52.1548 48.9047C53.18 52.6773 53.5737 56.5935 53.3199 60.4947C54.3849 59.1157 55.3141 57.6371 56.0948 56.0795C56.684 54.7672 57.1287 53.3947 57.4209 51.9862C60.1727 51.8022 65.3008 47.8316 67.3398 45.67C69.2632 47.2029 71.3446 48.5262 73.5487 49.6176C78.9681 52.4078 84.8933 53.251 88.726 52.6301C89.3622 52.5228 90.1671 52.6761 90.6193 51.8635C90.653 52.0143 90.7436 52.1461 90.8723 52.2315C91.4855 52.5917 91.7538 52.3618 92.689 52.4461C92.9036 53.1283 93.4555 52.791 93.2868 52.4461C93.4632 52.4461 93.5551 52.5381 93.6854 52.3771C93.7755 52.1969 93.7999 51.9909 93.7544 51.7946C94.2297 51.5646 94.3217 51.028 93.6548 50.7751C93.7024 50.6466 93.7147 50.5078 93.6904 50.373C93.6661 50.2382 93.6062 50.1123 93.5168 50.0085C93.3976 49.9123 93.2662 49.8324 93.1259 49.7709C91.4395 33.8424 92.3594 40.4959 91.7231 34.103C94.475 33.3902 95.1649 29.9484 95.2952 27.4879C95.5944 25.5498 95.5944 23.5773 95.2952 21.6392C95.0849 20.042 94.5135 18.5137 93.6241 17.1704C93.3081 16.6742 92.8606 16.2754 92.3315 16.0183C91.8024 15.7612 91.2124 15.6559 90.627 15.714C90.4967 15.714 90.4967 15.7906 90.3817 15.7676C88.6356 15.7903 86.917 15.3314 85.4146 14.4415C78.3625 10.5475 76.5458 6.30863 72.2762 4.47662C71.4763 4.08004 70.6049 3.84793 69.7137 3.79405C68.8225 3.74016 67.9295 3.86558 67.0876 4.16289C66.2456 4.46021 65.4719 4.92337 64.8122 5.52497C64.1524 6.12658 63.62 6.85441 63.2465 7.66539C60.6786 12.9161 63.4688 18.8797 67.7231 22.3061C68.3976 22.835 67.907 23.0727 68.045 23.7395C67.6091 23.8487 67.2147 24.0832 66.9105 24.4141C66.7942 24.5932 66.7395 24.8054 66.7547 25.0185C66.7699 25.2315 66.8542 25.4338 66.9949 25.5945C66.8105 25.6695 66.6539 25.7997 66.5463 25.9671C66.4388 26.1345 66.3855 26.331 66.3939 26.5299C66.4023 26.7287 66.4719 26.92 66.5932 27.0778C66.7145 27.2356 66.8815 27.352 67.0715 27.4112C66.8512 27.6375 66.7223 27.9371 66.7095 28.2527C66.6968 28.5682 66.8012 28.8773 67.0025 29.1206C67.1175 29.2816 67.4164 29.2816 67.5544 29.4425C67.6924 29.6035 67.4854 29.9868 67.2708 30.1324C66.9874 30.3188 66.6647 30.4368 66.328 30.4773C65.8757 30.4773 65.6764 30.0864 65.4925 29.7108C64.45 27.3652 63.1929 21.9459 58.448 18.7494C54.3224 16.1577 49.5207 14.8479 44.6505 14.9858C42.1516 14.9858 39.8367 14.8478 37.7517 16.4192C37.1306 15.914 36.4805 15.4457 35.8047 15.0164C35.5657 14.8978 35.3047 14.8299 35.0382 14.8171C34.7546 14.8171 34.5246 15.0547 34.7929 15.3307C34.6273 15.2816 34.4533 15.2671 34.2819 15.2882C34.1104 15.3093 33.9452 15.3655 33.7964 15.4533C33.6508 15.6373 33.6891 15.9133 34.1107 16.0896C33.8194 16.0206 33.6048 16.3962 33.7811 16.7028C34.0357 17.0062 34.3744 17.2276 34.7546 17.339C34.2563 17.3007 34.195 18.1669 35.1148 18.2665C35.6763 18.2734 36.2375 18.2376 36.7935 18.1592C37.0451 19.1687 37.6314 20.0632 38.4569 20.6964C41.0189 22.388 43.9351 23.4684 46.9807 23.8545C48.2532 24.0385 49.6253 23.8545 50.867 24.1228C51.0894 26.5498 51.9227 28.8809 53.2893 30.8989C51.7562 31.3359 48.7284 33.6738 47.525 34.6549C46.8964 35.1685 46.2065 35.889 46.4135 36.6786C45.8384 36.7987 45.2781 36.9812 44.7425 37.2228C43.9822 37.6299 43.2522 38.091 42.5579 38.6026C40.5445 40.0666 39.0002 42.0843 38.1129 44.4101C37.2256 46.736 37.0335 49.2696 37.5601 51.7026C39.7294 61.6675 42.5119 63.7908 39.8597 73.4567C35.6284 75.511 9.96497 88.1511 9.09113 88.5574C8.44064 88.832 7.81922 89.171 7.23612 89.5692C5.97901 90.558 6.66889 91.9224 7.23612 93.0186C7.23612 93.0186 25.6788 130.234 27.1659 133.353C27.3491 133.855 27.7241 134.264 28.2084 134.49C28.6928 134.715 29.247 134.74 29.7491 134.557C29.7661 135.324 29.7379 136.092 29.6648 136.856C29.6648 142.329 29.4962 141.624 29.4962 145.396C29.4119 146.844 29.5575 146.162 29.1819 146.722C29.1819 147.082 29.3965 147.105 29.5192 147.427L30.5616 149.474C30.6613 149.474 100.247 115.156 103.252 113.623C107.406 117.785 111.599 119.556 116.85 120.683C114.65 123.235 112.634 124.577 113.293 125.734C113.664 126.233 114.19 126.594 114.788 126.761C117.241 127.842 122.921 130.019 123.343 130.034C123.383 130.017 123.418 129.991 123.446 129.958C123.474 129.925 123.494 129.885 123.503 129.843C123.549 129.62 123.304 129.252 122.783 128.724C122.223 128.018 121.648 127.267 121.005 126.547C121.389 126.265 121.806 126.031 122.246 125.849C122.76 125.696 122.967 125.657 123.059 125.473C123.151 125.29 122.76 124.768 122.492 124.615C122.221 124.375 121.965 124.119 121.725 123.848C121.633 123.756 121.725 123.672 121.894 123.458C123.603 121.756 124.193 122.131 125.006 122.315C125.627 122.453 127.505 122.791 127.712 122.814C128.085 122.954 128.485 123.01 128.882 122.978C129.28 122.946 129.665 122.827 130.011 122.63C130.916 121.94 131.153 121.097 131.544 120.974C131.935 120.851 133.806 121.396 133.79 121.74C133.729 122.768 130.188 124.186 135.776 124.4C135.576 124.968 135.385 125.757 135.155 126.386C135.009 126.853 134.557 127.482 134.833 127.88C134.853 127.91 134.881 127.933 134.913 127.948C134.946 127.962 134.981 127.968 135.017 127.965C135.653 127.965 137.462 125.734 137.47 125.711C138.514 124.798 139.306 123.631 139.769 122.323C140.022 121.051 139.141 120.2 138.144 119.487C136.867 118.596 135.509 117.826 134.089 117.187C139.179 109.967 136.918 100.891 128.946 96.2687C132.405 92.5933 137.089 90.3088 142.115 89.8451C142.788 89.7761 143.466 89.7761 144.138 89.8451C144.256 90.0985 144.448 90.3097 144.689 90.4504C144.93 90.5911 145.209 90.6545 145.487 90.6319C145.765 90.6093 146.03 90.502 146.245 90.3243C146.46 90.1466 146.616 89.9071 146.691 89.6382C146.746 89.4795 146.763 89.31 146.741 89.1435C146.718 88.9769 146.656 88.8181 146.561 88.68ZM126.294 95.0499C125.995 94.9196 125.68 94.7969 125.381 94.6819C126.915 90.7803 126.623 85.9128 126.148 84.6021C126.148 84.3568 126.186 84.2878 126.363 84.2035L127.328 83.3066C127.616 87.2512 127.267 91.2164 126.294 95.0499ZM122.292 90.834C122.308 90.9433 122.308 91.0542 122.292 91.1636C122.397 92.0584 122.265 92.9652 121.909 93.7928C121.743 93.7517 121.574 93.7261 121.403 93.7161C121.633 92.7362 121.93 91.7732 122.292 90.834ZM121.25 91.2939C120.982 92.1294 120.813 92.9649 120.606 93.7468C120.386 93.7469 120.17 93.6998 119.97 93.6088C119.747 93.3175 119.809 92.3824 119.763 92.0221C119.311 89.0709 118.345 85.8362 117.839 83.7895C119.334 85.1387 120.577 86.7427 121.511 88.5267C121.878 89.6228 122.101 88.818 121.25 91.2939ZM122.522 93.1029C122.744 92.4783 122.851 91.8186 122.837 91.1559C122.883 90.3894 122.522 90.1134 122.837 89.6228C123.226 88.6566 123.717 87.7342 124.301 86.871C124.639 88.4208 124.737 90.0132 124.592 91.5928C124.496 92.4974 124.324 93.3923 124.078 94.268C124.078 94.3447 123.687 94.1454 122.338 93.9307C122.078 93.9077 122.193 94.0304 122.522 93.1029ZM124.676 86.6947C124.642 86.6133 124.625 86.5261 124.625 86.4379C124.625 86.3498 124.642 86.2625 124.676 86.1811C124.788 86.0017 124.925 85.8391 125.083 85.6982C125.306 85.4055 125.546 85.1265 125.803 84.8627C126.479 88.1324 126.278 91.5226 125.221 94.6896L124.278 94.3677C125.129 91.8984 125.268 89.2389 124.676 86.6947ZM124.853 74.9898C125.557 76.4735 126.142 78.0116 126.6 79.589C126.848 80.5049 127.03 81.4373 127.145 82.3791C126.715 82.6952 126.307 83.041 125.926 83.4139C124.293 77.0211 120.039 70.199 116.168 65.7837C115.08 64.5607 113.847 63.4744 112.496 62.549C118.096 64.9012 122.538 69.3737 124.853 74.9898ZM114.474 73.4567C114.405 73.3571 113.178 69.2715 113.155 69.2025C114.343 68.6736 113.753 66.098 113.569 65.2088C113.35 64.1461 112.815 63.174 112.036 62.4187C112.695 62.9016 113.117 63.3385 113.5 63.6145C115.575 65.4506 117.398 67.554 118.92 69.8693C121.673 73.7968 123.786 78.1354 125.182 82.7241C125.535 83.7742 125.596 83.7589 125.182 84.0655C124.83 84.4255 124.497 84.8042 124.186 85.2C123.193 82.0821 121.417 79.2713 119.027 77.0364C117.974 76.0491 116.841 75.1517 115.639 74.3535C115.356 74.1068 115.059 73.8764 114.75 73.6637H114.696C114.605 73.6196 114.528 73.5505 114.474 73.4644V73.4567ZM114.727 73.9703C121.511 78.5695 122.821 83.4369 123.687 85.1386C124.155 86.0738 123.626 85.5449 122.154 88.6493C121.319 86.4187 119.449 84.717 117.693 83.3373C113.792 71.1571 115.463 76.3159 114.727 73.978V73.9703ZM117.026 93.4402C114.443 93.5551 113.5 94.2067 113.025 93.7468C110.564 91.4472 108.326 89.2396 107.069 86.1351C106.586 84.9317 106.532 83.1533 107.836 82.2258L107.744 82.0802C107.229 82.4357 106.832 82.9356 106.601 83.5167C106.371 84.0978 106.318 84.7342 106.448 85.3456C106.713 86.5922 107.235 87.7697 107.981 88.8026C109.217 90.7443 110.831 92.4178 112.726 93.7238C113.056 94.0457 112.994 93.9921 113.071 94.0457C111.998 94.3063 112.052 94.3063 111.86 94.2603C111.668 94.2144 109.936 92.8116 110.028 92.8883C107.686 91.0098 105.462 88.99 103.367 86.8403C100.577 83.9735 97.8707 80.3861 98.2846 76.2009C98.4147 74.4807 99.0825 72.8449 100.193 71.5251C100.408 71.1628 100.726 70.8721 101.105 70.6895C104.118 78.1862 111.538 86.8787 116.988 93.4478L117.026 93.4402ZM96.4986 62.8556C95.4791 66.2973 96.7516 69.0415 98.8749 70.1683C99.455 70.4494 100.093 70.5912 100.738 70.5822C100.117 70.5822 95.9467 75.5493 98.5912 81.1757C100.845 86.4034 106.257 90.2284 110.411 93.5935C110.917 93.9154 111.024 94.084 111.561 94.4137C110.295 94.7846 109.076 95.2989 107.928 95.9467C101.55 91.8841 95.1342 84.9623 93.1259 77.7263C92.4728 75.15 92.438 72.4559 93.0241 69.8636C93.6102 67.2713 94.8008 64.8543 96.4986 62.8096V62.8556ZM111.147 96.261C111.463 96.283 111.76 96.4193 111.983 96.6443L112.818 97.7327C112.921 97.8667 112.996 98.0196 113.039 98.1827C113.083 98.3458 113.094 98.5159 113.071 98.6832C113.023 98.883 112.92 99.0654 112.774 99.2102C112.628 99.355 112.444 99.4565 112.244 99.5034C112.044 99.5502 111.835 99.5407 111.64 99.4757C111.445 99.4108 111.271 99.293 111.139 99.1355L110.304 98.047C110.171 97.8876 110.086 97.6935 110.06 97.4876C110.033 97.2817 110.066 97.0725 110.155 96.8847C110.244 96.697 110.384 96.5385 110.56 96.428C110.736 96.3175 110.939 96.2595 111.147 96.261ZM90.4507 71.732C91.0409 68.6659 92.8269 65.7148 96.123 62.9476C95.4585 63.681 94.8846 64.4917 94.4137 65.3621C89.3086 74.3459 93.2639 83.4139 100.707 90.5887C102.81 92.7046 105.181 94.5367 107.759 96.0387C106.845 96.5755 105.962 97.1641 105.114 97.8017C103.035 96.4714 101.116 94.9049 99.3961 93.1335C95.7313 89.5446 92.9113 85.185 91.1406 80.3708C90.0786 77.6082 89.839 74.5972 90.4507 71.7014V71.732ZM75.1201 56.524C78.0712 54.991 76.5918 57.2446 86.9706 76.0016C86.8557 75.7793 83.8279 77.1897 83.2376 77.4963C81.8962 74.7828 74.8058 60.4717 74.6448 60.2034C74.4839 59.9351 74.3842 59.8355 74.0546 59.8891C73.2287 60.1873 72.4392 60.5781 71.7014 61.0542L49.2267 72.1536C49.3582 71.8566 49.5066 71.5674 49.6713 71.2874C50.0085 70.7125 50.9744 68.4973 51.051 68.3133C51.7869 68.0373 47.0727 71.1724 75.1201 56.524ZM92.9572 52.5764C92.9454 52.493 92.9079 52.4153 92.8499 52.3541C92.7886 52.2621 92.6966 52.2698 91.7385 52.2698C91.4089 52.2698 90.9719 52.2698 90.9719 51.8712C90.9649 51.7822 90.9763 51.6928 91.0053 51.6084C91.0343 51.524 91.0804 51.4465 91.1406 51.3806C91.1693 51.5913 91.2772 51.7832 91.4424 51.917C91.6076 52.0509 91.8177 52.1168 92.0297 52.1012C92.3285 52.0563 92.6137 51.9464 92.8653 51.7792C92.7426 51.8482 92.9496 52.3618 93.0262 52.4384C93.1029 52.5151 93.0032 52.7297 92.9726 52.5764H92.9572ZM93.9001 51.2963C93.9001 51.4419 93.6165 51.5109 93.6165 51.4956L93.4325 50.9667C93.6241 50.9897 93.9384 51.1277 93.9154 51.2963H93.9001ZM93.2332 50.1848C93.2792 50.1877 93.3242 50.1998 93.3655 50.2204C93.4068 50.241 93.4435 50.2696 93.4735 50.3046C93.5035 50.3396 93.5262 50.3803 93.5402 50.4243C93.5543 50.4682 93.5593 50.5145 93.5551 50.5604C93.5551 50.6831 93.4938 50.7597 93.2332 50.6678C93.2153 50.5069 93.2205 50.3443 93.2485 50.1848H93.2332ZM92.7196 50.6984C92.5816 50.6984 92.2827 50.6524 92.2597 50.6984C92.2367 50.7444 92.8423 51.0893 93.0262 51.2043C93.181 51.3245 93.3054 51.4794 93.3893 51.6565C93.4732 51.8336 93.5142 52.0279 93.5091 52.2238C93.4779 52.2529 93.4368 52.2691 93.3942 52.2691C93.3515 52.2691 93.3104 52.2529 93.2792 52.2238C93.0952 52.0552 93.1029 51.8252 93.0492 51.6106C92.9956 51.396 92.8806 51.304 92.689 51.442C92.5599 51.5665 92.4023 51.6575 92.2299 51.707C92.0575 51.7564 91.8756 51.7628 91.7001 51.7256C91.1176 51.4956 91.1942 50.7521 91.4932 50.2768C91.5775 50.1848 91.7768 50.1925 91.8918 50.1772H92.6583C92.7133 50.3457 92.7443 50.5212 92.7503 50.6984H92.7196ZM92.6506 49.8246C92.3106 49.7927 91.9676 49.8239 91.6388 49.9166C91.9224 49.7019 91.7308 49.3417 91.4548 49.15C90.7496 48.4755 90.1364 47.7089 89.3929 47.0957C85.9895 44.1522 82.9234 43.1098 78.7764 42.4965C76.9904 40.1969 75.4114 37.8974 72.4066 35.9197C72.2149 35.7894 71.7933 35.4521 71.5174 35.2912C71.8655 35.2831 72.2038 35.1739 72.4909 34.9769C72.6018 35.0781 72.7381 35.1473 72.8853 35.177C73.0324 35.2067 73.1849 35.1958 73.3264 35.1455C73.4494 35.0765 73.551 34.9748 73.62 34.8518C73.689 34.7287 73.7227 34.589 73.7173 34.448C73.8983 34.4629 74.0796 34.4234 74.238 34.3346C74.3964 34.2459 74.5247 34.1118 74.6065 33.9497C74.7751 34.0877 74.9591 33.9497 75.0511 33.7658C75.1431 33.5818 75.0511 33.3442 75.1354 33.1065C75.2068 32.8689 75.324 32.6476 75.4803 32.455C75.9517 31.6971 76.3446 30.8932 76.6531 30.0557C76.813 29.749 76.907 29.4122 76.9291 29.0669C77.9603 29.8142 79.0869 30.42 80.2788 30.8683C80.8691 31.0982 81.421 31.4048 82.0265 31.6348C84.7032 32.6268 87.4709 33.3534 90.2897 33.8041C90.6459 33.952 91.024 34.04 91.4089 34.0647C91.6158 39.1698 92.597 48.8894 92.6506 49.8246ZM70.7509 29.6801C70.8054 29.546 70.8131 29.3974 70.7728 29.2583C70.7325 29.1192 70.6464 28.9978 70.5286 28.9136C70.8582 28.4384 70.6895 28.4767 71.2568 27.5262C71.4331 27.1813 71.6247 26.8517 71.8317 26.5297C72.0386 26.2078 72.3069 26.0391 72.7515 26.2691L75.4267 27.7178C75.6643 27.8481 76.6685 28.2007 76.7451 28.4844C76.7451 29.6648 75.3347 32.3937 74.3689 32.9686C74.1085 33.0918 73.8205 33.1447 73.5334 33.1219C73.7327 33.1219 73.5334 32.2864 73.5334 32.2097C73.4898 32.0718 73.4333 31.9384 73.3647 31.8111C73.4224 31.8379 73.4851 31.8517 73.5487 31.8517C73.6122 31.8517 73.675 31.8379 73.7327 31.8111C74.1772 31.6118 74.2692 31.1442 74.3382 30.715C74.4556 30.2107 74.4556 29.6862 74.3382 29.1819C74.0239 30.8989 73.9856 31.4815 73.633 31.6041C73.2804 31.7268 73.0351 31.4278 72.8205 31.2285C72.3725 30.8769 71.8468 30.6377 71.2874 30.531H70.8122C70.9052 30.3785 70.9555 30.2037 70.9578 30.0251C70.9961 29.9561 70.7662 29.6035 70.7509 29.6801ZM70.2373 34.7852C70.2373 34.8849 70.2373 34.7852 70.1453 35.2145C69.9993 35.1636 69.8722 35.0697 69.7805 34.9452C69.6889 34.8207 69.637 34.6715 69.6317 34.517L70.2373 34.7852ZM69.6394 34.3253V33.988C70.0763 34.4326 70.0763 34.149 70.0456 34.5246C69.9011 34.4787 69.7642 34.4115 69.6394 34.3253ZM70.153 21.5703C69.5121 21.0637 68.9217 20.4963 68.3899 19.8762C68.3899 19.6463 68.6046 18.8797 68.7195 18.2052C69.0415 16.9864 69.6317 15.9056 70.0073 14.7098C70.8287 15.4711 71.6883 16.19 72.5829 16.8638C72.4142 17.523 72.1766 18.1669 72.0463 18.8337C71.9926 19.0714 71.893 21.1333 71.8087 21.1333C71.5916 21.2443 71.4246 21.4333 71.3411 21.6622C70.9627 21.5153 70.5494 21.4833 70.153 21.5703ZM68.3209 20.3285C68.3593 20.4588 69.4861 21.4553 69.854 21.7849C69.2868 22.3521 69.4094 22.0532 68.5509 22.4441C68.6276 22.3828 68.2596 20.6964 68.3209 20.3285ZM86.9246 23.6016C86.9246 24.782 86.5261 27.7178 87.6912 30.5847C86.7713 30.3547 85.8208 30.1171 84.9623 29.8794C84.5572 28.1565 84.3616 26.3909 84.3798 24.621C84.3927 24.1333 84.4363 23.6469 84.5101 23.1646C84.4794 22.904 84.3184 23.157 86.9246 23.6016ZM76.2469 21.7312C76.2833 21.0029 76.4713 20.2902 76.7988 19.6386C77.598 19.9948 78.3671 20.4152 79.0984 20.8957C79.359 21.049 80.0489 21.2866 80.1485 21.5933C80.2482 21.8999 80.0105 22.3138 79.9416 22.6741C79.6276 24.5198 79.7403 26.413 80.2712 28.2084L78.5925 27.4879C78.8454 27.5952 78.8991 26.7213 78.8377 26.5987L79.0447 26.3841C79.0916 26.2719 79.1141 26.1511 79.1108 26.0297C79.1075 25.9082 79.0784 25.7888 79.0255 25.6794C78.9726 25.5699 78.8971 25.473 78.8039 25.395C78.7108 25.3169 78.6021 25.2595 78.4851 25.2266C78.5677 25.1528 78.622 25.0525 78.6384 24.943C78.6919 24.8031 78.7085 24.6518 78.6866 24.5036C78.6648 24.3554 78.6052 24.2153 78.5136 24.0968C78.422 23.9783 78.3015 23.8853 78.1636 23.8267C78.0258 23.7682 77.8752 23.7461 77.7263 23.7625C77.7751 23.599 77.777 23.4251 77.7319 23.2605C77.6868 23.096 77.5964 22.9474 77.4711 22.8316C77.3457 22.7158 77.1904 22.6375 77.0228 22.6056C76.8552 22.5737 76.682 22.5894 76.5228 22.6511C76.5317 22.3228 76.435 22.0004 76.2469 21.7312ZM75.8329 21.6392C75.7103 21.5013 74.7675 21.3173 74.8748 21.5856C74.8005 21.3818 74.6694 21.2035 74.4969 21.0719C74.3244 20.9403 74.1179 20.861 73.9017 20.8432C73.6854 20.8255 73.4687 20.8701 73.2771 20.9718C73.0854 21.0735 72.927 21.228 72.8205 21.417C72.6672 21.1563 72.2992 21.2866 72.1383 21.0873C71.9773 20.888 72.1383 20.1292 72.1383 19.8456C72.1953 18.8647 72.4263 17.9017 72.8205 17.0017C74.0009 17.8909 75.2121 18.5348 76.3005 19.4316C76.2291 19.7515 76.188 20.0775 76.1779 20.4051C76.1472 20.5431 75.8023 21.6009 75.8329 21.6392ZM84.5254 29.7568C84.3491 29.7568 82.9234 29.1972 82.5708 29.0669C82.2182 28.9366 80.6314 28.5304 80.5854 28.3004C80.5767 28.2035 80.5767 28.106 80.5854 28.0091C80.1646 26.3252 80.0787 24.5751 80.3325 22.858L80.5701 21.7006C81.41 22.0481 82.2671 22.3526 83.138 22.6127C83.5313 22.6747 83.9089 22.8127 84.2495 23.019C83.7063 25.2462 83.802 27.5814 84.5254 29.7568ZM77.6266 28.768C78.1939 28.768 78.3932 28.2391 78.4622 27.8021C79.0503 28.1253 79.6724 28.3824 80.3172 28.5687C80.4873 29.419 80.8037 30.2334 81.2523 30.9756C80.4981 30.6969 79.7587 30.3796 79.037 30.0251C76.9444 28.9749 77.0287 28.9213 76.9904 28.6377C77.2012 28.7182 77.4241 28.7623 77.6496 28.768H77.6266ZM80.6928 28.8293C82.77 29.7261 84.6251 30.3087 84.5254 30.2857C84.8063 30.6781 85.0623 31.0877 85.2919 31.5122C85.6112 31.9793 86.0048 32.391 86.4571 32.7309C84.924 32.0334 84.878 32.432 81.7812 31.1289C81.2683 30.4468 80.9076 29.6626 80.7234 28.8293H80.6928ZM84.993 30.255C85.177 30.3164 86.2041 30.5233 87.6758 30.7686C88.0009 31.8279 88.6365 32.7651 89.5002 33.4591C88.6305 33.2938 87.7726 33.071 86.9323 32.7923C86.0616 32.1514 85.398 31.2693 85.0237 30.255H84.993ZM84.0348 22.5208C83.6895 22.4998 83.3488 22.4301 83.023 22.3138C82.1571 22.0781 81.3133 21.7678 80.5011 21.3863C80.8983 19.757 81.6377 18.231 82.6704 16.9097C82.8544 16.8331 83.6592 17.2853 83.8279 17.362C84.3704 17.5826 84.8979 17.8387 85.4069 18.1285C84.8568 19.5592 84.4085 21.0269 84.0655 22.5208H84.0348ZM81.1527 18.7801C80.8154 19.3933 80.1409 20.4511 80.2405 21.187C79.5372 20.8875 78.8646 20.5204 78.2322 20.0909C77.7416 19.8226 77.2204 19.5696 76.7451 19.2553C77.3034 17.6702 78.1249 16.1905 79.175 14.8784C79.175 14.8784 82.2411 16.5035 82.4328 16.7028C82.4711 16.7411 81.2983 18.5808 81.1833 18.7801H81.1527ZM76.4922 19.217C72.8435 16.7871 73.1041 16.9941 72.9891 16.8101C72.8741 16.6261 73.2574 15.9746 73.3724 15.737C73.9814 14.549 74.8358 13.5039 75.8789 12.6708C75.8789 12.6708 78.7534 14.5872 78.9451 14.8095C78.0712 15.8673 76.7221 17.7683 76.5228 19.217H76.4922ZM73.472 15.0164C73.3954 15.1391 72.6365 16.4575 72.7668 16.5495C71.801 16.0436 71.0958 15.1314 70.176 14.5488C70.3216 14.2959 70.4672 14.0429 70.5975 13.7823C71.3875 12.5372 72.4325 11.4739 73.6637 10.6625C74.2837 11.2828 74.9416 11.8639 75.6337 12.4025C74.7933 13.1592 74.0745 14.0408 73.5027 15.0164H73.472ZM70.0533 14.1579C69.8157 13.7593 67.4241 11.7357 67.6387 11.3601C67.77 11.1981 67.876 11.0172 67.953 10.8235C68.749 9.62908 69.7695 8.60074 70.9578 7.7957C71.2108 7.63473 73.3187 10.2333 73.587 10.4709C72.0833 11.3301 70.8652 12.6122 70.084 14.1579H70.0533ZM70.2219 7.94134C69.2441 8.62659 68.4042 9.48995 67.746 10.4862C67.5491 10.7303 67.4101 11.016 67.3398 11.3217C66.6832 10.4601 66.084 9.55621 65.5461 8.61589C65.5168 8.58024 65.5008 8.53554 65.5008 8.48941C65.5008 8.44328 65.5168 8.39858 65.5461 8.36293C66.2003 7.34488 67.0527 6.46896 68.0527 5.78739C68.206 5.68008 68.298 5.48078 68.5049 5.49611C68.6336 5.51643 68.7549 5.56919 68.8575 5.64942C69.6018 6.14103 70.2596 6.75227 70.8045 7.45843C70.6052 7.51208 70.4519 7.78037 70.2526 7.94134H70.2219ZM66.6116 10.6625C66.9335 11.0765 66.9719 11.2451 67.2018 11.5364C66.445 13.1221 65.9283 14.8117 65.6688 16.5495C65.6688 16.3578 65.2778 16.1049 64.6033 14.8784C64.2535 14.382 63.9724 13.8405 63.7678 13.2687C63.9875 11.868 64.4685 10.5211 65.1858 9.2981C65.2501 9.1569 65.3298 9.02322 65.4235 8.8995C65.7682 9.52016 66.1657 10.11 66.6116 10.6625ZM67.4548 11.7817C68.9342 13.79 69.7544 14.0813 69.7544 14.5948C69.0304 16.2305 68.5153 17.9508 68.2213 19.7153C68.2213 19.5006 67.2325 18.5885 67.1022 18.4428C66.6412 17.9129 66.2137 17.3548 65.8221 16.7718C66.1584 15.0474 66.7068 13.3713 67.4548 11.7817ZM71.1878 31.2055H71.7933C71.8175 31.2964 71.8699 31.3772 71.9429 31.4364C72.0158 31.4956 72.1057 31.5302 72.1996 31.5352C72.3523 31.526 72.5055 31.5442 72.6518 31.5888C72.6322 31.6313 72.6271 31.679 72.6371 31.7247C72.6471 31.7704 72.6718 31.8116 72.7074 31.842C72.743 31.8724 72.7875 31.8903 72.8342 31.893C72.8809 31.8957 72.9272 31.8831 72.9661 31.8571C72.8972 31.9851 72.8457 32.1217 72.8128 32.2634C72.7742 32.3725 72.7742 32.4915 72.8128 32.6006C72.8262 32.6245 72.8444 32.6454 72.8662 32.662C72.888 32.6785 72.913 32.6904 72.9396 32.6969C72.9662 32.7034 72.9939 32.7043 73.0209 32.6996C73.0478 32.6949 73.0736 32.6847 73.0964 32.6696C73.0193 32.8318 72.99 33.0126 73.0121 33.1909C72.9661 32.9916 72.4219 33.1909 72.3376 33.1909C72.2981 33.0635 72.2186 32.9522 72.1109 32.8735C72.0032 32.7948 71.873 32.7529 71.7397 32.7539H71.6017C71.6109 32.4957 71.5825 32.2375 71.5174 31.9874C71.403 31.7889 71.2426 31.6206 71.0498 31.4968C71.1038 31.4067 71.1427 31.3083 71.1648 31.2055H71.1878ZM92.8499 16.7948C94.383 18.3278 94.7356 20.865 94.9579 22.927C95.2875 25.9931 94.8812 30.5923 92.8423 32.9532C92.5858 33.3017 92.2178 33.5519 91.7994 33.6621C91.381 33.7722 90.9375 33.7358 90.5427 33.5588C87.4766 31.6808 87.0243 27.6488 87.1699 24.0538C87.1243 22.1215 87.5229 20.2044 88.3351 18.4505C88.596 17.8429 88.9887 17.3009 89.4849 16.8638C89.9273 16.4268 90.5204 16.1761 91.1421 16.1633C91.7639 16.1504 92.3668 16.3764 92.8269 16.7948H92.8499ZM89.7838 16.0282C87.8675 17.2164 86.9246 21.026 86.8403 23.3026C86.0366 23.0096 85.2147 22.7689 84.3798 22.5821C84.6734 21.004 85.136 19.462 85.7595 17.9829C86.526 18.2665 86.894 18.3278 87.6988 18.6268C87.6988 18.3508 87.9058 18.6268 85.8592 17.7606C86.2945 16.9565 86.9378 16.2841 87.7218 15.8136C88.3996 15.9448 89.0863 16.0242 89.7761 16.0512L89.7838 16.0282ZM84.924 14.4952C85.739 14.9755 86.5959 15.3809 87.4842 15.7063C87.2619 15.622 86.1351 16.6338 85.6675 17.6226V17.6686C85.6675 17.7989 85.5526 17.7299 85.4682 17.7299C84.6327 17.2777 83.7129 16.9634 82.8927 16.5188C83.4492 15.8328 84.0456 15.1802 84.6787 14.5642L84.5714 14.4339C84.4258 14.5565 82.3331 16.3578 82.5708 16.5035L79.4126 14.7481C79.9996 13.9666 80.7573 13.3295 81.6279 12.8855C80.9175 13.0991 80.2648 13.4713 79.7193 13.9739C79.5966 14.0966 79.428 14.5182 79.336 14.5795C79.1137 14.7251 78.1555 13.882 77.8643 13.6903C77.3047 13.2994 76.7451 12.9238 76.1932 12.4792C76.4314 12.2442 76.716 12.0615 77.0287 11.9426C77.3426 11.7582 77.6707 11.5993 78.0099 11.4674C78.3625 11.3447 79.543 10.9155 79.9032 11.1684C81.5144 12.3863 83.1877 13.5198 84.9163 14.5642L84.924 14.4952ZM79.8956 10.8542C79.6196 10.6165 78.3625 10.9921 78.0329 11.0765C77.2911 11.2621 76.5999 11.6103 76.0093 12.0959C75.3067 11.5956 74.65 11.0338 74.0469 10.4172C73.4567 9.98798 76.7221 8.64655 77.9486 9.25211C78.6589 9.72736 79.31 10.2858 79.8879 10.9155L79.8956 10.8542ZM77.8643 9.09114C76.8064 8.70021 74.7368 9.37475 73.702 9.99564C71.1188 7.48142 71.2874 7.66539 71.2874 7.6194C72.3788 6.91683 73.6745 6.60101 74.9668 6.72256C75.9817 7.46904 76.947 8.28072 77.8566 9.15246L77.8643 9.09114ZM71.7627 4.69125C72.7285 4.84456 73.8553 5.87171 74.6295 6.46194C74.0929 6.16299 73.2038 6.46194 72.6595 6.59991C72.0898 6.79717 71.5425 7.05411 71.0268 7.36644C70.4628 6.49167 69.6666 5.79101 68.7272 5.3428C69.1616 5.07433 69.6472 4.89941 70.153 4.82923C70.679 4.69936 71.2222 4.6528 71.7627 4.69125ZM66.6882 4.71425C68.1179 4.13857 69.7035 4.07894 71.1724 4.54561C70.2338 4.60724 69.3191 4.86857 68.4896 5.31214C67.8943 4.99321 67.233 4.81737 66.5579 4.79857L66.6882 4.71425ZM66.0444 5.01319C66.7717 4.86962 67.5265 5.00362 68.16 5.3888L68.3669 5.49611C67.815 5.49611 67.0868 6.32396 66.6959 6.67657C66.5349 6.82221 65.1628 8.14064 65.3085 8.3476C65.1092 8.04866 64.9329 7.74204 64.7259 7.4431C64.519 7.14415 64.3963 6.95252 64.2353 6.67657C64.6949 5.98388 65.3156 5.41308 66.0444 5.01319ZM62.6333 9.96498C62.6331 10.1259 62.6563 10.286 62.7023 10.4402C62.8884 11.3729 63.1447 12.2903 63.4688 13.1844C63.2385 14.1648 63.2569 15.1871 63.5225 16.1586C62.6315 14.224 62.3225 12.072 62.6333 9.96498ZM63.1315 11.4367C62.9519 10.6831 62.8568 9.91181 62.8479 9.13713C62.9231 8.93167 63.0181 8.734 63.1315 8.5469C63.4075 7.93953 63.7358 7.35732 64.1127 6.80688C64.3273 7.18248 64.496 7.57341 64.7029 7.95667C64.9099 8.33994 65.2395 8.56223 64.9789 9.06814C64.3615 10.2882 63.8832 11.5738 63.5531 12.9008C63.4556 12.4014 63.3145 11.9115 63.1315 11.4367ZM63.6758 13.8896C65.7991 17.7223 65.6534 15.8136 65.4388 18.3508C65.3601 18.808 65.4216 19.2783 65.6151 19.6999C64.8744 18.9406 64.3151 18.0234 63.9792 17.0171C63.6434 16.0109 63.5396 14.9417 63.6758 13.8896ZM67.7384 22.0762C67.0565 21.416 66.4333 20.6979 65.8757 19.9299C65.5313 19.3052 65.446 18.5702 65.6381 17.8832C65.6549 17.6516 65.6987 17.4226 65.7684 17.201C65.8387 17.5129 65.9893 17.8009 66.2053 18.0366C66.7467 18.7689 67.3438 19.4582 67.9913 20.0985C68.027 20.1218 68.0539 20.1563 68.0678 20.1965C68.0816 20.2368 68.0817 20.2805 68.068 20.3208C68.0995 21.0627 68.2048 21.7997 68.3823 22.5208C68.2064 22.323 67.9856 22.1705 67.7384 22.0762ZM64.9942 29.3735C65.0951 29.7659 65.2838 30.1302 65.5461 30.439C65.659 30.5647 65.8073 30.6533 65.9715 30.6929C66.1357 30.7326 66.3081 30.7216 66.4659 30.6613C66.8763 30.5572 67.2585 30.3635 67.5851 30.0941C67.7887 30.1188 67.9946 30.1188 68.1983 30.0941C68.4191 29.9712 68.6121 29.8042 68.7655 29.6035C69.025 29.3588 69.2471 29.0773 69.4248 28.768C69.1464 28.5411 68.9565 28.2237 68.8882 27.8711C68.5892 26.752 70.4212 26.1005 70.0073 28.6377C69.8693 29.4732 69.0492 29.8335 69.0492 30.6613C69.0492 30.8529 69.0492 30.8453 68.9188 31.0062C68.836 31.0782 68.7696 31.1671 68.724 31.2669C68.6785 31.3668 68.6549 31.4752 68.6549 31.585C68.6549 31.6947 68.6785 31.8032 68.724 31.903C68.7696 32.0028 68.836 32.0918 68.9188 32.1637C68.7763 32.2709 68.6673 32.4166 68.6049 32.5836C68.5424 32.7507 68.529 32.9321 68.5662 33.1065C68.6965 33.6431 69.1105 33.6508 69.4937 33.8731C69.4442 34.1255 69.4211 34.3824 69.4248 34.6396C69.4624 34.8007 69.5375 34.9506 69.6441 35.0772C69.7507 35.2037 69.8856 35.3033 70.038 35.3678C69.7978 36.0215 69.3181 36.5593 68.6961 36.8725C68.0741 37.1856 67.3563 37.2506 66.6882 37.0542C65.7891 36.883 64.9768 36.4064 64.3886 35.7051C64.0615 35.2412 63.8678 34.6965 63.8286 34.1303C63.7894 33.564 63.9062 32.9978 64.1664 32.4933C64.414 31.8583 64.6289 31.211 64.8102 30.554C64.9329 30.1725 64.995 29.7742 64.9942 29.3735ZM36.9698 17.8756C36.2796 17.954 35.5828 17.954 34.8925 17.8756C34.8082 17.8756 34.7009 17.8066 34.7009 17.7146C34.7009 17.6226 34.8006 17.569 34.8925 17.5383C35.4291 17.385 35.7664 17.5383 35.843 17.362C35.2583 17.1431 34.7043 16.8494 34.195 16.4882C34.2073 16.4609 34.2291 16.4391 34.2563 16.4268C34.6013 16.2429 35.0918 16.6261 35.3755 16.4268C35.1838 16.0436 34.9079 16.1049 34.3943 15.8596C34.264 15.8596 34.2027 15.5607 34.5016 15.5913C34.893 15.6079 35.2756 15.7127 35.6208 15.8979C35.6208 15.507 35.0612 15.4533 35.0612 15.1314C35.2326 15.1464 35.398 15.2016 35.5441 15.2924C36.2678 15.6442 36.9557 16.0652 37.5984 16.5495C37.5371 16.4958 37.1691 17.155 37.1385 17.201C37.0157 17.4122 36.9571 17.6546 36.9698 17.8986V17.8756ZM47.5786 35.1762C49.3228 33.4394 51.3432 32.0043 53.5576 30.9296C54.3488 31.9265 55.2544 32.8269 56.2558 33.6124L56.3554 33.4745C54.1791 31.7074 52.578 29.3325 51.7562 26.6524C50.9897 24.1765 51.373 23.6935 50.9284 23.6705C48.5701 23.6801 46.2197 23.3995 43.9299 22.835C41.9071 22.2407 40.0213 21.2535 38.3803 19.9299C37.783 19.5046 37.3737 18.8645 37.2381 18.1439C37.1308 16.1739 39.9593 15.4687 41.9906 15.3767C43.1328 15.323 44.2902 15.3767 45.4017 15.3077C50.8809 15.1366 56.2043 17.1463 60.2034 20.8957C62.7636 23.3639 65.3775 27.8941 64.3043 31.2592C64.0288 31.9872 63.8209 32.739 63.6834 33.5051C62.9169 37.6981 69.4018 38.9168 70.4366 34.7392C71.0038 35.2988 71.3947 35.3525 72.1153 35.9657C76.2086 38.9552 77.6343 41.8067 78.6461 42.8108C80.5131 43.0155 82.3395 43.496 84.0655 44.2366C86.8933 45.4499 89.3977 47.3085 91.3782 49.6636C90.5197 51.3806 90.374 51.8252 89.9448 52.0628C89.4073 52.2628 88.8395 52.3692 88.2661 52.3771C84.5574 52.7599 80.8103 52.2879 77.3124 50.9974C73.8069 49.7057 70.5405 47.8406 67.6464 45.4783C68.9181 43.9974 70.0378 42.3924 70.9885 40.6875H70.8428C67.9662 45.3446 63.7615 49.0341 58.77 51.281C58.1871 51.5837 57.5224 51.6912 56.8738 51.5877C56.2252 51.4842 55.627 51.1751 55.1673 50.7061C52.6377 48.6211 50.6677 45.2714 49.2497 42.3202C48.1757 40.6305 47.3376 38.8021 46.7584 36.8855C46.7991 36.2308 47.0933 35.6176 47.5786 35.1762ZM48.9661 72.8205L74.2616 60.372C74.922 61.8879 75.6641 63.3669 76.4845 64.8026C77.297 66.3356 82.6167 77.2357 82.8927 77.7723C81.6195 78.454 80.4088 79.2466 79.2747 80.1409C79.005 79.4451 78.6159 78.8017 78.1249 78.2399C78.2989 78.9898 78.6136 79.6999 79.0524 80.3325C78.2525 80.9547 77.485 81.6173 76.7528 82.3178C76.4768 82.3178 76.5535 81.3673 75.2197 79.7959C75.4955 80.796 75.9137 81.7511 76.4615 82.6321C75.7036 83.368 74.9992 84.1569 74.3535 84.993C73.7195 83.6934 72.9893 82.4431 72.1689 81.2523C72.7163 82.6813 73.3591 84.0718 74.0929 85.4146C74.0929 85.4912 72.6442 87.7678 72.5599 87.8445C73.7787 87.9901 75.1431 87.7602 77.1591 88.8256C78.2935 89.3469 77.7033 90.834 76.8371 91.3705C75.9902 91.7395 75.0406 91.7992 74.1542 91.5392L74.0009 91.2785C74.8253 91.3436 75.6548 91.2841 76.4615 91.1022C77.3047 90.765 77.9946 89.4925 76.4615 88.8946C74.6396 88.3275 72.7342 88.0761 70.8275 88.1511C69.6552 88.1973 68.5092 88.512 67.4778 89.0709C66.8295 87.5387 66.0256 86.0772 65.0785 84.7094C65.6703 86.2723 66.3775 87.7891 67.1942 89.2472C66.4361 89.7646 65.6074 90.1699 64.7336 90.4507C64.0845 88.915 63.2779 87.4507 62.3267 86.0815C62.9087 87.5853 63.5978 89.0454 64.3886 90.4507H62.9936C62.7775 90.4125 62.5551 90.4591 62.3727 90.581C62.273 90.3204 62.0661 89.8911 61.4068 88.473C61.1999 88.0285 60.9776 87.5225 60.3874 87.3692C59.7567 87.4109 59.1543 87.6465 58.6627 88.0438C57.9805 88.3887 57.7275 88.887 57.9498 89.4925C58.4174 90.7113 59.0229 91.9148 58.9923 91.8381C59.2069 92.3134 59.4828 92.8959 60.0271 92.9726C60.5713 93.0492 62.3803 92.3594 62.5413 91.4395C63.2372 92.0573 64.1495 92.3743 65.0785 92.321C65.7521 92.2353 66.4165 92.0891 67.0638 91.8841C66.6576 92.1064 66.9412 91.9684 66.2207 92.367C65.6688 92.6813 65.5461 93.2562 65.8527 93.9844C65.8527 94.0611 66.6193 95.8164 66.8645 96.1843C67.1635 96.7132 67.4471 97.2192 68.0987 97.2192C68.5202 97.2192 68.5816 97.1195 70.0686 96.3683C70.6972 95.9237 70.5209 95.3795 70.2679 94.7663C69.9867 94.0743 69.6668 93.3987 69.3098 92.7426C69.0721 92.2674 68.8192 91.6771 68.022 91.5852C68.8387 91.336 69.6833 91.1892 70.5362 91.1482C72.0693 94.429 72.0693 94.5286 72.5062 95.0959L72.5675 95.0269C72.6978 94.8966 72.5675 94.5593 72.4219 94.4213C72.2762 94.2833 70.8275 91.2096 70.7815 91.1329C71.549 91.1219 72.3165 91.1501 73.0811 91.2172C73.3389 91.2094 73.5965 91.2352 73.8476 91.2939C74.1911 92.1655 74.6172 93.0023 75.1201 93.7928L75.1891 93.7314C75.3194 93.6011 75.1891 93.2639 75.0358 93.1182C75.6927 93.9163 76.4186 94.655 77.205 95.3258C77.3829 95.5594 77.6163 95.7448 77.884 95.8653C78.1518 95.9857 78.4453 96.0374 78.7381 96.0157C81.0728 95.3775 83.5318 95.3459 85.8822 95.9237C86.41 96.0705 86.8872 96.3596 87.2619 96.7592C87.3604 96.927 87.4209 97.1142 87.4394 97.3078C87.4578 97.5014 87.4337 97.6967 87.3687 97.88C87.3037 98.0633 87.1994 98.2302 87.0631 98.369C86.9268 98.5077 86.7618 98.615 86.5797 98.6832C85.0466 99.3425 84.0732 98.7292 81.5589 98.8749C82.7947 99.4895 83.9881 100.186 85.131 100.96C85.0543 100.96 31.0446 127.535 30.0251 127.98C29.1282 125.711 12.2646 92.1524 11.958 91.3629C15.0241 89.8298 17.3237 88.565 38.5566 77.8106C38.3873 78.1262 38.2363 78.4512 38.1043 78.7841C38.0518 78.8791 38.0187 78.9836 38.0068 79.0915C37.995 79.1994 38.0047 79.3085 38.0353 79.4127C38.1038 79.5116 38.1926 79.5948 38.2956 79.6569C38.3987 79.719 38.5138 79.7586 38.6332 79.7729C38.3649 79.7039 37.7364 82.1645 37.721 82.3868C37.3838 81.8272 37.1768 81.49 36.4486 81.6203C35.6766 81.7932 35.0043 82.2644 34.5783 82.931C34.1337 84.1728 35.1072 85.3456 35.7204 86.2731C36.0347 86.7713 36.2953 87.2236 36.9622 87.1086C37.4355 87.002 37.8938 86.8372 38.3266 86.618C38.507 86.5491 38.6732 86.4478 38.8172 86.3191C39.3614 85.7442 39.1468 85.1156 38.8172 84.4948L38.6945 84.2648C38.4722 83.8049 38.1656 83.4293 37.928 82.977C38.7259 83.6209 39.716 83.9797 40.7412 83.9965C40.7799 83.9948 40.8182 84.0049 40.851 84.0255C40.8838 84.046 40.9097 84.076 40.9251 84.1115C41.0325 84.2725 41.3927 85.2153 41.6074 85.2153C41.6917 85.2153 41.6993 85.0926 41.6687 85.0237L41.3237 84.1805C41.4004 84.1805 41.3237 84.1805 42.7648 84.2571C44.1139 84.3414 44.6735 83.6056 45.7773 83.161C46.1989 82.977 46.8198 82.6934 46.8964 82.1798C46.8846 81.6777 46.7036 81.1942 46.3828 80.8077C45.5703 79.5813 45.486 78.8761 44.9188 78.3165C46.5627 76.7211 47.9304 74.8639 48.9661 72.8205ZM68.4436 91.9838C68.5126 92.0604 71.1801 95.8164 69.5627 96.2763C68.5662 96.8052 68.091 96.9125 67.7307 96.6979C67.3411 96.3023 67.0383 95.8298 66.8415 95.3105C66.5809 94.4903 66.3586 94.36 66.075 93.5858C65.6381 92.6736 67.976 91.7078 68.4436 91.9838ZM60.0807 92.4743C59.5902 92.3364 59.3985 91.7078 59.1379 91.1022C58.9386 90.65 57.9345 89.4235 58.1721 88.657C58.2122 88.5352 58.2781 88.4235 58.3655 88.3295C58.4528 88.2356 58.5594 88.1616 58.678 88.1128C59.1492 87.7724 59.7075 87.573 60.2877 87.5379C60.671 87.5915 62.1964 90.604 62.2347 90.6653C62.8556 91.7231 60.9086 92.4667 60.0807 92.505V92.4743ZM38.8862 85.9512C38.1733 86.6334 36.7246 87.4152 36.096 86.3268C34.9385 84.2955 34.3176 83.6439 34.7929 82.977C35.2243 82.5787 35.7531 82.3011 36.326 82.1722C37.3684 81.7812 37.4528 82.8467 38.5029 84.5561C38.8249 85.2 39.0471 85.5756 38.8862 85.9818V85.9512ZM44.5508 79.0524C44.6581 78.9374 44.9264 78.6078 44.9724 78.5465C45.1257 78.7304 45.8156 80.2712 45.9153 80.4935C46.2451 80.9414 46.4441 81.4721 46.4902 82.0265C46.4212 82.4175 46.1299 82.5861 45.7773 82.7931C45.4399 82.999 45.0728 83.1516 44.6888 83.2453C44.6759 83.0968 44.6333 82.9525 44.5636 82.8208C44.4938 82.6891 44.3982 82.5728 44.2825 82.4788C44.1446 82.3561 43.7766 82.2335 43.6923 82.1032L42.9948 80.8384C43.5571 80.2935 44.0773 79.7067 44.5508 79.083V79.0524ZM41.96 81.2523C42.0818 81.2949 42.2125 81.3059 42.3398 81.2845C42.4671 81.263 42.5869 81.2098 42.6882 81.1297C42.8415 81.444 42.9641 81.4363 43.0561 81.8962C41.8603 81.6662 41.96 81.3136 41.96 81.2523ZM41.6687 81.0454V81.2293C41.6636 81.4044 41.7186 81.576 41.8246 81.7155C41.9306 81.8549 42.0812 81.9539 42.2512 81.9959C42.9678 82.1722 43.6407 82.493 44.2289 82.9387C44.9188 83.7052 43.3934 83.6132 43.0484 83.6132C41.1858 83.6132 40.2199 83.7359 38.8555 83.092C38.3343 82.839 38.4109 82.4788 38.5412 81.9575C38.6988 81.3265 38.8985 80.7068 39.1391 80.1025C39.6834 80.3555 40.3043 80.4475 40.8485 80.7234C41.1029 80.869 41.3803 80.9701 41.6687 81.0224V81.0454ZM28.3617 134.227H28.3004C27.6981 133.665 27.2495 132.958 26.9973 132.173C26.959 132.096 8.75385 94.9349 7.30511 92.1984C7.12428 91.9486 7.01213 91.6558 6.97985 91.3491C6.94757 91.0424 6.99629 90.7326 7.12114 90.4507C7.43853 89.9902 7.89527 89.6436 8.42425 89.4619C10.1949 88.6953 37.9203 74.9898 39.9057 74.0393C39.4994 75.3117 39.1391 76.1702 38.7175 77.4427C36.8855 78.3242 11.544 91.1329 11.3371 91.1329C11.3371 91.2172 29.5115 128.172 29.5958 128.325C29.6801 128.478 30.0864 128.325 30.1631 128.325C30.2397 128.325 85.1846 101.289 85.6139 101.044C85.6905 101.044 87.9748 102.577 88.1281 102.654C88.5133 102.917 88.9274 103.136 89.3622 103.305C90.6138 102.801 91.9343 102.488 93.2792 102.378C94.7126 102.317 97.1118 102.57 96.9739 104.011C96.8915 104.42 96.6556 104.782 96.3146 105.022C95.9007 105.367 89.8528 108.28 89.7761 108.319C90.5505 107.347 91.5327 106.561 92.6506 106.019C93.5398 105.574 94.544 105.49 95.9544 104.486C96.5523 104.103 96.5216 103.551 96.1383 103.305C94.0151 101.995 89.7225 102.6 87.4229 105.827C27.9171 135.155 30.6613 133.806 30.508 133.875C30.0174 134.143 29.1282 134.672 28.3617 134.227ZM95.6938 106.701C94.5976 107.253 90.0598 109.445 88.8793 110.036C89.0276 109.555 89.2445 109.098 89.5232 108.679C92.5893 107.245 93.7084 106.686 94.8889 106.019C94.9809 106.096 95.5481 106.609 95.6784 106.701H95.6938ZM29.6265 146.561C29.7108 145.097 30.0787 135.239 30.0787 135.239C30.0481 135.059 30.0481 134.875 30.0787 134.695C30.1324 134.473 30.3164 134.427 30.8453 134.166L87.1009 106.448L86.4417 107.767C82.7241 109.576 32.9072 134.319 32.6236 134.319C31.0062 135.032 31.6348 134.595 31.5121 136.512V137.086C31.5121 137.562 31.4278 138.029 31.4355 138.505C31.4355 138.65 83.9582 112.734 84.0348 112.695C84.0084 112.754 83.9947 112.818 83.9947 112.883C83.9947 112.948 84.0084 113.012 84.0348 113.071C84.2188 113.631 85.2613 113.623 85.7135 113.631C86.3964 113.652 87.0738 113.502 87.6835 113.194C88.7107 112.174 88.6647 111.17 88.8793 110.426C90.4737 109.622 90.0061 109.829 96.5906 106.594C96.6749 106.594 99.0512 107.583 99.3884 107.682C99.3499 108.006 99.3499 108.332 99.3884 108.656C99.4256 108.99 99.5355 109.312 99.7104 109.599C100.087 110.202 100.558 110.74 101.105 111.193C101.036 111.216 31.0369 145.725 29.6112 146.53L29.6265 146.561ZM33.9037 137.301C33.9198 136.98 33.8967 136.658 33.8347 136.343C33.8269 136.313 33.8269 136.281 33.8347 136.251C33.7657 136.151 85.4606 110.695 85.3686 110.748C85.1351 111.264 84.8334 111.746 84.4717 112.182L33.9037 137.301ZM33.7504 136.052L33.6584 135.216C33.6124 135.024 29.8258 136.895 85.8208 109.507C85.7211 109.864 85.5796 110.209 85.3993 110.534C85.3073 110.541 34.149 135.776 33.7274 136.021L33.7504 136.052ZM31.7881 136.052C32.0794 135.906 33.1755 135.346 33.4131 135.201V136.19C32.7923 136.458 31.6808 136.956 31.5888 136.956V136.082C31.6667 136.07 31.7436 136.052 31.8188 136.029L31.7881 136.052ZM31.8724 135.024C32.0794 134.856 32.9609 134.534 33.3212 134.335L33.3748 135.017C33.3748 135.093 33.4285 135.017 31.7881 135.898C31.7728 135.185 31.7268 135.101 31.8571 134.978L31.8724 135.024ZM31.7881 137.109C32.3883 136.864 32.9743 136.585 33.5435 136.274C33.5894 136.642 33.6278 137.01 33.6584 137.378C33.6048 137.378 31.6118 138.344 31.5811 138.367V137.171C31.6425 137.048 31.6961 137.071 31.7728 137.063L31.7881 137.109ZM33.6738 134.863V134.143C33.8884 134.143 84.4334 109.223 86.4264 108.28C86.2424 108.763 86.1964 108.878 86.1198 109.047C78.4851 112.473 41.3084 131.115 33.6584 134.817L33.6738 134.863ZM121.265 123.526C121.012 124.201 121.932 124.837 122.484 125.198C121.832 125.397 120.813 125.726 120.598 126.386C120.522 126.746 120.867 127.152 121.143 127.451C121.327 127.65 122.676 129.321 122.607 129.252C120.775 128.662 115.394 126.47 115.47 126.501C114.909 126.322 114.388 126.036 113.937 125.657C113.27 124.73 114.911 123.626 115.945 122.415C116.482 121.855 116.505 121.648 117.042 121.074C117.486 120.391 118.483 121.35 123.136 121.932C122.645 122.338 122.039 122.315 121.25 123.48L121.265 123.526ZM129 122.568C128.463 122.568 112.757 119.226 111.722 118.736C111.599 118.682 111.599 118.682 111.599 118.567C111.638 118.283 114.765 109.07 115.608 106.969C115.733 106.584 115.932 106.227 116.195 105.919C116.458 105.611 116.78 105.359 117.141 105.176C118.171 104.665 119.281 104.336 120.422 104.202C122.086 103.875 123.768 103.643 125.458 103.505C126.186 103.505 126.608 104.379 127.053 105.038C128.584 107.551 129.596 110.346 130.029 113.257C130.462 116.167 130.307 119.136 129.574 121.986C129.452 122.446 129.222 122.522 128.984 122.522L129 122.568ZM137.431 119.686C139.792 120.744 139.9 122.829 137.983 124.492C137.233 125.415 136.41 126.276 135.523 127.068C135.676 126.419 135.881 125.783 136.136 125.167C136.512 124.27 136.458 123.825 135.369 123.825C134.654 123.866 133.94 123.738 133.284 123.45L133.507 123.212C133.936 122.76 134.473 122.193 134.404 121.541C134.335 120.89 133.568 120.522 132.043 120.307C133.936 117.747 133.683 117.647 133.936 117.747C135.122 118.319 136.279 118.951 137.401 119.64L137.431 119.686ZM136.052 105.889C136.2 106.46 136.305 107.042 136.366 107.629C136.269 107.258 136.06 106.926 135.768 106.678C135.717 106.626 135.652 106.591 135.581 106.576C135.511 106.561 135.437 106.567 135.369 106.594C135.132 106.716 135.04 107.161 135.047 107.437C134.356 110.742 133.23 113.941 131.698 116.95C131.161 117.854 131.192 118.023 131.238 118.138C131.391 118.628 132.15 118.069 132.587 117.892L133.461 117.402C132.429 119.03 131.279 120.58 130.019 122.039C130.74 118.78 130.831 115.414 130.287 112.121C129.694 108.988 128.39 106.033 126.478 103.482C129.442 103.311 132.416 103.466 135.346 103.942C135.728 104.52 135.959 105.184 136.021 105.873L136.052 105.889ZM130.908 98.185C132.697 99.5961 134.144 101.394 135.139 103.443C129.584 102.632 123.925 102.858 118.452 104.11C117.529 104.305 116.678 104.751 115.991 105.398C114.374 107.644 114.32 109.231 113.692 111.024C112.695 113.907 111.937 116.244 111.293 118.383C107.928 116.85 100.078 111.093 99.7947 108.326C99.8484 106.793 101.481 101.565 104.777 98.9055C106.272 97.6786 107.931 96.6672 109.706 95.9007C109.532 96.0646 109.394 96.264 109.304 96.4855C109.213 96.7069 109.171 96.9453 109.181 97.1844C109.19 97.4235 109.251 97.6578 109.359 97.8714C109.466 98.085 109.619 98.273 109.806 98.4226L110.641 99.5034C110.765 99.6705 110.922 99.8106 111.102 99.9152C111.281 100.02 111.481 100.087 111.687 100.112C111.894 100.137 112.103 100.12 112.303 100.061C112.503 100.003 112.688 99.9042 112.849 99.7717C113.015 99.6483 113.155 99.4925 113.26 99.3135C113.364 99.1346 113.431 98.9364 113.457 98.7307C113.483 98.5251 113.467 98.3164 113.41 98.1172C113.352 97.918 113.256 97.7324 113.125 97.5718L112.358 96.399C112.22 96.1105 112.003 95.8676 111.731 95.6991C111.459 95.5306 111.145 95.4436 110.825 95.4485C113.982 94.2912 117.362 93.8742 120.706 94.2297C120.394 95.7193 120.205 97.2318 120.138 98.7522C120.092 99.6567 120.959 99.4114 120.974 98.6602C121.029 97.1806 121.195 95.7072 121.472 94.2527C123.197 94.8429 123.956 94.383 128.095 96.2763C127.582 96.8491 127.108 97.4561 126.677 98.093V98.116C126.593 98.2693 126.447 98.5683 126.738 98.7676C127.03 98.9669 127.574 98.323 127.758 98.07C128.068 97.5791 128.408 97.108 128.777 96.6596C129.981 97.4798 130.31 97.6944 130.878 98.1697L130.908 98.185Z" fill="white"/>
<path d="M137.401 119.64C137.447 119.671 137.447 119.671 137.401 119.64ZM102.799 103.919L102.669 104.325C103.727 104.803 104.723 105.408 105.636 106.126L105.896 105.728C104.917 105.038 103.881 104.433 102.799 103.919ZM106.111 102.922C105.597 102.615 105.344 102.378 104.486 101.788C104.328 101.703 104.179 101.602 104.041 101.489L103.781 101.872C104.133 102.178 104.616 102.408 105.176 102.845C105.606 103.181 106.057 103.491 106.525 103.773C106.617 103.773 106.525 103.834 106.839 103.39C106.608 103.216 106.365 103.06 106.111 102.922ZM126.416 116.574C124.255 113.232 122.377 109.675 120.568 106.218C120.453 106.003 120.338 105.904 120.207 105.904C119.893 105.95 119.709 106.594 119.556 107.276C119.556 107.874 117.885 111.492 116.881 115.095C116.681 115.769 117.111 116.037 117.502 116.198C120.335 117.609 123.414 118.46 126.57 118.705C126.838 118.705 127.167 118.705 127.275 118.521C127.298 118.464 127.305 118.403 127.297 118.342C127.289 118.282 127.266 118.225 127.229 118.176C127.044 117.603 126.77 117.062 126.416 116.574ZM123.825 110.204C123.986 110.603 124.592 110.618 125.358 110.863C125.808 111.045 126.296 111.108 126.777 111.047C126.922 111.001 126.991 110.932 126.976 110.84C126.976 110.595 126.133 110.465 126.133 110.465L125.726 110.419C125.493 110.437 125.259 110.41 125.037 110.337C124.814 110.265 124.608 110.149 124.431 109.997C124.086 109.407 124.27 109.093 124.224 108.464C124.224 107.284 124.278 107.077 124.032 106.647C123.91 106.517 123.695 106.394 123.626 106.778C123.6 107.923 123.667 109.069 123.825 110.204ZM133.031 106.433C132.947 106.203 132.717 105.666 132.495 105.781C132.273 105.896 132.495 106.41 132.84 107.314C133.014 107.692 133.125 108.096 133.169 108.51C133.169 108.962 132.779 109.192 132.403 109.438C132.127 109.53 131.636 109.706 131.514 109.989C131.51 110.034 131.519 110.078 131.54 110.117C131.56 110.156 131.591 110.189 131.629 110.212C132.04 110.181 132.434 110.032 132.763 109.782C133.085 109.637 133.66 109.261 133.721 108.886C133.596 108.042 133.365 107.218 133.031 106.433Z" fill="white"/>
</svg>
