<svg width="154" height="154" viewBox="0 0 154 154" fill="#ffffff" xmlns="http://www.w3.org/2000/svg">
<path d="M37.4828 108.693C37.7741 108.739 39.3685 108.816 39.3685 108.54C39.3685 108.379 39.0772 108.387 39.0772 108.387C39.1155 107.16 40.6716 106.853 41.7831 107.497C42.0894 107.674 42.3727 107.887 42.6262 108.134C41.0549 108.218 38.9699 109.291 39.1079 110.847C39.1871 111.253 39.3572 111.635 39.6055 111.966C39.8538 112.297 40.1737 112.567 40.5413 112.756C41.0008 113.1 41.5241 113.349 42.0808 113.488C42.6375 113.628 43.2164 113.655 43.7837 113.568C44.7941 113.311 45.6832 112.709 46.2979 111.867C47.6873 111.911 49.0467 111.457 50.1306 110.586C50.1763 110.55 50.2142 110.505 50.2419 110.454C50.2696 110.402 50.2865 110.346 50.2916 110.288C50.2916 110.019 50.2916 110.035 48.7585 108.333C48.7151 108.284 48.6607 108.247 48.5999 108.224C48.5391 108.201 48.4736 108.193 48.409 108.2C48.3444 108.208 48.2826 108.231 48.2287 108.267C48.1748 108.304 48.1304 108.352 48.0993 108.41C48.0728 108.443 48.0497 108.479 48.0303 108.517C47.9085 108.745 47.7117 108.925 47.473 109.026C47.2342 109.126 46.9682 109.141 46.7195 109.069C45.953 108.846 44.9642 106.815 43.1628 105.604C41.5914 104.546 39.4835 104.232 37.9964 105.489C37.3564 106.038 36.9013 106.772 36.6933 107.589C36.6105 107.841 36.627 108.116 36.7393 108.356C36.9406 108.551 37.2034 108.67 37.4828 108.693ZM40.365 111.537C40.1548 111.387 40.0089 111.163 39.9564 110.91C39.9038 110.657 39.9484 110.394 40.0814 110.173C40.4213 109.703 40.8937 109.345 41.4381 109.145C40.9989 109.89 40.6392 110.679 40.365 111.499V111.537ZM47.5857 110.326C47.7697 109.774 47.5857 109.966 47.8923 109.828C48.1246 109.712 48.3348 109.556 48.5132 109.368L49.2107 110.196C48.6331 110.562 47.9944 110.821 47.3251 110.962C47.4017 110.763 47.5244 110.456 47.5857 110.288V110.326ZM44.8109 108.371C45.5391 109.283 46.1446 110.096 47.2561 110.004C47.0975 110.334 46.9692 110.678 46.8728 111.031C46.3133 111.069 46.2366 110.939 46.0143 111.031C45.5774 111.2 44.8569 112.771 43.1092 112.763C43.2179 112.52 43.2878 112.262 43.3161 111.997C43.8107 111.897 44.2736 111.679 44.6652 111.361C44.8331 111.215 44.9421 111.014 44.9718 110.793C44.9718 110.525 44.8798 110.18 44.3126 109.728C44.5239 109.28 44.6908 108.813 44.8109 108.333V108.371ZM42.2353 111.269C41.5608 110.908 42.7106 110.272 43.4541 110.295C43.6249 110.296 43.7919 110.346 43.9357 110.438C44.0795 110.531 44.1942 110.662 44.2666 110.816C44.1642 110.981 44.0292 111.124 43.8699 111.234C43.7106 111.345 43.5304 111.422 43.3402 111.461C43.15 111.5 42.9539 111.499 42.7639 111.46C42.5739 111.42 42.3941 111.342 42.2353 111.23V111.269ZM43.1398 106.578C43.6603 107.02 44.1331 107.516 44.5502 108.057C44.3077 108.499 44.1222 108.971 43.9983 109.46C43.6762 109.367 43.3385 109.342 43.0062 109.385C42.6739 109.429 42.3541 109.54 42.0667 109.713C40.6639 110.479 40.9935 112.158 42.9405 111.966C42.8261 112.187 42.7411 112.421 42.6876 112.664C41.9103 112.509 41.1834 112.164 40.5719 111.66C41.1153 110.815 41.5384 109.899 41.8291 108.938C42.1271 108.802 42.4494 108.726 42.7772 108.715C43.105 108.705 43.4315 108.76 43.7377 108.877L43.8987 108.272L43.7301 108.195C43.3698 107.95 43.2088 107.758 42.7949 107.428C42.9485 107.148 43.0645 106.849 43.1398 106.539V106.578ZM40.1657 105.351C41.1249 105.369 42.0538 105.691 42.8179 106.271C42.6806 106.583 42.5778 106.91 42.5113 107.244C42.1438 106.956 41.7104 106.764 41.25 106.685C40.7897 106.606 40.3169 106.643 39.8744 106.792C40.0361 106.327 40.1341 105.842 40.1657 105.351ZM38.4103 105.949C38.8353 105.618 39.3459 105.416 39.8821 105.366C39.6442 105.882 39.4964 106.434 39.4451 106.999C39.2168 107.136 39.0298 107.333 38.9043 107.567C38.7787 107.802 38.7193 108.067 38.7323 108.333C38.1952 108.362 37.6578 108.282 37.1532 108.095C37.2672 107.244 37.7137 106.472 38.395 105.949H38.4103ZM26.9584 104.669C25.5786 104.071 22.5125 105.842 21.9529 106.792C21.872 107.002 21.872 107.234 21.9529 107.444C22.4358 109.276 26.943 115.745 27.7785 116.749C27.9242 116.933 28.1235 116.68 27.9932 116.466C27.5946 115.807 27.6406 117.133 29.6795 110.533C29.8684 110.459 30.0444 110.355 30.2008 110.226C30.2719 110.147 30.3112 110.045 30.3112 109.939C30.3112 109.833 30.2719 109.73 30.2008 109.651C30.1312 109.565 30.0514 109.488 29.9632 109.421L30.4461 107.635L32.3624 108.693C31.9749 109.662 31.6922 110.669 31.5192 111.698C30.7464 111.977 30.0221 112.375 29.3729 112.878C28.9207 113.377 29.6336 114.296 30.0781 114.848C30.5227 115.4 30.8983 115.776 30.9826 115.86C31.067 115.945 31.3353 115.86 31.3123 115.722C31.2636 115.611 31.199 115.508 31.1206 115.416C30.7053 114.769 30.3487 114.087 30.0551 113.377C30.6509 113.02 31.2799 112.722 31.9331 112.487C32.1708 112.403 32.9066 112.173 33.1059 112.296C34.0893 112.814 35.1151 113.247 36.1721 113.591C36.2148 113.612 36.2638 113.614 36.3083 113.598C36.3529 113.583 36.3894 113.55 36.4097 113.507C36.43 113.464 36.4326 113.415 36.4167 113.371C36.4009 113.326 36.3681 113.29 36.3254 113.269L34.9993 112.464C35.2816 111.824 35.4626 111.144 35.5358 110.448L38.8089 112.219C39.0082 112.334 39.1615 112.02 39.0159 111.936C38.8702 111.851 28.936 105.535 26.9584 104.669ZM25.7932 105.481C26.0607 105.401 26.3459 105.401 26.6134 105.481C26.7897 105.558 27.219 105.788 27.8015 106.11C27.605 106.652 27.4713 107.216 27.4029 107.789C26.8894 107.497 26.5828 107.275 26.1765 107.344C25.9551 107.394 25.7479 107.493 25.5709 107.635C25.6476 107.037 25.7166 106.578 25.7932 105.481ZM22.7271 107.168C23.5221 106.41 24.4866 105.853 25.5403 105.543C25.1312 107.351 24.8444 109.184 24.6818 111.031C23.9088 109.807 23.2567 108.51 22.7348 107.16L22.7271 107.168ZM26.2072 113.614C25.7856 112.917 25.3257 112.143 24.8887 111.384C25.1493 110.288 25.2337 109.782 25.3946 108.747C25.814 109.474 26.299 110.162 26.8434 110.801C26.5343 111.714 26.3236 112.657 26.2148 113.614H26.2072ZM27.5486 115.822C27.2726 115.385 26.92 114.795 26.4601 114.036C26.7511 113.074 26.9437 112.085 27.035 111.085C27.2037 111.491 28.7061 110.908 29.1123 110.755C28.8134 111.698 27.7709 114.979 27.5563 115.822H27.5486ZM27.3186 110.847C26.8436 110.025 26.4236 109.172 26.0615 108.295L26.2991 108.164C26.4065 108.226 29.028 109.774 29.2196 109.897C28.6222 110.277 27.9879 110.595 27.3263 110.847H27.3186ZM29.6182 109.161C29.0433 108.777 28.2615 108.31 27.6636 107.965C27.8681 107.422 28.0021 106.855 28.0622 106.279L30.2391 107.505C30.2008 107.796 29.9402 108.394 29.6642 109.161H29.6182ZM34.6927 112.227L33.5122 111.514C32.9877 111.307 32.404 111.307 31.8795 111.514C32.1766 110.618 32.3921 109.697 32.5234 108.762L35.2982 110.295C35.0147 110.92 34.8261 111.584 34.7386 112.265L34.6927 112.227Z" fill="white"/>
<path d="M149.281 114.956C148.04 103.396 137.339 85.6205 130.946 75.9086C134.515 76.1942 138.098 76.2837 141.677 76.1769C142.697 76.1769 145.364 75.9929 145.878 75.8933C146.177 75.8319 146.223 75.5483 145.771 75.533C145.318 75.5177 142.099 75.3644 141.662 75.3567H133.866C132.671 75.4027 130.8 75.51 130.693 75.51C128.393 72.007 126.791 69.8147 126.776 69.807C126.758 69.7892 126.737 69.7753 126.714 69.7663C126.69 69.7573 126.665 69.7534 126.64 69.7549C126.615 69.7564 126.591 69.7632 126.568 69.7748C126.546 69.7865 126.527 69.8028 126.511 69.8226C126.496 69.8424 126.485 69.8653 126.479 69.8897C126.473 69.9141 126.473 69.9395 126.477 69.9641C126.482 69.9888 126.492 70.0121 126.507 70.0326C126.521 70.0531 126.54 70.0703 126.561 70.083C126.914 70.3666 142.406 93.0022 147.143 108.593C149.021 114.779 150.132 122.544 144.077 124.691C129.696 129.826 17.0702 131.497 6.42304 125.457C4.94364 124.622 4.5987 122.882 4.88998 120.536C5.34224 117.278 7.09759 112.871 9.21322 107.934C11.5971 110.234 31.3736 128.393 34.5777 127.711C37.7818 127.029 55.8029 118.658 56.5465 117.056C56.9784 115.943 57.2069 114.762 57.221 113.568C57.3118 113.443 57.354 113.29 57.3399 113.136C57.3258 112.982 57.2563 112.839 57.1444 112.733C55.9563 111.552 32.3854 92.8643 30.8677 92.9179C29.8099 92.9639 27.8936 94.0524 26.9814 94.589C26.6856 94.1051 26.2453 93.7263 25.7227 93.5063C25.2 93.2862 24.6214 93.2359 24.0686 93.3625C23.5474 93.573 23.0807 93.899 22.7036 94.3159C22.3265 94.7328 22.0489 95.2297 21.8916 95.7694C21.9002 95.8108 21.9228 95.848 21.9556 95.8747C21.9885 95.9014 22.0295 95.916 22.0718 95.916C22.1141 95.916 22.1551 95.9014 22.1879 95.8747C22.2207 95.848 22.2433 95.8108 22.2519 95.7694C22.713 94.9897 23.4438 94.4061 24.3062 94.129C24.6648 94.074 25.0316 94.1218 25.364 94.267C25.6965 94.4122 25.9809 94.6488 26.1842 94.9492L17.6604 98.5902C17.2078 98.125 16.6428 97.7844 16.02 97.6014C14.5636 97.2182 13.5824 98.1763 12.9999 99.5791C12.987 99.6194 12.9885 99.663 13.0041 99.7023C13.0196 99.7417 13.0483 99.7745 13.0852 99.7953C13.1221 99.816 13.1651 99.8233 13.2068 99.816C13.2485 99.8088 13.2864 99.7873 13.3142 99.7554C14.2953 98.3373 15.4298 97.8544 16.7865 98.9888C15.1462 99.717 12.8542 100.752 11.2445 101.549C11.3595 101.365 27.9012 71.4091 27.9012 71.3324C28.6294 69.9833 30.0935 67.5687 31.6036 67.2545C32.2861 67.1057 32.9823 67.0286 33.6809 67.0245C32.6154 68.7875 23.9689 83.1217 23.9536 85.1453C23.9536 87.4449 24.3522 87.0846 25.5786 87.4449C26.8051 87.8052 95.4326 87.3836 95.5552 87.3836C96.7433 87.3836 101.389 87.2303 101.818 86.916C103.152 85.9348 102.853 84.4707 102.27 82.93C102.132 82.5621 101.435 81.0367 100.499 78.9977C104.524 77.7866 107.551 79.3273 107.827 85.8965C108.103 91.5765 105.865 93.3088 101.58 93.0636C98.1384 92.8643 95.7622 91.8524 95.011 93.1939C94.1678 94.6886 96.4981 98.046 97.5099 99.4411C97.3642 99.4411 90.9484 99.3108 89.331 99.2418C87.0519 99.1535 84.7698 99.1817 82.4935 99.3261C80.926 99.3606 79.3675 99.5741 77.8484 99.9623C77.2735 100.246 76.5299 101.725 76.2157 102.346C75.5948 103.565 72.7663 111.215 71.9844 113.423C71.5245 114.695 69.9684 118.911 71.0109 119.655C70.9726 120.475 71.1029 121.571 71.8234 121.954C72.544 122.337 82.4476 122.613 83.2064 122.629C84.5478 122.667 98.1078 122.843 106.762 122.46C115.416 122.077 119.195 121.249 118.973 121.272C119.193 121.207 119.39 121.083 119.543 120.912C119.696 120.741 119.798 120.532 119.839 120.306C119.957 119.74 119.92 119.152 119.732 118.604C120.697 116.726 113.392 101.135 111.369 100.039C111.249 99.9717 111.115 99.9348 110.978 99.9317C110.572 99.9317 101.481 99.5484 97.9468 99.4334C97.1803 98.3526 94.689 94.2823 95.6472 93.4162C97.1036 92.1437 109.268 98.5213 108.617 85.8275C108.28 80.0862 105.635 76.7211 100.269 78.6681C99.8018 77.6563 95.8772 69.2704 94.827 67.0398C98.8953 67.2833 102.977 67.1935 107.03 66.7716C107.088 67.487 107.294 68.1825 107.635 68.8145C107.975 69.4464 108.443 70.001 109.008 70.4432C112.074 72.7428 124.277 72.3979 126.492 69.5847C127.113 68.7358 127.542 67.7622 127.75 66.7313C127.958 65.7003 127.939 64.6366 127.696 63.6134C127.9 63.4837 128.058 63.2934 128.148 63.0692C128.271 62.8316 128.148 62.5326 127.619 62.4253C126.937 62.3231 126.247 62.2821 125.557 62.3027C125.557 61.6741 125.596 60.5013 125.557 59.1676C125.626 59.1216 126.124 58.5237 126.178 58.4547C126.789 57.7409 127.271 56.9265 127.604 56.0478C127.857 55.3349 127.956 54.5147 127.29 54.1161C126.262 53.5566 125.542 54.5837 125.197 55.7335C124.875 53.9628 124.131 51.3643 122.353 51.6249C119.333 52.0848 121.418 59.4052 122.399 62.3027C121.537 62.1814 120.663 62.1814 119.801 62.3027C120.759 59.8958 121.249 56.7837 118.789 56.3161C118.416 56.2336 118.027 56.2622 117.67 56.3985C117.313 56.5347 117.004 56.7726 116.78 57.0826C116.731 56.9091 116.639 56.751 116.512 56.623C116.385 56.495 116.227 56.4013 116.054 56.3507C115.881 56.3002 115.698 56.2944 115.522 56.3339C115.346 56.3734 115.183 56.457 115.048 56.5767C113.921 57.3892 114.565 59.2519 115.876 59.8651C115.807 60.6531 115.807 61.4457 115.876 62.2337C115.06 62.1351 114.234 62.1532 113.423 62.2873C113.378 60.4157 113.172 58.5514 112.81 56.7147C113.276 56.3833 113.667 55.9587 113.96 55.4678C114.253 54.9769 114.441 54.4305 114.512 53.8632C114.619 52.8437 114.259 51.9928 113.408 51.7705C112.342 51.4946 111.714 52.2381 111.53 53.3036C110.587 52.0005 108.74 51.5329 107.843 53.0277C104.968 50.0382 103.581 51.7092 104.309 53.0277C104.853 54.0395 106.271 54.6067 107.375 54.921C107.375 56.638 108.142 58.0868 109.092 59.5662C109.728 60.5627 110.441 61.5208 110.993 62.226C109.8 62.1877 108.607 62.2647 107.429 62.456C106.708 62.6476 106.593 63.1689 107.26 63.5445C107.049 64.4429 106.972 65.3676 107.03 66.2886C102.913 66.0695 98.7841 66.1669 94.6814 66.5799C94.4208 66.0204 93.6466 64.3876 93.5546 64.196C93.4626 64.0044 94.1985 61.7814 95.2333 41.1158C99.9858 40.7172 121.357 41.1924 123.319 40.4336C123.431 40.3932 123.531 40.3236 123.608 40.232C123.685 40.1405 123.736 40.0301 123.756 39.9123C124.407 37.7737 124.852 19.3923 123.756 17.6829C123.488 17.2613 122.529 17.131 122.001 17.0544C115.171 16.0579 86.6711 16.4871 85.2071 17.2613C83.743 18.0355 84.3639 25.5935 84.6398 27.0959C69.8381 26.6207 35.6585 27.5482 32.4391 28.7516C31.6726 29.0276 31.3889 30.0777 31.2356 30.8673C29.9632 37.4364 33.5352 58.5773 34.731 65.1082C34.6544 65.1082 34.731 65.1082 33.7959 66.5646C33.0043 66.5059 32.2085 66.5471 31.4273 66.6872C29.6796 66.9555 28.0699 69.3701 27.1807 70.8725C27.1424 70.9492 24.8811 74.7051 24.5438 75.3184C22.6198 75.0194 13.6744 75.1344 12.54 75.1957C11.4055 75.2571 10.2404 75.3414 9.21322 75.418C9.02925 75.418 9.01392 75.7706 9.21322 75.7783C11.3595 75.9086 12.149 75.9546 13.8124 75.9776C17.8827 76.0389 23.8846 76.2075 24.0762 76.1845C23.6776 76.8821 17.7754 87.3836 16.9858 88.8706C13.5518 95.3095 10.8536 101.204 10.6926 101.702C9.80156 102.108 8.96466 102.623 8.2014 103.235C7.9552 103.911 7.80803 104.618 7.76447 105.336C7.72615 106.57 8.17073 106.869 8.85295 107.559C7.0224 111.481 5.51748 115.547 4.35341 119.716C3.97339 121.402 3.95771 123.151 4.30742 124.844C4.6204 126.537 5.20542 128.167 6.03978 129.673C6.41457 130.054 6.90024 130.306 7.4272 130.394C9.44317 130.961 15.6904 131.689 17.783 131.927C17.6253 132.863 17.5815 133.816 17.6527 134.763C17.6548 135.739 17.7968 136.709 18.0743 137.645C18.0768 137.668 18.0839 137.691 18.0951 137.711C18.1062 137.731 18.1213 137.749 18.1395 137.764C18.1576 137.779 18.1785 137.789 18.2008 137.796C18.2232 137.803 18.2466 137.805 18.2698 137.802C18.2929 137.8 18.3154 137.793 18.3358 137.781C18.3562 137.77 18.3742 137.755 18.3888 137.737C18.4034 137.719 18.4143 137.698 18.4208 137.676C18.4274 137.653 18.4294 137.63 18.4269 137.607C18.5495 136.651 18.5829 135.686 18.5266 134.724C18.5215 133.799 18.4161 132.876 18.2123 131.973C19.2701 132.065 20.2896 132.141 21.1788 132.172C21.0374 133.067 20.9988 133.974 21.0638 134.878C21.0664 135.854 21.2083 136.824 21.4854 137.76C21.4854 137.807 21.5039 137.852 21.537 137.885C21.5701 137.918 21.6149 137.936 21.6617 137.936C21.7084 137.936 21.7533 137.918 21.7863 137.885C21.8194 137.852 21.838 137.807 21.838 137.76C21.9647 136.805 22.0007 135.84 21.9453 134.878C21.94 133.983 21.8372 133.091 21.6387 132.218C23.348 132.256 48.5056 134.518 91.9525 133.659C103.596 133.429 117.593 132.892 129.122 131.628C128.969 132.552 128.926 133.491 128.991 134.426C128.995 135.399 129.14 136.368 129.421 137.3C129.415 137.326 129.415 137.352 129.422 137.378C129.428 137.403 129.44 137.427 129.456 137.448C129.473 137.468 129.493 137.484 129.517 137.496C129.541 137.507 129.567 137.513 129.593 137.513C129.619 137.513 129.645 137.507 129.669 137.496C129.693 137.484 129.713 137.468 129.73 137.448C129.747 137.427 129.758 137.403 129.764 137.378C129.771 137.352 129.771 137.326 129.765 137.3C129.899 136.345 129.935 135.38 129.873 134.418C129.864 133.471 129.754 132.528 129.543 131.605C130.394 131.513 132.364 131.267 132.533 131.244C132.382 132.164 132.341 133.098 132.41 134.027C132.41 135.003 132.552 135.974 132.832 136.909C132.837 136.956 132.86 136.999 132.897 137.028C132.933 137.058 132.98 137.071 133.027 137.066C133.074 137.061 133.117 137.038 133.146 137.001C133.176 136.964 133.189 136.918 133.184 136.871C133.31 135.918 133.344 134.955 133.284 133.996C133.279 133.052 133.168 132.111 132.954 131.191C136.411 130.723 146.982 129.297 148.423 126.346C150.125 122.981 149.987 118.604 149.281 114.956ZM79.5271 102.615C79.6114 102.408 82.1793 101.848 84.9848 102.615C85.0105 102.609 85.037 102.609 85.0626 102.616C85.0881 102.622 85.1119 102.633 85.1323 102.65C85.1527 102.667 85.1692 102.687 85.1805 102.711C85.1918 102.735 85.1976 102.761 85.1976 102.787C85.1976 102.813 85.1918 102.839 85.1805 102.863C85.1692 102.887 85.1527 102.907 85.1323 102.924C85.1119 102.941 85.0881 102.952 85.0626 102.958C85.037 102.965 85.0105 102.965 84.9848 102.959C83.5878 103.208 82.1613 103.244 80.7535 103.067C80.0943 102.959 79.2588 102.952 79.5041 102.615H79.5271ZM118.934 120.843C111.844 122.192 72.6743 121.885 72.0841 121.609C71.4938 121.333 71.4402 120.444 71.4248 119.861C75.6714 121.241 117.164 120.176 119.471 118.957C119.594 119.632 119.624 120.712 118.911 120.843H118.934ZM104.056 102.699C104.056 102.438 105.742 102.293 105.819 102.285C106.822 102.208 107.829 102.208 108.832 102.285C109.391 102.346 110.165 102.423 110.104 102.661C110.043 102.898 108.885 102.998 108.686 103.028C107.937 103.098 107.185 103.128 106.432 103.12C105.926 103.105 104.002 103.013 104.033 102.699H104.056ZM113.906 105.251C115.824 108.906 117.434 112.713 118.72 116.634C118.883 117.13 118.974 117.646 118.988 118.167C115.531 119.241 75.6868 120.344 71.6548 119.187C71.4632 119.133 71.4095 119.187 71.3635 118.865C71.0722 116.78 74.4833 108.494 75.2728 106.562C89.7756 106.079 113.753 105.336 113.883 105.251H113.906ZM107.452 54.5761C106.613 54.1156 105.853 53.5258 105.198 52.8284C104.899 52.3761 104.968 52.0618 105.85 52.4911C106.402 52.744 107.176 53.1963 107.697 53.5106C107.563 53.8517 107.48 54.2107 107.452 54.5761ZM125.849 55.9481C126.462 54.8443 127.067 54.5301 127.006 55.1816C126.677 56.3475 126.208 57.4696 125.611 58.5237C125.565 57.7572 125.511 57.2436 125.45 56.7377C125.481 56.6304 125.634 56.3084 125.826 55.9481H125.849ZM122.591 62.617C122.744 63.0539 122.844 63.3145 122.851 63.3298C122.86 63.3515 122.873 63.3714 122.889 63.3882C122.905 63.4049 122.924 63.4184 122.946 63.4276C122.967 63.4369 122.99 63.4418 123.013 63.4421C123.037 63.4425 123.06 63.4382 123.081 63.4295C123.419 63.2992 122.92 62.9849 122.123 58.3627C121.886 56.983 121.18 52.7287 122.575 52.5294C123.71 52.3608 124.323 55.1739 124.538 56.2854C124.935 58.4278 125.192 60.5941 125.304 62.7703C125.304 62.8127 125.319 62.8539 125.346 62.8864C125.373 62.9188 125.412 62.9402 125.453 62.9468C125.495 62.9533 125.538 62.9445 125.574 62.9219C125.61 62.8993 125.637 62.8645 125.649 62.8239C125.652 62.7805 125.652 62.737 125.649 62.6936C126.342 62.714 127.031 62.8091 127.704 62.9772C127.618 63.0771 127.51 63.1559 127.389 63.2072C125.78 64.035 120.912 63.8741 119.233 63.8434C119.463 63.3835 119.624 63.0309 119.801 62.6093C120.717 62.7599 121.651 62.7624 122.568 62.617H122.591ZM116.612 60.9383C116.788 59.4052 117.179 56.96 118.727 57.2512C120.276 57.5425 119.885 59.7885 119.548 61.2909C119.34 62.1528 119.084 63.0024 118.781 63.8357H116.482C116.463 62.8687 116.499 61.9013 116.589 60.9383H116.612ZM115.638 57.3356C115.674 57.3016 115.716 57.2755 115.763 57.2589C115.809 57.2423 115.858 57.2355 115.907 57.2392C115.957 57.2428 116.004 57.2566 116.048 57.2798C116.091 57.303 116.129 57.3351 116.16 57.3739C116.282 57.4961 116.392 57.6296 116.489 57.7725C116.271 58.2613 116.119 58.7768 116.037 59.3055C115.638 58.7536 115.125 57.7495 115.638 57.3356ZM113.224 52.6751C114.22 52.9893 113.438 55.6109 112.772 56.4081C112.587 55.583 112.312 54.781 111.951 54.0165C112.174 53.3419 112.549 52.4604 113.224 52.6674V52.6751ZM111.338 62.7013C111.714 63.1765 111.959 63.4678 111.959 63.4678C111.989 63.4979 112.03 63.5158 112.072 63.5183C112.115 63.5209 112.157 63.5078 112.191 63.4815C112.225 63.4552 112.248 63.4176 112.256 63.3756C112.264 63.3336 112.257 63.2901 112.235 63.2532C112.235 63.2532 110.878 61.3215 109.759 59.3209C108.916 57.7878 108.111 56.2547 108.333 54.5607C108.51 53.227 109.215 52.6597 110.403 53.4339C112.12 54.5377 112.902 61.3445 113.147 63.3988C113.149 63.4526 113.168 63.5043 113.201 63.5468C113.234 63.5894 113.28 63.6207 113.331 63.6364C113.538 63.6364 113.507 63.4141 113.5 63.3068C113.492 63.1995 113.5 62.6629 113.5 62.6093C114.314 62.7123 115.138 62.7123 115.953 62.6093C115.999 63.1689 116.052 63.6058 116.091 63.8357C113.369 63.8357 110.081 64.0197 107.827 63.1382C108.986 62.909 110.159 62.763 111.338 62.7013ZM107.666 63.8281C108.788 64.2626 109.969 64.5211 111.169 64.5946C112.526 64.7173 121.763 64.7326 122.813 64.6789C124.397 64.6529 125.964 64.3601 127.451 63.8127C127.593 64.754 127.539 65.7146 127.293 66.6341C127.046 67.5535 126.612 68.412 126.017 69.1555C124.154 71.3401 112.373 71.8383 109.544 69.8453C107.682 68.5652 107.344 66.005 107.666 63.8204V63.8281ZM101.488 86.3334C101.649 86.847 28.5604 86.87 28.4838 86.8623C25.4177 86.8623 26.1842 86.8623 25.1571 86.6094C24.8811 86.548 24.8274 86.548 24.7738 86.2798C24.7088 85.8589 24.6908 85.4321 24.7201 85.0073C24.7362 85.0388 24.7622 85.0641 24.794 85.0793C24.8259 85.0945 24.8619 85.0989 24.8964 85.0916C24.8964 85.0916 101.465 84.0492 101.963 84.0338C102.17 84.9307 102.201 85.7662 101.488 86.3334ZM123.051 39.8127C123.051 39.8127 123.097 39.736 123.112 39.759C123.127 39.782 123.051 39.805 123.012 39.8127H123.051ZM84.9311 20.4808C84.9311 19.9825 85.1304 18.0969 85.575 17.8669C86.5868 17.361 118.743 16.9317 123.135 18.3038C123.902 19.9135 123.656 37.996 123.012 39.8127C119.241 40.4029 100.262 40.3569 95.3253 40.8628C95.6242 34.8302 95.7545 29.7481 95.5092 28.7593C95.4619 28.6303 95.3854 28.5141 95.2857 28.4197C95.1859 28.3252 95.0657 28.2552 94.9343 28.2151C93.2556 27.4869 86.9394 27.2799 85.0997 27.2186C84.861 24.9809 84.8046 22.7276 84.9311 20.4808ZM31.9255 39.782C31.8105 38.1723 31.2433 30.0471 32.7764 29.4798C33.5429 29.2116 36.2411 28.9433 40.1581 28.7133C47.6624 28.2457 59.49 27.8701 70.252 27.7935C72.6436 27.7935 92.8494 27.6172 94.827 28.9739C95.4096 31.6261 93.5469 61.0916 93.133 63.9354C75.0199 64.5256 53.557 65.4148 35.2906 64.9702C34.984 63.2148 32.6384 49.6703 31.9255 39.782ZM35.053 65.4838C35.0544 65.4659 35.0544 65.448 35.053 65.4301C47.969 65.8287 88.3882 64.5026 93.3093 64.472C93.8535 65.7367 101.496 82.6924 101.818 83.6352C101.733 83.6352 24.8351 84.6777 24.7355 84.7544C25.7013 81.5196 33.6885 67.8447 35.053 65.4838ZM56.1249 116.841C55.5577 117.945 38.372 125.626 34.8383 126.691C34.9069 126.338 34.9326 125.978 34.915 125.618C40.1351 123.809 51.4644 119.034 56.5465 115.653C56.4496 116.066 56.3083 116.467 56.1249 116.849V116.841ZM56.6538 115.147C55.1207 116.052 53.6567 116.68 34.9073 125.204C34.908 124.857 34.8616 124.512 34.7693 124.177C37.2222 123.027 53.856 116.581 56.8224 114.013C56.7841 114.342 56.7304 114.741 56.6538 115.155V115.147ZM17.1698 99.4181C17.5384 99.8523 17.7665 100.388 17.824 100.955C17.8815 101.521 17.7656 102.092 17.4917 102.592C17.3691 102.783 17.6604 102.982 17.783 102.783C18.2458 102.279 18.5193 101.63 18.5571 100.946C18.5948 100.263 18.3944 99.5871 17.99 99.0348C21.7153 97.3255 25.3793 95.7158 26.3835 95.2788C26.6347 95.7892 26.7692 96.3491 26.7771 96.9179C26.7851 97.4866 26.6663 98.0501 26.4295 98.5672C26.3375 98.8125 26.6135 98.9045 26.7438 98.7436C27.1654 98.2079 27.4277 97.5644 27.5009 96.8866C27.5741 96.2089 27.4552 95.5242 27.1577 94.9109C27.9856 94.4433 29.9172 93.3778 30.86 93.3778C32.0405 93.3778 55.9946 112.863 56.4392 113.308C54.4385 115.37 35.8655 122.721 34.3018 123.472C31.0057 122.705 10.8919 105.405 9.00625 103.626C10.179 102.653 15.8514 100.031 17.1698 99.4181ZM8.42369 103.979C10.8153 106.317 30.7681 123.732 34.1101 124.284C34.0431 124.573 34.0122 124.869 34.0181 125.166C28.6524 122.544 13.3218 109.268 8.24739 104.998C8.27038 104.998 8.38536 104.247 8.44668 103.979H8.42369ZM8.53867 106.608C8.32245 106.279 8.21519 105.89 8.23206 105.497C13.2452 110.556 27.3953 122.997 34.0105 125.587C33.9968 125.997 34.0381 126.407 34.1331 126.806C30.2008 125.925 9.05991 107.237 8.56166 106.608H8.53867ZM148.047 126.093C143.095 135.92 8.72264 133.352 6.54569 129.52C5.62293 127.916 4.99956 126.157 4.70602 124.33C5.00172 124.978 5.49564 125.515 6.11643 125.863C17.3998 132.433 129.658 130.716 144.314 125.449C147.419 124.33 148.982 121.916 149.335 118.551C149.543 121.135 149.095 123.729 148.032 126.093H148.047Z" fill="white"/>
<path d="M33.267 73.9616C87.4684 74.7281 92.6424 74.2605 94.1602 74.0229C94.5204 73.9693 94.7504 73.8466 94.7351 73.425C94.7351 72.3136 92.1289 67.2161 91.439 66.8635C91.1324 66.7026 36.2488 67.4767 36.0571 67.5381C36.0214 67.5467 35.988 67.5627 35.9589 67.5852C35.9298 67.6077 35.9059 67.636 35.8885 67.6684C35.3673 68.5192 32.8224 72.7198 32.9374 73.6703C32.9498 73.7496 32.9896 73.8221 33.0497 73.8753C33.1099 73.9285 33.1867 73.959 33.267 73.9616ZM36.2794 68.067C36.8313 67.998 90.8258 67.4614 91.1554 67.4921C91.7276 68.3153 92.24 69.1786 92.6884 70.0753C91.4313 70.0753 35.2446 70.3742 34.9533 70.3819C35.2906 69.7074 35.7352 68.9408 36.2794 68.067ZM34.7464 70.7498C35.0453 70.7498 91.8989 70.4586 92.8724 70.4356C93.3768 71.3748 93.7753 72.3671 94.0605 73.3944C91.3317 73.8313 66.4654 73.6167 33.5429 73.3944C33.8505 72.4659 34.2485 71.5699 34.7311 70.7192L34.7464 70.7498ZM75.5718 76.5678C75.4189 76.2293 75.169 75.9438 74.8539 75.7474C74.5387 75.5509 74.1723 75.4523 73.8011 75.464C71.8541 75.464 55.504 75.0117 54.0323 75.6096C53.0927 76.7481 52.3657 78.0463 51.886 79.4423C51.84 79.7796 52.0087 79.9329 52.2156 79.9559C56.8148 80.4541 72.0611 80.9294 76.0164 80.2012C76.507 80.1092 76.5683 79.5879 76.4686 79.0897C76.2313 78.2284 75.9316 77.3855 75.5718 76.5678ZM52.4302 79.4423C52.8705 78.1985 53.4682 77.0161 54.2086 75.9239C55.3737 75.5407 70.528 76.3378 73.8241 76.3302C74.0203 76.3232 74.2144 76.3729 74.383 76.4736C74.5517 76.5742 74.6876 76.7214 74.7746 76.8974C75.1472 77.6936 75.4374 78.5258 75.6408 79.381C71.7545 79.9865 55.2511 79.6416 52.4302 79.4423ZM128.807 77.549C127.727 76.0619 122.307 76.1309 120.49 76.1845C118.957 76.1845 113.385 76.4375 113.385 77.9399C113.391 78.0616 113.426 78.18 113.488 78.2853C113.549 78.3906 113.635 78.4798 113.737 78.5455C113.883 78.6604 112.879 88.7633 114.259 94.1827C114.711 95.9764 115.293 96.8655 117.003 97.6091C120.284 99.0348 125.726 98.7205 127.911 95.6774C128.347 94.7882 128.255 92.1974 128.294 91.4078C131.69 92.0824 134.472 90.7026 135.193 87.0463C135.645 84.693 135.062 83.1523 134.058 82.2171C133.387 81.6709 132.594 81.2951 131.747 81.1216C130.899 80.9481 130.022 80.9821 129.191 81.2206C129.162 81.2305 129.131 81.2332 129.1 81.2285C129.07 81.2239 129.041 81.2121 129.017 81.1941C128.992 81.1761 128.972 81.1524 128.958 81.125C128.944 81.0976 128.937 81.0673 128.938 81.0367C128.938 80.6304 129.083 77.8786 128.807 77.549ZM114.243 77.7099C116.313 76.4988 124.745 76.4068 127.466 77.6409C127.558 77.6869 127.903 77.8632 127.903 77.9399C127.903 78.0165 127.55 78.2005 127.466 78.2388C125.412 79.1663 118.076 79.5879 114.22 78.1775C113.952 78.0319 114.22 77.7406 114.22 77.7099H114.243ZM129.405 82.0025C130.102 81.8017 130.837 81.7729 131.547 81.9184C132.257 82.0639 132.922 82.3795 133.483 82.838C134.311 83.6046 134.725 84.923 134.342 86.8776C134.265 87.5572 134.03 88.2091 133.654 88.7805C133.279 89.3519 132.774 89.8266 132.18 90.1661C130.923 90.7318 129.508 90.8403 128.179 90.4727C128.114 90.449 128.044 90.439 127.975 90.4433C127.905 90.4476 127.838 90.4662 127.776 90.4978C127.714 90.5295 127.659 90.5735 127.615 90.6272C127.571 90.6809 127.539 90.7431 127.52 90.8099C127.313 91.3925 127.604 93.7458 127.182 95.2328C125.243 97.862 120.284 98.0997 117.348 96.8655C115.861 96.2293 115.447 95.5701 115.048 93.9834C114.021 90.2197 113.96 82.5544 114.19 78.7831C116.604 79.9252 124.967 80.2548 128.255 78.5684C128.255 80.9447 127.964 81.3433 128.562 81.8262C128.678 81.9134 128.811 81.9744 128.953 82.0049C129.094 82.0353 129.241 82.0345 129.382 82.0025H129.405ZM54.9445 98.2453C52.9314 96.5379 50.7658 95.0189 48.4749 93.7074C47.5924 93.1867 46.6539 92.7676 45.6771 92.458C44.8569 92.2434 44.512 92.6649 44.6806 93.2245C45.0262 94.0279 45.4829 94.7788 46.0374 95.4551C47.8011 97.6877 49.8294 99.698 52.0776 101.442C55.4964 104.301 59.9269 107.766 63.1617 110.226C63.3265 110.347 63.5137 110.433 63.7123 110.48C63.9109 110.527 64.1169 110.534 64.3182 110.501C64.5196 110.467 64.7122 110.394 64.8848 110.285C65.0574 110.176 65.2065 110.033 65.3233 109.866C65.8905 109.245 66.2431 108.157 65.6069 107.566C64.871 106.907 60.3715 102.668 54.9445 98.2453ZM47.6011 96.5436L46.551 94.8496C46.9248 94.6943 47.241 94.4264 47.4555 94.083L49.1188 94.7576C48.7014 94.8404 48.3243 95.0619 48.0488 95.3861C47.7732 95.7104 47.6155 96.1183 47.6011 96.5436ZM49.9543 98.4982C49.4004 98.032 48.8875 97.5191 48.4213 96.9652C48.4749 96.0377 48.7662 95.6238 49.6937 95.5931C50.3117 95.8883 50.8952 96.2508 51.4338 96.6739C51.0216 96.7743 50.6537 97.0071 50.3865 97.3366C50.1192 97.6662 49.9674 98.0742 49.9543 98.4982ZM63.062 109.651C62.2112 108.938 50.8972 99.3414 50.1996 98.7282C50.2581 98.2991 50.4456 97.8978 50.7371 97.5775C51.0287 97.2572 51.4106 97.033 51.8324 96.9345C54.4769 98.8968 58.2789 102.147 64.9094 107.666C64.6513 107.653 64.3934 107.696 64.1539 107.793C63.9144 107.891 63.6991 108.039 63.5231 108.228C63.347 108.417 63.2145 108.643 63.1349 108.889C63.0552 109.134 63.0304 109.395 63.062 109.651ZM123.802 118.144C124.76 118.796 125.427 118.497 126.048 117.593C127.581 115.416 132.947 105.78 132.947 105.704C132.947 105.627 133.008 105.773 132.755 102.676C132.744 102.559 132.702 102.448 132.633 102.353C132.564 102.259 132.471 102.185 132.364 102.138C132.257 102.092 132.139 102.076 132.023 102.091C131.907 102.106 131.797 102.152 131.705 102.224L129.083 104.132C129.083 104.132 123.265 116.159 123.204 116.266C123.099 116.603 123.1 116.964 123.207 117.3C123.314 117.636 123.521 117.931 123.802 118.144ZM131.919 103.159C131.965 103.718 132.027 104.462 132.073 104.975C131.503 104.703 130.907 104.49 130.294 104.339L131.919 103.159ZM129.727 104.86C130.392 105.331 131.159 105.636 131.965 105.75C131.85 105.949 125.994 116.634 125.933 116.742C125.755 116.38 125.462 116.086 125.1 115.907C124.739 115.729 124.328 115.674 123.932 115.753C124.53 114.641 129.513 105.244 129.727 104.86Z" fill="white"/>
<path d="M126.201 89.6601C126.118 89.5442 126.013 89.4458 125.892 89.3708C125.771 89.2958 125.637 89.2456 125.496 89.2232C125.042 89.102 124.581 89.0099 124.116 88.9473C124.377 90.7716 124.53 92.7799 124.522 92.9562C124.511 93.0729 124.453 93.1803 124.363 93.255C124.273 93.3296 124.156 93.3655 124.039 93.3548C123.922 93.3413 123.815 93.2824 123.74 93.1907C123.666 93.099 123.63 92.9819 123.641 92.8642C123.641 92.7339 123.595 92.205 123.557 88.8706C122.023 88.679 114.642 88.1041 114.933 89.5758C114.933 89.6525 114.328 93.4085 116.673 95.2098C119.019 97.0112 123.71 96.6586 125.35 94.8266C125.816 94.2689 126.123 93.5965 126.239 92.8796C126.42 91.8129 126.407 90.7222 126.201 89.6601ZM128.041 82.723C128.041 83.068 127.581 85.7048 127.274 89.2462L127.642 89.3229C128.991 89.6092 130.396 89.456 131.651 88.8859C132.089 88.6428 132.451 88.284 132.699 87.8486C132.946 87.4133 133.069 86.9182 133.054 86.4177C133.106 85.7955 132.998 85.1704 132.74 84.6018C132.481 84.0333 132.082 83.5403 131.579 83.1699C131.077 82.7995 130.488 82.5639 129.868 82.4857C129.249 82.4075 128.62 82.4892 128.041 82.723ZM128.386 82.9837C128.875 82.9062 129.375 82.9345 129.852 83.0668C130.33 83.199 130.773 83.432 131.153 83.7502C131.517 84.0845 131.8 84.4985 131.978 84.9599C132.156 85.4213 132.225 85.9175 132.18 86.41C132.111 88.38 130.087 88.7556 128.148 88.5563C128.24 87.1613 128.317 85.5592 128.386 82.9837ZM120.176 37.9883C120.174 38.1248 120.199 38.2604 120.25 38.3873C120.3 38.5141 120.376 38.6296 120.471 38.7273C120.567 38.8249 120.68 38.9026 120.806 38.956C120.932 39.0094 121.067 39.0375 121.203 39.0385C121.412 39.043 121.617 38.9853 121.793 38.8728C121.969 38.7602 122.107 38.5978 122.19 38.4064C122.273 38.2149 122.297 38.0031 122.259 37.7979C122.221 37.5927 122.123 37.4034 121.977 37.2543C121.831 37.1051 121.644 37.0028 121.44 36.9603C121.235 36.9179 121.023 36.9373 120.83 37.0161C120.637 37.0949 120.471 37.2294 120.355 37.4026C120.238 37.5757 120.176 37.7796 120.176 37.9883ZM36.2794 63.2762C36.4557 63.6211 36.6856 63.6594 36.8313 63.5521C36.9769 63.4448 85.5213 63.0232 89.1316 62.8316C89.9081 62.8435 90.6823 62.7454 91.4312 62.5403C93.1559 61.0072 93.8305 32.3466 93.1559 31.0205C91.4312 27.5788 37.4521 29.7941 34.1331 30.7983C31.4885 31.5954 35.0606 60.8309 36.2794 63.2762ZM33.9874 32.04C33.9874 31.9021 34.1561 31.3655 34.2864 31.3272C37.9581 30.2234 91.2703 28.4067 92.719 31.2888C92.8426 31.8655 92.8991 32.4545 92.8876 33.0442C93.018 36.3863 92.8876 43.5457 92.5427 49.9615C92.4737 51.188 91.9295 61.2372 91.1323 62.1494C87.9512 62.8239 38.9316 62.9772 36.7546 63.0615C35.5128 60.1794 32.83 37.0991 33.9874 32.04ZM121.303 21.0863C121.511 21.0909 121.716 21.0334 121.892 20.9211C122.067 20.8089 122.205 20.647 122.289 20.456C122.372 20.265 122.396 20.0535 122.359 19.8486C122.322 19.6436 122.224 19.4543 122.079 19.3048C121.934 19.1554 121.748 19.0525 121.544 19.0092C121.34 18.9659 121.128 18.9842 120.935 19.0618C120.741 19.1394 120.576 19.2727 120.458 19.4449C120.341 19.617 120.277 19.8202 120.276 20.0285C120.273 20.1657 120.297 20.3021 120.347 20.4298C120.397 20.5575 120.472 20.674 120.568 20.7724C120.664 20.8708 120.778 20.9493 120.904 21.0032C121.03 21.0571 121.166 21.0853 121.303 21.0863Z" fill="white"/>
<path d="M48.9885 51.3566H58.0948C59.1486 51.3525 60.1577 50.9305 60.9007 50.1833C61.6437 49.436 62.0598 48.4244 62.0578 47.3706V39.9813C62.0579 38.9252 61.6421 37.9116 60.9004 37.1599C60.1587 36.4082 59.1508 35.9788 58.0948 35.9647H48.9885C48.4604 35.9626 47.9372 36.0651 47.449 36.2663C46.9607 36.4674 46.5171 36.7632 46.1438 37.1366C45.7704 37.51 45.4746 37.9536 45.2735 38.4418C45.0723 38.93 44.9698 39.4532 44.9718 39.9813V47.3706C44.9738 47.8961 45.0793 48.416 45.2823 48.9007C45.4852 49.3854 45.7816 49.8254 46.1546 50.1955C46.5276 50.5656 46.9698 50.8587 47.4561 51.0579C47.9423 51.2571 48.463 51.3586 48.9885 51.3566ZM45.6234 39.9813C45.6373 39.0953 45.9971 38.2498 46.6258 37.6254C47.2545 37.001 48.1024 36.6471 48.9885 36.6392H58.0948C58.5423 36.6341 58.9864 36.7178 59.4014 36.8853C59.8164 37.0528 60.1941 37.3009 60.5127 37.6152C60.8312 37.9295 61.0844 38.3038 61.2575 38.7165C61.4306 39.1292 61.5202 39.5721 61.5212 40.0196V47.3706C61.5192 47.8186 61.429 48.2617 61.2557 48.6748C61.0824 49.0879 60.8295 49.4628 60.5113 49.7781C60.1931 50.0935 59.816 50.343 59.4014 50.5126C58.9867 50.6821 58.5428 50.7684 58.0948 50.7664H48.9885C48.5445 50.7644 48.1054 50.6749 47.696 50.5032C47.2866 50.3314 46.9151 50.0808 46.6026 49.7654C46.2902 49.4501 46.0428 49.0763 45.8748 48.6654C45.7068 48.2545 45.6214 47.8145 45.6234 47.3706V39.9813ZM73.6094 56.8296C73.7627 57.2819 74.146 57.1822 74.2533 56.8986C74.3989 56.4923 75.2498 53.5719 75.3571 53.066C75.9473 52.882 74.284 53.4569 79.4274 51.5865C79.4807 51.5659 79.5266 51.5296 79.5589 51.4824C79.5912 51.4352 79.6085 51.3793 79.6085 51.3221C79.6085 51.2649 79.5912 51.209 79.5589 51.1618C79.5266 51.1146 79.4807 51.0783 79.4274 51.0576L71.5474 47.9072C71.499 47.8843 71.4455 47.8745 71.3921 47.8787C71.3387 47.883 71.2874 47.9011 71.2432 47.9313C71.199 47.9616 71.1635 48.0028 71.1403 48.0511C71.117 48.0993 71.1067 48.1527 71.1105 48.2061C71.1105 48.2061 73.1878 55.6108 73.6094 56.8296ZM71.9001 48.7274L78.5382 51.3413C77.649 51.6709 76.1466 52.2381 75.4261 52.5294C75.1041 52.652 74.9738 52.7057 74.8972 52.8053C74.8205 52.905 75.0888 52.3071 73.962 55.7795L71.9001 48.7274ZM89.9902 26.2527C89.9992 26.2987 90.0241 26.34 90.0605 26.3695C90.097 26.3989 90.1426 26.4146 90.1895 26.4137C90.3504 26.4137 95.3099 26.8889 96.3217 26.6206C96.9733 26.4443 97.0882 25.2945 97.1496 24.62C97.2262 23.6005 97.1496 21.1016 96.7203 20.2508C96.1378 19.101 91.8375 19.4842 90.5881 19.7065C90.2564 19.7532 89.9395 19.8737 89.6606 20.0591C89.4982 20.2476 89.4037 20.4851 89.3923 20.7337C89.3847 22.5899 89.5853 24.4412 89.9902 26.2527ZM90.2125 20.6494C91.4236 20.2738 94.873 20.1281 95.9691 20.6494C96.3447 21.6459 96.544 25.0723 96.0918 25.8694C95.3789 26.0534 91.025 26.0534 90.2968 26.0611C90.2738 25.4632 89.9212 22.2361 90.2125 20.6494ZM100.277 26.222C100.287 26.2674 100.313 26.3079 100.349 26.3371C100.385 26.3663 100.43 26.3825 100.476 26.383C100.637 26.383 105.597 26.8583 106.609 26.59C107.26 26.4137 107.375 25.2639 107.444 24.5893C107.513 23.5699 107.444 21.071 107.007 20.2201C106.425 19.0627 102.124 19.4536 100.875 19.6759C100.544 19.7257 100.228 19.8459 99.9474 20.0285C99.7884 20.219 99.6944 20.4553 99.6791 20.703C99.672 22.5592 99.8725 24.4104 100.277 26.222ZM100.499 20.6187C101.71 20.2354 105.16 20.0975 106.256 20.6187C106.632 21.6152 106.831 25.0416 106.379 25.8311C105.666 26.0228 101.312 26.0227 100.584 26.0304C100.561 25.4325 100.208 22.2054 100.499 20.6187ZM111.039 26.5593C111.048 26.6053 111.073 26.6466 111.109 26.6761C111.146 26.7055 111.192 26.7212 111.238 26.7203C111.399 26.7203 116.359 27.1955 117.371 26.9273C118.022 26.751 118.137 25.6012 118.199 24.9266C118.275 23.9071 118.199 21.4082 117.769 20.5574C117.187 19.4076 112.886 19.7909 111.637 20.0131C111.306 20.0618 110.989 20.1821 110.709 20.3658C110.547 20.5542 110.453 20.7918 110.441 21.0403C110.434 22.8965 110.634 24.7478 111.039 26.5593ZM111.261 20.956C112.473 20.5804 115.922 20.4347 117.018 20.956C117.394 21.9525 117.593 25.3789 117.141 26.1761C116.428 26.36 112.074 26.36 111.346 26.3677C111.323 25.7698 110.97 22.5427 111.261 20.956ZM100.346 38.0113C100.4 38.1646 100.522 38.1799 100.545 38.1723C100.714 38.1723 105.666 38.6475 106.678 38.3792C107.329 38.2029 107.444 37.0531 107.513 36.3786C107.582 35.3591 107.513 32.8602 107.084 32.017C106.494 30.8596 102.193 31.2505 100.952 31.4651C100.618 31.5127 100.299 31.633 100.016 31.8177C99.8559 32.0103 99.7618 32.2496 99.7481 32.4999C99.7409 34.3536 99.9415 36.2023 100.346 38.0113ZM100.576 32.4079C101.787 32.0323 105.229 31.8867 106.325 32.4079C106.701 33.4044 106.9 36.8308 106.448 37.628C105.735 37.812 101.388 37.812 100.66 37.8197C100.63 37.2218 100.277 33.9947 100.576 32.4079ZM118.267 31.7027C119.494 29.8937 120.567 28.261 120.605 28.1844C120.644 28.1077 120.084 27.4178 119.755 27.9084C117.409 31.5188 117.731 31.1738 117.562 31.1125C116.213 30.6219 111.859 30.7906 111.177 31.4268C110.717 31.856 110.893 33.4121 110.947 34.079C110.457 33.803 110.081 33.6037 109.943 33.5501C109.59 33.4121 109.613 33.757 109.805 33.8797L111.001 34.6462C111.098 35.6536 111.254 36.6544 111.468 37.6434C111.476 37.6901 111.5 37.7323 111.537 37.762C111.574 37.7918 111.62 37.8068 111.668 37.8043C111.829 37.8043 116.788 38.2796 117.8 38.0113C119.118 37.6434 118.712 32.8065 118.267 31.7027ZM111.691 32.017C113.494 31.6067 115.362 31.5728 117.179 31.9174L114.519 36.1103C114.251 35.957 112.817 35.1138 111.622 34.4393C111.571 33.6391 111.594 32.836 111.691 32.04V32.017ZM117.57 37.2294C116.849 37.4211 112.503 37.4211 111.775 37.4287C111.775 37.1221 111.66 36.118 111.606 35.0065L114.519 36.8155C114.593 36.8236 114.667 36.8105 114.734 36.778C114.8 36.7454 114.856 36.6946 114.895 36.6315C115.14 36.3173 116.374 34.5236 117.631 32.6762C117.869 34.056 117.946 36.5702 117.585 37.2294H117.57ZM87.0927 20.8333C87.3007 20.8364 87.5049 20.7776 87.6794 20.6644C87.854 20.5512 87.9909 20.3887 88.073 20.1975C88.155 20.0064 88.1785 19.7952 88.1403 19.5907C88.1022 19.3862 88.0041 19.1976 87.8587 19.0489C87.7132 18.9002 87.5269 18.7981 87.3232 18.7555C87.1196 18.7128 86.908 18.7316 86.7151 18.8094C86.5221 18.8873 86.3567 19.0206 86.2397 19.1926C86.1227 19.3646 86.0594 19.5675 86.0579 19.7755C86.0578 20.0521 86.1661 20.3178 86.3595 20.5155C86.553 20.7132 86.8161 20.8273 87.0927 20.8333Z" fill="white"/>
</svg>
