<svg width="189" height="189" viewBox="0 0 189 189" fill="none" xmlns="http://www.w3.org/2000/svg">
<path d="M87.7882 185.574C88.5882 184.774 89.7882 184.774 90.5882 185.574C91.3882 186.374 91.3882 187.574 90.5882 188.374C89.7882 189.174 88.5882 189.174 87.7882 188.374C87.0882 187.674 87.0882 186.374 87.7882 185.574Z" fill="#D9D8D8" fill-opacity="0.7"/>
<path d="M66.088 163.874C66.888 163.074 68.088 163.074 68.888 163.874C69.688 164.674 69.688 165.874 68.888 166.674C68.088 167.474 66.888 167.474 66.088 166.674C65.288 165.874 65.288 164.674 66.088 163.874Z" fill="#D9D8D8" fill-opacity="0.7"/>
<path d="M44.3881 142.174C45.1881 141.374 46.3881 141.374 47.1881 142.174C47.9881 142.974 47.9881 144.174 47.1881 144.974C46.3881 145.774 45.1881 145.774 44.3881 144.974C43.5881 144.174 43.5881 142.874 44.3881 142.174Z" fill="#D9D8D8" fill-opacity="0.7"/>
<path d="M23.988 123.774C25.0926 123.774 25.988 122.878 25.988 121.774C25.988 120.669 25.0926 119.774 23.988 119.774C22.8835 119.774 21.988 120.669 21.988 121.774C21.988 122.878 22.8835 123.774 23.988 123.774Z" fill="#D9D8D8" fill-opacity="0.7"/>
<path d="M0.888086 98.6737C1.68809 97.8737 2.88809 97.8737 3.68809 98.6737C4.48809 99.4737 4.48809 100.674 3.68809 101.474C2.88809 102.274 1.68809 102.274 0.888086 101.474C0.0880859 100.674 0.0880859 99.3737 0.888086 98.6737Z" fill="#D9D8D8" fill-opacity="0.7"/>
<path d="M107.288 166.174C108.088 165.374 109.288 165.374 110.088 166.174C110.888 166.974 110.888 168.174 110.088 168.974C109.288 169.774 108.088 169.774 107.288 168.974C106.488 168.174 106.488 166.974 107.288 166.174Z" fill="#D9D8D8" fill-opacity="0.7"/>
<path d="M85.4879 144.474C86.2879 143.674 87.4879 143.674 88.2879 144.474C89.0879 145.274 89.0879 146.474 88.2879 147.274C87.4879 148.074 86.2879 148.074 85.4879 147.274C84.7879 146.474 84.7879 145.174 85.4879 144.474Z" fill="#D9D8D8" fill-opacity="0.7"/>
<path d="M63.788 122.674C64.588 121.874 65.788 121.874 66.588 122.674C67.388 123.474 67.388 124.674 66.588 125.474C65.788 126.274 64.588 126.274 63.788 125.474C62.988 124.674 62.988 123.474 63.788 122.674Z" fill="#D9D8D8" fill-opacity="0.7"/>
<path d="M43.3879 104.374C44.4925 104.374 45.3879 103.478 45.3879 102.374C45.3879 101.269 44.4925 100.374 43.3879 100.374C42.2834 100.374 41.3879 101.269 41.3879 102.374C41.3879 103.478 42.2834 104.374 43.3879 104.374Z" fill="#D9D8D8" fill-opacity="0.7"/>
<path d="M21.688 82.5737C22.7926 82.5737 23.688 81.6782 23.688 80.5737C23.688 79.4691 22.7926 78.5737 21.688 78.5737C20.5834 78.5737 19.688 79.4691 19.688 80.5737C19.688 81.6782 20.5834 82.5737 21.688 82.5737Z" fill="#D9D8D8" fill-opacity="0.7"/>
<path d="M128.088 150.174C129.193 150.174 130.088 149.278 130.088 148.174C130.088 147.069 129.193 146.174 128.088 146.174C126.984 146.174 126.088 147.069 126.088 148.174C126.088 149.278 126.984 150.174 128.088 150.174Z" fill="#D9D8D8" fill-opacity="0.7"/>
<path d="M106.288 128.374C107.393 128.374 108.288 127.478 108.288 126.374C108.288 125.269 107.393 124.374 106.288 124.374C105.184 124.374 104.288 125.269 104.288 126.374C104.288 127.478 105.184 128.374 106.288 128.374Z" fill="#D9D8D8" fill-opacity="0.7"/>
<path d="M83.1881 103.274C83.9881 102.474 85.1881 102.474 85.9881 103.274C86.7881 104.074 86.7881 105.274 85.9881 106.074C85.1881 106.874 83.9881 106.874 83.1881 106.074C82.3881 105.274 82.3881 104.074 83.1881 103.274Z" fill="#D9D8D8" fill-opacity="0.7"/>
<path d="M61.4882 81.5737C62.2882 80.7737 63.4882 80.7737 64.2882 81.5737C65.0882 82.3737 65.0882 83.5737 64.2882 84.3737C63.4882 85.1737 62.2882 85.1737 61.4882 84.3737C60.6882 83.5737 60.6882 82.2737 61.4882 81.5737Z" fill="#D9D8D8" fill-opacity="0.7"/>
<path d="M39.6881 59.7737C40.4881 58.9737 41.6881 58.9737 42.4881 59.7737C43.2881 60.5737 43.2881 61.7737 42.4881 62.5737C41.6881 63.3737 40.4881 63.3737 39.6881 62.5737C38.9881 61.7737 38.9881 60.5737 39.6881 59.7737Z" fill="#D9D8D8" fill-opacity="0.7"/>
<path d="M146.088 127.374C146.888 126.574 148.088 126.574 148.888 127.374C149.688 128.174 149.688 129.374 148.888 130.174C148.088 130.974 146.888 130.974 146.088 130.174C145.388 129.374 145.388 128.074 146.088 127.374Z" fill="#D9D8D8" fill-opacity="0.7"/>
<path d="M124.388 105.574C125.188 104.774 126.388 104.774 127.188 105.574C127.988 106.374 127.988 107.574 127.188 108.374C126.388 109.174 125.188 109.174 124.388 108.374C123.588 107.574 123.588 106.374 124.388 105.574Z" fill="#D9D8D8" fill-opacity="0.7"/>
<path d="M102.588 83.8737C103.388 83.0737 104.588 83.0737 105.388 83.8737C106.188 84.6737 106.188 85.8737 105.388 86.6737C104.588 87.4737 103.388 87.4737 102.588 86.6737C101.888 85.8737 101.888 84.5737 102.588 83.8737Z" fill="#D9D8D8" fill-opacity="0.7"/>
<path d="M82.2881 65.4737C83.3927 65.4737 84.2881 64.5782 84.2881 63.4737C84.2881 62.3691 83.3927 61.4737 82.2881 61.4737C81.1835 61.4737 80.2881 62.3691 80.2881 63.4737C80.2881 64.5782 81.1835 65.4737 82.2881 65.4737Z" fill="#D9D8D8" fill-opacity="0.7"/>
<path d="M59.1881 40.3737C59.9881 39.5737 61.1881 39.5737 61.9881 40.3737C62.7881 41.1737 62.7881 42.3737 61.9881 43.1737C61.1881 43.9737 59.9881 43.9737 59.1881 43.1737C58.3881 42.3737 58.3881 41.1737 59.1881 40.3737Z" fill="#D9D8D8" fill-opacity="0.7"/>
<path d="M165.488 107.874C166.288 107.074 167.488 107.074 168.288 107.874C169.088 108.674 169.088 109.874 168.288 110.674C167.488 111.474 166.288 111.474 165.488 110.674C164.788 109.874 164.788 108.674 165.488 107.874Z" fill="#D9D8D8" fill-opacity="0.7"/>
<path d="M143.788 86.1737C144.588 85.3737 145.788 85.3737 146.588 86.1737C147.388 86.9737 147.388 88.1737 146.588 88.9737C145.788 89.7737 144.588 89.7737 143.788 88.9737C142.988 88.1737 142.988 86.9737 143.788 86.1737Z" fill="#D9D8D8" fill-opacity="0.7"/>
<path d="M122.088 64.4737C122.888 63.6737 124.088 63.6737 124.888 64.4737C125.688 65.2737 125.688 66.4737 124.888 67.2737C124.088 68.0737 122.888 68.0737 122.088 67.2737C121.288 66.4737 121.288 65.1737 122.088 64.4737Z" fill="#D9D8D8" fill-opacity="0.7"/>
<path d="M101.688 46.0737C102.793 46.0737 103.688 45.1782 103.688 44.0737C103.688 42.9691 102.793 42.0737 101.688 42.0737C100.583 42.0737 99.688 42.9691 99.688 44.0737C99.688 45.1782 100.583 46.0737 101.688 46.0737Z" fill="#D9D8D8" fill-opacity="0.7"/>
<path d="M79.988 24.3737C81.0926 24.3737 81.988 23.4782 81.988 22.3737C81.988 21.2691 81.0926 20.3737 79.988 20.3737C78.8835 20.3737 77.988 21.2691 77.988 22.3737C77.988 23.4782 78.8835 24.3737 79.988 24.3737Z" fill="#D9D8D8" fill-opacity="0.7"/>
<path d="M186.388 91.8737C187.493 91.8737 188.388 90.9782 188.388 89.8737C188.388 88.7691 187.493 87.8737 186.388 87.8737C185.284 87.8737 184.388 88.7691 184.388 89.8737C184.388 90.9782 185.284 91.8737 186.388 91.8737Z" fill="#D9D8D8" fill-opacity="0.7"/>
<path d="M164.588 70.1737C165.693 70.1737 166.588 69.2782 166.588 68.1737C166.588 67.0691 165.693 66.1737 164.588 66.1737C163.484 66.1737 162.588 67.0691 162.588 68.1737C162.588 69.2782 163.484 70.1737 164.588 70.1737Z" fill="#D9D8D8" fill-opacity="0.7"/>
<path d="M141.488 44.9737C142.288 44.1737 143.488 44.1737 144.288 44.9737C145.088 45.7737 145.088 46.9737 144.288 47.7737C143.488 48.5737 142.288 48.5737 141.488 47.7737C140.688 46.9737 140.688 45.7737 141.488 44.9737Z" fill="#D9D8D8" fill-opacity="0.7"/>
<path d="M119.788 23.2737C120.588 22.4737 121.788 22.4737 122.588 23.2737C123.388 24.0737 123.388 25.2737 122.588 26.0737C121.788 26.8737 120.588 26.8737 119.788 26.0737C118.988 25.2737 118.988 23.9737 119.788 23.2737Z" fill="#D9D8D8" fill-opacity="0.7"/>
<path d="M97.9882 1.47366C98.7882 0.673657 99.9882 0.673657 100.788 1.47366C101.588 2.27366 101.588 3.47366 100.788 4.27366C99.9882 5.07366 98.7882 5.07366 97.9882 4.27366C97.1882 3.57366 97.1882 2.27366 97.9882 1.47366Z" fill="#D9D8D8" fill-opacity="0.7"/>
</svg>
