<svg width="141" height="147" viewBox="0 0 141 147" fill="none" xmlns="http://www.w3.org/2000/svg">
<path d="M48.2473 112.056C49.5251 111.604 50.8343 111.245 52.1643 110.983L52.3253 111.573C52.3433 111.643 52.3857 111.704 52.4448 111.744C52.5039 111.785 52.5758 111.803 52.6472 111.796L57.9133 111.182C59.362 107.879 62.0219 102.873 62.0602 102.797C62.0219 101.547 62.0602 100.497 62.0602 99.3011C59.0477 100.42 53.4751 102.544 50.5623 103.9C50.4964 103.943 50.4455 104.005 50.4166 104.078C50.3877 104.15 50.3824 104.231 50.4013 104.307C50.4013 104.307 50.4549 104.498 50.5239 104.774C49.0982 104.774 44.8286 104.567 43.8015 105.541C43.6418 105.763 43.5633 106.034 43.5792 106.307C43.5178 107.365 44.0467 115.582 44.8899 117.997C45.3268 119.262 46.2467 119.124 46.8752 117.913C47.6027 116.089 48.0698 114.171 48.2627 112.217C48.2627 112.118 48.2397 112.125 48.2473 112.056ZM47.3658 105.196C48.301 105.119 48.5923 105.134 50.6006 105.073C50.9608 106.438 51.7044 109.243 52.0876 110.676C50.7352 110.886 49.4003 111.196 48.094 111.604C47.687 109.49 47.4435 107.347 47.3658 105.196Z" fill="#fff"/>
<path d="M118.799 38.109C118.99 37.8407 118.745 37.4957 118.538 37.2275C119.124 36.6244 119.775 36.0872 120.478 35.6254C121.664 35.0344 122.748 34.2581 123.689 33.3258C124.08 32.9196 124.816 32.084 124.54 31.5935C124.264 31.1029 123.774 31.0722 123.107 31.3558C123.396 31.0525 123.631 30.7027 123.804 30.321C124.019 29.7231 123.513 29.2402 122.417 29.6848C122.815 29.0486 122.907 28.3817 122.233 28.0598C121.689 27.7991 120.891 28.42 120.432 28.8263C119.528 29.6154 118.681 30.4657 117.894 31.3712C117.411 30.3593 116.645 29.1942 115.687 29.5622C114.729 29.9301 115.472 31.5781 115.963 32.475L114.223 33.6784C113.96 33.5365 113.663 33.4701 113.364 33.4868C111.386 33.8241 102.303 40.7382 101.383 40.7382C100.678 40.7382 90.6059 35.909 81.8981 34.5139C81.8812 34.4617 81.85 34.4153 81.808 34.38C81.7659 34.3448 81.7148 34.3221 81.6604 34.3146C80.1416 34.0555 78.6018 33.94 77.0613 33.9697C77.0146 33.9728 76.9691 33.9861 76.9281 34.0086C76.887 34.0311 76.8514 34.0623 76.8236 34.1H76.1797C76.0264 33.4791 75.4592 32.0457 75.2599 31.4938C75.7812 31.0416 76.5017 30.8116 76.8773 30.0834C77.5672 28.7343 77.5365 26.3887 77.3449 24.8863C78.2111 24.2271 78.234 23.1693 78.0347 22.0885C77.9581 21.6516 77.7205 20.6627 77.3525 20.4174C77.1456 20.2795 76.7087 20.4174 76.3331 20.5554C75.9575 19.6816 75.9575 20.0802 76.1108 19.7276C76.182 19.5651 76.2235 19.3911 76.2334 19.214C76.6397 19.3366 77.4828 18.5241 77.1916 17.451C77.0389 17.0668 76.8517 16.6973 76.632 16.3472C76.7393 16.0865 76.9693 15.7723 76.2487 14.8141C75.9384 14.4794 75.5355 14.2446 75.0913 14.1396H74.7387C74.4844 13.7703 74.1109 13.4997 73.6809 13.373C73.0316 13.2075 72.3433 13.3038 71.7645 13.6413C71.6112 13.7563 71.4886 13.9096 71.3353 14.0169C70.9887 13.8065 70.591 13.6952 70.1855 13.6952C69.78 13.6952 69.3823 13.8065 69.0357 14.0169C68.8328 14.0965 68.6481 14.2163 68.4926 14.3691C68.3372 14.5219 68.2142 14.7046 68.1312 14.9061C67.7556 14.7765 67.3571 14.7266 66.9612 14.7596C66.5653 14.7926 66.1805 14.9078 65.8316 15.0977C64.5074 15.8158 63.5169 17.0236 63.0721 18.4628C63.0597 18.6798 63.0597 18.8973 63.0721 19.1143H62.9878C61.838 18.9457 60.3739 21.6746 61.5467 23.7978C61.6847 24.0508 61.861 24.2884 62.0296 24.5644C62.5202 25.3309 62.3285 25.5609 63.4247 26.496C63.7466 26.772 63.8003 26.749 63.9996 26.9176C64.1989 27.0863 64.1222 27.0019 64.2372 27.4312C64.2999 27.6841 64.4121 27.922 64.5674 28.1312C64.7226 28.3404 64.9178 28.5167 65.1417 28.65C65.2232 29.3997 65.5429 30.1036 66.0539 30.6583C66.2157 30.8394 66.4045 30.9945 66.6134 31.1182C66.6698 31.15 66.7328 31.1683 66.7974 31.1719C67.0274 32.5976 67.311 34.4526 67.4336 35.2421L66.7514 35.6101C65.8588 35.9692 64.9908 36.3866 64.1529 36.8595C64.0872 36.905 64.0407 36.9733 64.0226 37.0512C63.21 37.4804 62.4435 37.8867 62.0066 38.1473C55.9203 41.7577 38.6351 65.5584 38.4588 66.6469C38.4393 66.7093 38.4393 66.7761 38.4588 66.8385C38.7065 67.2338 39.0084 67.5924 39.3556 67.904C39.2486 68.0992 39.1201 68.2818 38.9724 68.4483C37.4393 69.4524 35.1397 70.9471 33.9056 72.2809C33.819 72.3581 33.7541 72.4565 33.7172 72.5664C33.6803 72.6763 33.6727 72.794 33.6951 72.9078C33.7175 73.0215 33.7693 73.1275 33.8452 73.2151C33.9211 73.3028 34.0185 73.3692 34.1279 73.4077C34.3578 73.4844 34.3962 73.4614 35.8909 72.6412C35.4801 73.0015 35.1441 73.439 34.9021 73.9289C34.8024 74.3505 35.1857 74.5958 35.6686 74.5192C35.9403 74.4479 36.199 74.3341 36.4351 74.1819C36.2969 74.3954 36.2233 74.6443 36.2233 74.8986C36.2233 75.1529 36.2969 75.4018 36.4351 75.6153C37.2017 76.5811 39.21 73.538 40.2678 72.7868C40.697 73.3311 41.2796 74.6035 42.2071 74.2662C43.012 73.9673 42.1305 72.1966 42.2071 71.683C42.519 71.3835 42.852 71.1069 43.2036 70.8552C43.7949 71.2937 44.471 71.6043 45.1889 71.7673C46.4537 71.7673 59.6533 58.445 60.6575 57.3795C60.2972 60.7676 58.4806 75.3087 58.8638 78.1372C59.0401 79.4173 62.1139 79.6013 63.4094 79.6703C63.0184 88.8686 62.7578 102.804 62.6888 102.95C60.6575 107.327 60.1056 108.522 59.4234 109.849C58.1816 112.225 52.9539 120.994 52.3636 122.987C52.2793 123.301 52.2717 123.424 52.6013 124.006C51.6135 125.045 50.6967 126.149 49.8571 127.31C49.4355 128.077 51.2445 135.221 52.5246 137.75C52.8159 138.318 53.2911 139.191 53.9274 139.168C55.8437 139.099 55.836 132.216 55.7824 130.292C55.7821 130.233 55.7603 130.175 55.721 130.131C56.0684 129.613 56.4473 129.116 56.8555 128.644C57.0992 128.812 57.3555 128.96 57.622 129.088C57.8827 129.203 58.1739 129.004 58.3886 128.828C60.9411 126.82 74.708 109.665 77.6592 101.57C79.0006 97.8754 80.7866 92.7703 81.2925 89.1522C81.6018 86.8647 81.6301 84.5479 81.3768 82.2535C81.3768 82.2209 81.3897 82.1897 81.4128 82.1667C81.4358 82.1437 81.4669 82.1308 81.4995 82.1308C81.532 82.1308 81.5632 82.1437 81.5862 82.1667C81.6092 82.1897 81.6221 82.2209 81.6221 82.2535C82.006 84.561 82.0807 86.9093 81.8444 89.2366C81.2772 94.2573 77.3142 104.72 75.1986 108.568C77.0229 108.231 80.7329 107.495 82.5266 106.959C88.5056 105.142 94.0246 99.7227 94.5075 93.6364C94.6638 90.7692 94.6638 87.8956 94.5075 85.0283C94.4558 81.07 93.9412 77.1314 92.9744 73.2927C94.5995 72.4112 96.0865 71.3764 96.5695 70.4259C97.6043 68.3946 94.8678 56.705 94.2699 53.4242C97.543 53.7845 103.116 54.4361 105.714 52.4048C108.688 50.0132 115.112 43.2831 118.799 38.109ZM55.3684 129.87C53.9887 129.035 52.057 127.05 51.7657 125.493C52.08 125.095 52.4096 124.727 52.7162 124.313C53.7551 125.898 55.0503 127.3 56.5489 128.46C56.1279 128.906 55.7337 129.377 55.3684 129.87ZM116.308 32.6896C116.347 32.6643 116.376 32.6248 116.387 32.5792C116.399 32.5335 116.392 32.4853 116.369 32.4443C116.101 31.9461 115.296 30.1907 115.855 29.9914C116.177 29.8688 116.461 30.0681 116.699 30.3364C117.061 30.7967 117.344 31.315 117.534 31.8694C117.548 31.9145 117.574 31.9549 117.61 31.9862C117.645 32.0175 117.688 32.0387 117.735 32.0473C117.781 32.056 117.829 32.0519 117.874 32.0354C117.918 32.0189 117.957 31.9907 117.986 31.9537C118.753 31.1029 120.547 29.1636 121.558 28.6423C122.325 28.2437 122.509 28.9796 120.631 30.6966C120.199 31.0255 119.785 31.376 119.389 31.7468C119.367 31.7769 119.356 31.8131 119.356 31.8502C119.356 31.8874 119.367 31.9236 119.389 31.9537C119.389 32.153 119.55 32.3753 119.826 32.1684C120.492 31.5835 121.196 31.0432 121.934 30.551C122.31 30.2836 122.748 30.1149 123.206 30.0604C122.976 30.7656 120.838 32.6819 120.654 32.8966C120.596 32.9489 120.56 33.022 120.555 33.1002C120.55 33.1784 120.576 33.2554 120.627 33.3146C120.678 33.3739 120.751 33.4107 120.829 33.4171C120.907 33.4235 120.985 33.399 121.045 33.3488C121.896 32.7969 123.383 31.5091 123.896 31.7008C124.41 31.8924 122.884 33.3182 122.501 33.6554C120.301 35.5641 120.868 34.3376 118.324 36.9285C117.216 35.715 115.944 34.6624 114.545 33.8011L116.308 32.6896ZM83.0019 69.3528C82.8716 68.2949 82.7106 67.1528 82.5113 65.9647L82.8409 65.5278C84.374 63.5578 84.8339 60.4227 84.6882 57.9621C85.5084 61.5571 86.16 65.0908 86.6582 68.6016L83.0019 69.3528ZM71.6036 43.1068C69.5876 41.5737 66.3452 38.9292 64.4595 37.1201L67.5256 35.5871C70.3411 38.2169 72.7512 41.2496 74.6773 44.5862C77.6225 49.9966 79.8072 55.7873 81.1699 61.7948L70.2391 46.3338L71.6649 43.375C71.6838 43.3295 71.688 43.2792 71.677 43.2311C71.666 43.183 71.6404 43.1396 71.6036 43.1068ZM76.7853 34.4143C76.8313 34.4986 77.3602 35.6254 78.1651 37.5954C78.1651 37.6797 78.0194 39.596 77.9504 40.2706C76.9721 39.8828 76.0494 39.3673 75.2063 38.7375C75.3749 38.0706 76.1338 35.0428 76.1874 34.3606L76.7853 34.4143ZM74.0641 42.6468C74.1178 42.5089 74.1714 42.3249 74.2328 42.1103L74.7463 42.3785C75.0376 42.5702 74.9226 41.9876 75.1833 43.674C75.1833 43.9576 75.2599 44.2719 75.2752 44.6168C74.9226 43.9806 74.4857 43.2984 74.0718 42.6468H74.0641ZM73.6349 42.0029C72.1867 39.9489 70.5383 38.0437 68.7137 36.3153L74.4857 38.8218C74.2634 39.3508 73.9415 40.9681 73.6425 42.0029H73.6349ZM79.5295 46.4948C78.763 44.4022 78.1727 42.0643 77.8814 41.451C77.8988 41.2598 77.8988 41.0674 77.8814 40.8761C77.9924 40.9174 78.1084 40.9432 78.2264 40.9528C78.3003 40.9536 78.3721 40.9277 78.4284 40.8798C78.4848 40.8319 78.5219 40.7653 78.533 40.6922C78.5943 40.4392 78.694 39.1591 78.7093 38.8755C80.9391 44.5053 82.8006 50.2741 84.282 56.1454C79.9511 46.9317 80.618 49.5993 79.5371 46.4948H79.5295ZM85.8687 61.1279C84.121 52.7497 81.0472 42.3019 77.5518 34.5599C78.8355 34.5606 80.1171 34.6632 81.3845 34.8665C82.036 40.6922 81.4918 40.4929 81.9287 40.7228C82.3656 40.9528 84.9948 42.0106 85.3858 42.1716C85.3475 42.7618 85.8994 59.6408 85.8764 61.1279H85.8687ZM77.0459 20.908C77.4455 21.7801 77.5865 22.7484 77.4522 23.6982C77.3898 23.9399 77.2615 24.1596 77.0817 24.3328C76.9019 24.5059 76.6775 24.6258 76.4336 24.679C76.1897 24.7323 75.9358 24.7168 75.7001 24.6343C75.4645 24.5518 75.2564 24.4055 75.0989 24.2118C74.7332 23.4413 74.4579 22.631 74.2788 21.7972C74.4857 21.5289 76.6933 20.9923 77.0459 20.908ZM66.4985 28.5733C66.2184 28.4458 65.9319 28.3333 65.64 28.2361C65.444 28.1555 65.2691 28.0312 65.1287 27.8726C64.9883 27.714 64.886 27.5254 64.8298 27.3211C64.7735 27.1169 64.7648 26.9025 64.8042 26.6944C64.8437 26.4862 64.9303 26.2899 65.0574 26.1204C65.5403 25.7142 65.9772 25.7372 66.3758 26.3427C66.6288 26.8103 66.6211 26.8486 66.7361 26.8946C66.7691 26.9092 66.8048 26.9165 66.8408 26.9161C66.8769 26.9157 66.9124 26.9076 66.9451 26.8924C66.9777 26.8771 67.0068 26.8551 67.0302 26.8277C67.0537 26.8003 67.071 26.7683 67.081 26.7337C67.1946 26.2539 67.2129 25.7564 67.1347 25.2696C67.0427 24.7407 67.0274 22.3951 67.0427 22.3184C67.2666 22.4365 67.5181 22.4921 67.7709 22.4794C69.1583 22.4258 69.4343 21.7129 69.9862 21.1303C70.6224 21.1916 70.7527 21.4983 71.4733 21.1303C71.8107 20.9384 72.1201 20.7011 72.3931 20.4251C72.6134 20.5153 72.8261 20.623 73.0293 20.7471C73.4887 20.968 74.0068 21.0358 74.5076 20.9406C75.0084 20.8454 75.4655 20.5922 75.8118 20.2181C75.8961 20.3791 75.9728 20.5401 76.0418 20.7087C75.3374 20.9273 74.6742 21.2615 74.0795 21.6976C73.9491 21.8585 74.1408 22.7324 74.1868 22.9393C73.5446 23.0201 72.9233 23.2203 72.3548 23.5296C72.2398 23.131 71.9868 22.3874 71.5882 22.1805C71.4683 22.1438 71.3402 22.1438 71.2203 22.1805C70.5304 22.2878 68.0545 23.0313 67.7556 23.4376C67.495 23.7212 68.2385 25.9135 68.4685 26.2737C69.35 27.6382 71.9332 27.2396 72.4161 25.6452C72.5357 25.1101 72.5357 24.5552 72.4161 24.0201C72.6384 24.0201 73.3053 23.7825 73.3819 23.7595C73.9108 24.9476 74.0641 25.0166 74.6773 26.2967C74.593 26.3657 74.4551 26.4807 74.3401 26.5574C73.7958 26.9176 73.6809 26.8563 73.7115 27.0096C73.7204 27.04 73.7402 27.0662 73.767 27.0831C73.7938 27.1 73.8259 27.1066 73.8572 27.1016C74.1789 27.0556 74.4932 26.968 74.7923 26.841C74.9713 26.7742 75.119 26.643 75.2063 26.473C75.4209 25.9901 74.2328 24.1734 73.7652 23.6292C73.8572 23.6292 74.0718 23.4759 74.2328 23.3916C74.4474 24.2501 74.593 24.9246 75.4209 25.2619C75.6601 25.3522 75.9152 25.3934 76.1707 25.3828C76.4262 25.3723 76.677 25.3103 76.908 25.2006C77.0306 26.5497 77.0076 28.742 76.3637 29.9378C76.0341 30.5586 75.2216 30.7963 74.7003 31.3098C74.547 31.4555 74.6467 31.6624 74.7003 31.8847C75.5512 34.2533 75.5665 34.2457 75.5205 34.5523C75.2949 35.8249 74.9799 37.08 74.5777 38.3083C74.3861 38.2239 72.2321 37.0818 68.0162 35.4414C67.8859 34.5753 67.1883 29.9531 66.9661 29.1022C66.9814 28.8033 66.9431 28.7343 66.4985 28.535V28.5733ZM71.8642 25.4459C71.6189 26.2814 70.4614 26.6417 69.6336 26.4117C68.8057 26.1818 68.7521 25.7602 68.3611 24.7637C68.1779 24.383 68.0514 23.9775 67.9855 23.5602C68.2385 23.2843 71.0057 22.717 71.3506 22.6634C71.8344 23.491 72.0159 24.461 71.8642 25.4076V25.4459ZM41.8698 71.4684C41.5786 71.752 41.9695 72.6795 42.0308 73.4844C42.0308 73.5533 42.0308 73.8523 41.9848 73.8753C41.5632 74.0133 41.1723 73.377 40.9347 72.9938C40.697 72.6105 40.4594 72.0893 40.0838 72.2272C39.3173 72.5875 37.5389 74.9484 36.8414 75.1937C36.4888 74.5192 38.5048 72.5952 38.5738 72.4879C38.6033 72.4386 38.6188 72.3821 38.6186 72.3247C38.6183 72.2672 38.6023 72.2109 38.5722 72.1619C38.5422 72.1129 38.4993 72.0731 38.4482 72.0468C38.3971 72.0204 38.3398 72.0086 38.2825 72.0126C38.1445 72.0126 38.0525 72.1353 37.8379 72.3269C37.1851 72.964 36.4379 73.4967 35.6226 73.9059C36.3618 73.058 37.1528 72.2567 37.9912 71.5067C38.0326 71.4641 38.0617 71.4112 38.0755 71.3534C38.0755 71.3534 37.9145 70.9471 37.6003 71.1081C37.1557 71.3534 34.9941 72.6028 34.3118 72.9248C34.2199 72.8635 34.2735 72.7715 34.3118 72.6795C35.3927 71.3534 37.7689 69.7437 39.2253 68.7242C39.3962 68.5482 39.5385 68.3464 39.6469 68.1263C40.6556 69.0648 41.7316 69.9282 42.8663 70.7095C42.5167 70.9387 42.1838 71.1923 41.8698 71.4684ZM59.707 78.4361C59.5384 78.3288 59.4157 78.2292 59.3927 78.0912C58.9711 74.9638 61.3167 57.2416 61.2784 56.544C61.2784 56.5031 61.2702 56.4626 61.2543 56.4249C61.2385 56.3872 61.2152 56.353 61.1859 56.3245C61.1566 56.2959 61.1219 56.2735 61.0838 56.2585C61.0457 56.2436 61.005 56.2364 60.9641 56.2374C60.5732 56.2374 61.2631 56.2374 51.4975 65.5891C50.8536 66.1947 45.9325 70.9011 45.1123 71.2154C43.9855 71.1311 39.7465 67.7507 39.0567 66.6852C40.3904 63.987 56.5642 41.7883 62.1599 38.3926C62.5892 38.132 63.325 37.7257 64.1299 37.2964C64.4082 37.5589 64.7082 37.7974 65.0267 38.0093C66.8051 39.6957 69.281 41.796 71.159 43.375L69.6949 46.2802C69.6727 46.3186 69.661 46.3623 69.661 46.4067C69.661 46.4511 69.6727 46.4947 69.6949 46.5331C81.5838 63.5885 81.4075 63.3968 81.4841 63.3968C82.2463 67.3379 82.7202 71.3293 82.9022 75.3394C82.9022 76.4202 82.9022 76.3282 82.9482 76.2515C82.9942 76.1749 82.9482 76.3052 82.9482 76.3052C81.0932 78.3288 62.7348 80.2145 59.707 78.4361ZM102.081 53.041C98.6084 53.5239 94.6838 52.8034 93.9249 52.7727C93.5032 50.7292 92.6628 48.7953 91.4567 47.0927C91.4383 47.0679 91.4112 47.0509 91.3808 47.0453C91.3504 47.0396 91.319 47.0456 91.2929 47.062C91.2667 47.0785 91.2478 47.1042 91.2398 47.1341C91.2318 47.1639 91.2353 47.1957 91.2497 47.223C91.6943 48.1275 93.1814 52.0292 93.5493 52.9797C93.4343 53.3476 97.0141 68.1493 96.0022 70.1423C95.0977 71.9436 89.8317 74.2126 87.9307 74.8641C87.5548 70.5968 86.9406 66.3538 86.091 62.155C86.3516 59.9474 86.0143 46.8244 85.9147 41.9723C85.9118 41.9159 85.8929 41.8615 85.8604 41.8154C85.8278 41.7693 85.7829 41.7333 85.7307 41.7117L82.289 40.2629C82.2734 38.4413 82.1582 36.6219 81.9441 34.8129C90.5369 36.3 100.548 41.2134 101.383 41.2211C102.594 41.2211 111.593 34.3223 113.456 34.0464C114.284 33.9161 117.841 37.0205 118.255 37.879C114.621 42.9534 108.236 49.6223 105.277 51.9295C104.324 52.5668 103.224 52.9495 102.081 53.041Z" fill="#fff"/>
<path d="M71.0746 23.9128C71.065 23.8624 71.0456 23.8145 71.0175 23.7717C70.9894 23.7288 70.9532 23.6919 70.9108 23.6631C70.8685 23.6343 70.8209 23.6141 70.7707 23.6036C70.7205 23.5932 70.6688 23.5928 70.6185 23.6023C70.5681 23.6119 70.5202 23.6313 70.4773 23.6594C70.4345 23.6875 70.3976 23.7237 70.3688 23.7661C70.34 23.8084 70.3198 23.856 70.3093 23.9062C70.2989 23.9564 70.2985 24.0081 70.308 24.0584C70.4613 24.8249 70.492 25.0013 70.8293 25.0013C70.893 25.0015 70.9558 24.9858 71.012 24.9556C71.0681 24.9255 71.1159 24.8817 71.1509 24.8285C71.1859 24.7752 71.2071 24.714 71.2125 24.6505C71.2179 24.587 71.2074 24.5231 71.1819 24.4647C71.1589 24.342 71.0899 23.9818 71.0746 23.9128ZM73.4201 28.9872C73.9184 29.1329 74.3936 28.8952 74.3783 28.7726C74.363 28.6499 74.3783 28.7113 73.7038 28.4583C73.2515 28.2897 72.7533 27.6918 72.577 27.7838C72.4007 27.8757 72.6689 28.3663 72.7303 28.4583C72.8943 28.7071 73.1373 28.8934 73.4201 28.9872ZM87.44 21.7052C86.4358 25.9134 85.7 29.4855 85.5773 30.1983C85.4959 30.5085 85.4802 30.8323 85.5313 31.1488C85.9376 32.015 91.1883 33.7244 91.8552 33.3871C92.5221 33.0498 94.2545 29.1482 96.2704 25.1239C97.5054 25.1634 98.7412 25.0734 99.9574 24.8556C101.238 24.6207 102.484 24.2267 103.667 23.6828C106.258 22.487 109.094 17.3666 109.478 14.7911C109.765 11.9948 109.173 9.17852 107.784 6.73483C101.353 -4.41819 82.4882 1.58374 84.0213 13.9709C84.459 16.8053 85.6385 19.4736 87.44 21.7052ZM92.1158 30.8346C92.1158 30.9572 91.9779 30.9419 91.3493 30.8346C90.0636 30.673 88.8189 30.2754 87.6776 29.6618C87.141 29.3705 86.9954 29.3092 87.0491 29.1788C87.1027 29.0485 87.2177 29.0945 88.0456 29.3245C88.1222 29.3245 90.4984 30.091 91.1807 30.3286C92.0622 30.7272 92.1158 30.7272 92.1158 30.8346ZM91.9779 18.3631C92.7964 18.4055 93.6121 18.2366 94.3464 17.8725C95.029 18.2032 95.7673 18.4034 96.5234 18.4627C95.2356 20.862 92.6217 25.7525 91.7786 28.3587L88.5285 27.4618C89.295 25.5762 90.989 21.1609 91.9625 18.3631H91.9779ZM91.7096 17.7269C91.1374 17.6404 90.6093 17.3687 90.2064 16.9533C89.8035 16.5379 89.5479 16.0018 89.479 15.4273C89.2643 13.8942 90.2455 12.1772 91.7249 12.5835C92.6524 12.8364 92.7674 13.5723 92.6064 14.4998C92.4684 15.1743 91.9702 16.8684 91.6942 17.6962L91.7096 17.7269ZM93.7945 15.8872C93.8764 15.3856 94.0646 14.9073 94.3464 14.4845C94.4805 14.2539 94.6766 14.0656 94.9124 13.941C95.1482 13.8163 95.4142 13.7603 95.6802 13.7792C96.2474 13.9479 96.4927 15.021 96.0251 15.6956C95.5758 16.2919 95.0163 16.7967 94.3771 17.1826C94.1571 17.0535 93.9819 16.8602 93.8751 16.6287C93.7682 16.3971 93.7347 16.1383 93.7792 15.8872H93.7945ZM86.7501 6.1446C90.1842 2.013 96.646 0.372623 101.314 2.07432C103.85 2.94482 105.983 4.7074 107.316 7.03377C108.638 9.35909 109.203 12.038 108.934 14.6991C108.581 17.083 105.867 22.0348 103.483 23.1309C101.304 24.1251 98.9258 24.6076 96.531 24.5413C96.2704 24.5413 95.9945 24.5413 95.8948 24.7253C95.4426 25.6451 94.6147 27.4235 93.8022 29.0945C93.2411 28.8236 92.6593 28.598 92.0622 28.42C92.9514 25.8751 95.7569 20.8773 97.0906 18.4551C98.2463 18.5541 99.4079 18.3534 100.463 17.8725C100.749 17.7224 100.985 17.4941 101.145 17.2143C101.305 16.9346 101.382 16.615 101.366 16.2931C101.351 15.9712 101.244 15.6604 101.059 15.397C100.873 15.1337 100.616 14.9288 100.318 14.8064C99.1296 14.2238 98.0641 15.6189 97.4432 16.7917C97.2746 17.0983 97.0829 17.4586 96.8683 17.8649C96.2483 17.8241 95.637 17.6977 95.0516 17.4893C95.6346 17.0796 96.1516 16.5833 96.5847 16.0175C96.8274 15.651 96.9504 15.2182 96.9366 14.7789C96.9229 14.3395 96.7732 13.9152 96.508 13.5646C96.2998 13.3228 96.0105 13.1652 95.6944 13.1215C95.3783 13.0777 95.0571 13.1508 94.791 13.327C94.2542 13.6568 93.824 14.1346 93.5521 14.703C93.2801 15.2714 93.178 15.9061 93.258 16.5311C93.3413 16.8839 93.5313 17.2024 93.8022 17.4433C93.2994 17.6515 92.7597 17.7558 92.2155 17.7499C92.5221 16.8454 93.0203 15.2127 93.1507 14.5458C93.2324 14.1656 93.2505 13.7744 93.2043 13.3883C93.145 13.0568 92.9912 12.7495 92.7614 12.5034C92.5315 12.2573 92.2355 12.0828 91.9089 12.0009C90.0462 11.472 88.6741 13.534 88.9424 15.4579C89.0182 16.1474 89.3141 16.7942 89.7863 17.3022C90.2585 17.8103 90.8818 18.1528 91.5639 18.2788C90.5828 21.0383 89.0497 25.4918 88.2832 27.3928L86.5968 26.9559C87.6776 21.5289 87.8079 21.6592 87.6546 21.5902C85.9129 19.3696 84.7986 16.7226 84.4275 13.9249C84.2469 12.5377 84.3603 11.1279 84.7605 9.78745C85.1606 8.44697 85.8385 7.20576 86.7501 6.1446ZM97.3896 17.9108C97.9261 16.9374 98.9993 14.8064 100.042 15.3276C100.25 15.4116 100.432 15.551 100.567 15.7307C100.702 15.9103 100.785 16.1235 100.808 16.3471C100.793 17.6962 98.6927 17.9338 97.3589 17.9108H97.3896ZM126.732 21.2912C127.656 20.748 128.747 20.5625 129.798 20.77C130.953 20.7907 132.057 21.2524 132.882 22.0606C133.707 22.8687 134.192 23.962 134.237 25.1162C133.542 24.7133 132.73 24.5617 131.937 24.687C130.013 24.8556 127.499 25.8981 127.836 27.7531C128.112 29.2862 130.136 29.0792 131.669 28.6653C133.202 28.2513 134.421 27.5001 134.735 26.0207C136.598 27.3775 137.035 29.7537 137.111 32.0763C137.111 32.1089 137.124 32.1401 137.147 32.1631C137.17 32.1861 137.201 32.199 137.234 32.199C137.266 32.199 137.298 32.1861 137.321 32.1631C137.344 32.1401 137.356 32.1089 137.356 32.0763C137.41 29.4778 136.943 26.9329 134.819 25.4535C134.841 24.788 134.728 24.125 134.486 23.5046C134.244 22.8842 133.879 22.3193 133.412 21.8442C132.946 21.369 132.388 20.9935 131.772 20.7404C131.156 20.4872 130.495 20.3617 129.829 20.3714C128.765 20.216 127.68 20.4384 126.763 21C126.479 21.1379 126.61 21.3449 126.732 21.2912ZM133.723 26.7873C132.857 27.9217 130.404 28.512 129.27 28.3203C128.848 28.2513 128.503 28.075 128.411 27.6381C128.135 26.1051 130.78 25.2695 132.359 25.2159C133.002 25.1666 133.643 25.331 134.183 25.6835C134.125 26.0842 133.967 26.4639 133.723 26.7873ZM123.222 12.3305C124.042 11.3187 123.49 9.55566 121.198 9.548C120.309 9.548 119.88 10.4525 119.941 11.3187C120.079 13.3806 122.401 13.3193 123.222 12.3305ZM120.477 11.2804C120.477 10.7744 120.715 10.1152 121.244 10.1229C122.478 10.1229 123.045 10.6978 123.045 11.334C123.015 12.7828 120.378 13.534 120.477 11.2804ZM120.163 98.1819C113.425 95.4914 110.298 108.515 104.794 119.706C104.759 120.177 104.775 120.649 104.84 121.117C104.84 122.289 104.971 130.054 105.653 130.936C105.837 131.288 106.611 130.936 106.971 130.714C110.031 128.819 112.915 126.654 115.587 124.244C115.61 124.218 115.627 124.187 115.638 124.155C115.648 124.122 115.652 124.087 115.648 124.052C117.074 122.021 122.417 111.443 123.712 106.139C124.617 102.383 123.72 99.5847 120.163 98.1819ZM122.57 107.917C118.963 107.455 115.475 106.316 112.291 104.559C114.085 101.164 116.3 97.2928 119.956 98.7492C124.026 100.367 123.942 103.716 122.57 107.894V107.917ZM109.815 127.847C109.58 127.649 109.322 127.48 109.048 127.341C108.013 126.814 106.816 126.699 105.699 127.019C105.622 126.107 105.185 120.174 105.185 120.12C110.926 122.22 109.156 121.308 114.843 124.137C114.246 124.704 112 126.275 109.815 127.831V127.847ZM113.77 105.663C114.518 106.072 115.285 106.443 116.07 106.775C114.313 109.535 112.76 112.419 111.425 115.406C110.137 118.096 110.183 118.081 108.872 121.017C108.106 120.772 107.339 120.542 106.573 120.312C107.4 118.664 113.287 106.614 113.77 105.648V105.663ZM109.171 121.094C111.662 116.625 114.2 111.067 116.377 106.874C117.143 107.196 117.91 107.457 118.676 107.687C118.27 108.453 117.082 110.492 116.767 111.083C116.453 111.673 113.303 117.882 113.08 118.357C112.728 119.124 111.762 121.262 111.463 121.944C110.681 121.599 109.93 121.339 109.14 121.078L109.171 121.094ZM111.739 122.044C112.207 121.193 114.131 117.621 114.368 117.161C114.728 116.448 118.745 108.239 118.967 107.764C119.673 107.963 120.416 108.132 120.891 108.223C119.489 112.056 115.449 119.438 113.993 123.079C112.667 122.458 112.368 122.305 111.708 122.029L111.739 122.044ZM112.207 104.782L113.579 105.548C110.814 110.257 108.405 115.166 106.373 120.235L105.224 119.882C109.677 110.393 109.884 109.151 112.176 104.766L112.207 104.782ZM115.365 123.746L114.207 123.194C115.457 120.741 119.366 114.448 121.152 108.277C121.581 108.354 122.003 108.423 122.409 108.476C120.439 113.732 118.074 118.832 115.334 123.73L115.365 123.746ZM91.3493 128.721C91.6548 128.468 91.8732 128.125 91.9736 127.741C92.074 127.358 92.0514 126.952 91.9089 126.582C91.8438 126.048 91.5989 125.552 91.2144 125.175C90.8299 124.799 90.3287 124.565 89.7933 124.511C89.258 124.458 88.7203 124.588 88.2689 124.881C87.8175 125.174 87.4792 125.611 87.3097 126.122C86.3285 125.486 85.263 124.811 84.2436 124.167C85.0101 123.148 87.2637 123.6 87.4936 124.436C87.4987 124.468 87.5165 124.497 87.5431 124.517C87.5697 124.536 87.6029 124.544 87.6355 124.539C87.668 124.534 87.6972 124.516 87.7166 124.49C87.736 124.463 87.744 124.43 87.7389 124.397C87.624 123.064 84.8491 122.282 83.73 123.853C82.7412 123.247 81.5147 122.512 80.4876 121.952C81.3691 121.186 83.3391 121.615 83.5537 122.412C83.5638 122.439 83.5832 122.462 83.6086 122.476C83.6339 122.491 83.6635 122.495 83.692 122.49C83.7206 122.484 83.7462 122.469 83.7644 122.446C83.7826 122.423 83.7921 122.395 83.7913 122.366C83.6917 121.124 81.1238 120.289 79.9587 121.653C79.4705 121.38 78.9571 121.154 78.4256 120.979C78.3285 120.938 78.2218 120.927 78.1184 120.946C78.015 120.965 77.9194 121.014 77.843 121.086C75.9037 123.5 69.3652 129.771 66.3451 130.499C66.2691 130.51 66.1976 130.542 66.1376 130.589C66.0776 130.637 66.0312 130.7 66.0032 130.772C65.9753 130.843 65.9666 130.921 65.9782 130.997C65.9898 131.073 66.0211 131.144 66.0691 131.204C66.7323 131.877 67.4918 132.448 68.3227 132.898C67.5562 133.665 66.9583 134.355 66.5137 134.853C66.2837 135.098 66.1611 139.789 66.3604 140.824C66.3901 140.925 66.4554 141.012 66.5444 141.069C67.5102 141.729 79.951 147.11 81.2234 146.389C82.0743 145.906 92.2308 135.336 92.3918 135.014C92.6371 134.508 92.5528 131.135 92.5374 129.786C92.4761 129.38 91.7172 128.943 91.3493 128.721ZM66.8203 138.846V137.137C70.0014 138.67 77.2835 141.798 80.043 142.671C80.7482 142.901 80.8095 142.871 81.1774 142.671C83.2854 141.322 90.7284 132.936 92.0928 131.656V133.274C87.9536 137.421 80.9245 144.687 80.7942 144.273C80.0353 144.227 67.4795 139.153 66.8203 138.846ZM91.1577 126.137C91.4332 126.602 91.5813 127.13 91.5869 127.67C91.5843 127.842 91.5421 128.011 91.4637 128.164C91.3852 128.317 91.2727 128.45 91.1347 128.552C90.4908 128.123 89.272 127.325 87.8309 126.39C88.6205 124.834 90.3758 124.811 91.127 126.137H91.1577ZM66.6287 131.043C69.8941 130.077 76.0953 124.098 78.1803 121.507C78.6821 121.647 79.1658 121.845 79.6214 122.098C78.8548 123.523 79.675 125.087 79.9663 124.865C80.1273 124.742 79.836 124.696 79.79 123.945C79.7704 123.396 79.8946 122.852 80.1503 122.366C81.2081 122.918 82.4499 123.638 83.5 124.244C82.8561 125.677 83.6303 127.095 83.8986 126.889C84.1669 126.682 83.776 126.728 83.73 125.976C83.7113 125.484 83.8057 124.993 84.0059 124.543C85.0867 125.179 86.1905 125.838 87.2024 126.459C87.0464 126.841 86.9845 127.255 87.0219 127.666C87.0592 128.077 87.1948 128.473 87.417 128.82C87.4271 128.833 87.4396 128.844 87.4539 128.852C87.4682 128.861 87.484 128.866 87.5004 128.868C87.5168 128.87 87.5334 128.869 87.5493 128.865C87.5653 128.861 87.5802 128.853 87.5933 128.843C87.6064 128.833 87.6174 128.821 87.6256 128.806C87.6338 128.792 87.6392 128.776 87.6413 128.76C87.6434 128.743 87.6423 128.727 87.638 128.711C87.6337 128.695 87.6264 128.68 87.6163 128.667C87.4785 128.362 87.4105 128.031 87.4171 127.697C87.4238 127.363 87.5049 127.034 87.6546 126.735C89.4406 127.824 90.8817 128.736 91.3263 129.035C91.242 129.111 83.2471 136.225 80.5259 138.34C78.7399 137.873 69.3652 133.22 66.6287 131.043ZM66.92 135.313C70.3924 136.846 78.28 140.402 80.0966 140.747C80.4109 140.809 80.5335 140.832 81.1314 140.356C83.684 138.31 91.9855 129.625 92.0622 129.717C92.0659 129.74 92.0659 129.763 92.0622 129.786V131.319C90.3528 132.691 80.8478 142.671 80.6945 142.196C79.928 142.196 67.4719 137.114 66.8356 136.83C66.8203 136.508 66.8893 135.65 66.92 135.313ZM80.8785 145.875C80.112 146.312 68.4377 141.568 66.874 140.602C66.8153 140.113 66.7871 139.622 66.7897 139.13C70.1471 140.786 79.9127 144.91 80.8095 144.871C82.1203 144.802 91.3876 134.37 92.0468 133.642C92.0544 134.033 92.0158 134.424 91.9319 134.807C91.8016 135.06 81.3844 145.592 80.8785 145.875ZM17.3714 102.666C17.4251 103.486 17.4634 104.199 17.4634 104.866C17.4634 104.968 17.5038 105.065 17.5757 105.137C17.6475 105.209 17.745 105.249 17.8467 105.249C17.9483 105.249 18.0458 105.209 18.1177 105.137C18.1896 105.065 18.2299 104.968 18.2299 104.866C18.2299 104.153 18.1916 103.448 18.138 102.612C18.1308 102.511 18.0836 102.416 18.0067 102.349C17.9298 102.282 17.8295 102.249 17.7279 102.256C17.6262 102.263 17.5316 102.31 17.4647 102.387C17.3979 102.464 17.3643 102.564 17.3714 102.666ZM134.168 87.2972C134.118 87.3001 134.069 87.313 134.024 87.3351C133.979 87.3572 133.939 87.3881 133.906 87.426C133.873 87.4638 133.848 87.5079 133.832 87.5556C133.817 87.6032 133.811 87.6535 133.815 87.7035C133.861 88.4087 133.907 89.1675 133.907 89.9034C133.907 90.0051 133.947 90.1025 134.019 90.1744C134.091 90.2463 134.189 90.2867 134.29 90.2867C134.392 90.2867 134.489 90.2463 134.561 90.1744C134.633 90.1025 134.674 90.0051 134.674 89.9034C134.674 89.1369 134.628 88.3703 134.574 87.6498C134.571 87.5998 134.558 87.5508 134.536 87.5058C134.514 87.4608 134.483 87.4207 134.445 87.3878C134.407 87.355 134.363 87.33 134.316 87.3145C134.268 87.2989 134.218 87.293 134.168 87.2972ZM15.3861 100.757C15.4878 100.757 15.5852 100.717 15.6571 100.645C15.729 100.573 15.7694 100.476 15.7694 100.374C15.7694 100.273 15.729 100.175 15.6571 100.103C15.5852 100.031 15.4878 99.9909 15.3861 99.9909C14.4586 99.9909 13.6844 100.06 12.9179 100.045C12.8155 100.045 12.7172 100.085 12.6441 100.156C12.571 100.228 12.529 100.326 12.5269 100.428C12.5269 100.53 12.5673 100.627 12.6392 100.699C12.7111 100.771 12.8086 100.811 12.9102 100.811C13.6997 100.826 14.5659 100.796 15.3861 100.757ZM131.791 85.0283C130.872 85.0283 130.097 85.0819 129.323 85.0896C129.222 85.0896 129.124 85.13 129.052 85.2018C128.98 85.2737 128.94 85.3712 128.94 85.4729C128.94 85.5745 128.98 85.672 129.052 85.7439C129.124 85.8157 129.222 85.8561 129.323 85.8561C130.151 85.8561 131.01 85.8561 131.837 85.7948C131.939 85.7887 132.034 85.7425 132.102 85.6663C132.169 85.5901 132.204 85.4902 132.198 85.3885C132.192 85.2869 132.145 85.1918 132.069 85.1243C131.993 85.0567 131.893 85.0222 131.791 85.0283ZM17.1645 96.0203C17.2105 96.7255 17.2564 97.4844 17.2564 98.2203C17.2584 98.3213 17.2994 98.4177 17.3709 98.4891C17.4423 98.5606 17.5387 98.6016 17.6397 98.6035C17.7414 98.6035 17.8388 98.5631 17.9107 98.4913C17.9826 98.4194 18.023 98.3219 18.023 98.2203C18.023 97.4537 17.977 96.6872 17.931 95.9667C17.9239 95.865 17.8767 95.7704 17.7998 95.7035C17.7229 95.6367 17.6225 95.6031 17.5209 95.6102C17.4192 95.6173 17.3246 95.6645 17.2577 95.7415C17.1909 95.8184 17.1573 95.9187 17.1645 96.0203ZM134.467 83.2576C134.467 82.4911 134.421 81.7245 134.367 81.004C134.36 80.9023 134.313 80.8077 134.236 80.7408C134.159 80.674 134.059 80.6404 133.957 80.6475C133.855 80.6547 133.761 80.7019 133.694 80.7788C133.627 80.8557 133.593 80.956 133.6 81.0576C133.646 81.7629 133.692 82.5217 133.692 83.2576C133.692 83.3592 133.733 83.4567 133.805 83.5286C133.877 83.6005 133.974 83.6408 134.076 83.6408C134.178 83.6409 134.276 83.6007 134.349 83.5291C134.423 83.4574 134.465 83.3599 134.467 83.2576ZM22.8215 100.658C22.8718 100.656 22.9213 100.644 22.967 100.623C23.0128 100.602 23.0539 100.572 23.0881 100.535C23.1222 100.498 23.1488 100.454 23.1662 100.407C23.1836 100.36 23.1914 100.31 23.1894 100.259C23.1817 100.159 23.1363 100.065 23.0623 99.997C22.9884 99.9288 22.8914 99.891 22.7908 99.8913C21.8633 99.9296 21.0891 99.9603 20.3149 99.945C20.2133 99.945 20.1158 99.9853 20.0439 100.057C19.972 100.129 19.9316 100.227 19.9316 100.328C19.9316 100.43 19.972 100.527 20.0439 100.599C20.1158 100.671 20.2133 100.711 20.3149 100.711C21.1351 100.727 21.9936 100.696 22.8215 100.658ZM139.227 84.9286C138.46 84.9669 137.609 84.9899 136.759 84.9899C136.708 84.9879 136.657 84.9961 136.61 85.014C136.563 85.032 136.52 85.0593 136.483 85.0944C136.446 85.1295 136.417 85.1716 136.398 85.2182C136.378 85.2648 136.368 85.3149 136.368 85.3655C136.368 85.4679 136.408 85.5662 136.479 85.6393C136.551 85.7124 136.649 85.7545 136.751 85.7565C137.625 85.7565 138.33 85.7565 139.257 85.6952C139.308 85.6932 139.357 85.6813 139.403 85.6602C139.449 85.6391 139.49 85.6092 139.524 85.5721C139.558 85.5351 139.585 85.4917 139.602 85.4444C139.62 85.3971 139.627 85.3469 139.625 85.2966C139.616 85.1969 139.57 85.1042 139.496 85.0363C139.423 84.9684 139.327 84.9301 139.227 84.9286ZM5.20658 77.9455C5.30623 78.0222 26.9224 74.8181 27.8499 74.2508C27.9013 74.2134 27.9423 74.1635 27.9691 74.1058C27.9959 74.0482 28.0076 73.9847 28.0032 73.9212C28.0032 72.9324 26.7078 63.6497 26.0869 61.3348C26.0102 61.0512 25.9336 60.7676 25.7573 60.6679C24.5845 59.9627 3.91881 63.8567 2.6847 64.6539C2.65125 64.6737 2.62235 64.7003 2.5999 64.732C2.57744 64.7637 2.56193 64.7997 2.55438 64.8379C2.29376 65.7654 4.5397 77.4856 5.20658 77.9455ZM3.02197 65.0218C4.49371 64.3549 23.2507 60.9209 25.397 61.1892C25.9182 62.5306 27.3133 72.3575 27.4053 73.7986C26.3398 74.1129 5.49786 77.6926 5.42121 77.7079C5.34456 77.7232 5.33689 77.8152 5.17592 77.3323C4.50137 75.3087 2.98364 66.7542 3.02197 65.0218Z" fill="white"/>
<path d="M29.5364 74.9331C29.5781 74.8556 29.5967 74.7678 29.59 74.6801C29.59 73.4613 27.8423 59.9321 27.2214 58.8513C27.1728 58.7716 27.1039 58.7062 27.0217 58.6618C26.9396 58.6173 26.8472 58.5954 26.7538 58.5983C24.186 58.284 2.52381 62.5153 1.09807 63.5041C0.898768 63.6421 0.929429 63.987 0.952424 64.3549C1.07507 66.3709 3.25202 79.6319 4.01855 79.5552C4.10287 79.5552 4.0722 79.4939 3.87291 79.9002C2.67712 82.3607 0.408188 90.2407 0.45418 91.8274C0.45418 92.4943 0.607486 93.3605 1.2667 93.3145C5.9962 92.7319 29.1837 89.0526 35.8526 87.6805C36.1132 87.6268 36.2818 87.3892 36.2742 86.9983C36.1955 86.347 35.998 85.7156 35.6916 85.1356C34.7564 83.3802 30.8778 76.4278 29.5364 74.9331ZM4.06454 79.3176C3.46665 78.5511 1.2667 65.3438 1.43534 63.8797C3.12171 63.0058 24.4926 58.8743 26.7308 59.2115C27.3441 60.8979 28.9308 73.0781 29.0304 74.5421C26.3169 75.4773 7.52926 78.5128 4.06454 79.3176ZM4.40181 79.5476C5.0457 79.3866 26.9761 75.7149 28.9844 75.186C30.0806 76.2055 35.0324 85.0129 35.3543 85.7641C30.9544 86.5307 4.85407 90.8922 1.01375 91.4748C1.0674 89.1522 3.45131 81.0347 4.40181 79.5476Z" fill="white"/>
<path d="M7.28391 87.4966C7.95079 87.3969 22.101 85.6953 27.2137 84.3078C27.2452 84.2997 27.2722 84.2794 27.2887 84.2513C27.3053 84.2233 27.31 84.1899 27.3019 84.1584C27.2937 84.1268 27.2734 84.0999 27.2454 84.0833C27.2173 84.0668 27.1839 84.0621 27.1524 84.0702C26.1482 84.2772 13.8991 85.9099 7.26858 87.259C7.25026 87.2557 7.23144 87.2566 7.21353 87.2617C7.19562 87.2667 7.17909 87.2758 7.16521 87.2882C7.15132 87.3006 7.14044 87.316 7.13338 87.3332C7.12632 87.3504 7.12328 87.369 7.12448 87.3876C7.12568 87.4061 7.13109 87.4242 7.1403 87.4404C7.14951 87.4565 7.16228 87.4704 7.17764 87.4809C7.193 87.4914 7.21056 87.4983 7.22897 87.501C7.24738 87.5037 7.26617 87.5022 7.28391 87.4966ZM17.6244 34.1614C17.3381 34.8081 17.0973 35.4741 16.9039 36.1544C16.8925 36.2635 16.9226 36.373 16.9882 36.461C17.7624 37.6261 25.696 46.5715 27.7656 47.8286C28.0492 48.0049 28.3865 48.1276 28.5935 47.8746C30.0969 46.0039 32.059 44.5541 34.2888 43.6664C36.1036 43.0243 38.0064 42.6649 39.9305 42.6009C41.4635 42.4629 41.7318 42.3096 42.322 41.3055C43.0183 39.984 43.942 38.7955 45.0509 37.7948C46.4648 36.5585 48.0341 35.5123 49.719 34.6826C49.7949 34.6396 49.8542 34.5725 49.8875 34.492C49.9209 34.4114 49.9263 34.3221 49.903 34.238C49.6439 33.5787 49.3013 32.9553 48.8835 32.383C49.1595 32.2911 49.4661 32.2067 49.4661 31.9308C49.4661 31.1643 42.7819 21.4906 40.9269 19.6663C40.7353 19.4747 40.4594 19.2217 40.2064 19.237C36.3737 19.4517 32.6407 23.0697 30.4791 26.2278C28.0032 26.1358 26.4012 25.9135 23.5804 27.1016C21.589 27.9469 19.7936 29.1943 18.3066 30.7657C18.0767 31.0033 16.5129 32.659 16.4899 32.7893C16.4669 32.9196 16.5129 32.9196 17.6244 34.1614ZM48.2856 33.9468C45.0892 34.491 43.0502 37.1509 41.5478 40.0407C40.8809 41.3285 40.9423 41.3898 40.2371 41.3744C39.0039 41.3046 37.7669 41.3508 36.5424 41.5124C35.6442 41.6467 34.7612 41.8674 33.9055 42.1716C31.9585 42.8615 29.7279 45.0691 28.5398 46.7095C28.5146 46.7432 28.4825 46.7713 28.4457 46.7917C28.4088 46.8122 28.3681 46.8247 28.3261 46.8283C28.2841 46.8319 28.2418 46.8266 28.2021 46.8127C28.1623 46.7989 28.1259 46.7767 28.0952 46.7478C25.604 44.1799 21.1964 39.6727 18.9812 37.0819C18.8739 36.9669 19.0578 36.7983 19.1651 36.9209C20.5985 38.454 24.3009 42.1256 28.2715 46.1193C29.6129 44.4099 31.6826 42.3403 33.7292 41.6197C34.8453 41.2216 36.0066 40.9641 37.1863 40.8532C38.291 40.7693 39.4006 40.7693 40.5053 40.8532C40.9576 40.332 43.1959 34.4143 48.2703 33.7551C48.2852 33.766 48.2974 33.7801 48.306 33.7964C48.3147 33.8127 48.3196 33.8307 48.3203 33.8491C48.321 33.8675 48.3176 33.8859 48.3103 33.9028C48.3029 33.9197 48.2919 33.9347 48.278 33.9468H48.2856ZM40.1987 19.8579C41.7318 20.9311 47.9714 30.1678 48.7839 31.7851C47.374 32.2319 46.0129 32.82 44.7213 33.5405C43.4982 34.1536 42.4272 35.0319 41.5865 36.1113C40.7458 37.1907 40.1565 38.4441 39.8615 39.7801C37.1096 35.3035 33.2693 30.3747 30.7168 26.749C30.8701 26.6494 35.178 20.1569 40.1987 19.8579ZM23.749 27.5232C26.5468 26.3964 28.0952 26.6571 30.4101 26.7567C32.7097 30.6813 36.8413 36.2157 39.5625 39.8414C37.0509 39.2471 34.408 39.6106 32.1502 40.8609C30.7934 41.6274 29.1377 43.4671 28.1182 44.6092C26.6465 43.4288 18.1533 34.3837 16.7889 32.8506C18.8892 30.4744 20.8285 28.6884 23.749 27.4926V27.5232ZM9.72148 47.0161C9.53202 46.8832 9.30806 46.808 9.07675 46.7999C8.84544 46.7917 8.61673 46.8509 8.41838 46.9701C8.27393 47.0345 8.14358 47.1268 8.03478 47.2416C7.92598 47.3564 7.84085 47.4915 7.78427 47.6392C7.72768 47.7869 7.70074 47.9443 7.70498 48.1024C7.70922 48.2605 7.74456 48.4162 7.80898 48.5607C7.87341 48.7051 7.96565 48.8355 8.08045 48.9443C8.19525 49.0531 8.33035 49.1382 8.47805 49.1948C8.62575 49.2514 8.78314 49.2783 8.94125 49.2741C9.09936 49.2698 9.25509 49.2345 9.39954 49.1701C9.6303 49.1196 9.84027 49.0002 10.0016 48.8277C10.163 48.6552 10.2681 48.4377 10.303 48.2041C10.3379 47.9704 10.301 47.7317 10.1971 47.5196C10.0933 47.3074 9.9274 47.1318 9.72148 47.0161ZM9.21557 48.5492C8.679 48.7178 8.35705 48.5492 8.22674 48.2886C7.98145 47.7443 8.28807 46.9088 9.08526 47.1541C9.64483 47.3611 10.0971 48.3039 9.21557 48.5875V48.5492ZM48.6996 11.9397C48.9219 12.3919 49.9567 12.2233 50.4089 12.0776C50.6465 12.001 50.7999 11.9167 50.8229 11.6867C50.8918 11.1118 50.9685 6.12937 50.7079 5.64645C50.6809 5.59582 50.6397 5.55426 50.5892 5.52698C50.5388 5.49971 50.4814 5.48794 50.4243 5.49315C49.6064 5.49088 48.7927 5.6097 48.0097 5.84575C47.6954 6.03738 48.4236 11.4338 48.6996 11.9397ZM48.1707 6.02972C48.8787 5.92842 49.5949 5.89505 50.3093 5.93007C50.3553 6.4973 50.2326 11.4108 50.225 11.4874C49.9011 11.6035 49.5553 11.6454 49.2131 11.6101C49.1595 11.4338 49.0675 10.9585 48.9525 10.3606C48.6148 8.93198 48.3538 7.48627 48.1707 6.02972ZM8.97794 40.5466C9.05149 40.5843 9.13294 40.6039 9.21557 40.6039C9.2982 40.6039 9.37965 40.5843 9.45319 40.5466C9.74933 40.3639 9.98421 40.097 10.1277 39.7801C10.1472 39.7293 10.1532 39.6744 10.1452 39.6207C10.1371 39.567 10.1153 39.5162 10.0817 39.4734C9.71381 39.0365 5.69719 34.3837 5.20661 34.675C4.60428 35.0649 4.03281 35.5006 3.49725 35.9781C3.47567 35.9974 3.45837 36.021 3.44649 36.0474C3.43461 36.0738 3.4284 36.1024 3.42826 36.1314C3.41293 36.53 7.87414 40.102 8.97794 40.5466ZM5.2986 34.8743C5.85816 35.2805 7.74383 37.6108 9.49152 39.6727C9.41633 39.7911 9.32324 39.8972 9.21557 39.987C7.37809 38.811 5.6237 37.5099 3.96483 36.0931C4.38069 35.6564 4.82635 35.2492 5.2986 34.8743ZM17.3408 17.9646C17.5094 14.9905 19.2418 13.6107 21.0508 13.2581C20.5372 15.1438 20.6215 17.5967 22.4842 17.9109C23.3734 18.0566 23.8103 17.5967 24.4542 17.0601C27.206 14.7605 24.9831 12.4609 21.8787 12.6219C23.0361 9.44844 25.7113 6.86524 29.2603 6.78092C29.2929 6.78092 29.3241 6.768 29.3471 6.745C29.3701 6.722 29.383 6.6908 29.383 6.65827C29.383 6.62575 29.3701 6.59455 29.3471 6.57155C29.3241 6.54855 29.2929 6.53563 29.2603 6.53563C25.4277 6.45897 22.4152 9.21849 21.2271 12.6679C19.1805 13.0205 17.1492 14.5535 17.0955 17.9186C17.0925 17.9347 17.0927 17.9513 17.096 17.9673C17.0994 17.9833 17.1059 17.9985 17.1152 18.0121C17.1244 18.0256 17.1362 18.0372 17.15 18.0461C17.1637 18.0551 17.179 18.0612 17.1952 18.0642C17.2113 18.0673 17.2278 18.0671 17.2438 18.0637C17.2599 18.0603 17.2751 18.0538 17.2886 18.0446C17.3021 18.0353 17.3137 18.0235 17.3227 18.0098C17.3316 17.9961 17.3378 17.9807 17.3408 17.9646ZM21.7024 13.1661C22.8445 13.0895 24.5462 13.4421 25.0138 14.4769C25.282 15.0671 25.0138 15.7953 24.0633 16.5925C23.8052 16.851 23.5108 17.0705 23.1894 17.2441C22.0396 17.7346 20.7672 16.3166 21.7024 13.1661ZM23.8946 121.577C23.1541 121.378 22.3813 121.33 21.6218 121.435C20.8623 121.539 20.1314 121.795 19.4722 122.186C18.8129 122.578 18.2387 123.097 17.7831 123.714C17.3275 124.33 16.9999 125.032 16.8196 125.777C16.479 127.325 16.7674 128.945 17.6213 130.281C18.4752 131.616 19.8246 132.558 21.3727 132.898C22.9208 133.239 24.5408 132.95 25.8763 132.096C27.2117 131.243 28.1533 129.893 28.4938 128.345C28.6393 127.598 28.6355 126.83 28.4827 126.085C28.3299 125.34 28.0312 124.632 27.6036 124.003C27.1761 123.374 26.6282 122.836 25.9917 122.419C25.3551 122.003 24.6424 121.716 23.8946 121.577ZM26.2632 127.824C25.9556 129.05 25.2194 130.127 24.1874 130.858C23.1555 131.589 21.8961 131.926 20.6369 131.81C19.4809 131.358 18.5213 130.513 17.9268 129.424C17.3324 128.334 17.1411 127.07 17.3868 125.854C17.6736 124.597 18.4031 123.486 19.4418 122.723C20.4805 121.96 21.7591 121.597 23.0438 121.699C24.2111 122.181 25.1709 123.06 25.7542 124.18C26.3375 125.301 26.5069 126.591 26.2325 127.824H26.2632Z" fill="white"/>
<path d="M34.1049 123.761C33.4375 123.531 32.7224 123.475 32.0276 123.6C31.7396 122.94 31.3851 122.311 30.9697 121.722C31.468 121.27 32.8324 120.013 32.5028 119.422C31.3298 118.019 29.9371 116.816 28.3789 115.858C27.7282 115.494 27.0118 115.262 26.2709 115.176C25.7803 115.245 24.6152 117.154 24.3546 117.583C24.1859 117.583 23.5881 117.391 23.5421 117.368C23.5421 116.816 23.3811 114.823 22.8828 114.593C22.3257 114.388 21.7471 114.247 21.1582 114.172C20.6139 114.087 15.7158 114.984 15.3555 115.643C15.1179 116.088 15.6698 117.767 15.8308 118.234C15.4174 118.462 15.0204 118.718 14.6426 119.001C13.8761 119.545 14.0831 119.522 13.9451 119.461C13.7783 119.381 13.5997 119.329 13.4162 119.307C12.8039 118.948 12.0859 118.813 11.3849 118.924C10.6797 119.154 9.01631 122.941 8.74802 123.914C8.66022 124.16 8.63648 124.424 8.67904 124.681C8.863 125.187 10.0895 125.593 10.603 125.754C10.4612 126.74 10.4612 127.742 10.603 128.728C9.92848 128.912 8.52573 129.326 8.60238 130.016C8.67904 130.706 10.4727 135.259 11.2163 135.619C11.6236 135.847 12.074 135.987 12.5386 136.031C13.0033 136.074 13.4719 136.02 13.9144 135.872C14.1637 135.748 14.4044 135.607 14.635 135.451C14.9416 135.681 15.2635 135.888 15.5931 136.087C15.3555 136.677 14.8266 137.996 14.9952 138.593C15.0796 138.908 15.3325 139.007 15.6851 139.138C16.6586 139.49 21.9017 140.747 22.6989 140.609C22.9978 140.563 23.1588 140.249 23.2508 139.95C23.4211 139.27 23.5213 138.574 23.5497 137.873C23.9434 137.834 24.3348 137.775 24.7225 137.697C24.9593 138.113 25.2622 138.489 25.6194 138.808C26.0103 139.084 26.3399 138.946 26.7845 138.662C26.9991 138.938 27.3211 139.322 27.666 139.36C28.5322 139.46 32.1119 136.087 32.4798 135.397C32.7864 134.822 31.6673 133.795 31.169 133.343C31.708 132.532 32.1312 131.649 32.4262 130.721C32.979 130.804 33.5385 130.835 34.0972 130.813C34.3501 130.813 34.6414 130.721 34.7487 130.483C35.2163 129.418 35.0783 125.378 34.7487 124.351C34.7027 124.052 34.3578 123.853 34.1049 123.761ZM34.2888 124.466C34.5494 125.463 34.6338 129.226 34.2505 130.2C33.5878 130.265 32.919 130.234 32.2652 130.108C32.1954 130.096 32.1236 130.111 32.064 130.149C32.0045 130.187 31.9614 130.246 31.9432 130.315C31.638 131.351 31.164 132.33 30.5405 133.212C30.4961 133.271 30.476 133.344 30.4846 133.417C30.4932 133.49 30.5297 133.557 30.5865 133.603C31.1243 134.029 31.5812 134.549 31.9356 135.136C31.5523 135.765 28.5552 138.509 27.7273 138.739C27.6047 138.739 27.2674 138.279 27.1831 138.156C26.8999 137.731 26.6439 137.288 26.4166 136.83C26.3834 136.764 26.3265 136.712 26.257 136.685C26.1875 136.658 26.1104 136.658 26.041 136.685C23.818 137.52 22.9748 137.03 22.9748 137.582C22.9758 138.408 22.8412 139.229 22.5762 140.011C20.7749 139.816 19.0009 139.42 17.2872 138.831C17.3699 138.013 17.5984 137.216 17.9617 136.478C18.1917 135.964 17.2718 136.11 15.5548 134.362C15.4996 134.311 15.427 134.283 15.3517 134.283C15.2764 134.283 15.2038 134.311 15.1486 134.362C14.382 134.991 13.3855 135.604 13.1862 135.504C12.7953 135.313 10.994 131.227 10.8866 130.399C11.4318 130.019 12.0508 129.758 12.7033 129.633C12.7729 129.613 12.833 129.569 12.8725 129.508C12.9119 129.448 12.9281 129.375 12.918 129.303C12.7301 128.218 12.7301 127.108 12.918 126.022C12.9297 125.955 12.9156 125.887 12.8786 125.83C12.8417 125.773 12.7845 125.732 12.7187 125.716C12.1408 125.564 11.5844 125.34 11.0629 125.049C10.8943 124.926 10.9096 124.934 10.925 124.804C11.4211 123.014 12.2168 121.322 13.2782 119.798C13.6921 119.683 14.8113 120.503 15.1945 120.795C15.2346 120.833 15.2882 120.855 15.344 120.855C15.3998 120.855 15.4534 120.833 15.4935 120.795C15.8457 120.429 16.2249 120.091 16.628 119.783C17.7931 118.901 18.1074 119.016 18.0077 118.71C17.6553 117.94 17.4574 117.11 17.4252 116.264C17.544 116.166 17.6788 116.088 17.8237 116.034C18.5394 115.751 19.2746 115.521 20.0237 115.345C20.9316 115.091 21.8648 114.94 22.8062 114.892C22.9672 114.961 23.1128 115.659 23.1511 115.873C23.4347 117.406 23.2431 117.721 23.4654 117.744C25.65 117.958 26.0946 118.564 26.2479 118.296C26.673 117.552 27.1684 116.852 27.7273 116.203C27.8883 116.042 27.8806 115.965 28.3635 116.241C29.8062 117.184 31.0983 118.339 32.1962 119.668C32.3112 119.867 31.3147 120.925 30.5865 121.546C30.3335 121.768 30.6938 121.868 31.353 123.125C32.0122 124.382 31.8589 124.735 32.2115 124.658C32.8913 124.495 33.5908 124.431 34.2888 124.466ZM140.676 60.4149C139.069 59.7586 137.384 59.3129 135.662 59.0888C134.405 58.8895 132.926 58.6902 131.677 58.5293C132.88 56.8276 136.444 52.5197 137.042 51.4695C137.211 51.1859 136.889 50.7873 136.651 50.5497C135.318 49.1239 132.742 48.5874 130.764 48.2808C129.63 48.0968 124.893 47.5142 124.088 47.8975C123.122 48.3574 115.978 59.0888 115.763 60.7215C115.763 60.9975 115.855 61.1048 116.124 61.2045C117.25 61.6184 122.333 62.2623 123.467 62.5306C121.934 65.2134 115.119 74.2815 114.453 75.5616C114.292 75.8835 114.391 76.0751 114.583 76.1365C115.273 76.4103 115.983 76.6307 116.706 76.7957C116.982 76.88 117.588 76.5044 118.469 75.9678C122.425 73.5916 139.395 62.3849 140.699 60.9362C140.735 60.9022 140.763 60.8608 140.781 60.815C140.8 60.7691 140.808 60.7197 140.806 60.6703C140.804 60.6208 140.791 60.5725 140.769 60.5284C140.746 60.4843 140.714 60.4456 140.676 60.4149ZM124.203 69.6133C117.687 73.9135 115.487 75.1706 115.411 75.2243C116.461 73.6223 122.984 64.6845 124.103 62.5459C124.123 62.5046 124.133 62.4594 124.133 62.4138C124.132 62.3681 124.122 62.323 124.102 62.2819C124.082 62.2408 124.053 62.2046 124.018 62.176C123.982 62.1474 123.941 62.1271 123.896 62.1166C123.13 61.8407 117.549 61.2428 116.231 60.7752C116.4 59.3495 123.36 48.572 124.203 48.1428C125.046 47.7135 133.225 48.687 134.758 49.7832C133.953 51.3545 129.507 56.8582 128.787 58.1383C128.641 58.399 128.595 58.6519 128.879 58.7209C129.162 58.7899 136.368 59.6331 137.939 60.1466C136.023 61.7487 126.349 68.1722 124.203 69.5826V69.6133ZM75.0299 22.7476C75.0299 22.8166 75.0759 22.9009 75.1909 23.3455C75.2211 23.442 75.2874 23.523 75.376 23.5716C75.4646 23.6201 75.5686 23.6325 75.6661 23.6061C75.7637 23.5777 75.846 23.5116 75.8949 23.4225C75.9438 23.3334 75.9552 23.2285 75.9268 23.1309C75.8501 22.8319 75.7811 22.579 75.7351 22.4563C75.6905 22.3722 75.6161 22.3076 75.5264 22.2754C75.4368 22.2431 75.3383 22.2453 75.2502 22.2817C75.1622 22.3181 75.0908 22.386 75.0501 22.4721C75.0094 22.5582 75.0022 22.6565 75.0299 22.7476Z" fill="#fff"/>
<path d="M34.1049 123.761C33.4375 123.531 32.7224 123.475 32.0276 123.6C31.7396 122.94 31.3851 122.311 30.9697 121.722C31.468 121.27 32.8324 120.013 32.5028 119.422C31.3298 118.019 29.9371 116.816 28.3789 115.858C27.7282 115.494 27.0118 115.262 26.2709 115.176C25.7803 115.245 24.6152 117.154 24.3546 117.583C24.1859 117.583 23.5881 117.391 23.5421 117.368C23.5421 116.816 23.3811 114.823 22.8828 114.593C22.3257 114.388 21.7471 114.247 21.1582 114.172C20.6139 114.087 15.7158 114.984 15.3555 115.643C15.1179 116.088 15.6698 117.767 15.8308 118.234C15.4174 118.462 15.0204 118.718 14.6426 119.001C13.8761 119.545 14.0831 119.522 13.9451 119.461C13.7783 119.381 13.5997 119.329 13.4162 119.307C12.8039 118.948 12.0859 118.813 11.3849 118.924C10.6797 119.154 9.01631 122.941 8.74802 123.914C8.66022 124.16 8.63648 124.424 8.67904 124.681C8.863 125.187 10.0895 125.593 10.603 125.754C10.4612 126.74 10.4612 127.742 10.603 128.728C9.92848 128.912 8.52573 129.326 8.60238 130.016C8.67904 130.706 10.4727 135.259 11.2163 135.619C11.6236 135.847 12.074 135.987 12.5386 136.031C13.0033 136.074 13.4719 136.02 13.9144 135.872C14.1637 135.748 14.4044 135.607 14.635 135.451C14.9416 135.681 15.2635 135.888 15.5931 136.087C15.3555 136.677 14.8266 137.996 14.9952 138.593C15.0796 138.908 15.3325 139.007 15.6851 139.138C16.6586 139.49 21.9017 140.747 22.6989 140.609C22.9978 140.563 23.1588 140.249 23.2508 139.95C23.4211 139.27 23.5213 138.574 23.5497 137.873C23.9434 137.834 24.3348 137.775 24.7225 137.697C24.9593 138.113 25.2622 138.489 25.6194 138.808C26.0103 139.084 26.3399 138.946 26.7845 138.662C26.9991 138.938 27.3211 139.322 27.666 139.36C28.5322 139.46 32.1119 136.087 32.4798 135.397C32.7864 134.822 31.6673 133.795 31.169 133.343C31.708 132.532 32.1312 131.649 32.4262 130.721C32.979 130.804 33.5385 130.835 34.0972 130.813C34.3501 130.813 34.6414 130.721 34.7487 130.483C35.2163 129.418 35.0783 125.378 34.7487 124.351C34.7027 124.052 34.3578 123.853 34.1049 123.761ZM34.2888 124.466C34.5494 125.463 34.6338 129.226 34.2505 130.2C33.5878 130.265 32.919 130.234 32.2652 130.108C32.1954 130.096 32.1236 130.111 32.064 130.149C32.0045 130.187 31.9614 130.246 31.9432 130.315C31.638 131.351 31.164 132.33 30.5405 133.212C30.4961 133.271 30.476 133.344 30.4846 133.417C30.4932 133.49 30.5297 133.557 30.5865 133.603C31.1243 134.029 31.5812 134.549 31.9356 135.136C31.5523 135.765 28.5552 138.509 27.7273 138.739C27.6047 138.739 27.2674 138.279 27.1831 138.156C26.8999 137.731 26.6439 137.288 26.4166 136.83C26.3834 136.764 26.3265 136.712 26.257 136.685C26.1875 136.658 26.1104 136.658 26.041 136.685C23.818 137.52 22.9748 137.03 22.9748 137.582C22.9758 138.408 22.8412 139.229 22.5762 140.011C20.7749 139.816 19.0009 139.42 17.2872 138.831C17.3699 138.013 17.5984 137.216 17.9617 136.478C18.1917 135.964 17.2718 136.11 15.5548 134.362C15.4996 134.311 15.427 134.283 15.3517 134.283C15.2764 134.283 15.2038 134.311 15.1486 134.362C14.382 134.991 13.3855 135.604 13.1862 135.504C12.7953 135.313 10.994 131.227 10.8866 130.399C11.4318 130.019 12.0508 129.758 12.7033 129.633C12.7729 129.613 12.833 129.569 12.8725 129.508C12.9119 129.448 12.9281 129.375 12.918 129.303C12.7301 128.218 12.7301 127.108 12.918 126.022C12.9297 125.955 12.9156 125.887 12.8786 125.83C12.8417 125.773 12.7845 125.732 12.7187 125.716C12.1408 125.564 11.5844 125.34 11.0629 125.049C10.8943 124.926 10.9096 124.934 10.925 124.804C11.4211 123.014 12.2168 121.322 13.2782 119.798C13.6921 119.683 14.8113 120.503 15.1945 120.795C15.2346 120.833 15.2882 120.855 15.344 120.855C15.3998 120.855 15.4534 120.833 15.4935 120.795C15.8457 120.429 16.2249 120.091 16.628 119.783C17.7931 118.901 18.1074 119.016 18.0077 118.71C17.6553 117.94 17.4574 117.11 17.4252 116.264C17.544 116.166 17.6788 116.088 17.8237 116.034C18.5394 115.751 19.2746 115.521 20.0237 115.345C20.9316 115.091 21.8648 114.94 22.8062 114.892C22.9672 114.961 23.1128 115.659 23.1511 115.873C23.4347 117.406 23.2431 117.721 23.4654 117.744C25.65 117.958 26.0946 118.564 26.2479 118.296C26.673 117.552 27.1684 116.852 27.7273 116.203C27.8883 116.042 27.8806 115.965 28.3635 116.241C29.8062 117.184 31.0983 118.339 32.1962 119.668C32.3112 119.867 31.3147 120.925 30.5865 121.546C30.3335 121.768 30.6938 121.868 31.353 123.125C32.0122 124.382 31.8589 124.735 32.2115 124.658C32.8913 124.495 33.5908 124.431 34.2888 124.466ZM140.676 60.4149C139.069 59.7586 137.384 59.3129 135.662 59.0888C134.405 58.8895 132.926 58.6902 131.677 58.5293C132.88 56.8276 136.444 52.5197 137.042 51.4695C137.211 51.1859 136.889 50.7873 136.651 50.5497C135.318 49.1239 132.742 48.5874 130.764 48.2808C129.63 48.0968 124.893 47.5142 124.088 47.8975C123.122 48.3574 115.978 59.0888 115.763 60.7215C115.763 60.9975 115.855 61.1048 116.124 61.2045C117.25 61.6184 122.333 62.2623 123.467 62.5306C121.934 65.2134 115.119 74.2815 114.453 75.5616C114.292 75.8835 114.391 76.0751 114.583 76.1365C115.273 76.4103 115.983 76.6307 116.706 76.7957C116.982 76.88 117.588 76.5044 118.469 75.9678C122.425 73.5916 139.395 62.3849 140.699 60.9362C140.735 60.9022 140.763 60.8608 140.781 60.815C140.8 60.7691 140.808 60.7197 140.806 60.6703C140.804 60.6208 140.791 60.5725 140.769 60.5284C140.746 60.4843 140.714 60.4456 140.676 60.4149ZM124.203 69.6133C117.687 73.9135 115.487 75.1706 115.411 75.2243C116.461 73.6223 122.984 64.6845 124.103 62.5459C124.123 62.5046 124.133 62.4594 124.133 62.4138C124.132 62.3681 124.122 62.323 124.102 62.2819C124.082 62.2408 124.053 62.2046 124.018 62.176C123.982 62.1474 123.941 62.1271 123.896 62.1166C123.13 61.8407 117.549 61.2428 116.231 60.7752C116.4 59.3495 123.36 48.572 124.203 48.1428C125.046 47.7135 133.225 48.687 134.758 49.7832C133.953 51.3545 129.507 56.8582 128.787 58.1383C128.641 58.399 128.595 58.6519 128.879 58.7209C129.162 58.7899 136.368 59.6331 137.939 60.1466C136.023 61.7487 126.349 68.1722 124.203 69.5826V69.6133ZM75.0299 22.7476C75.0299 22.8166 75.0759 22.9009 75.1909 23.3455C75.2211 23.442 75.2874 23.523 75.376 23.5716C75.4646 23.6201 75.5686 23.6325 75.6661 23.6061C75.7637 23.5777 75.846 23.5116 75.8949 23.4225C75.9438 23.3334 75.9552 23.2285 75.9268 23.1309C75.8501 22.8319 75.7811 22.579 75.7351 22.4563C75.6905 22.3722 75.6161 22.3076 75.5264 22.2754C75.4368 22.2431 75.3383 22.2453 75.2502 22.2817C75.1622 22.3181 75.0908 22.386 75.0501 22.4721C75.0094 22.5582 75.0022 22.6565 75.0299 22.7476Z" fill="white"/>
</svg>
