<svg width="86" height="24" viewBox="0 0 86 24" fill="none" xmlns="http://www.w3.org/2000/svg">
<path d="M0.741943 0.699219C5.44194 0.699219 5.44197 5.79926 10.142 5.79926C14.842 5.79926 14.8419 0.699219 19.5419 0.699219C24.2419 0.699219 24.242 5.79926 28.942 5.79926C33.642 5.79926 33.642 0.699219 38.342 0.699219C43.042 0.699219 43.0419 5.79926 47.7419 5.79926C52.4419 5.79926 52.442 0.699219 57.142 0.699219C61.842 0.699219 61.8419 5.79926 66.5419 5.79926C71.2419 5.79926 71.242 0.699219 75.942 0.699219C80.642 0.699219 80.642 5.79926 85.342 5.79926" stroke="#DDDCDC" stroke-miterlimit="10"/>
<path d="M0.741943 9.29926C5.44194 9.29926 5.44197 14.3992 10.142 14.3992C14.842 14.3992 14.8419 9.29926 19.5419 9.29926C24.2419 9.29926 24.242 14.3992 28.942 14.3992C33.642 14.3992 33.642 9.29926 38.342 9.29926C43.042 9.29926 43.0419 14.3992 47.7419 14.3992C52.4419 14.3992 52.442 9.29926 57.142 9.29926C61.842 9.29926 61.8419 14.3992 66.5419 14.3992C71.2419 14.3992 71.242 9.29926 75.942 9.29926C80.642 9.29926 80.642 14.3992 85.342 14.3992" stroke="#DDDCDC" stroke-miterlimit="10"/>
<path d="M0.741943 17.7993C5.44194 17.7993 5.44197 22.8992 10.142 22.8992C14.842 22.8992 14.8419 17.7993 19.5419 17.7993C24.2419 17.7993 24.242 22.8992 28.942 22.8992C33.642 22.8992 33.642 17.7993 38.342 17.7993C43.042 17.7993 43.0419 22.8992 47.7419 22.8992C52.4419 22.8992 52.442 17.7993 57.142 17.7993C61.842 17.7993 61.8419 22.8992 66.5419 22.8992C71.2419 22.8992 71.242 17.7993 75.942 17.7993C80.642 17.7993 80.642 22.8992 85.342 22.8992" stroke="#DDDCDC" stroke-miterlimit="10"/>
</svg>
