<svg width="154" height="154" viewBox="0 0 154 154" fill="none" xmlns="http://www.w3.org/2000/svg">
<path d="M126.403 37.9865C126.715 37.9203 127.001 37.7629 127.223 37.5342C127.197 37.6612 127.164 37.7866 127.124 37.9098C127.062 38.1168 127.292 38.1781 127.369 38.0478C127.64 37.6454 127.747 37.1545 127.668 36.6757C127.664 36.6305 127.647 36.5873 127.619 36.5514C127.592 36.5154 127.554 36.4882 127.511 36.4729C127.469 36.4575 127.422 36.4548 127.378 36.4649C127.334 36.4751 127.294 36.4977 127.262 36.5301C126.94 36.921 126.878 37.4729 126.334 37.6415C126.291 37.6533 126.254 37.6809 126.231 37.7189C126.207 37.7569 126.199 37.8024 126.208 37.8462C126.216 37.89 126.241 37.9288 126.278 37.9549C126.314 37.9809 126.359 37.9922 126.403 37.9865ZM124.893 35.4033C124.936 35.4307 124.985 35.4462 125.036 35.4481C125.087 35.4499 125.137 35.4381 125.182 35.4138C125.227 35.3895 125.264 35.3537 125.29 35.31C125.316 35.2663 125.33 35.2165 125.33 35.1656C125.33 35.1043 125.33 35.0353 124.962 34.4834C124.885 34.3684 124.793 34.1538 124.594 34.2611C124.395 34.3684 124.533 34.5677 124.64 34.836C124.855 35.4033 124.855 35.4033 124.893 35.4033ZM124.77 34.0005C125.146 34.0005 125.407 34.0005 125.453 34.3148C125.459 34.3616 125.483 34.404 125.521 34.4327C125.558 34.4615 125.605 34.4742 125.652 34.4681C125.699 34.462 125.741 34.4376 125.77 34.4002C125.799 34.3628 125.811 34.3156 125.805 34.2688C125.745 34.0205 125.598 33.8014 125.392 33.65C125.186 33.4987 124.934 33.4246 124.678 33.4409C124.618 33.4661 124.568 33.5111 124.536 33.5685C124.504 33.6259 124.492 33.6924 124.503 33.7572C124.514 33.8219 124.546 33.8812 124.594 33.9254C124.643 33.9696 124.705 33.996 124.77 34.0005ZM31.0161 57.3644C28.866 58.4044 26.4999 58.9196 24.112 58.8676C21.7242 58.8156 19.3827 58.198 17.2799 57.0654C17.2413 57.042 17.1949 57.035 17.1511 57.0457C17.1072 57.0565 17.0695 57.0843 17.0461 57.1229C17.0227 57.1615 17.0156 57.2079 17.0264 57.2517C17.0372 57.2956 17.0649 57.3333 17.1036 57.3567C21.3042 60.0932 27.4747 60.2465 31.1311 57.5637C31.1575 57.5484 31.1768 57.5233 31.1847 57.4938C31.1926 57.4644 31.1885 57.433 31.1732 57.4065C31.158 57.3801 31.1329 57.3608 31.1034 57.3529C31.0739 57.345 31.0425 57.3491 31.0161 57.3644ZM30.4489 34.6367C30.8858 34.813 31.6063 34.6367 31.4147 34.2305C31.2868 33.9205 31.1967 33.5962 31.1464 33.2646C31.1464 33.2179 31.1278 33.173 31.0948 33.14C31.0617 33.1069 31.0169 33.0883 30.9701 33.0883C30.9234 33.0883 30.8785 33.1069 30.8454 33.14C30.8124 33.173 30.7938 33.2179 30.7938 33.2646C30.7892 33.589 30.8201 33.9128 30.8858 34.2305C30.7812 34.29 30.6603 34.3141 30.5409 34.2995C30.5187 34.2934 30.4956 34.2918 30.4728 34.2947C30.4501 34.2976 30.4281 34.3049 30.4081 34.3163C30.3882 34.3277 30.3707 34.3429 30.3567 34.3611C30.3426 34.3792 30.3323 34.4 30.3262 34.4221C30.3202 34.4443 30.3186 34.4674 30.3215 34.4901C30.3244 34.5129 30.3317 34.5349 30.3431 34.5548C30.3545 34.5748 30.3697 34.5922 30.3878 34.6063C30.406 34.6204 30.4267 34.6307 30.4489 34.6367ZM29.5674 32.958C29.6861 32.6823 29.7834 32.3978 29.8586 32.1072C29.8655 32.0805 29.8669 32.0527 29.8629 32.0255C29.8589 31.9982 29.8494 31.972 29.8352 31.9485C29.8209 31.9249 29.8021 31.9044 29.7798 31.8883C29.7575 31.8721 29.7322 31.8605 29.7053 31.8542C29.4754 31.7852 29.4371 32.0305 29.3221 32.3295C29.2561 32.4782 29.2022 32.632 29.1611 32.7894C29.1609 32.8366 29.1747 32.8828 29.2008 32.9221C29.2268 32.9614 29.2641 32.992 29.3076 33.0101C29.3512 33.0282 29.3992 33.0329 29.4454 33.0236C29.4917 33.0143 29.5341 32.9915 29.5674 32.958ZM32.1199 33.6786C32.1636 33.6977 32.2121 33.7029 32.2588 33.6933C32.3055 33.6837 32.348 33.6598 32.3805 33.6249C32.4981 33.3487 32.5954 33.0644 32.6718 32.7741C32.6799 32.7479 32.6825 32.7203 32.6794 32.6931C32.6764 32.6659 32.6678 32.6396 32.6541 32.6159C32.6404 32.5921 32.622 32.5715 32.6 32.5552C32.578 32.5389 32.5529 32.5273 32.5262 32.5211C32.2885 32.4521 32.2426 32.7281 32.1429 32.9887C32.0433 33.2493 31.8516 33.5713 32.1199 33.6786ZM28.4406 35.25C28.7157 35.3877 29.0309 35.4231 29.3297 35.3496C29.5214 35.2653 29.3911 34.974 29.2071 35.0353C29.0046 35.0215 28.8103 34.9496 28.6475 34.8284C28.5438 34.7603 28.4545 34.6725 28.3848 34.5699C28.3151 34.4673 28.2663 34.352 28.2413 34.2305C28.1876 33.9085 27.6817 34.0312 27.7583 34.3531C27.7956 34.545 27.8765 34.7256 27.9948 34.8812C28.1131 35.0367 28.2656 35.1629 28.4406 35.25ZM82.9332 119.162C82.9332 118.959 82.8525 118.764 82.7087 118.62C82.565 118.476 82.37 118.396 82.1667 118.396C81.9634 118.396 81.7684 118.476 81.6247 118.62C81.4809 118.764 81.4002 118.959 81.4002 119.162C81.4002 119.365 81.4809 119.56 81.6247 119.704C81.7684 119.848 81.9634 119.929 82.1667 119.929C82.37 119.929 82.565 119.848 82.7087 119.704C82.8525 119.56 82.9332 119.365 82.9332 119.162ZM82.9179 126.712C83.039 126.724 83.1612 126.71 83.2765 126.671C83.3919 126.633 83.498 126.57 83.5879 126.489C83.6779 126.407 83.7497 126.307 83.7989 126.196C83.8481 126.084 83.8735 125.964 83.8735 125.842C83.8735 125.721 83.8481 125.6 83.7989 125.489C83.7497 125.378 83.6779 125.278 83.5879 125.196C83.498 125.114 83.3919 125.052 83.2765 125.014C83.1612 124.975 83.039 124.961 82.9179 124.972C82.7968 124.961 82.6746 124.975 82.5592 125.014C82.4439 125.052 82.3378 125.114 82.2478 125.196C82.1579 125.278 82.086 125.378 82.0369 125.489C81.9877 125.6 81.9623 125.721 81.9623 125.842C81.9623 125.964 81.9877 126.084 82.0369 126.196C82.086 126.307 82.1579 126.407 82.2478 126.489C82.3378 126.57 82.4439 126.633 82.5592 126.671C82.6746 126.71 82.7968 126.724 82.9179 126.712ZM83.1402 132.921C82.9314 132.941 82.7376 133.038 82.5965 133.194C82.4555 133.349 82.3773 133.551 82.3773 133.761C82.3773 133.97 82.4555 134.173 82.5965 134.328C82.7376 134.483 82.9314 134.58 83.1402 134.6C83.349 134.58 83.5428 134.483 83.6838 134.328C83.8249 134.173 83.9031 133.97 83.9031 133.761C83.9031 133.551 83.8249 133.349 83.6838 133.194C83.5428 133.038 83.349 132.941 83.1402 132.921ZM78.4873 99.6309C78.865 101.632 79.121 103.654 79.2539 105.686C79.2539 105.758 79.2821 105.826 79.3325 105.876C79.3828 105.926 79.451 105.955 79.5222 105.955C79.5933 105.955 79.6616 105.926 79.7119 105.876C79.7622 105.826 79.7904 105.758 79.7904 105.686C79.6401 103.621 79.3248 101.57 78.8476 99.5542C78.8281 99.5175 78.7971 99.4882 78.7594 99.4706C78.7217 99.4531 78.6793 99.4483 78.6386 99.4569C78.5979 99.4656 78.5612 99.4872 78.5339 99.5186C78.5066 99.55 78.4903 99.5894 78.4873 99.6309ZM79.9438 122.075C79.9438 122.022 79.9228 121.971 79.8854 121.934C79.848 121.897 79.7973 121.876 79.7445 121.876C79.6916 121.876 79.6409 121.897 79.6035 121.934C79.5662 121.971 79.5452 122.022 79.5452 122.075C79.4685 127.326 79.3765 139.874 79.4225 141.238C79.433 141.299 79.4645 141.353 79.5115 141.393C79.5585 141.433 79.6179 141.454 79.6793 141.454C79.7407 141.454 79.8001 141.433 79.8471 141.393C79.8941 141.353 79.9256 141.299 79.9361 141.238C80.0434 138.762 79.9438 123.301 79.9438 122.075ZM100.517 69.3529C100.526 69.3744 100.54 69.3927 100.56 69.4051C100.579 69.4175 100.602 69.4234 100.625 69.4219C102.648 68.3767 104.47 66.9804 106.006 65.298C106.027 65.2752 106.039 65.245 106.039 65.2136C106.039 65.1823 106.027 65.1521 106.006 65.1293C104.25 63.8875 99.291 61.8256 99.2833 62.4081C99.2444 64.7809 99.6635 67.1388 100.517 69.3529ZM44.0855 80.4753C44.7065 80.5009 45.32 80.3313 45.8397 79.9904C46.3594 79.6494 46.7592 79.1542 46.9829 78.5743C47.1899 77.9227 47.1132 77.8077 46.4847 74.0134C46.943 74.381 47.4244 74.719 47.9258 75.0252C48.0835 75.0861 48.2582 75.0861 48.416 75.0255C48.5738 74.9648 48.7035 74.8477 48.7799 74.6969C48.8562 74.546 48.8739 74.3722 48.8294 74.2091C48.7849 74.046 48.6814 73.9053 48.539 73.8141C47.2567 73.1471 46.2718 72.0227 45.7795 70.6637C45.7105 70.426 44.8137 70.3494 44.4764 70.9243C44.4764 70.9933 45.6492 77.5088 45.6645 77.5778C45.7145 77.7739 45.7145 77.9795 45.6645 78.1757C45.5506 78.4218 45.3764 78.6353 45.1579 78.7961C44.9395 78.9569 44.684 79.0599 44.4151 79.0955C44.2007 79.1379 43.98 79.1372 43.7659 79.0935C43.5518 79.0498 43.3486 78.964 43.168 78.841C42.9873 78.718 42.833 78.5603 42.7139 78.3771C42.5947 78.1939 42.5132 77.9889 42.4741 77.7739C42.435 77.5589 42.439 77.3383 42.4859 77.1249C42.5328 76.9115 42.6217 76.7095 42.7474 76.5308C42.8731 76.352 43.0331 76.2001 43.2181 76.0837C43.403 75.9674 43.6093 75.889 43.8248 75.8531C44.0048 75.8216 44.1648 75.7199 44.2697 75.5704C44.3747 75.4209 44.4159 75.2358 44.3844 75.0559C44.3529 74.876 44.2512 74.7159 44.1017 74.611C43.9522 74.5061 43.7671 74.4648 43.5872 74.4963C43.0554 74.5851 42.5564 74.8126 42.1406 75.1557C41.7247 75.4989 41.4067 75.9457 41.2186 76.451C41.046 76.9078 40.9885 77.4001 41.0513 77.8845C41.114 78.3688 41.295 78.8302 41.5784 79.228C41.8618 79.6257 42.2387 79.9476 42.676 80.1651C43.1132 80.3827 43.5973 80.4892 44.0855 80.4753Z" fill="white"/>
<path d="M52.5786 75.1631C52.4982 73.6143 51.9558 72.1251 51.0213 70.8873C50.0868 69.6495 48.8031 68.7199 47.3356 68.2183C40.7204 65.9801 34.6341 73.7297 38.5511 79.609C39.4752 80.9854 40.8206 82.0252 42.3856 82.5723C43.9506 83.1195 45.6508 83.1444 47.2312 82.6436C48.8116 82.1427 50.187 81.1429 51.1511 79.7942C52.1152 78.4455 52.6161 76.8206 52.5786 75.1631ZM40.3141 70.2573C45.013 65.9341 51.9117 69.4908 52.0957 75.1708C52.0784 76.6176 51.661 78.0314 50.8899 79.2558C50.1187 80.4801 49.0239 81.4672 47.7265 82.1079C43.4492 83.9705 38.2828 80.7588 37.9226 76.2362C37.828 75.1243 37.9926 74.0057 38.4036 72.9682C38.8146 71.9307 39.4607 71.0028 40.2911 70.2573H40.3141ZM95.2744 69.2072C95.9402 70.2264 96.8412 71.0706 97.9015 71.6688C98.9618 72.267 100.15 72.6016 101.367 72.6444C102.584 72.6872 103.793 72.4369 104.893 71.9147C105.992 71.3925 106.95 70.6136 107.686 69.6437C108.422 68.6738 108.914 67.5412 109.12 66.3415C109.327 65.1417 109.242 63.9099 108.873 62.7498C108.504 61.5897 107.861 60.5352 106.999 59.6754C106.138 58.8155 105.082 58.1753 103.921 57.8089C97.0374 55.6779 91.503 63.6958 95.2744 69.2072ZM97.0374 59.8632C101.828 55.4479 108.635 59.2729 108.811 64.7766C108.796 66.2201 108.383 67.6313 107.617 68.8552C106.852 70.0791 105.764 71.0682 104.473 71.7137C100.203 73.5764 95.0291 70.3723 94.6612 65.8421C94.5685 64.7276 94.7372 63.6068 95.1537 62.5689C95.5702 61.5309 96.223 60.6045 97.0604 59.8632H97.0374ZM48.0024 32.9196C42.3378 20.9617 27.8197 15.8643 16.1071 23.8362C0.92979 34.2074 4.51715 56.0995 21.5801 61.9864C38.2445 67.9041 56.4343 50.7338 48.0024 32.9196ZM37.3247 60.4381C35.9336 61.1192 34.4671 61.6338 32.9554 61.9711C33.0551 61.0206 33.1777 58.5677 33.2237 57.4179C33.9443 58.5677 35.2474 59.7175 36.8647 59.4875C38.2752 59.2653 39.5246 57.9545 40.6974 55.6549C41.8456 53.1418 42.4914 50.4285 42.5984 47.6676C42.7233 47.3481 42.8033 47.0127 42.836 46.6712C43.2256 45.7737 43.679 44.9052 44.1928 44.0726C44.4687 43.8321 44.7088 43.5533 44.9057 43.2448C45.1199 42.6506 45.1676 42.0091 45.0436 41.3898C45.0196 40.7686 44.7905 40.1729 44.3921 39.6957C44.7064 39.0595 45.5802 36.1544 45.7258 35.5871C45.7384 35.5263 45.7281 35.4631 45.697 35.4094C45.6659 35.3557 45.6161 35.3153 45.5572 35.2958C44.0205 35.0615 42.466 34.9641 40.912 35.0046C40.8584 34.9049 38.0989 42.7848 37.8459 43.4364C37.8342 43.4721 37.8299 43.5098 37.8333 43.5473C37.8368 43.5847 37.8478 43.621 37.8657 43.654C37.8836 43.687 37.9081 43.716 37.9377 43.7392C37.9672 43.7625 38.0012 43.7794 38.0375 43.789C38.7993 43.9072 39.567 43.9839 40.3371 44.019C40.3371 44.3486 40.1915 45.2607 40.1378 45.552C39.9193 45.8295 39.7412 46.1366 39.6089 46.4642C38.6572 47.2919 37.9873 48.3959 37.6926 49.6223C36.3358 43.6664 35.393 41.1061 30.0273 38.1243C29.759 37.9787 29.4371 37.8714 29.1458 37.6798C32.8558 38.5689 33.2697 38.9905 33.4077 38.8066C37.6083 32.8889 35.6536 26.1205 31.3457 23.3993C27.3138 20.4865 23.3355 23.2383 21.8867 27.8452C20.8136 31.4709 22.6533 34.6443 23.6038 35.9627C22.7299 36.047 22.431 36.1467 21.7334 36.2233C15.8311 36.8596 11.048 43.9346 8.85572 49.4613C2.31721 34.4603 16.5593 17.382 33.1164 21.3373C52.0421 26.5267 55.4838 51.6536 37.3247 60.4381ZM13.8765 56.6054C14.4591 55.7009 15.9155 53.1867 16.2527 52.5964C20.5146 55.8772 28.5172 56.3065 32.7178 53.5086C32.7178 53.6389 32.5262 61.0283 32.5262 62.0784C29.2061 62.6861 25.7899 62.5075 22.5513 61.5571C19.3126 60.6067 16.3417 58.9108 13.8765 56.6054ZM37.9226 51.3317C37.9087 51.0926 37.8806 50.8545 37.8382 50.6188C37.9072 50.4042 37.9532 50.2125 38.0222 49.9596C38.5205 50.7874 40.1685 52.2592 40.8507 52.3435C40.885 52.3462 40.9193 52.3372 40.9479 52.3181C40.9765 52.2989 40.9979 52.2707 41.0085 52.2379C41.0191 52.2052 41.0184 52.1698 41.0065 52.1375C40.9945 52.1052 40.9721 52.0778 40.9427 52.0599C39.8078 51.3545 38.8962 50.3419 38.3135 49.1394C38.49 48.6585 38.7495 48.2123 39.08 47.821C39.6809 48.7641 40.5258 49.5269 41.5253 50.0286C41.5429 50.0331 41.5612 50.0341 41.5792 50.0316C41.5972 50.029 41.6145 50.0229 41.6302 50.0137C41.6459 50.0044 41.6596 49.9922 41.6705 49.9776C41.6814 49.9631 41.6894 49.9465 41.6939 49.9289C41.6984 49.9113 41.6994 49.893 41.6969 49.875C41.6943 49.8569 41.6882 49.8396 41.679 49.824C41.6697 49.8083 41.6575 49.7946 41.6429 49.7837C41.6284 49.7728 41.6119 49.7648 41.5942 49.7603C40.6977 49.1441 39.9597 48.3246 39.4403 47.3687C39.5399 47.2461 39.6473 47.1234 39.7546 47.0084C40.3702 47.6144 41.1909 47.9672 42.0542 47.9973C41.9186 50.2947 41.4459 52.5598 40.6514 54.7197C40.0233 56.2383 39.0402 57.5841 37.7846 58.6444C38.8409 56.5939 39.0819 54.2195 38.4591 51.9985C38.4438 51.946 38.4113 51.9001 38.3668 51.8682C38.3224 51.8362 38.2685 51.82 38.2138 51.8222C37.5623 51.8222 38.4745 54.4898 33.8829 57.4409C33.6457 57.1014 33.4331 56.7453 33.2467 56.3754C33.2927 53.7692 33.1854 51.1707 33.0781 48.6565C33.0781 48.6097 33.0595 48.5649 33.0264 48.5318C32.9934 48.4987 32.9485 48.4802 32.9018 48.4802C32.855 48.4802 32.8102 48.4987 32.7771 48.5318C32.7441 48.5649 32.7255 48.6097 32.7255 48.6565C32.7715 49.9902 32.7255 51.3087 32.7255 52.8877C30.1499 54.5051 27.1988 55.0647 23.4275 54.6431C20.9188 54.5109 18.5017 53.6565 16.4674 52.1825C16.7357 51.6919 17.8548 49.5456 18.1691 48.9708C18.1842 48.9446 18.192 48.9148 18.1917 48.8846C18.1914 48.8543 18.183 48.8247 18.1673 48.7989C18.1517 48.773 18.1293 48.7518 18.1026 48.7376C18.076 48.7233 18.046 48.7165 18.0158 48.7178C17.8318 48.7178 18.0158 48.6718 16.4827 51.301C14.0647 50.3538 12.1119 48.5001 11.0403 46.1346C12.281 43.7661 13.9079 41.6211 15.8541 39.7877C16.8538 41.1757 18.1223 42.3485 19.5843 43.2365C21.0462 44.1246 22.6717 44.7097 24.3642 44.9571C26.0568 45.2045 27.7817 45.1092 29.4367 44.6767C31.0916 44.2443 32.6428 43.4836 33.9979 42.4399C34.0239 42.4122 34.0393 42.3762 34.0413 42.3382C34.0432 42.3003 34.0318 42.2629 34.0088 42.2326C33.9859 42.2023 33.953 42.1811 33.9159 42.1728C33.8788 42.1644 33.84 42.1694 33.8063 42.187C32.6939 42.9514 31.485 43.5648 30.2113 44.0113C27.6987 44.8072 24.9992 44.7911 22.4962 43.9655C19.9933 43.1399 17.814 41.5467 16.2681 39.4121C17.0022 38.8164 17.799 38.3024 18.6443 37.8791C21.5495 44.4176 28.7165 44.8851 32.1812 40.1786C33.9749 41.5737 34.5268 41.75 35.9602 45.2147C32.6718 48.0816 29.6747 49.5073 26.8079 49.4767C24.4256 49.4933 22.0708 48.9686 19.9209 47.9421C17.7711 46.9157 15.8825 45.4143 14.3977 43.5514C14.2751 43.3827 13.9991 43.5514 14.1218 43.7353C16.4214 47.2384 20.7829 49.538 26.118 50.0439C29.7283 50.3965 33.561 48.3345 36.1365 45.713C36.5351 47.0314 37.0181 48.9708 37.0717 49.2007C36.8341 49.9672 34.2662 52.3512 33.8599 52.4431C33.6223 52.4968 33.745 52.8647 33.9596 52.7727C35.195 52.0578 36.3078 51.1495 37.2557 50.0822C37.34 50.4808 37.4933 51.1937 37.5163 51.37C37.5393 51.5463 37.9379 51.577 37.9226 51.3317ZM42.5217 39.7724C42.4267 39.7456 42.3267 39.7425 42.2302 39.7633C42.1337 39.7841 42.0438 39.8281 41.9682 39.8916C41.8926 39.9551 41.8337 40.0361 41.7966 40.1275C41.7595 40.219 41.7453 40.3181 41.7552 40.4163C40.935 40.5926 40.9887 41.1828 41.4639 41.5661C41.9344 41.863 42.4206 42.1342 42.9203 42.3786C42.744 42.8002 42.6061 43.1451 42.4221 43.5514C41.6556 43.5514 39.2717 43.4057 38.4438 43.3367C38.7504 42.3786 40.3678 37.925 41.257 35.5181C42.0235 35.5565 44.4227 35.6178 45.1969 35.7404C45.013 36.507 44.2311 38.7376 44.0088 39.4351C43.8905 39.357 43.7575 39.3037 43.618 39.2784C43.4785 39.2531 43.3353 39.2563 43.1971 39.2878C43.0588 39.3193 42.9284 39.3785 42.8137 39.4618C42.6989 39.5451 42.6022 39.6507 42.5294 39.7724H42.5217ZM42.859 43.9193C42.9893 43.5054 43.1503 43.1068 43.3649 42.5855C43.3991 42.5915 43.4342 42.5864 43.4652 42.5708C43.4962 42.5552 43.5213 42.53 43.5368 42.499C43.5523 42.468 43.5573 42.4328 43.5512 42.3987C43.5451 42.3646 43.5282 42.3333 43.5029 42.3096C43.3113 42.1333 41.5329 41.1905 41.6019 41.0065C41.6709 40.8225 42.1155 40.9528 42.3684 41.0985C42.8673 41.3039 43.3795 41.4755 43.9015 41.6121C43.935 41.6157 43.9688 41.6082 43.9976 41.5907C44.0264 41.5732 44.0487 41.5466 44.0609 41.5152C44.0731 41.4838 44.0747 41.4492 44.0652 41.4168C44.0558 41.3844 44.036 41.3561 44.0088 41.3361C43.4102 41.1189 42.8264 40.8628 42.2611 40.5696C42.1461 40.4623 42.0925 40.171 42.2611 40.1786C42.8243 40.3128 43.3489 40.5752 43.7942 40.9452C43.8118 40.9618 43.8325 40.9748 43.8551 40.9834C43.8778 40.992 43.9019 40.996 43.9261 40.9953C43.9503 40.9946 43.9741 40.9891 43.9962 40.9792C44.0183 40.9693 44.0382 40.9551 44.0548 40.9375C44.0714 40.9199 44.0844 40.8992 44.093 40.8765C44.1016 40.8539 44.1057 40.8298 44.1049 40.8056C44.1042 40.7814 44.0988 40.7576 44.0888 40.7355C44.0789 40.7134 44.0648 40.6935 44.0471 40.6769C43.7592 40.4495 43.4542 40.2445 43.135 40.0637C42.7517 39.8414 43.0277 39.5654 43.4109 39.6191C43.9245 39.6957 44.5837 40.3856 44.5147 41.8037C44.5786 42.1846 44.5291 42.5758 44.3723 42.9288C44.2156 43.2818 43.9586 43.5809 43.6332 43.789C43.1392 44.5729 42.7209 45.4019 42.3838 46.2649C42.0467 46.3521 41.6917 46.3415 41.3605 46.2342C41.0292 46.127 40.7354 45.9276 40.5134 45.6593C40.5671 45.3911 40.7281 44.4712 40.7741 44.1263C42.4834 44.1799 42.7824 44.1723 42.8667 43.9193H42.859ZM38.1602 53.202C38.4241 55.1579 38.1013 57.1481 37.2327 58.9203C36.6726 59.0808 36.0765 59.063 35.5271 58.8693C34.9777 58.6756 34.5022 58.3157 34.1666 57.8395C36.0345 56.852 37.4607 55.1957 38.1602 53.202ZM24.056 36.6526C24.0697 36.6688 24.0875 36.6808 24.1075 36.6875C24.1276 36.6942 24.1491 36.6952 24.1697 36.6904C24.1903 36.6857 24.2092 36.6753 24.2243 36.6606C24.2394 36.6458 24.2501 36.6271 24.2553 36.6066C25.4128 32.0534 25.3821 32.337 25.2748 32.2757C23.987 31.5705 24.3933 30.1984 24.9145 30.0374C25.1752 29.9531 25.5201 30.1218 25.865 30.505C26.0903 30.7168 26.2612 30.9797 26.3633 31.2716C27.1298 33.4178 31.3764 30.5893 33.2161 29.2326C33.3437 29.1265 33.4947 29.0521 33.6566 29.0156C33.8186 28.9791 33.9869 28.9816 34.1477 29.0227C34.3085 29.0638 34.4573 29.1425 34.5818 29.2523C34.7064 29.3621 34.8031 29.4998 34.8641 29.6542C35.0404 29.9915 34.7185 30.2751 34.5268 29.9071C34.1282 29.2326 33.4307 29.6082 33.446 29.7922C33.5993 31.6932 33.2467 34.3913 31.7673 35.7098C30.2879 37.0282 28.5709 36.346 28.4176 36.4763C28.2643 36.6066 28.3486 36.7293 28.3486 36.8749C28.28 37.0376 28.2496 37.2138 28.2596 37.3901C28.2697 37.5663 28.3199 37.7379 28.4064 37.8918C28.493 38.0457 28.6136 38.1777 28.759 38.2778C28.9044 38.3779 29.0708 38.4434 29.2454 38.4693C29.8718 38.706 30.4686 39.0147 31.0238 39.3891C28.2949 43.605 22.3313 42.9841 20.0471 37.3042C21.324 36.8682 22.655 36.6102 24.0024 36.5376L24.056 36.6526ZM10.7874 46.6175C11.2826 47.801 12.022 48.8668 12.9571 49.7451C13.8923 50.6235 15.0022 51.2947 16.2144 51.7149C16.1224 51.8606 13.9838 55.356 13.4779 56.2145C11.6167 54.4264 10.104 52.308 9.01669 49.9672C9.77555 48.6028 10.1895 47.775 10.7874 46.6252V46.6175ZM144.762 33.0346C140.446 19.237 124.893 12.8978 112.813 20.2412C99.199 28.5044 98.3865 46.9011 111.372 56.1915C128.434 68.364 150.695 51.5616 144.762 33.0346ZM121.459 53.9455C123.996 57.3106 126.541 57.5712 128.243 57.1803C131.416 56.4598 134.199 52.8954 135.011 48.5032C135.023 48.4513 135.013 48.3972 134.984 48.3526C134.955 48.308 134.91 48.2767 134.858 48.2655C134.806 48.2544 134.752 48.2642 134.707 48.293C134.663 48.3217 134.632 48.367 134.62 48.4188C134.26 50.2943 133.473 52.0619 132.321 53.5853C127.814 59.4569 123.122 56.5901 119.527 50.0899C118.359 48.2262 117.703 46.087 117.626 43.8887C119.451 43.0301 119.412 42.9841 119.627 43.1681C121.758 45.0001 125.629 49.3693 126.166 49.9596C126.175 50.0105 126.202 50.0565 126.242 50.0896C126.282 50.1227 126.332 50.1408 126.384 50.1408C126.436 50.1408 126.486 50.1227 126.526 50.0896C126.566 50.0565 126.593 50.0105 126.602 49.9596C127.461 46.4949 128.136 42.8998 130.688 40.4239C131.636 40.2058 132.596 40.0445 133.563 39.941C136.958 44.2336 136.475 49.9596 136.46 55.3943C134.184 57.1326 131.568 58.375 128.783 59.0417C125.997 59.7084 123.103 59.7845 120.286 59.2653C120.452 57.4498 120.846 55.6624 121.459 53.9455ZM134.214 39.872C134.628 39.872 134.59 39.1975 134.214 39.2511C132.614 39.3846 131.043 39.7567 129.554 40.3549C129.347 40.4393 129.109 40.4853 129.186 40.6922C129.262 40.8992 129.431 40.7459 130.006 40.6002C127.752 42.9841 126.901 46.3415 126.311 49.3617C125.89 48.8481 124.847 47.66 124.579 47.3534C126.94 42.1486 126.809 41.9877 128.197 40.9375C128.733 40.5083 130.918 38.9292 132.727 37.7947C133.693 37.1815 134.383 36.7523 135.992 38.9829C137.487 41.0602 137.526 41.0908 136.567 45.6517C136.279 43.5515 135.45 41.5623 134.16 39.8797L134.214 39.872ZM117.35 35.3572C117.488 35.3572 117.557 35.4645 117.665 35.6255C120.194 39.4581 120.003 39.0212 120.003 39.0978C120.003 39.4658 120.501 40.0177 120.999 40.4853C120.593 40.6386 119.834 40.9452 119.382 41.1291C119.382 39.7187 118.385 39.7187 118.117 40.309C117.642 39.6114 116.584 38.2317 116.369 37.9634C116.311 37.8808 116.233 37.8148 116.141 37.7718C116.05 37.7288 115.949 37.7103 115.848 37.7181C115.488 37.2582 114.675 36.185 114.361 35.7174C114.438 35.7021 117.105 35.4032 117.343 35.3572H117.35ZM122.563 42.6239C122.448 43.559 120.984 42.5166 121.551 41.9953C121.656 42.1728 121.802 42.3225 121.977 42.4319C122.151 42.5413 122.35 42.6071 122.555 42.6239H122.563ZM122.479 42.141C122.164 42.0873 121.528 41.3744 121.712 41.2135C121.896 41.0525 122.686 42.0183 122.67 42.1333C122.606 42.155 122.537 42.1576 122.471 42.141H122.479ZM124.234 47.0084C123.567 46.3032 120.539 43.1758 120.463 43.1145C120.351 42.9484 120.208 42.8065 120.041 42.6972C119.873 42.5879 119.686 42.5134 119.489 42.4782C119.388 42.2173 119.349 41.9366 119.374 41.658L121.352 40.8149C121.536 40.9758 121.352 40.8149 121.26 41.1675C121.216 41.332 121.235 41.5069 121.313 41.658C120.547 42.2253 121.313 43.5437 122.325 43.4441C122.626 43.6501 122.886 43.9099 123.092 44.2106C123.318 44.993 123.64 45.7447 124.05 46.4489C124.303 46.9011 124.288 46.8475 124.226 47.0084H124.234ZM123.582 44.2719C123.582 44.0266 124.464 43.1068 124.602 42.9918C125.013 43.1112 125.413 43.2651 125.798 43.4517C125.575 43.9576 124.862 45.575 124.51 46.3952C124.125 45.7219 123.812 45.0103 123.575 44.2719H123.582ZM123.268 43.7813C123.12 43.586 122.944 43.413 122.747 43.2678C122.841 43.1657 122.912 43.0442 122.955 42.9117C122.997 42.7793 123.01 42.6392 122.992 42.5012C123.036 42.4719 123.073 42.4334 123.101 42.3885C123.129 42.3435 123.147 42.2931 123.153 42.2406C123.214 41.8803 122.808 41.5814 122.54 41.3284C121.746 40.7054 121.04 39.9783 120.44 39.1668C121.049 39.472 121.631 39.8284 122.18 40.2323C123.099 40.9145 124.28 41.5584 124.188 42.6929C123.85 43.0297 123.539 43.3938 123.26 43.7813H123.268ZM115.971 38.178C116.75 39.058 117.465 39.9931 118.109 40.9758C118.132 41.01 118.164 41.0369 118.201 41.053C118.239 41.0691 118.28 41.0737 118.32 41.0664C118.36 41.059 118.397 41.0399 118.427 41.0115C118.456 40.9831 118.476 40.9467 118.485 40.9068C118.485 40.6922 118.585 40.309 118.784 40.3933C119.205 40.9682 118.784 41.865 119.067 42.5779C117.013 43.4824 118.692 43.2524 117.427 41.8114C116.254 40.5772 115.794 38.5689 115.971 38.178ZM123.874 37.4115C124.154 36.4086 124.154 35.3482 123.874 34.3453C123.76 33.8985 123.691 33.4414 123.667 32.9809C124.127 33.03 124.592 33.0094 125.046 32.9196C126.388 32.6973 127.078 31.9768 127.407 32.1991C127.622 32.3447 127.66 32.797 127.522 33.5175C127.519 33.5409 127.524 33.5646 127.534 33.5855C127.545 33.6064 127.562 33.6234 127.583 33.6343C127.604 33.6452 127.628 33.6494 127.651 33.6463C127.675 33.6432 127.697 33.6331 127.714 33.6171C128.006 33.3781 128.372 33.248 128.749 33.2492C129.768 33.3335 129.73 34.7823 128.749 35.4032C128.728 35.4199 128.713 35.4436 128.708 35.47C128.702 35.4965 128.706 35.524 128.719 35.5477C128.732 35.5715 128.753 35.59 128.778 35.6C128.803 35.61 128.83 35.6109 128.856 35.6025C129.224 35.476 129.619 35.4485 130.001 35.5224C130.383 35.5964 130.739 35.7694 131.033 36.024C131.194 36.6658 131.412 37.2918 131.685 37.8944C130.619 38.6226 129.193 39.6191 128.174 40.4086C127.254 38.4769 126.112 39.849 125.322 38.3006C124.525 36.9745 124.019 37.4345 123.835 37.3885L123.874 37.4115ZM136.721 46.6098C137.273 44.9266 137.59 43.1751 137.664 41.4051C137.555 40.553 137.21 39.7485 136.667 39.0825C134.49 35.9397 133.601 36.461 131.922 37.5954C131.769 37.1279 131.432 36.1544 131.37 35.8937C131.47 35.7941 131.731 35.5411 131.807 35.4875C132.091 35.0896 132.311 34.6499 132.459 34.1844C132.655 33.534 132.735 32.8542 132.696 32.1761C132.735 31.5333 132.633 30.8898 132.397 30.2904C131.91 29.4381 131.139 28.7836 130.219 28.4405C129.299 28.0974 128.288 28.0875 127.361 28.4124C125.928 27.9372 124.081 27.4466 123.383 27.7455C122.828 27.8793 122.331 28.1873 121.965 28.6245C121.598 29.0616 121.381 29.6048 121.346 30.1743C121.311 30.7438 121.459 31.3095 121.769 31.7885C122.079 32.2674 122.535 32.6343 123.069 32.8353C123.046 33.4271 123.113 34.019 123.268 34.5906C123.528 35.3952 123.549 36.2578 123.329 37.0742C123.191 37.6874 123.391 37.9634 124.096 37.8407C124.924 37.902 124.472 39.3738 126.35 39.6497C126.802 39.7264 127.162 39.7954 127.63 40.6616C126.848 41.2865 126.26 42.1215 125.936 43.0685C125.519 42.8227 125.077 42.6222 124.617 42.4706C124.566 42.0884 124.433 41.7218 124.227 41.3962C124.02 41.0706 123.745 40.7938 123.421 40.5849C122.707 39.9884 121.937 39.4622 121.122 39.0135C120.961 38.9292 120.624 38.6686 120.355 38.7222C117.688 34.6596 117.964 34.8359 117.128 34.8359C116.049 34.8773 114.976 35.0211 113.924 35.2652C113.886 35.2794 113.852 35.3019 113.824 35.3311C113.796 35.3603 113.776 35.3954 113.763 35.4338C113.717 35.6178 113.763 35.5105 114.836 37.0435C115.833 38.4386 115.472 37.7564 115.534 38.5076C115.67 39.9559 116.26 41.3242 117.22 42.4169C117.403 42.6978 117.477 43.0359 117.427 43.3674L117.327 43.4134C117.067 43.5437 117.396 46.1576 117.58 46.7708C118.423 49.1799 119.635 51.4429 121.175 53.478C120.421 55.2896 119.958 57.2092 119.803 59.1656C112.958 57.6325 107.11 52.9797 104.473 46.9394C101.836 40.8992 102.51 33.8164 106.512 27.2013C117.588 10.9432 141.879 17.474 144.762 36.4686C145.819 43.6817 142.661 50.5268 136.989 55.0187C137.066 52.2168 136.959 49.4129 136.667 46.6252L136.721 46.6098ZM133.701 62.1704C133.767 63.4 133.981 64.6172 134.337 65.7961C134.361 65.8692 134.414 65.9296 134.483 65.9641C134.552 65.9986 134.632 66.0043 134.705 65.9801C135.287 65.8114 134.429 65.0066 134.176 62.1474C134.153 61.8485 133.678 61.8638 133.701 62.1704ZM136.046 71.3304C136.031 71.2664 135.991 71.211 135.935 71.1765C135.879 71.142 135.811 71.1312 135.747 71.1465C135.683 71.1617 135.628 71.2018 135.593 71.2579C135.559 71.3139 135.548 71.3814 135.563 71.4454C136.544 76.4279 136.414 76.9108 136.912 76.8111C137.411 76.7115 137.058 76.2362 136.046 71.3304ZM137.847 83.181C137.426 83.296 137.985 83.3573 138.361 88.0102C138.361 88.4317 139.051 88.4087 139.005 88.0102C138.812 86.437 138.507 84.8796 138.093 83.3496C138.091 83.3212 138.082 83.2936 138.068 83.2689C138.053 83.2442 138.034 83.223 138.01 83.2069C137.987 83.1907 137.96 83.18 137.932 83.1755C137.904 83.1711 137.875 83.1729 137.847 83.181ZM118.393 70.5026C119.211 68.0741 119.895 65.6021 120.44 63.0979C120.451 63.0403 120.44 62.9804 120.409 62.9306C120.378 62.8808 120.329 62.8448 120.272 62.8301C120.215 62.8154 120.154 62.823 120.103 62.8514C120.051 62.8799 120.013 62.9269 119.995 62.9829C119.382 65.4435 118.569 67.8274 117.81 70.3263C117.798 70.4 117.812 70.4759 117.852 70.5396C117.891 70.6033 117.952 70.6505 118.024 70.6722C118.095 70.6938 118.172 70.6886 118.24 70.6573C118.308 70.6261 118.363 70.5711 118.393 70.5026ZM115.281 80.6285C115.71 80.6285 115.633 80.1072 116.852 75.5464C116.868 75.4915 116.862 75.4324 116.835 75.3821C116.808 75.3317 116.761 75.2943 116.707 75.2781C116.652 75.2618 116.593 75.268 116.542 75.2953C116.492 75.3226 116.455 75.3688 116.438 75.4237C116.201 76.1903 115.158 79.4173 114.967 80.2299C114.955 80.2774 114.954 80.327 114.965 80.3748C114.975 80.4226 114.996 80.4674 115.026 80.5059C115.057 80.5443 115.095 80.5753 115.139 80.5965C115.184 80.6178 115.232 80.6287 115.281 80.6285ZM111.801 90.5934C112.069 90.5934 112.054 90.3941 112.276 89.5049C112.575 88.2938 113.043 86.4388 113.227 85.9175C113.342 85.6109 112.874 85.4729 112.759 85.7642C112.242 87.2658 111.835 88.8029 111.54 90.3634C111.546 90.4278 111.576 90.4875 111.625 90.5302C111.673 90.573 111.736 90.5956 111.801 90.5934ZM109.271 97.1165C108.565 98.4849 108.02 99.9305 107.646 101.424C107.626 101.502 107.637 101.584 107.677 101.653C107.718 101.722 107.784 101.772 107.861 101.792C107.938 101.813 108.02 101.802 108.089 101.761C108.158 101.721 108.208 101.655 108.229 101.578C109.509 97.2315 109.923 97.1932 109.547 96.9786C109.52 96.9678 109.491 96.9629 109.462 96.9642C109.433 96.9654 109.404 96.9728 109.378 96.9858C109.352 96.9989 109.329 97.0172 109.311 97.0398C109.292 97.0623 109.279 97.0884 109.271 97.1165ZM101.261 74.8335C101.338 75.4314 101.614 77.8996 101.706 78.5818C101.711 78.6241 101.725 78.6649 101.746 78.7018C101.768 78.7388 101.796 78.7711 101.83 78.7971C101.863 78.8231 101.902 78.8422 101.943 78.8532C101.984 78.8643 102.027 78.8671 102.07 78.8616C102.112 78.8561 102.153 78.8423 102.19 78.821C102.227 78.7997 102.259 78.7713 102.285 78.7375C102.311 78.7037 102.33 78.6651 102.341 78.6239C102.352 78.5827 102.355 78.5398 102.349 78.4975C102.25 77.8383 101.821 75.3624 101.729 74.7722C101.683 74.4962 101.223 74.5499 101.261 74.8335ZM102.464 85.8025C102.549 86.2855 102.863 88.3704 102.963 88.9223C103.039 89.3363 103.653 89.1829 103.576 88.7767C103.392 87.7572 103.147 86.73 102.955 85.7106C102.894 85.3656 102.411 85.4883 102.464 85.8025ZM103.706 96.465C103.74 97.7516 103.879 99.0334 104.12 100.298C104.212 100.719 104.841 100.551 104.764 100.137C104.502 98.9187 104.302 97.6881 104.166 96.4497C104.097 96.166 103.653 96.1584 103.706 96.465ZM83.7764 32.6743C83.6308 32.3984 83.2245 32.6283 83.3548 32.9043C85.846 38.017 85.6544 38.063 86.0147 38.063C86.0741 38.0625 86.1324 38.0469 86.1842 38.0178C86.236 37.9887 86.2796 37.947 86.311 37.8965C86.3423 37.846 86.3604 37.7884 86.3635 37.7291C86.3667 37.6698 86.3548 37.6106 86.329 37.5571C85.4858 35.9091 84.5966 34.307 83.7764 32.6743ZM88.5289 42.6699C88.4139 42.4092 88.023 42.6162 88.138 42.8768C88.9045 44.5862 89.5407 46.3415 90.3226 48.0586C90.4912 48.4418 91.0508 48.1352 90.8822 47.7596C90.1233 45.9966 89.2264 44.2259 88.5289 42.6699ZM95.2744 58.2841C95.3208 58.2866 95.3671 58.2777 95.4093 58.2581C95.4515 58.2386 95.4882 58.2089 95.5162 58.1718C95.5442 58.1347 95.5627 58.0913 95.57 58.0454C95.5773 57.9995 95.5731 57.9525 95.558 57.9085C95.2897 57.142 93.9636 54.3288 93.6263 53.5699C93.4884 53.2557 93.0284 53.5009 93.1588 53.8152C94.9831 58.0005 94.9524 58.2841 95.2744 58.2841ZM109.241 55.5016C108.957 55.9845 107.654 57.7552 107.301 58.2074C107.275 58.2412 107.256 58.2797 107.245 58.3209C107.233 58.3621 107.23 58.405 107.236 58.4474C107.241 58.4897 107.254 58.5306 107.276 58.5677C107.297 58.6048 107.325 58.6374 107.359 58.6635C107.392 58.6897 107.431 58.709 107.472 58.7203C107.513 58.7315 107.556 58.7346 107.599 58.7292C107.641 58.7239 107.682 58.7103 107.719 58.6891C107.756 58.668 107.789 58.6398 107.815 58.606C108.475 57.6854 109.074 56.7227 109.609 55.7239C109.638 55.6751 109.647 55.6166 109.633 55.5612C109.62 55.5059 109.584 55.4582 109.536 55.4288C109.487 55.3993 109.428 55.3904 109.373 55.4041C109.318 55.4177 109.27 55.4528 109.241 55.5016ZM95.8493 26.5881C96.1636 26.5881 96.3322 26.1128 96.0026 25.9672C95.305 25.6529 92.3692 24.6794 91.641 24.4341C91.3421 24.3191 91.1888 24.779 91.4877 24.894C92.2619 25.17 95.5963 26.5881 95.8493 26.5881ZM98.5091 27.7379C99.8851 28.4865 101.33 29.1 102.825 29.5699C102.91 29.5846 102.999 29.5672 103.072 29.5208C103.146 29.4744 103.2 29.4025 103.224 29.3187C103.248 29.235 103.24 29.1454 103.201 29.0673C103.163 28.9891 103.097 28.9278 103.016 28.8953C101.549 28.4971 100.123 27.9633 98.7544 27.3009C98.4631 27.1706 98.2179 27.6152 98.5091 27.7379ZM61.9226 27.2779C64.9888 25.216 65.9086 25.6836 65.7553 25.1393C65.7465 25.108 65.7315 25.0787 65.7113 25.0531C65.691 25.0276 65.6659 25.0064 65.6373 24.9907C65.6088 24.975 65.5774 24.9651 65.545 24.9617C65.5126 24.9583 65.4799 24.9613 65.4487 24.9707C64.0648 25.3346 62.7477 25.9168 61.547 26.6954C61.1944 26.9713 61.547 27.5232 61.9226 27.2779ZM54.9549 29.8611C54.7172 30.0528 54.9089 30.3671 55.1772 30.3671C55.2691 30.3671 55.2845 30.3671 56.1277 29.9455C56.9708 29.5239 57.9367 29.0716 58.2969 28.9643C58.3574 28.9405 58.4069 28.8949 58.4355 28.8365C58.4641 28.7781 58.4698 28.7111 58.4516 28.6487C58.4334 28.5863 58.3924 28.5329 58.3369 28.4991C58.2813 28.4653 58.2151 28.4535 58.1513 28.4661C57.042 28.8235 55.9712 29.2908 54.9549 29.8611Z" fill="white"/>
<path d="M51.996 31.3099C51.5974 31.5322 49.3975 32.6897 49.1598 32.843C49.111 32.877 49.0737 32.9253 49.0531 32.9811C49.0324 33.037 49.0294 33.0979 49.0445 33.1555C49.0595 33.2132 49.0919 33.2648 49.1372 33.3035C49.1825 33.3422 49.2385 33.3661 49.2978 33.3719C50.3162 32.8908 51.3043 32.3482 52.2566 31.7468C52.2997 31.7061 52.3276 31.652 52.3358 31.5933C52.3439 31.5346 52.3318 31.4748 52.3014 31.4239C52.2711 31.373 52.2243 31.334 52.1687 31.3133C52.1132 31.2925 52.0523 31.2914 51.996 31.3099ZM45.4498 19.0608C46.4786 19.0677 47.4981 18.8662 48.4469 18.4684C49.3957 18.0707 50.2541 17.4849 50.9704 16.7464C51.6867 16.008 52.246 15.1321 52.6146 14.1716C52.9832 13.2111 53.1535 12.1859 53.1151 11.1578C52.8852 4.31271 44.0164 1.04729 39.5322 6.87293C35.4849 11.9397 39.3789 19.0608 45.4498 19.0608ZM40.8506 6.27503C45.5495 1.94413 52.4483 5.5085 52.6246 11.1885C52.6104 12.6301 52.1949 14.0393 51.4244 15.2579C50.654 16.4765 49.5593 17.4562 48.263 18.0873C43.9781 19.9576 38.8193 16.7458 38.4514 12.2233C38.363 11.1137 38.5338 9.99878 38.9502 8.96648C39.3666 7.93419 40.0172 7.0128 40.8506 6.27503ZM62.4975 12.5682C63.8542 12.7139 65.2187 12.7292 66.5754 12.7905C66.6364 12.7905 66.6949 12.7663 66.738 12.7232C66.7811 12.6801 66.8054 12.6216 66.8054 12.5606C66.8054 12.4996 66.7811 12.4411 66.738 12.398C66.6949 12.3549 66.6364 12.3306 66.5754 12.3306C65.1497 12.2003 64.2758 12.024 62.4975 11.909C62.0912 11.886 62.0835 12.5223 62.4975 12.5682ZM54.4642 11.7557C55.0851 11.8247 57.6377 12.001 58.2969 12.0853C58.6418 12.139 58.7798 11.6178 58.4195 11.5564C57.1221 11.3527 55.8145 11.2197 54.5026 11.1578C54.4633 11.1553 54.4239 11.1606 54.3867 11.1733C54.3495 11.186 54.3151 11.2059 54.2856 11.2318C54.256 11.2578 54.2319 11.2894 54.2145 11.3247C54.1972 11.36 54.187 11.3984 54.1844 11.4376C54.1819 11.4769 54.1872 11.5162 54.1999 11.5535C54.2126 11.5907 54.2325 11.6251 54.2585 11.6546C54.2844 11.6842 54.316 11.7083 54.3513 11.7256C54.3866 11.743 54.425 11.7532 54.4642 11.7557ZM23.987 68.4713C24.2093 67.0609 24.2629 65.6582 24.4316 64.2554C24.4699 63.9948 24.0406 63.9335 24.0023 64.2018C23.7877 65.5815 23.4581 66.9689 23.2971 68.3717C23.2978 68.4559 23.3287 68.5371 23.3842 68.6005C23.4396 68.664 23.5159 68.7055 23.5993 68.7175C23.6827 68.7296 23.7676 68.7114 23.8387 68.6662C23.9098 68.621 23.9624 68.5519 23.987 68.4713ZM23.1591 72.2657C22.3926 76.4739 22.2163 76.9875 22.7682 76.9875C23.1821 76.9875 23.1055 76.7115 23.6267 72.327C23.665 72.0434 23.2204 71.982 23.1591 72.2657ZM37.2556 79.2717C36.0905 79.885 34.6418 80.5978 34.1895 80.8661C34.1267 80.9033 34.0779 80.9602 34.051 81.0281C34.024 81.0959 34.0203 81.1708 34.0405 81.2409C34.0606 81.3111 34.1035 81.3726 34.1624 81.4157C34.2213 81.4589 34.2928 81.4812 34.3658 81.4794C35.4347 80.9491 36.4736 80.3606 37.4779 79.7163C37.5248 79.6806 37.5577 79.6297 37.571 79.5723C37.5844 79.5149 37.5772 79.4547 37.5509 79.402C37.5245 79.3493 37.4806 79.3074 37.4267 79.2837C37.3728 79.2599 37.3123 79.2557 37.2556 79.2717ZM32.7714 81.6327C31.9346 82.0248 31.1184 82.4598 30.3262 82.9358C30.0809 83.1581 30.3722 83.526 30.6635 83.388C30.9547 83.25 32.5874 82.2382 32.963 82.0619C33.3386 81.8856 33.055 81.51 32.7714 81.6327ZM63.6396 88.0179C63.9156 88.1942 64.1762 87.7726 63.9079 87.5886C63.3253 87.2053 61.1101 85.565 60.4968 85.243C60.4175 85.2048 60.3269 85.1969 60.2421 85.2209C60.1574 85.2449 60.0844 85.2991 60.0369 85.3733C59.7226 85.8639 60.7804 86.1399 63.6396 88.0179ZM53.0232 80.9351C53.4064 81.2034 53.7897 81.4564 54.1806 81.7016C56.7945 83.434 56.6718 83.4877 56.8328 83.4877C56.8858 83.4869 56.9374 83.4705 56.981 83.4405C57.0247 83.4105 57.0585 83.3682 57.0781 83.319C57.0978 83.2699 57.1025 83.2159 57.0916 83.1641C57.0806 83.1123 57.0546 83.0648 57.0168 83.0277C55.8531 82.0699 54.6376 81.1769 53.3758 80.3526C53.0078 80.1303 52.6705 80.6975 53.0232 80.9351ZM128.503 106.338C127.246 106.514 125.951 106.645 124.671 106.936C124.592 106.96 124.525 107.012 124.481 107.082C124.437 107.151 124.419 107.234 124.431 107.316C124.443 107.397 124.484 107.472 124.546 107.526C124.609 107.58 124.688 107.61 124.77 107.61C125.069 107.61 126.978 107.097 128.603 106.844C129.002 106.813 128.848 106.277 128.503 106.338ZM121.727 107.58C120.44 107.771 119.021 107.886 117.626 108.124C117.235 108.193 117.343 108.76 117.726 108.76C118.109 108.76 120.853 108.208 121.827 108.055C122.141 108.001 122.034 107.534 121.727 107.58ZM75.3445 80.0996C75.3059 80.0345 75.243 79.9875 75.1697 79.9688C75.0964 79.9501 75.0186 79.9613 74.9536 79.9999C74.8885 80.0386 74.8415 80.1015 74.8228 80.1748C74.8041 80.2481 74.8153 80.3258 74.8539 80.3909C75.2321 81.0073 75.8283 81.4591 76.5241 81.6565C77.2198 81.8538 77.9644 81.7824 78.6099 81.4564C78.6531 81.43 78.6847 81.3883 78.6982 81.3396C78.7118 81.2909 78.7063 81.2388 78.6829 81.194C78.6595 81.1492 78.62 81.1149 78.5723 81.0982C78.5246 81.0814 78.4723 81.0834 78.426 81.1038C77.8762 81.3251 77.2661 81.3458 76.7026 81.1622C76.1391 80.9786 75.6583 80.6024 75.3445 80.0996ZM80.7102 77.2634C80.6566 77.708 80.258 77.4627 80.2273 77.731C80.2273 77.8767 80.35 77.9303 80.5033 77.9303C80.6394 77.9256 80.7717 77.8847 80.8868 77.8118C81.0018 77.739 81.0953 77.6368 81.1578 77.5158C81.2202 77.3948 81.2493 77.2594 81.2421 77.1234C81.2348 76.9874 81.1915 76.8559 81.1165 76.7422C80.6866 76.2813 80.2944 75.7865 79.9437 75.2628C79.9305 75.215 79.8988 75.1744 79.8557 75.15C79.8126 75.1256 79.7615 75.1193 79.7137 75.1325C79.666 75.1457 79.6254 75.1773 79.601 75.2205C79.5765 75.2636 79.5702 75.3147 79.5834 75.3624C79.7636 75.7678 79.9899 76.1511 80.258 76.5046C80.4332 76.7421 80.5847 76.9963 80.7102 77.2634ZM76.64 71.6524C76.6196 71.5609 76.5638 71.4813 76.4847 71.431C76.4057 71.3807 76.3099 71.3638 76.2184 71.3841C76.1269 71.4045 76.0472 71.4603 75.9969 71.5394C75.9466 71.6184 75.9298 71.7142 75.9501 71.8057C76.1647 73.2621 76.0344 73.883 76.6093 73.883C76.7191 73.883 76.8244 73.8394 76.902 73.7618C76.9796 73.6842 77.0232 73.5789 77.0232 73.4691C77.0232 73.2775 76.7013 71.9744 76.64 71.6524ZM82.6649 71.7214C82.6486 71.6378 82.6027 71.5629 82.5355 71.5106C82.4683 71.4582 82.3845 71.4319 82.2994 71.4366C82.2144 71.4413 82.1339 71.4766 82.0729 71.536C82.0118 71.5954 81.9743 71.6749 81.9674 71.7597C81.9674 71.8747 82.0747 73.2468 82.113 73.3541C82.1242 73.4558 82.1753 73.5488 82.2551 73.6128C82.3348 73.6768 82.4368 73.7064 82.5384 73.6952C82.6401 73.6841 82.7331 73.6329 82.7971 73.5532C82.861 73.4734 82.8907 73.3715 82.8795 73.2698C82.8642 73.1778 82.7416 72.4266 82.6649 71.7214ZM75.4365 71.2615C75.5349 70.9356 75.739 70.6517 76.0166 70.4547C76.2942 70.2576 76.6295 70.1585 76.9696 70.173C77.0292 70.1799 77.0892 70.1639 77.1375 70.1284C77.1859 70.0929 77.219 70.0403 77.2302 69.9814C77.3068 69.4295 75.2449 69.6518 74.7926 71.0852C74.7692 71.1706 74.7807 71.2618 74.8246 71.3387C74.8684 71.4156 74.941 71.4719 75.0264 71.4953C75.1118 71.5187 75.203 71.5072 75.2799 71.4633C75.3568 71.4195 75.4131 71.3469 75.4365 71.2615ZM81.1702 69.8971C81.449 69.8809 81.7254 69.957 81.9568 70.1135C82.1881 70.2701 82.3615 70.4984 82.4503 70.7633C82.5882 71.0622 83.0712 70.8629 82.9792 70.541C82.829 70.1796 82.5584 69.8813 82.2132 69.6969C81.8681 69.5124 81.4697 69.4531 81.0858 69.5291C81.0443 69.5467 81.0103 69.5783 80.9898 69.6184C80.9692 69.6585 80.9635 69.7046 80.9736 69.7485C80.9836 69.7924 81.0089 69.8314 81.0448 69.8586C81.0808 69.8857 81.1251 69.8994 81.1702 69.8971ZM140.323 95.6908C140.323 95.6908 139.917 93.8358 139.81 93.2993C139.797 93.2393 139.76 93.187 139.708 93.1539C139.657 93.1209 139.594 93.1097 139.534 93.123C139.474 93.1362 139.422 93.1727 139.389 93.2244C139.355 93.2762 139.344 93.3389 139.357 93.3989L139.718 95.5835C138.5 95.4293 137.264 95.5356 136.09 95.8954C134.917 96.2552 133.833 96.8604 132.911 97.6707C131.989 98.481 131.25 99.478 130.742 100.596C130.235 101.713 129.971 102.926 129.967 104.153C130.427 115.705 147.007 115.475 147.237 104.153C147.253 102.158 146.57 100.22 145.308 98.6742C144.045 97.1288 142.282 96.0734 140.323 95.6908ZM142.301 107.779C141.09 111.221 136.521 110.608 136.521 106.499V104.015C136.387 104.032 136.251 104.021 136.122 103.981C135.993 103.942 135.874 103.875 135.773 103.786C135.671 103.697 135.59 103.587 135.535 103.464C135.479 103.341 135.45 103.208 135.45 103.073C135.45 102.938 135.479 102.804 135.535 102.681C135.59 102.558 135.671 102.448 135.773 102.359C135.874 102.27 135.993 102.203 136.122 102.164C136.251 102.124 136.387 102.113 136.521 102.13C136.521 101.363 136.521 100.597 136.575 99.7611C136.578 99.6373 136.605 99.5153 136.655 99.402C136.706 99.2888 136.778 99.1865 136.867 99.1011C136.957 99.0157 137.063 98.9487 137.178 98.9042C137.294 98.8596 137.417 98.8382 137.541 98.8413C137.792 98.8493 138.029 98.9561 138.201 99.1385C138.374 99.3209 138.467 99.5639 138.461 99.8148C138.461 100.62 138.461 101.386 138.415 102.114H140.032C140.156 102.111 140.279 102.133 140.394 102.178C140.509 102.223 140.614 102.291 140.703 102.378C140.791 102.464 140.862 102.567 140.91 102.682C140.958 102.796 140.983 102.918 140.983 103.042C140.985 103.166 140.962 103.29 140.916 103.406C140.87 103.521 140.802 103.627 140.715 103.716C140.628 103.805 140.524 103.876 140.409 103.925C140.295 103.973 140.172 103.999 140.047 104H138.392C138.392 106.798 138.315 107.265 138.698 107.741C139.243 108.431 140.07 108.201 140.5 107.143C140.584 106.904 140.76 106.708 140.988 106.599C141.217 106.49 141.48 106.476 141.718 106.56C141.957 106.645 142.153 106.82 142.262 107.049C142.371 107.278 142.385 107.54 142.301 107.779ZM78.7249 8.14537C77.156 8.13725 75.601 8.44016 74.1498 9.03658C72.6987 9.63301 71.3801 10.5111 70.2703 11.6202C69.1605 12.7293 68.2816 14.0473 67.6842 15.4981C67.0868 16.9489 66.7829 18.5036 66.79 20.0726C67.1043 35.8631 90.3455 35.8708 90.6521 20.0726C90.6603 18.504 90.3573 16.9494 89.7608 15.4986C89.1643 14.0479 88.286 12.7298 87.1769 11.6206C86.0677 10.5115 84.7496 9.63324 83.2989 9.03672C81.8481 8.4402 80.2935 8.13724 78.7249 8.14537ZM82.1667 14.1703C82.0493 14.3904 81.8501 14.5556 81.612 14.6302C81.374 14.7047 81.1162 14.6827 80.8942 14.5689C80.4988 14.3515 80.0396 14.28 79.5968 14.3669C79.1541 14.4537 78.7559 14.6935 78.472 15.0441C77.5905 15.964 77.6288 19.0914 77.6288 19.2601L79.9284 18.9075C80.1764 18.8698 80.4292 18.9323 80.6312 19.0811C80.8332 19.2299 80.9677 19.4528 81.0054 19.7008C81.043 19.9488 80.9805 20.2016 80.8317 20.4036C80.6829 20.6056 80.46 20.7402 80.212 20.7778L77.6365 21.1687C77.6365 22.9931 77.7208 24.7561 77.7821 26.5344C77.7712 26.7728 77.6711 26.9983 77.5016 27.1662C77.3321 27.3341 77.1056 27.4322 76.8672 27.4409C76.6288 27.4496 76.3958 27.3683 76.2145 27.2131C76.0333 27.058 75.917 26.8403 75.8888 26.6034C75.8044 24.0892 75.7431 21.5367 75.7125 18.8078C75.7125 17.2747 75.7125 15.2741 77.0769 13.764C79.2155 11.4261 83.0098 12.5989 82.1667 14.1703Z" fill="white"/>
<path d="M115.036 111.29C118.171 102.183 118.017 102.72 117.964 102.643C117.91 102.567 107.999 102.383 102.495 102.49C100.3 99.1991 97.4317 96.4117 94.0793 94.312C90.727 92.2123 86.967 90.8482 83.0482 90.3098C82.4523 89.6562 81.6303 89.2534 80.7486 89.183L79.7904 88.8534C79.7523 88.1052 79.7523 87.3556 79.7904 86.6074C81.9415 85.7881 83.6989 84.1788 84.7039 82.1079C85.8307 79.5783 85.2711 76.3436 84.6119 68.1187C86.191 68.6093 86.2293 66.9843 85.2711 65.7118C85.3143 65.4399 85.3006 65.1619 85.231 64.8955C85.1614 64.6291 85.0373 64.38 84.8666 64.164C84.696 63.9479 84.4823 63.7696 84.2393 63.6402C83.9962 63.5108 83.729 63.4332 83.4545 63.4122C83.6019 63.1861 83.687 62.925 83.7012 62.6555C83.7153 62.3859 83.6581 62.1174 83.5352 61.877C83.4123 61.6367 83.2281 61.433 83.0013 61.2867C82.7744 61.1404 82.513 61.0565 82.2433 61.0436C82.0836 60.6928 81.8182 60.4007 81.4842 60.2082C81.1501 60.0158 80.7643 59.9327 80.3807 59.9705C80.3264 59.7127 80.2043 59.474 80.0269 59.2791C79.8496 59.0843 79.6234 58.9403 79.3717 58.8622C79.1201 58.784 78.8521 58.7745 78.5956 58.8346C78.339 58.8947 78.1032 59.0222 77.9124 59.204C77.7515 58.9587 77.3529 58.3531 77.1459 58.1232C77.3097 57.9618 77.4224 57.7559 77.4701 57.5311C77.5178 57.3062 77.4983 57.0723 77.4142 56.8584C77.7898 56.7408 78.118 56.5064 78.3511 56.1893C78.5841 55.8722 78.7098 55.4889 78.7098 55.0954C78.7098 54.7018 78.5841 54.3185 78.3511 54.0014C78.118 53.6843 77.7898 53.4499 77.4142 53.3323C78.0197 51.1247 75.9501 49.768 74.0721 50.6495C73.9706 50.3962 73.7962 50.1788 73.5711 50.0246C73.346 49.8704 73.0802 49.7864 72.8073 49.7833C74.3404 47.8516 72.1558 46.5026 70.0785 47.1618C69.9419 46.8113 69.7124 46.5048 69.4147 46.275C69.117 46.0452 68.7623 45.9009 68.3887 45.8575C68.0151 45.8142 67.6368 45.8734 67.2943 46.0289C66.9519 46.1845 66.6583 46.4303 66.4451 46.7402C65.9422 46.6081 65.4074 46.6786 64.9559 46.9367C64.5044 47.1947 64.1721 47.6195 64.0306 48.1199C63.7087 48.0441 63.3741 48.0405 63.0507 48.1094C62.7273 48.1783 62.4232 48.3181 62.1602 48.5185C61.9848 48.2153 61.7049 47.9863 61.3729 47.8745C61.0409 47.7626 60.6795 47.7755 60.3564 47.9108C60.0332 48.0461 59.7704 48.2945 59.6171 48.6095C59.4638 48.9245 59.4305 49.2845 59.5234 49.6223C59.3113 49.6815 59.1232 49.8059 58.9856 49.9778C58.8481 50.1498 58.768 50.3606 58.7568 50.5805C58.6725 50.5663 58.5862 50.5702 58.5035 50.5918C58.4207 50.6134 58.3435 50.6522 58.2769 50.7058C58.2103 50.7594 58.1558 50.8265 58.1169 50.9026C58.0781 50.9788 58.0559 51.0623 58.0516 51.1477C57.852 51.0971 57.6419 51.1058 57.4472 51.1728C57.2525 51.2399 57.0816 51.3623 56.9554 51.5251C56.8292 51.6879 56.7533 51.8839 56.737 52.0892C56.7207 52.2945 56.7647 52.5001 56.8635 52.6808C56.6138 52.7369 56.3862 52.8653 56.209 53.0499C56.0317 53.2346 55.9128 53.4673 55.8671 53.7191C55.8213 53.9709 55.8507 54.2306 55.9515 54.4658C56.0524 54.701 56.2203 54.9013 56.4343 55.0417C55.2231 55.3943 54.4413 56.5748 54.9012 57.6479C53.5214 58.4834 52.9542 60.1775 53.9277 61.3579C53.7525 61.8452 53.7601 62.3795 53.949 62.8616C54.1379 63.3437 54.4953 63.7409 54.9549 63.9795C54.7544 64.2259 54.6269 64.5235 54.5869 64.8386C54.5468 65.1538 54.5957 65.4738 54.7281 65.7626C54.8606 66.0513 55.0712 66.2973 55.3361 66.4725C55.601 66.6478 55.9097 66.7454 56.2273 66.7543C56.2507 67.032 56.3454 67.2989 56.5023 67.5292C56.6592 67.7595 56.873 67.9453 57.1228 68.0687C57.3727 68.1921 57.6502 68.2488 57.9284 68.2334C58.2066 68.218 58.4762 68.131 58.7109 67.9807C58.8357 68.18 59.0163 68.3382 59.2301 68.436C59.4439 68.5338 59.6817 68.5668 59.9141 68.5309C60.1465 68.495 60.3633 68.3918 60.5377 68.2341C60.7121 68.0764 60.8365 67.8711 60.8955 67.6435C61.2706 67.7846 61.6733 67.8372 62.0721 67.7973C62.471 67.7574 62.8552 67.6261 63.1951 67.4135C62.8808 69.3222 61.432 69.4601 61.8843 71.4608C61.6172 71.8121 61.4694 72.2397 61.4625 72.6809C61.4556 73.1222 61.59 73.5542 61.846 73.9137C61.759 74.0985 61.7099 74.2989 61.7015 74.503C61.693 74.7071 61.7255 74.9108 61.7969 75.1022C61.8683 75.2935 61.9772 75.4687 62.1173 75.6174C62.2574 75.7661 62.4257 75.8853 62.6125 75.968C62.5407 76.1088 62.5068 76.2658 62.514 76.4236C62.5211 76.5815 62.5692 76.7348 62.6534 76.8685C62.7377 77.0021 62.8552 77.1117 62.9945 77.1863C63.1338 77.2609 63.29 77.298 63.448 77.2941C63.5987 77.8577 63.8881 78.3746 64.2898 78.7976C64.6914 79.2207 65.1926 79.5366 65.7476 79.7163C65.8243 89.3516 66.1769 88.1942 65.257 89.3133C64.4098 89.7583 63.7156 90.4472 63.264 91.2909C49.8191 95.9591 44.3921 106.622 42.6137 120.933C41.5866 120.772 41.5406 120.733 41.5022 120.864C41.0885 122.474 40.9434 124.142 41.073 125.8C41.073 125.9 41.073 125.892 42.2994 126.191C42.6444 132.101 45.8408 138.509 52.2643 139.636C52.18 140.878 52.0804 147.991 52.2643 149.601C52.2725 149.639 52.2933 149.672 52.3233 149.696C52.3533 149.721 52.3906 149.734 52.4291 149.734C52.4676 149.734 52.505 149.721 52.535 149.696C52.565 149.672 52.5858 149.639 52.5939 149.601C52.5939 148.742 52.7013 141.031 52.7702 139.751C56.6719 140.134 58.9561 138.502 62.0299 135.152C66.8591 129.786 69.5956 123.999 72.4471 117.928C72.9479 116.948 73.351 115.921 73.6505 114.862C74.1004 115.044 74.5962 115.079 75.067 114.961C75.5379 114.844 75.9597 114.581 76.2721 114.21C77.37 114.565 78.5363 114.654 79.6755 114.471C79.8681 114.435 80.0514 114.36 80.2137 114.25C80.3761 114.141 80.514 113.999 80.6191 113.833C80.7241 113.668 80.7939 113.482 80.8241 113.289C80.8543 113.095 80.8442 112.897 80.7946 112.708C81.7758 112.662 82.389 111.773 81.4078 111.029C81.0955 110.789 80.7649 110.574 80.419 110.385C81.2315 110.332 83.3778 110.094 84.0753 109.619C84.7729 109.143 84.7499 107.955 83.7841 107.825C83.3778 107.771 77.4065 108.017 76.0498 108.208C74.7072 108.351 73.4359 108.884 72.3934 109.741C70.8604 111.006 60.0216 120.013 56.1506 123.263C53.9047 122.857 45.4882 121.416 43.2499 121.063C45.1049 105.602 51.4058 96.3577 63.0571 92.0038C62.3442 94.9166 65.7936 97.9061 66.8897 98.7953C68.6911 100.275 71.6345 101.861 74.1564 101.172C75.7585 100.742 76.9543 99.5081 77.7208 97.4922C81.1242 100.443 82.7263 100.114 83.2628 99.8378C85.3248 98.7569 85.2405 93.4985 83.5234 90.969C87.2023 91.5386 90.7241 92.8613 93.8685 94.8542C97.0128 96.8471 99.7121 99.4675 101.798 102.551C98.2792 102.628 98.4938 102.628 98.4631 102.72C97.6319 104.962 96.8244 107.214 96.0409 109.473C95.7343 107.564 95.2744 104.966 95.0751 104.215C95.058 104.174 95.0267 104.14 94.987 104.12C94.9472 104.101 94.9017 104.096 94.8587 104.107C94.8158 104.118 94.7783 104.145 94.7533 104.181C94.7282 104.218 94.7173 104.263 94.7225 104.307C94.9447 105.242 95.4047 108.791 95.6576 110.585C92.5455 119.591 90.1079 127.709 90.1693 127.793C90.2306 127.877 97.8346 127.877 98.8157 127.862C99.5823 134.27 100.165 147.631 100.142 149.218C100.142 149.262 100.16 149.305 100.191 149.337C100.223 149.369 100.266 149.386 100.31 149.386C100.355 149.386 100.398 149.369 100.43 149.337C100.461 149.305 100.479 149.262 100.479 149.218C100.617 146.397 100.479 137.919 100.349 136.087C102.162 135.786 103.823 134.891 105.071 133.542C106.006 132.584 107.37 129.748 108.313 127.464C109.8 127.364 109.846 127.387 109.846 127.287C110.72 125.256 111.586 122.864 112.314 120.534C115.932 119.99 117.764 114.915 116.3 112.616C115.972 112.093 115.542 111.642 115.036 111.29ZM52.5403 127.586C53.0309 127.502 52.4866 126.82 70.9907 111.612C74.0568 109.105 74.2944 108.867 78.0121 108.615C79.3918 108.523 82.9715 108.392 83.3778 108.385C83.6921 108.385 83.968 108.385 83.945 108.668C83.945 109.159 83.1785 109.304 82.6496 109.435C81.063 109.819 79.4375 110.019 77.8051 110.033C77.7563 110.033 77.7095 110.052 77.675 110.086C77.6405 110.121 77.6212 110.168 77.6212 110.217C77.6212 110.265 77.6405 110.312 77.675 110.347C77.7095 110.381 77.7563 110.401 77.8051 110.401H79.3995C79.8883 110.637 80.3551 110.917 80.7946 111.236C80.9786 111.366 81.3082 111.489 81.3312 111.665C81.4538 112.685 78.8783 111.742 77.9738 111.305C77.9422 111.289 77.9056 111.286 77.8718 111.296C77.838 111.307 77.8099 111.331 77.7936 111.363C77.7774 111.394 77.7743 111.431 77.7851 111.465C77.7958 111.498 77.8196 111.526 77.8511 111.543C78.5027 111.949 80.7563 112.738 80.235 113.505C79.5681 114.471 77.8205 114.057 76.663 113.827C76.9048 113.631 77.1955 113.506 77.5036 113.464C77.8118 113.422 78.1255 113.465 78.4107 113.589C78.4497 113.599 78.4908 113.595 78.5268 113.577C78.5628 113.559 78.5911 113.529 78.6069 113.492C78.6226 113.455 78.6246 113.413 78.6125 113.375C78.6004 113.337 78.5751 113.304 78.541 113.283C78.0701 113.085 77.5493 113.038 77.0507 113.149C76.5521 113.26 76.1004 113.524 75.7585 113.904C74.8463 114.777 73.7119 114.57 72.8303 113.681C72.7988 113.653 72.7584 113.638 72.7164 113.637C72.6743 113.636 72.6334 113.651 72.601 113.678C72.5686 113.704 72.5469 113.742 72.5397 113.783C72.5326 113.825 72.5405 113.867 72.5621 113.904C72.7384 114.174 72.9678 114.406 73.2366 114.586C71.8709 117.945 70.3359 121.232 68.6374 124.436C65.5713 130.185 62.4592 134.247 58.9638 137.206C55.1771 140.464 49.6121 139.268 46.4157 135.543C44.4994 133.327 43.2959 130.223 42.8513 126.344C44.4457 126.62 50.8156 127.533 52.5403 127.586ZM65.8319 63.6422C65.1706 64.1067 64.6592 64.754 64.3602 65.5048C64.061 65.2407 63.8296 64.9086 63.6855 64.5365C63.5415 64.1643 63.4889 63.7629 63.5323 63.3662C64.2145 60.3001 67.365 57.6172 69.9788 56.8277C71.5886 56.1762 75.6818 56.9044 77.0003 58.8744C76.5701 58.8353 76.1409 58.9583 75.7968 59.2193C75.5906 58.9511 75.3264 58.7329 75.024 58.5811C74.7217 58.4293 74.3889 58.3478 74.0506 58.3426C73.7123 58.3374 73.3772 58.4088 73.0703 58.5513C72.7635 58.6938 72.4928 58.9038 72.2784 59.1656C71.8591 59.2879 71.4804 59.5209 71.1823 59.8402C70.9002 59.6891 70.5801 59.6239 70.2614 59.6525C69.9427 59.6811 69.6393 59.8023 69.3886 60.0012C69.1216 60.0736 68.887 60.2342 68.7228 60.4568C68.5586 60.6795 68.4745 60.9511 68.4841 61.2276C68.1476 61.1943 67.8079 61.2321 67.487 61.3384C67.166 61.4448 66.871 61.6174 66.621 61.845C66.3709 62.0726 66.1715 62.3502 66.0356 62.6598C65.8997 62.9694 65.8303 63.3041 65.8319 63.6422ZM80.327 95.4915C76.7473 99.2015 65.9929 94.8783 65.2953 91.4289C65.2401 91.0582 65.2732 90.6796 65.3917 90.324C65.5102 89.9684 65.7109 89.6458 65.9776 89.3823C66.0542 89.3056 66.1079 89.2213 66.1845 89.1447C66.1935 89.1225 66.1935 89.0978 66.1845 89.0757L66.3302 88.8917C66.5218 88.5314 66.2842 80.9044 66.2458 79.8083C66.5343 79.8121 66.8166 79.7244 67.0521 79.5578C67.2876 79.3911 67.4642 79.1541 67.5566 78.8808C67.7199 78.9696 67.9058 79.0082 68.0909 78.9917C68.2761 78.9752 68.4522 78.9043 68.5972 78.788C68.7421 78.6717 68.8495 78.5151 68.9058 78.338C68.962 78.1608 68.9647 77.971 68.9134 77.7923L70.799 75.7687C70.7964 76.0203 70.8659 76.2675 70.9992 76.4809C71.1326 76.6943 71.3242 76.8652 71.5515 76.9732C71.7788 77.0812 72.0323 77.1219 72.282 77.0905C72.5317 77.059 72.7672 76.9568 72.9606 76.7958C73.1588 76.6519 73.3227 76.4659 73.4406 76.2512C73.5585 76.0366 73.6276 75.7985 73.6429 75.5541C73.6458 75.5277 73.6396 75.5011 73.6252 75.4788C73.6108 75.4564 73.5891 75.4398 73.5638 75.4317C73.5385 75.4236 73.5112 75.4244 73.4865 75.4342C73.4618 75.4439 73.4412 75.4619 73.4282 75.4851C73.3008 75.676 73.1123 75.8179 72.8936 75.8875C72.675 75.9572 72.4391 75.9504 72.2248 75.8683C72.2998 75.5505 72.285 75.2181 72.1822 74.9081C72.0793 74.5982 71.8924 74.3229 71.6422 74.113C70.4924 70.4336 70.5997 68.9772 72.6617 67.5975C74.1948 66.44 79.5605 63.8645 83.1708 67.1529C83.419 67.441 83.7145 67.6847 84.0447 67.8734C84.9798 80.6055 85.5777 80.7741 82.0824 84.4688C81.0116 85.5545 79.5858 86.2185 78.0657 86.3391C77.7975 86.3391 77.7668 86.7301 78.0657 86.7607C78.4548 86.8142 78.8494 86.8142 79.2385 86.7607C79.2385 89.3593 79.1236 89.16 79.8671 89.4206C82.4043 90.5934 82.182 93.5522 80.327 95.4915ZM102.871 134.447C102.066 134.893 101.205 135.231 100.31 135.451C100.195 134.163 99.7279 130.085 99.4213 127.785C102.211 127.724 105.017 127.609 107.692 127.441C106.573 130.231 104.879 133.465 102.871 134.447ZM107.937 109.151C106.251 109.105 106.251 107.02 107.937 106.974C109.624 106.928 109.624 109.143 107.937 109.189V109.151ZM101.108 105.203C100.75 105.417 100.46 105.728 100.272 106.1C100.042 106.537 93.4577 124.451 93.1434 125.471C93.1271 125.525 93.0897 125.572 93.0394 125.599C92.9891 125.626 92.93 125.632 92.8751 125.616C92.8202 125.6 92.774 125.563 92.7467 125.512C92.7194 125.462 92.7132 125.403 92.7295 125.348C93.1204 123.899 98.8004 107.633 98.8617 107.534C100.218 104.146 100.747 104.199 103.338 104.115C104.526 104.077 113.173 104.038 114.422 104.245C114.698 104.291 114.637 104.682 114.422 104.705C113.74 104.79 101.644 104.974 101.108 105.242V105.203ZM112.544 119.768C112.836 118.786 113.104 117.828 113.311 116.916C113.652 117.054 114.007 117.157 114.369 117.223C114.408 117.232 114.45 117.225 114.484 117.203C114.519 117.182 114.543 117.147 114.553 117.108C114.562 117.068 114.555 117.026 114.533 116.992C114.512 116.957 114.477 116.933 114.438 116.924C113.602 116.597 112.825 116.136 112.138 115.559C111.67 115.03 111.456 114.639 112 114.256C113.043 115.076 114.399 115.789 114.898 116.15C114.929 116.165 114.965 116.169 115 116.161C115.034 116.154 115.065 116.134 115.087 116.106C115.108 116.078 115.12 116.043 115.119 116.008C115.118 115.973 115.105 115.939 115.082 115.912C114.522 115.406 112.629 114.134 111.64 113.145C111.624 112.988 111.657 112.831 111.734 112.694C111.81 112.557 111.928 112.447 112.069 112.378C112.958 113.154 113.93 113.83 114.967 114.394C115 114.415 115.041 114.421 115.079 114.413C115.118 114.404 115.152 114.381 115.173 114.348C115.288 114.203 115.173 114.149 114.407 113.513C113.832 113.037 113.027 112.371 112.437 111.788C111.601 111.021 113.204 111.159 114.668 111.788C115.177 112.079 115.593 112.511 115.865 113.031C116.136 113.551 116.253 114.139 116.201 114.724C116.086 116.939 114.721 119.239 112.544 119.844V119.768ZM49.7271 9.37947C49.4193 9.42438 49.1053 9.36214 48.8379 9.20317C48.6614 8.75415 48.3623 8.36375 47.9747 8.07644C47.5871 7.78913 47.1266 7.61647 46.6457 7.57812C45.4729 7.65478 45.2429 9.31048 44.3461 9.43313C43.8095 9.50978 43.1503 8.95788 42.3837 7.80808C42.3743 7.78864 42.3596 7.77225 42.3413 7.76078C42.323 7.74931 42.3019 7.74322 42.2803 7.74322C42.2587 7.74322 42.2375 7.74931 42.2192 7.76078C42.2009 7.77225 42.1862 7.78864 42.1768 7.80808C42.0922 8.09581 42.067 8.39772 42.1025 8.6955C42.1381 8.99328 42.2338 9.28073 42.3837 9.54044C42.2596 9.53472 42.142 9.48277 42.0541 9.3948C41.7935 9.14185 41.6632 10.077 42.2918 10.7209C42.0988 10.7106 41.9105 10.6583 41.7399 10.5676C41.3566 10.2686 41.5176 11.8477 42.7747 12.5682C42.4191 12.5457 42.0717 12.4521 41.7531 12.2927C41.4344 12.1334 41.151 11.9117 40.9197 11.6407C40.9046 11.6198 40.8829 11.6046 40.8581 11.5975C40.8334 11.5904 40.8069 11.5918 40.783 11.6015C40.7592 11.6112 40.7392 11.6287 40.7265 11.6511C40.7137 11.6735 40.7089 11.6996 40.7127 11.7251C40.8489 12.8623 41.3746 13.9173 42.2004 14.7109C43.0262 15.5046 44.1012 15.9879 45.2429 16.079C47.7801 16.079 49.3822 13.3501 48.7919 11.2575C48.9416 11.2104 49.1022 11.2104 49.2519 11.2575C49.274 11.2741 49.3014 11.2821 49.329 11.2802C49.3566 11.2782 49.3826 11.2664 49.4022 11.2468C49.4217 11.2272 49.4336 11.2012 49.4355 11.1736C49.4375 11.146 49.4294 11.1186 49.4128 11.0965C49.3344 10.9715 49.2821 10.8319 49.259 10.6862C49.2358 10.5404 49.2423 10.3915 49.2781 10.2484C49.3139 10.1052 49.3782 9.97077 49.4672 9.85308C49.5562 9.73538 49.6681 9.63687 49.7961 9.56344C49.8083 9.54791 49.8163 9.52951 49.8193 9.51001C49.8223 9.4905 49.8203 9.47054 49.8133 9.45206C49.8064 9.43358 49.7948 9.41719 49.7797 9.40448C49.7646 9.39177 49.7465 9.38315 49.7271 9.37947ZM47.3662 9.9697C47.2144 9.95276 47.0742 9.88045 46.9723 9.76661C46.8705 9.65277 46.8142 9.50539 46.8142 9.35264C46.8142 9.1999 46.8705 9.05252 46.9723 8.93868C47.0742 8.82484 47.2144 8.75253 47.3662 8.73559C47.518 8.75253 47.6582 8.82484 47.7601 8.93868C47.8619 9.05252 47.9182 9.1999 47.9182 9.35264C47.9182 9.50539 47.8619 9.65277 47.7601 9.76661C47.6582 9.88045 47.518 9.95276 47.3662 9.9697ZM26.7235 86.4005C24.226 86.2611 21.7208 86.387 19.2499 86.7761C19.2241 86.7798 19.2006 86.7927 19.1837 86.8124C19.1668 86.8322 19.1576 86.8574 19.1579 86.8834C19.1516 88.2179 19.3322 89.5466 19.6944 90.831C19.7018 90.8521 19.7152 90.8706 19.7329 90.8842C19.7506 90.8978 19.7718 90.906 19.7941 90.9077C22.0121 91.0839 24.2427 91.0222 26.4476 90.7237C26.8845 90.6624 27.1988 86.4311 26.7235 86.4005ZM24.6616 88.907C24.6109 89.1568 24.4876 89.3861 24.3072 89.5662C24.1268 89.7462 23.8973 89.8691 23.6474 89.9194C23.3975 89.9696 23.1384 89.945 22.9024 89.8487C22.6664 89.7524 22.4641 89.5886 22.3208 89.3778C22.1775 89.167 22.0995 88.9186 22.0967 88.6638C22.0938 88.4089 22.1662 88.1589 22.3048 87.9449C22.4434 87.731 22.642 87.5628 22.8758 87.4612C23.1096 87.3596 23.3681 87.3293 23.6191 87.374C23.7891 87.4042 23.9514 87.4682 24.0964 87.5622C24.2414 87.6561 24.3661 87.7781 24.4632 87.9209C24.5604 88.0638 24.628 88.2246 24.662 88.3939C24.6961 88.5633 24.6959 88.7377 24.6616 88.907ZM25.1061 85.519C25.24 85.5436 25.3775 85.5417 25.5106 85.5132C25.6437 85.4848 25.7699 85.4304 25.882 85.3532C25.9941 85.2759 26.0899 85.1774 26.164 85.0631C26.238 84.9489 26.2888 84.8212 26.3134 84.6873C26.3381 84.5534 26.3361 84.416 26.3077 84.2828C26.2792 84.1497 26.2249 84.0235 26.1476 83.9114C26.0704 83.7993 25.9718 83.7035 25.8576 83.6295C25.7433 83.5554 25.6156 83.5047 25.4817 83.48C25.2114 83.4302 24.9323 83.4898 24.7059 83.6458C24.4794 83.8018 24.3243 84.0413 24.2745 84.3117C24.2247 84.5821 24.2843 84.8612 24.4403 85.0876C24.5962 85.314 24.8358 85.4692 25.1061 85.519Z" fill="white"/>
<path d="M29.1534 82.9895C25.3207 77.4398 16.5976 79.4021 15.5398 85.9253C15.3257 87.0179 15.3599 88.1446 15.64 89.2222C15.9201 90.2998 16.4388 91.3006 17.1579 92.1507C17.8769 93.0007 18.7779 93.6783 19.7941 94.1332C20.8103 94.5881 21.9158 94.8087 23.0288 94.7787C29.4063 94.7787 32.4188 87.742 29.1534 82.9895ZM27.5436 91.4213C27.539 91.4432 27.5277 91.4631 27.5112 91.4782C27.4947 91.4933 27.4739 91.5029 27.4517 91.5056C24.6038 91.8876 21.7235 91.9672 18.8588 91.7432C18.836 91.74 18.8145 91.7304 18.7969 91.7154C18.7792 91.7005 18.7662 91.6809 18.7592 91.6589C17.9978 88.838 17.8566 85.8855 18.3453 83.0048C18.3488 82.9803 18.3606 82.9578 18.3787 82.9411C18.3969 82.9243 18.4203 82.9143 18.4449 82.9128C21.5286 82.5588 24.6445 82.5923 27.7199 83.0125C27.7428 83.0167 27.7638 83.0278 27.7802 83.0442C27.7966 83.0606 27.8077 83.0816 27.8119 83.1044C28.2921 85.8685 28.2008 88.7016 27.5436 91.429V91.4213Z" fill="white"/>
</svg>
