<svg width="146" height="118" viewBox="0 0 146 118" fill="none" xmlns="http://www.w3.org/2000/svg">
<path fill-rule="evenodd" clip-rule="evenodd" d="M40.351 18.0114V18.5556C40.351 18.7081 40.4116 18.8543 40.5194 18.9621C40.6272 19.0699 40.7734 19.1305 40.9259 19.1305C41.0784 19.1305 41.2246 19.0699 41.3324 18.9621C41.4402 18.8543 41.5008 18.7081 41.5008 18.5556V17.9807C41.4929 17.8296 41.4273 17.6872 41.3174 17.583C41.2076 17.4789 41.0619 17.4209 40.9106 17.4211C40.8348 17.4221 40.7599 17.4383 40.6904 17.4687C40.621 17.499 40.5583 17.543 40.5061 17.5981C40.454 17.6531 40.4134 17.718 40.3867 17.789C40.3601 17.86 40.3479 17.9356 40.351 18.0114ZM40.1287 16.4093C40.9719 16.21 41.6618 15.6428 40.4353 15.7194C40.1315 15.7618 39.8316 15.8285 39.5385 15.9187C38.3887 16.394 39.3852 16.5856 40.1287 16.4093ZM110.458 21.7444C110.105 22.4855 109.514 23.0872 108.779 23.4537C108.751 23.4639 108.727 23.4836 108.711 23.5096C108.696 23.5356 108.69 23.5661 108.694 23.596C108.699 23.6259 108.713 23.6533 108.736 23.6735C108.758 23.6937 108.787 23.7054 108.818 23.7067C109.066 23.7504 109.321 23.7323 109.56 23.6539C109.799 23.5756 110.016 23.4395 110.19 23.2576C110.365 23.0757 110.491 22.8537 110.559 22.6112C110.627 22.3686 110.635 22.113 110.581 21.867C110.581 21.8345 110.568 21.8033 110.545 21.7803C110.522 21.7573 110.49 21.7444 110.458 21.7444ZM107.407 15.6658C107.26 15.6281 107.104 15.6494 106.972 15.7254C106.84 15.8013 106.743 15.9257 106.702 16.0721C106.632 16.3216 106.619 16.5834 106.664 16.8386C106.664 16.9911 106.724 17.1373 106.832 17.2451C106.94 17.3529 107.086 17.4135 107.238 17.4135C107.391 17.4135 107.537 17.3529 107.645 17.2451C107.753 17.1373 107.813 16.9911 107.813 16.8386C107.813 16.2867 107.936 15.8114 107.407 15.6658ZM81.0461 90.9774C80.4252 90.6631 68.5517 91.4373 68.2527 92.7711C68.1914 93.0624 68.383 94.1815 68.7203 94.3655C69.3872 94.7181 80.8085 94.0742 81.437 92.8324C81.6157 92.5304 81.6747 92.1723 81.6024 91.8289C81.53 91.4855 81.3315 91.1817 81.0461 90.9774ZM68.8659 94.0435C68.6296 93.6722 68.5021 93.242 68.498 92.8018C68.6513 92.1119 74.9752 91.7363 75.6727 91.6903C75.6561 92.3096 75.8156 92.921 76.1327 93.4533C75.2588 93.5913 69.2799 94.2658 68.8659 94.0665V94.0435ZM80.8775 92.5105C80.2719 92.9397 77.1981 93.3307 76.4623 93.4227C76.5267 92.8159 76.3979 92.2042 76.0943 91.675C77.0065 91.6136 79.927 91.4527 80.7932 91.5293C81.0231 91.698 81.0308 92.2192 80.8775 92.5258V92.5105ZM60.9017 92.7941C60.881 92.7812 60.8571 92.7743 60.8327 92.7743C60.8083 92.7743 60.7844 92.7812 60.7637 92.7941C60.7637 92.7174 46.123 100.965 45.6784 101.839C45.6586 101.881 45.6483 101.927 45.6483 101.973C45.6483 102.02 45.6586 102.065 45.6784 102.107C46.146 103.449 61.4229 117.262 62.0591 117.576C62.2431 117.668 62.4731 117.507 63.1936 117.124C64.7267 116.304 77.8114 109.313 79.1604 108.186C79.536 107.803 79.766 104.353 79.559 103.962C79.3521 103.572 60.9017 92.8707 60.9017 92.7941ZM62.2278 116.94C60.5951 115.644 47.6637 103.993 46.2303 102.015C47.5641 100.758 60.4648 93.2847 60.8557 93.0547C62.8333 94.2582 77.0678 102.92 78.8922 104.146C77.928 104.425 77.0108 104.846 76.171 105.396C75.7341 105.817 76.8225 106.599 78.3326 108.063C76.0253 109.55 64.581 115.683 62.2278 116.94ZM78.7695 107.626C78.6929 107.55 76.8455 105.748 76.7612 105.679C77.5059 105.215 78.2734 104.787 79.0608 104.399C79.0632 105.482 78.9605 106.563 78.7542 107.626H78.7695Z" fill="white"/>
<path fill-rule="evenodd" clip-rule="evenodd" d="M72.3997 106.216C71.8631 106.446 65.317 108.615 63.4696 109.366C62.9267 109.637 62.335 109.796 61.7296 109.834C61.6223 109.834 62.2432 108.638 66.942 104.974C67.4326 104.591 68.3754 103.863 68.4751 103.265C68.9273 101.287 63.5693 104.246 58.7785 106.116C58.283 106.383 57.7423 106.554 57.1841 106.622C57.1304 106.308 58.2112 105.319 58.2802 105.243C61.1394 102.084 64.7651 100.781 64.5198 99.6162C64.1442 97.7919 57.4907 101.341 56.0879 101.916C54.9075 102.414 53.0218 103.012 53.1368 103.012C52.8838 103.112 53.1368 103.288 53.1828 103.265C53.2288 103.242 55.6587 102.498 56.2489 102.238C57.1304 101.9 63.025 99.0566 64.0062 99.7235C64.3971 99.9995 60.2272 102.245 57.874 104.844C57.46 105.289 56.3409 106.193 56.6858 106.929C56.7491 107.043 56.845 107.135 56.9611 107.194C57.0772 107.252 57.2083 107.275 57.3374 107.259C58.4795 107.259 66.2675 103.357 67.8695 103.234C67.5018 103.719 67.0624 104.146 66.5664 104.499C65.4243 105.404 62.1129 108.102 61.3463 109.343C60.9477 109.987 61.2774 110.371 61.7986 110.378C62.4885 110.378 63.3317 109.911 65.409 109.129C72.4534 106.415 72.6757 106.538 72.5607 106.285C72.5548 106.27 72.5459 106.256 72.5346 106.244C72.5232 106.233 72.5097 106.223 72.4947 106.217C72.4797 106.21 72.4636 106.207 72.4473 106.207C72.431 106.207 72.4148 106.21 72.3997 106.216Z" fill="white"/>
<path fill-rule="evenodd" clip-rule="evenodd" d="M145.78 76.9882C145.68 68.9702 144.96 52.6048 143.373 44.6712C142.537 40.463 140.728 34.7063 137.363 31.9238C135.937 30.751 133.837 29.6242 130.027 27.5163C130.073 27.4166 124.01 24.9637 123.727 25.7762C123.491 24.3782 123.161 22.9978 122.738 21.6446C123.305 21.4607 123.052 19.805 123.29 18.8698C123.527 17.9346 124.424 17.2678 124.884 16.5012C125.919 14.7919 126.095 11.8101 125.904 9.82474C125.72 7.97741 123.021 3.85347 121.243 3.17892C119.465 2.50438 117.64 2.52737 115.762 2.15177C114.229 1.83749 113.095 0.986645 111.378 0.772017C109.661 0.557388 108.634 1.53855 107.162 1.53855C105.69 1.53855 104.034 0.396416 102.494 0.304432C101.657 0.291445 100.843 0.582655 100.205 1.12399C99.5661 1.66533 99.1456 2.42001 99.0213 3.24791C98.8354 4.48191 98.9817 5.74317 99.4451 6.90184C99.9086 8.06051 100.673 9.07473 101.658 9.84007C102.858 10.5993 104.207 11.0933 105.613 11.2888C105.522 15.2058 105.935 14.1556 105.476 14.5006C105.016 14.8455 105.161 17.2601 105.322 17.927C105.391 18.1953 105.46 18.2949 105.79 18.4022C105.606 19.1688 104.31 20.8245 105.476 21.2307C105.629 21.2844 106.242 21.3917 106.303 21.4147C106.46 22.1416 106.692 22.8505 106.993 23.5303C107.291 24.2138 107.725 24.8289 108.269 25.3379C108.814 25.8468 109.457 26.2386 110.159 26.4891C111.263 26.9184 112.137 27.0334 112.781 27.2556C112.869 27.5726 112.916 27.9 112.919 28.2291C110.181 28.9486 107.602 30.1731 105.315 31.8395C101.168 35.2046 95.273 49.1631 93.7323 50.6962C93.1344 51.2864 79.0532 54.0152 76.9759 55.4257C76.5696 55.7016 76.5543 55.9392 76.608 56.4298C76.1021 56.5218 73.9711 56.9204 73.7335 57.3726C73.6633 57.7012 73.6818 58.0425 73.7871 58.3615C71.8904 58.0073 69.9766 57.7514 68.0535 57.5949C67.7015 57.6031 67.3553 57.6852 67.037 57.8357C66.7188 57.9862 66.4357 58.2019 66.2061 58.4688C65.5623 59.2353 66.0835 59.105 65.4013 58.9977C63.9525 58.7907 58.7631 60.5307 58.1116 60.8374C58.1116 60.5614 58.1116 60.3698 57.8203 60.2165C56.9648 59.9686 56.0709 59.8802 55.1834 59.9559C54.6469 60.3161 56.7165 60.1935 57.575 60.6381C57.575 61.2283 57.6517 67.2839 57.575 68.472C57.575 68.6866 57.575 68.656 57.414 68.679C56.6475 68.7863 55.5437 68.679 55.2064 68.9243C55.3291 66.2567 55.2064 59.7259 54.8385 59.3426C54.6162 59.1127 50.5229 58.6221 46.0694 58.0855C46.0852 54.8633 45.906 51.6431 45.5328 48.4426C44.7126 41.3292 42.9956 32.9433 37.6299 28.6891C37.9408 28.816 38.283 28.8454 38.611 28.7734C39.0491 28.5995 39.5206 28.5262 39.9908 28.5588C40.7573 28.7657 40.857 29.3253 42.7733 28.0375C42.896 27.9532 43.2179 27.9762 43.4709 27.7232C44.337 26.8571 43.9001 25.6843 43.9001 24.8104C44.027 24.2163 44.0683 23.6072 44.0228 23.0014C43.9993 22.9111 43.9552 22.8274 43.894 22.757C43.8329 22.6865 43.7563 22.6311 43.6702 22.5951C43.6702 22.3422 43.9384 21.8899 43.5552 21.3994C44.1071 21.1081 44.705 20.7708 44.3984 20.1729C43.8126 19.2361 43.3295 18.239 42.9573 17.1988C42.7197 16.3096 43.0416 15.1751 43.0263 14.217C43.0263 13.5577 43.0953 12.7682 43.0263 12.0477C43.6175 11.6349 44.0693 11.0521 44.3217 10.3766C44.3776 10.1036 44.3656 9.82102 44.2868 9.55371C44.2079 9.2864 44.0646 9.04255 43.8694 8.84358C43.6165 8.68261 43.5628 8.84358 43.5705 8.36834C43.5982 8.20156 43.5907 8.03082 43.5485 7.86712C43.5062 7.70342 43.4302 7.55037 43.3252 7.41784C43.0033 7.10356 42.2674 6.75862 42.0374 6.43668C41.6465 5.86178 41.4165 5.28688 40.6807 5.05692C40.1594 4.88829 39.6689 5.21789 39.3163 5.10291C38.8333 4.94961 38.3351 4.42837 37.7832 4.98027C37.66 5.04708 37.5248 5.08892 37.3853 5.10339C37.2459 5.11786 37.105 5.10467 36.9707 5.06459C36.5108 4.67366 36.3958 3.99911 35.6139 3.85347C35.1693 3.77682 34.2955 3.99145 33.9582 3.85347C33.4057 3.44676 32.7961 3.12389 32.1492 2.89531C31.426 2.82643 30.6963 2.88876 29.9952 3.07927C29.5047 3.17892 28.8761 3.12527 28.3625 3.20192C27.2971 3.37056 26.9904 4.29039 26.2852 4.73498C25.58 5.17957 24.3919 5.18723 23.7174 6.18372C23.1501 7.02691 23.2728 7.93908 23.0505 8.78226C22.9585 9.14253 22.4679 9.54879 22.2839 9.91673C21.8547 10.7676 22.1843 11.6261 22.1766 12.362C22.169 13.0978 21.6554 13.7724 21.801 14.6616C21.9194 15.1056 22.1139 15.5258 22.3759 15.9033C22.3791 16.0276 22.3636 16.1516 22.3299 16.2713C22.0961 16.8745 22.048 17.5339 22.192 18.1646C22.3174 18.7693 22.6095 19.3269 23.0351 19.7743C23.5717 20.2419 23.8477 20.1193 24.2386 20.7861C24.403 21.1388 24.6502 21.4464 24.9591 21.683C25.5264 22.0662 26.2239 21.7366 26.5612 21.9053C26.771 22.0161 26.9999 22.0863 27.2357 22.1122C27.047 22.2076 26.884 22.3469 26.7605 22.5185C22.5906 23.0474 17.0869 26.0905 13.7295 30.2528C12.4034 31.9621 10.1728 34.4304 9.33724 36.408C4.84537 46.5569 7.03765 62.4701 5.22864 67.3835L0.7521 79.0578C0.537471 79.6174 -0.0144312 82.3999 0.184867 83.358C0.50681 84.7838 2.00154 82.9978 2.91372 81.9859C2.34648 84.0019 2.35415 84.5308 2.0552 92.4644C1.96322 94.948 1.8789 97.6538 1.84057 99.9304C1.83837 99.9467 1.83971 99.9634 1.8445 99.9791C1.84929 99.9949 1.8574 100.009 1.86831 100.022C1.87921 100.034 1.89265 100.044 1.9077 100.051C1.92275 100.057 1.93907 100.061 1.95555 100.061C2.17018 100.061 2.03221 100.306 2.34648 93.9745C2.56878 89.5209 2.82173 85.3663 2.84473 85.0291C2.9582 83.7189 3.24694 82.4298 3.70324 81.1964C5.84392 79.5971 8.25281 78.3927 10.8166 77.6397C13.67 76.8764 16.6832 76.9535 19.4938 77.862C20.2603 78.115 22.3223 78.6285 23.0581 78.2836C24.5912 77.5171 28.5388 74.9798 29.1904 73.4391C29.5123 72.6726 29.773 72.0517 30.0259 71.4768C31.1987 71.5841 32.6398 71.8831 33.9199 71.8984C35.3533 71.8984 36.2731 71.6684 37.8598 70.2657C43.6931 70.396 50.1243 70.2197 53.1905 70.1047C55.2371 70.8712 61.5226 73.1172 63.048 74.6272C63.6459 75.2098 63.9985 76.8349 64.2132 78.6439C64.4958 80.8061 64.5702 82.9905 64.4355 85.167C60.2349 85.9719 54.8845 87.2443 50.7452 88.2715C50.5134 88.207 50.2712 88.1887 50.0323 88.2178C48.9362 88.3328 49.4498 88.7774 49.0895 87.6659C49.1068 87.67 49.1248 87.6697 49.1419 87.6651C49.159 87.6605 49.1747 87.6518 49.1876 87.6396C49.2005 87.6275 49.2102 87.6123 49.2158 87.5955C49.2215 87.5787 49.2228 87.5607 49.2198 87.5433C49.2085 86.07 49.0363 84.6023 48.7063 83.1664C48.6526 82.9518 48.277 82.8445 48.047 82.7755C45.5635 82.0549 35.9742 81.0891 33.8662 81.6333C32.4941 81.9936 22.9968 86.8994 22.5676 87.9419C22.1383 88.9844 20.9732 95.2546 20.7585 96.412C15.7914 97.8608 11.8745 99.0566 9.95813 99.7081C9.94225 99.7133 9.92758 99.7216 9.91503 99.7326C9.90248 99.7436 9.8923 99.757 9.88512 99.7721C9.87795 99.7872 9.87392 99.8035 9.8733 99.8202C9.87267 99.8369 9.87545 99.8535 9.88148 99.8691C9.97346 100.153 12.4877 98.8496 38.2431 92.0812C38.5019 92.7419 38.8336 93.3718 39.2319 93.9592C38.4654 94.1431 37.5992 94.4804 37.3463 95.1856C37.3013 95.3345 37.2939 95.4922 37.3246 95.6447C37.3554 95.7971 37.4234 95.9396 37.5226 96.0594C38.1514 96.7636 38.9898 97.2473 39.9141 97.4392C41.535 97.8455 43.2191 97.934 44.8736 97.6998C46.4623 97.5612 48.0277 97.2265 49.5341 96.7033C51.1745 96.0135 51.0672 94.9863 50.4386 94.5187C49.7909 94.1378 49.0792 93.878 48.3383 93.7522C49.0359 92.4874 48.3843 93.047 49.4268 92.794C50.0167 92.6533 50.5556 92.3506 50.9829 91.9202C51.6574 91.2303 52.1096 89.5286 51.4658 88.7084C54.7005 87.9419 67.7086 84.7225 70.8897 84.9601C76.6616 85.3817 118.629 102.636 128.563 105.963C128.579 105.968 128.595 105.97 128.612 105.969C128.628 105.967 128.644 105.963 128.659 105.955C128.673 105.948 128.686 105.938 128.697 105.925C128.707 105.913 128.716 105.898 128.721 105.883C128.726 105.867 128.728 105.85 128.726 105.834C128.725 105.818 128.72 105.802 128.713 105.787C128.705 105.773 128.695 105.76 128.683 105.749C128.67 105.738 128.656 105.73 128.64 105.725C126.042 104.821 120.247 102.514 113.309 99.7388C113.647 98.9263 114.536 96.3047 115.226 95.4002C115.509 95.0323 115.494 95.0016 118.024 95.1473C124.654 95.5305 130.495 95.3542 136.857 93.3229C140.744 92.0735 142.652 89.1913 143.756 85.3357C143.978 85.4047 144.584 85.604 144.799 85.65C144.86 85.6648 144.924 85.6649 144.985 85.6502C145.046 85.6355 145.103 85.6066 145.151 85.5656C145.91 84.7914 145.78 78.4982 145.78 76.9882ZM40.9336 24.2815C40.7262 24.3571 40.5022 24.3756 40.2852 24.3352C40.0681 24.2947 39.8658 24.1968 39.6995 24.0516C39.5341 23.9191 39.4045 23.7472 39.3228 23.5517C39.2411 23.3561 39.2099 23.1432 39.2319 22.9324C39.2218 22.9009 39.2245 22.8666 39.2396 22.8372C39.2547 22.8077 39.2809 22.7854 39.3124 22.7753C39.3439 22.7651 39.3782 22.7679 39.4077 22.783C39.4371 22.7981 39.4594 22.8243 39.4696 22.8558C39.848 23.4001 40.3825 23.817 41.0026 24.0516C41.0224 24.0679 41.0369 24.0897 41.0443 24.1142C41.0517 24.1387 41.0517 24.1649 41.0444 24.1894C41.037 24.2139 41.0226 24.2358 41.0029 24.2522C40.9832 24.2685 40.9591 24.2787 40.9336 24.2815ZM33.7359 17.5667C33.7621 17.3415 33.8526 17.1286 33.9965 16.9535C34.1652 16.7848 34.6787 16.8922 35.039 16.6469C35.3085 16.4339 35.5129 16.1498 35.6292 15.8267C36.0585 14.9758 36.7407 15.635 37.6912 14.2323C37.9338 13.8378 38.122 13.4124 38.2508 12.9675C38.7874 12.7146 39.4849 13.0825 40.1594 11.971C40.3817 11.5954 40.5274 11.2045 40.926 11.0972C41.2249 11.4191 41.5239 12.6302 42.735 12.1627C42.735 12.5766 42.643 14.6692 42.62 14.8379C42.5206 15.343 42.4668 15.8561 42.459 16.3709C42.459 17.904 43.1642 18.7472 43.9461 20.3492C44.0687 20.6022 43.4249 20.8475 43.1029 21.0238C42.6487 20.8565 42.1787 20.7357 41.7002 20.6635C40.2131 20.3032 39.025 21.0774 37.7449 21.43C37.5279 21.4314 37.3116 21.4056 37.101 21.3534C36.6181 21.3074 36.1122 21.798 35.4299 21.8899C35.2521 21.9248 35.0678 21.9055 34.9011 21.8344C34.7343 21.7634 34.5928 21.6438 34.4948 21.4913C34.4121 21.2106 34.3531 20.9234 34.3185 20.6328C34.2495 20.3569 34.1652 20.0809 34.1038 19.8126C33.9812 19.2607 34.3415 19.0461 33.9199 18.2796C33.6286 17.7583 33.6363 17.9883 33.7359 17.5667ZM34.0272 33.2039C34.5433 32.2244 34.9643 31.1977 35.2843 30.1378C35.7136 32.8053 35.9435 34.1544 36.0508 34.829C35.4913 34.3614 35.4376 34.1851 34.0272 33.1733V33.2039ZM36.3268 36.3237C36.7024 38.6233 36.6181 38.1021 36.6871 38.5773C36.5039 38.2324 36.28 37.9107 36.0202 37.6191C36.106 37.1128 36.1445 36.5996 36.1352 36.0861L36.3268 36.3237ZM33.5519 37.7035C33.0942 37.2275 32.6763 36.7148 32.3025 36.1704C32.6815 35.284 33.1089 34.4191 33.5826 33.5795C35.1923 34.8136 35.0697 34.7983 35.4683 35.2966C35.5268 35.9494 35.5268 36.6061 35.4683 37.2589L33.5519 37.7035ZM33.6516 38.2017C34.5638 40.233 34.9317 43.5674 35.1233 45.7904C34.1664 42.9905 32.8798 40.3144 31.2907 37.8184C31.6015 37.3938 31.8783 36.9452 32.1185 36.477C32.4343 37.065 32.812 37.6175 33.2453 38.1251C33.3007 38.1599 33.3631 38.1821 33.428 38.19C33.4929 38.198 33.5588 38.1915 33.6209 38.171L33.6516 38.2017ZM29.0984 21.798C29.1608 21.8173 29.225 21.8302 29.29 21.8363C29.4685 21.8283 29.6396 21.7627 29.7778 21.6494C29.9159 21.5361 30.0137 21.3812 30.0566 21.2077C30.1792 21.1311 30.2712 21.0468 30.2635 20.9011C30.2559 20.7555 28.6078 18.5019 30.7081 17.3444C30.8933 17.3243 31.0795 17.3724 31.2319 17.4796C31.3842 17.5868 31.4923 17.7459 31.536 17.927C31.6351 18.3359 31.8446 18.7097 32.1415 19.0078C32.1647 19.4977 32.2288 19.9849 32.3332 20.4642C32.3945 20.7478 32.1799 21.1157 32.1339 21.5067C32.0266 22.2732 32.7701 23.1164 33.0384 23.8063C33.3986 24.7338 33.1533 25.7303 34.0119 26.5504C34.8704 27.3706 34.7094 26.6961 35.0084 28.5358C34.6507 29.9815 34.158 31.3905 33.5366 32.744C32.6704 31.5176 28.2859 24.3582 27.4044 22.7255C27.734 22.5262 28.7611 21.9436 29.0677 21.7673L29.0984 21.798ZM26.7988 22.8174C27.3584 24.1205 32.9311 32.951 32.9311 33.0276C32.6628 33.8785 31.122 37.4045 30.3938 37.7878C28.7918 36.6456 24.3996 24.6341 24.0853 23.5456C24.9501 23.1752 25.8598 22.92 26.7911 22.7868L26.7988 22.8174ZM34.7094 56.6598C33.8662 56.3915 31.145 47.1548 28.7151 42.042C27.2587 38.9759 24.3996 33.9091 21.2798 32.56C17.9071 31.1113 11.6368 34.5837 10.97 39.0909C10.5627 42.0634 10.8033 45.0888 11.6752 47.9596C15.2932 58.898 20.1913 67.6212 30.6545 70.12C30.8998 69.6295 30.0336 70.0357 36.917 70.2197C36.5796 70.4821 36.2206 70.7155 35.8439 70.9172C34.5561 71.6148 32.1109 71.0552 30.3019 70.8559L30.5318 70.3577C19.7544 67.9508 14.7106 58.8597 11.1003 48.1283C10.1885 45.171 9.92697 42.0514 10.3337 38.9836C11.0236 34.1084 17.5161 30.6131 21.1112 31.8242C22.0278 32.1657 22.867 32.6869 23.5794 33.3572C23.2375 30.2857 23.1529 27.1909 23.3264 24.1052C23.4673 23.9801 23.6186 23.8673 23.7787 23.7679C24.4379 26.0675 28.1939 37.0596 30.1026 38.2784C30.2236 38.3499 30.3653 38.3783 30.5046 38.3588C30.6438 38.3393 30.7723 38.2731 30.8691 38.171C32.5938 41.1375 34.2035 44.173 34.8474 47.3694C35.2116 49.1335 35.3047 50.9429 35.1233 52.7351C34.0349 48.2279 31.0224 41.7124 27.596 38.5926C31.099 44.6406 33.6516 54.3142 34.7937 56.2228C35.2506 56.3488 35.7173 56.4359 36.1888 56.4835C35.9895 51.8843 35.8362 42.295 33.8892 38.1327C34.1268 38.1327 35.8055 37.7724 35.8055 37.7724C36.1083 38.1359 36.3657 38.5349 36.5721 38.9606C36.8864 39.5661 36.779 39.1062 37.2543 42.3256C39.5539 57.1887 39.4236 57.112 39.7225 57.273C38.2201 57.0814 35.5756 56.9204 34.7094 56.6598ZM39.7992 53.5936C36.8097 36.6227 36.779 36.1474 35.5219 29.0647C35.6216 28.7274 35.6982 28.4514 35.7519 28.2521C36.2271 28.8577 38.818 32.1768 39.1016 32.905C38.68 33.2806 37.1623 33.9245 37.6222 34.438C37.8292 34.6757 39.5385 36.1551 40.0751 36.6916C40.3664 37.9258 39.9065 51.4474 39.7992 53.5936ZM21.0652 96.3124C21.2798 95.3389 22.6825 89.0074 23.0735 88.1182C23.3571 87.459 32.6014 82.5532 34.0579 82.1852C36.1581 81.6333 47.5948 82.7678 48.392 83.2814C48.7519 84.6184 48.9627 85.9912 49.0205 87.3747C47.7328 85.8416 37.7679 86.2478 37.6606 88.4095C37.6584 88.4804 37.6733 88.5508 37.704 88.6149C37.7347 88.6789 37.7802 88.7346 37.8369 88.7774C37.8318 89.7039 37.9373 90.6277 38.1511 91.5292C32.2642 93.116 26.3772 94.7717 21.0652 96.3124ZM50.293 95.1166C50.6839 96.3814 46.0924 96.9256 44.7663 97.0789C43.1917 97.3032 41.5886 97.2225 40.0445 96.8413C39.3699 96.6573 38.1205 96.1668 37.8828 95.5535C37.7679 95.2623 38.1435 94.9863 38.4194 94.8407C38.769 94.658 39.1397 94.519 39.5232 94.4267C39.9408 95.0022 40.5008 95.4591 41.1483 95.7528C41.9148 96.0901 45.1879 95.8525 46.3223 95.6072C46.8206 95.4999 47.3495 95.3542 48.1007 94.1508C48.5606 94.2198 50.1627 94.695 50.293 95.1166ZM46.629 94.8483C46.0541 95.1933 41.9914 95.4692 41.3706 95.2163C39.3163 94.3961 38.1971 91.192 38.1128 88.9307C39.7828 89.2981 41.4967 89.4246 43.2026 89.3063C44.4827 89.1377 47.5105 88.6164 48.6219 88.0569C49.2888 90.5711 47.8784 94.1201 46.629 94.8483ZM50.9139 90.893C50.7064 91.3035 50.4149 91.6657 50.0583 91.9562C49.7018 92.2468 49.2881 92.4591 48.8442 92.5794C49.2453 91.5041 49.4352 90.3615 49.4038 89.2143C49.4643 89.0876 49.5521 88.9758 49.661 88.8871C49.7699 88.7984 49.897 88.7349 50.0334 88.7011C50.1697 88.6674 50.3118 88.6643 50.4495 88.6921C50.5871 88.7199 50.7169 88.7778 50.8295 88.8617C51.4044 89.2373 51.1515 90.2415 50.9139 90.893ZM129.867 27.7386C135.048 30.5977 137.348 31.7935 139.004 34.3001C137.962 33.4045 136.637 32.9074 135.263 32.8973C130.349 32.7287 127.935 40.0031 126.678 44.7096C124.593 52.5588 125.873 62.4931 125.758 63.9495C124.432 65.1836 117.64 68.7096 114.605 70.3577C115.026 68.5793 116.529 61.7189 117.51 59.013C118.828 55.3797 122.623 46.9172 122.876 45.0775C122.945 44.5332 122.837 44.4643 121.228 43.4218C121.849 43.4218 123.527 43.2531 124.049 43.1535C124.271 43.1535 124.386 43.0538 124.47 42.5863C124.754 40.9612 125.306 27.5699 125.352 26.1442C125.298 26.1135 129.207 27.363 129.89 27.7386H129.867ZM123.957 25.9066C124.306 25.8814 124.656 25.9204 124.991 26.0215C124.608 31.5789 124.225 41.3521 123.865 42.6016C123.458 42.6782 122.017 42.7779 121.458 42.8162C120.262 42.8852 120.231 42.8162 120.109 42.9849C119.986 43.1535 120.155 43.3835 120.377 43.5368C120.768 43.8127 122.071 44.6329 122.255 44.8475C122.078 45.7602 121.806 46.6517 121.442 47.5074C117.111 59.0053 117.372 55.4716 114.459 68.0811C114.654 62.0408 115.212 56.0178 116.13 50.0446C116.744 46.7562 117.487 43.6671 119.963 36.6303C120.936 33.9091 122.952 28.6967 123.029 28.7274C123.414 27.8113 123.731 26.8686 123.98 25.9066H123.957ZM110.642 72.9485C110.788 73.5158 110.788 73.4391 110.742 73.4468L110.504 73.4008C110.504 73.3241 110.09 65.6282 110.289 62.4471C110.65 56.8131 111.11 50.7038 111.539 44.8169C111.746 41.9654 112.528 35.8408 112.505 36.0708L113.271 35.5035C113.589 36.1381 113.95 36.7502 114.352 37.3355C114.505 37.5425 114.712 37.8031 114.957 37.8261C114.789 39.2135 112.236 56.3302 111.485 67.2685C111.071 73.2245 111.485 71.9597 110.88 72.504C110.808 72.5525 110.75 72.6192 110.712 72.6973C110.675 72.7754 110.658 72.8621 110.665 72.9485H110.642ZM115.195 37.8338C115.778 37.8338 116.406 36.6073 117.173 36.0861C117.472 36.4004 118.376 37.9028 118.974 38.1021C116.437 45.0622 113.723 54.7664 113.731 70.7869C113.08 71.1395 112.198 71.6454 111.546 72.021C111.93 65.4979 114.705 44.0887 115.218 37.8338H115.195ZM123.244 27.5316C122.998 28.2981 119.357 37.0902 119.104 37.4965C118.709 37.109 118.357 36.6798 118.054 36.2164C117.41 35.3502 117.188 35.0666 116.092 36.3007C117.717 33.2346 120.89 30.1225 122.224 28.5741C123.497 27.1177 123.328 27.2403 123.244 27.5316ZM106.073 11.4345C106.645 11.6106 107.257 11.6106 107.829 11.4345C108.266 11.24 108.749 11.171 109.224 11.2352C109.894 11.544 110.582 11.8102 111.286 12.0324C112.156 12.0247 113.024 11.9555 113.884 11.8254C114.279 12.0096 114.612 12.3018 114.847 12.6682C115.082 13.0345 115.208 13.4599 115.21 13.895C113.782 14.1025 112.403 14.5674 111.14 15.2671C111.063 15.0154 110.909 14.794 110.7 14.6334C110.492 14.4727 110.238 14.3808 109.975 14.3703C108.718 14.219 107.449 14.2036 106.188 14.3243C106.077 13.3448 106.038 12.3583 106.073 11.3731V11.4345ZM105.774 17.973C105.583 17.6357 105.207 15.0218 105.591 14.7382C105.652 14.8149 105.384 14.5772 106.84 14.5926C107.866 14.625 108.89 14.7171 109.906 14.8685C110.596 14.9912 110.711 15.3054 110.673 15.9723C110.673 17.2064 110.711 17.0838 110.673 17.4671C110.673 17.5744 110.627 17.858 110.542 17.9193C108.966 18.2047 107.35 18.2021 105.774 17.9116V17.973ZM112.819 26.6118C110.719 26.0139 108.795 25.9372 107.499 23.2697C106.664 21.5527 107.124 21.0544 106.365 20.8321C106.083 20.7986 105.806 20.7369 105.537 20.6482C105.537 20.1346 106.181 19.0614 106.303 18.5172C107.576 18.6694 108.863 18.6694 110.136 18.5172C110.903 18.4022 111.309 18.2719 111.186 16.7159V15.5277C112.39 15.1598 114.942 14.5542 115.249 14.4699C115.251 14.8869 115.307 15.3018 115.417 15.704C115.537 15.9569 115.744 16.1583 116 16.2713C116.041 16.2895 116.086 16.298 116.13 16.2961C116.175 16.2943 116.219 16.2821 116.258 16.2606C116.297 16.2391 116.331 16.2088 116.357 16.1721C116.383 16.1354 116.399 16.0933 116.406 16.049C116.583 15.3361 116.721 14.6999 116.774 14.3933C116.774 14.5619 116.843 13.8567 117.349 13.5807C118.116 13.1821 119.304 14.0713 119.388 15.3284C119.434 15.9417 118.821 17.0531 118.361 18.3332C118.085 19.0998 119.756 19.4294 120.339 19.713C120.553 20.2112 120.423 20.7708 120.714 21.0697C121.151 21.3392 121.631 21.5335 122.132 21.6446C122.661 23.339 123.046 25.075 123.282 26.8341C121.335 28.8807 120.898 29.3713 120.377 29.9002C118.341 31.8351 116.614 34.0713 115.256 36.5307C114.712 33.3342 113.677 30.5134 113.562 29.5859C113.47 28.8654 113.624 27.5929 113.286 26.9107C113.235 26.8295 113.167 26.7606 113.086 26.709C113.005 26.6573 112.914 26.6241 112.819 26.6118ZM113.041 29.2103C113.409 30.5747 114.39 35.0053 114.674 36.7836C114.206 36.0784 113.631 34.9133 113.631 34.9133C113.611 34.8717 113.582 34.8352 113.546 34.8064C113.51 34.7776 113.468 34.7572 113.423 34.7469C113.379 34.7366 113.332 34.7366 113.287 34.7468C113.242 34.757 113.2 34.7772 113.164 34.806L112.604 35.2352C112.819 33.2423 113.034 31.2109 113.064 29.2103H113.041ZM112.819 28.5281C112.75 34.1698 111.623 39.1982 111.163 44.8169C109.63 63.7042 109.63 62.7767 109.783 69.4608C108.956 63.4206 107.798 51.6696 107.162 45.2998C107.614 44.9548 109.799 43.2915 110.044 42.7856C110.159 42.5403 110.044 42.2873 109.492 42.2873C108.533 42.3597 107.569 42.3597 106.61 42.2873C107.193 39.9111 110.527 31.2416 111.416 28.942C111.868 28.8117 112.244 28.6814 112.819 28.5281ZM77.1829 56.0005C78.371 54.7511 93.28 51.8383 94.0925 51.0488C95.2347 49.899 98.3774 42.7626 101.582 37.3509C104.303 32.7517 105.782 31.05 111.079 29.0953C109.806 32.2458 107.323 38.4087 106.204 41.996C106.135 42.2183 106.035 42.4636 106.204 42.6093C106.625 43.0232 108.388 42.7779 109.4 42.7932C108.687 43.5061 106.725 44.9548 106.725 44.9548C106.687 44.9828 106.657 45.0201 106.639 45.0631C106.62 45.1062 106.612 45.1534 106.618 45.2001C106.94 48.7568 108.917 69.9821 109.776 73.0635L108.396 72.7109C107.504 72.273 106.536 72.0127 105.545 71.9444C107.292 63.2519 106.664 60.822 106.878 56.0849C106.878 55.5943 104.809 45.7367 104.793 45.6601C104.793 45.6275 104.78 45.5963 104.757 45.5733C104.734 45.5503 104.703 45.5374 104.671 45.5374C104.638 45.5374 104.607 45.5503 104.584 45.5733C104.561 45.5963 104.548 45.6275 104.548 45.6601C104.678 49.0175 105.629 52.2139 106.28 55.8779C103.827 58.1775 101.26 61.3586 97.082 62.3934C94.4988 63.045 82.4029 65.6818 80.7932 65.7968C79.4748 64.3251 76.9759 56.9817 77.1829 56.0005ZM75.7265 57.02C75.7265 57.02 76.6463 56.7977 76.631 56.6521C77.3468 59.3456 78.2483 61.9862 79.3292 64.555C78.6323 64.7706 77.9199 64.932 77.1982 65.0379C76.7613 65.0379 77.0679 65.4212 76.0024 62.8917C75.3459 61.3191 74.7827 59.7091 74.316 58.0702C74.1857 57.5413 73.9634 57.5949 75.7265 57.02ZM66.7504 58.6374C67.3559 57.9705 67.7929 57.8709 73.8485 58.6374C74.387 60.4652 75.0399 62.2573 75.8031 64.0031C74.557 64.9746 73.1286 65.6862 71.6025 66.0958C71.5565 65.7661 71.4492 65.8658 71.7098 65.8888C71.93 65.895 72.1487 65.8517 72.3499 65.7622C72.551 65.6727 72.7296 65.5391 72.8723 65.3714C73.015 65.2037 73.1182 65.0061 73.1744 64.7931C73.2306 64.5802 73.2383 64.3574 73.1969 64.1411C73.1356 63.3746 70.9433 61.7802 70.3224 61.3433C70.691 61.4191 71.0735 61.3899 71.4262 61.259C71.4577 61.2488 71.4839 61.2265 71.499 61.197C71.5141 61.1676 71.5169 61.1333 71.5067 61.1018C71.4965 61.0703 71.4743 61.0441 71.4448 61.029C71.4153 61.0139 71.3811 61.0112 71.3496 61.0213C70.0618 61.3586 68.7587 59.8255 68.5901 59.7795C67.9998 59.6339 68.3678 61.006 67.057 61.8262C66.8654 61.9488 66.1295 61.6729 66.0835 61.2973C65.987 60.8323 65.9969 60.3516 66.1124 59.891C66.2279 59.4304 66.446 59.0019 66.7504 58.6374ZM58.1806 61.052C59.1617 60.6994 64.1595 59.151 65.6006 59.5189C65.4384 60.1313 65.4019 60.7701 65.4933 61.3969C65.542 61.596 65.633 61.7823 65.7603 61.943C65.8875 62.1038 66.0479 62.2352 66.2305 62.3283C66.4131 62.4214 66.6136 62.4741 66.8184 62.4827C67.0232 62.4913 67.2275 62.4556 67.4173 62.3781C67.9515 62.0218 68.353 61.499 68.5594 60.891C69.2416 61.3049 72.6297 63.5509 72.5837 64.3481C72.5837 64.8846 72.3001 65.3369 71.7635 65.2909C71.3105 65.1286 70.8823 64.9041 70.4911 64.624C70.0974 64.3096 69.6825 64.0228 69.2493 63.7655C69.1804 63.7298 69.1007 63.7207 69.0256 63.7402C68.9505 63.7597 68.8852 63.8063 68.8424 63.871C68.7996 63.9357 68.7822 64.014 68.7936 64.0908C68.8051 64.1675 68.8445 64.2373 68.9043 64.2867C68.9043 64.2867 69.4792 64.716 70.1155 65.1299C71.0736 65.8965 71.4032 66.6017 70.2151 66.9619C70.0291 67.0172 69.8337 67.0334 69.6411 67.0097C69.4486 66.9859 69.263 66.9227 69.096 66.824C68.9007 66.4383 68.6415 66.0884 68.3294 65.7891C68.1902 65.431 67.9406 65.1266 67.6167 64.9198C67.2928 64.7131 66.9115 64.6149 66.5281 64.6394C66.1295 64.6853 66.0988 64.8846 66.1372 64.7007C66.3211 63.7885 65.156 63.2366 64.3435 63.3899C63.0327 63.6505 62.3045 65.3829 61.8753 66.6477C61.6146 67.1996 62.6418 66.5863 58.1576 68.1807C58.2839 65.9545 58.2839 63.7228 58.1576 61.4966C58.1193 60.9677 58.1039 61.0903 58.1806 61.052ZM62.0899 66.732C62.5115 65.8275 63.439 64.1334 64.4278 63.9801C64.8111 63.9111 65.5853 64.1718 65.5009 64.5627C65.335 65.6007 64.8563 66.5634 64.1289 67.3222C64.2208 67.4755 61.8216 67.5215 62.0899 66.732ZM66.4284 65.2679C66.6124 65.0839 67.6856 65.4595 67.7162 66.0344C67.7699 66.9926 66.8577 68.1347 66.0682 68.6636C65.8152 68.8399 64.8187 68.0274 64.5888 67.6978C65.1363 66.8401 65.7515 66.0276 66.4284 65.2679ZM67.7239 67.8205C67.7775 67.7438 68.5441 66.0421 68.6744 67.4525C68.728 68.0044 67.9078 68.2957 67.3713 68.2191C67.496 68.0927 67.6137 67.9596 67.7239 67.8205ZM84.7715 77.7853C81.5444 80.2919 81.0845 83.588 81.6134 87.5203C76.4317 85.6806 72.4764 84.4542 70.9356 84.3239C68.8503 84.3668 66.7749 84.6237 64.7421 85.0904C64.949 83.0284 64.8571 75.7924 63.393 74.3053C61.9289 72.8182 56.6168 70.7869 54.6162 70.0204H55.0685C55.2448 69.9284 54.9535 69.1236 55.6204 69.0776C56.4252 69.0316 57.552 69.3382 57.9199 69.0162C58.0298 68.8493 58.0933 68.6562 58.1039 68.4567C58.9471 68.1884 60.9324 67.5828 61.9366 67.3222C62.2742 67.5902 62.6694 67.776 63.091 67.8651C63.5127 67.9543 63.9493 67.9442 64.3665 67.8358C64.5964 68.3494 65.6696 69.4762 66.3365 69.1082C66.5214 69.0014 66.6982 68.881 66.8654 68.748C67.3502 68.8823 67.8651 68.8609 68.3371 68.6866C68.5869 68.6186 68.8097 68.4755 68.9756 68.2767C69.1415 68.078 69.2423 67.8331 69.2646 67.5752C69.6659 67.6904 70.0939 67.672 70.4838 67.5227C70.8738 67.3733 71.2046 67.1012 71.4262 66.7473C73.1068 66.3696 74.6795 65.6147 76.0254 64.5397C76.171 64.854 76.309 65.1223 76.424 65.3062C76.4621 65.3709 76.5156 65.4251 76.5799 65.4639C76.6441 65.5027 76.717 65.5249 76.7919 65.5285C77.5585 65.6052 79.3675 64.762 79.4441 64.762C79.7067 65.3098 80.0335 65.8244 80.4176 66.2951C80.5556 66.433 80.7856 66.3947 81.0002 66.3717C83.2231 66.1034 94.2612 63.7272 97.2123 62.9913C101.045 62.0331 103.544 59.3426 106.173 56.7824C106.027 61.1823 106.602 63.3286 104.862 71.9674C101.244 72.4173 97.6593 73.1035 94.1309 74.0217C91.0417 74.9032 87.3624 75.777 84.7715 77.793V77.7853ZM95.9552 92.909L95.6869 92.8017C95.6256 88.9077 96.5914 85.3203 99.4429 82.6605C99.6952 82.7247 99.9512 82.7733 100.209 82.8061C97.2736 85.3203 96.1162 88.9844 95.9552 92.909ZM108.059 80.1309C105.759 81.48 106.434 82.2082 104.326 82.4305C102.637 82.5465 100.94 82.4148 99.2896 82.0396C97.9559 81.6103 98.6611 81.0968 100.056 80.9435C100.294 80.9818 102.164 80.9971 103.046 80.9435C103.118 80.932 103.183 80.8952 103.231 80.8397C103.278 80.7842 103.304 80.7136 103.304 80.6407C103.304 80.5677 103.278 80.4972 103.231 80.4417C103.183 80.3862 103.118 80.3494 103.046 80.3379C102.051 80.2523 101.052 80.2369 100.056 80.2919C99.4216 80.2827 98.7897 80.2082 98.1705 80.0696C98.1088 79.9691 98.073 79.8549 98.0663 79.7372C98.0596 79.6194 98.0822 79.5019 98.1321 79.3951C98.937 78.9122 102.731 79.0961 103.36 79.0731C103.434 79.0615 103.501 79.0238 103.55 78.9669C103.599 78.91 103.625 78.8375 103.625 78.7627C103.625 78.6878 103.599 78.6154 103.55 78.5585C103.501 78.5016 103.434 78.4639 103.36 78.4522C102.102 78.4788 100.844 78.4122 99.5962 78.2529C99.0597 78.1609 97.8102 77.8927 97.9022 77.3484C98.0708 76.3673 100.087 77.2105 101.505 77.1108C102.505 77.0958 103.496 76.9091 104.433 76.5589C104.503 76.5376 104.562 76.4892 104.596 76.4245C104.631 76.3598 104.638 76.2841 104.617 76.214C104.596 76.1438 104.547 76.085 104.483 76.0505C104.418 76.016 104.342 76.0086 104.272 76.03C103.313 76.2606 102.34 76.4295 101.359 76.5359C101.297 76.523 101.242 76.4879 101.204 76.4371C101.165 76.3863 101.147 76.3233 101.152 76.26C101.163 76.1167 101.2 75.9765 101.26 75.846C101.655 75.3305 102.186 74.9351 102.793 74.7039C104.97 73.7994 106.625 74.7039 109.117 74.8649C109.429 76.2823 109.826 77.6799 110.305 79.0501C109.541 79.3555 108.8 79.7168 108.089 80.1309H108.059ZM110.987 79.1958C110.719 78.2913 109.722 75.0105 109.622 74.244C110.018 74.0507 110.435 73.9041 110.864 73.8071C111.217 75.1178 111.868 77.3944 112.29 78.6669C111.879 78.8726 111.453 79.0493 111.018 79.1958H110.987ZM113.156 79.1958C112.75 78.2759 111.546 73.991 111.27 72.9179C112.589 71.8371 124.424 66.0191 126.187 64.2484C126.739 63.6965 124.876 53.31 127.061 44.7632C128.226 40.164 130.51 32.9356 135.225 33.0966C138.459 33.2039 140.307 35.6722 141.357 38.7536C143.281 44.4259 142.514 52.2982 142.514 52.2216C142.514 58.6527 140.215 68.3187 135.616 72.9179C132.143 76.3979 115.318 79.5867 113.187 79.2188L113.156 79.1958ZM144.76 85.0214C143.863 84.7838 139.747 83.266 138.007 83.1204C128.97 82.3539 129.529 80.6368 123.941 78.1839C127.007 77.4174 133.822 75.6391 136.083 73.4008C140.859 68.6636 143.066 58.898 143.043 52.2905C143.221 49.9765 143.221 47.6522 143.043 45.3381C144.737 54.9504 145.78 82.1086 144.76 85.0214Z" fill="white"/>
<path fill-rule="evenodd" clip-rule="evenodd" d="M26.2392 33.2039L23.725 33.4952C24.4915 34.2161 25.1894 35.0064 25.8099 35.8561L26.5075 33.5566C26.5288 33.5153 26.5379 33.4689 26.5339 33.4227C26.5299 33.3765 26.5128 33.3324 26.4847 33.2955C26.4567 33.2586 26.4187 33.2304 26.3752 33.2142C26.3318 33.198 26.2846 33.1944 26.2392 33.2039ZM98.9523 103.158C98.32 102.757 97.6219 102.472 96.8903 102.314C98.6303 99.4859 98.3161 96.1821 97.8561 95.8908C97.4232 95.4497 96.8469 95.1778 96.2311 95.1243C93.9315 94.6414 88.3588 94.6031 86.8871 95.8295C86.5652 96.0978 86.3735 96.5347 86.6878 96.826C86.5382 98.6429 86.9189 100.464 87.7839 102.069C87.0174 102.215 86.1282 102.506 85.837 103.196C85.7867 103.344 85.773 103.503 85.797 103.657C85.8211 103.812 85.8821 103.959 85.9749 104.085C86.5634 104.815 87.3688 105.338 88.2745 105.58C89.8743 106.067 91.5529 106.241 93.2186 106.093C94.8101 106.029 96.3879 105.771 97.9175 105.327C99.6115 104.698 99.5962 103.663 98.9523 103.158ZM86.9561 96.964C88.6038 97.414 90.3075 97.6257 92.0152 97.5925C93.8772 97.4651 95.7159 97.1046 97.4882 96.5194C97.6417 97.5739 97.5853 98.6484 97.3222 99.681C97.0591 100.714 96.5945 101.684 95.9552 102.537C95.8006 102.807 95.5777 103.033 95.3086 103.19C95.0395 103.348 94.7338 103.431 94.4221 103.433C93.3489 103.571 90.4208 103.648 89.8229 103.38C87.8836 102.483 86.9254 99.2252 86.9561 96.964ZM93.188 105.396C91.6057 105.546 90.0094 105.384 88.4892 104.921C87.8008 104.733 87.1674 104.383 86.6418 103.901C86.5192 103.771 86.3199 103.51 86.3812 103.349C86.5805 102.843 87.554 102.583 88.0906 102.491C88.4747 103.076 89.0025 103.554 89.6236 103.878C90.3901 104.269 94.6367 104.223 95.4262 103.817C95.9184 103.516 96.3353 103.107 96.645 102.621C97.0973 102.751 98.6763 103.288 98.7837 103.717C99.1286 105.036 94.5677 105.35 93.188 105.434V105.396Z" fill="white"/>
</svg>
