<svg width="272" height="311" viewBox="0 0 272 311" fill="none" xmlns="http://www.w3.org/2000/svg">
<path d="M76.0306 311L41.4145 287.053L160.787 282.382L195.093 305.386L76.0306 311Z" fill="#232740"/>
<path d="M80.3618 115.569C81.4777 114.649 89.6981 111.629 105.189 111.629C120.679 111.629 127.242 115.457 127.242 115.457C127.242 115.457 130.623 117.209 124.115 128.84C117.608 140.471 110.227 149.049 110.227 149.049L108.15 152.765L105.818 147.735L80.4281 123.844C80.4281 123.844 78.815 119.791 79.0912 118.41C79.3674 117.029 79.2459 116.49 80.3618 115.569Z" fill="#232740"/>
<path d="M208.485 204.432C216.141 204.432 227.356 210.427 228.77 221.553C228.77 221.553 229.334 239.371 213.556 228.773C197.778 218.174 200.872 204.432 208.485 204.432Z" fill="#232740"/>
<path d="M145.241 62.5661C145.241 62.5661 147.826 45.2314 146.732 38.4952C146.456 36.7999 149.517 35.8343 149.616 34.1839C149.826 30.6923 153.947 32.0171 153.605 29.4012C152.08 17.6801 126.148 3.59002 118.425 1.01901C110.702 -1.552 92.4051 1.25478 88.3833 3.78088C84.3615 6.30699 80.9142 12.9198 80.9142 12.9198C80.9142 12.9198 76.0748 13.2903 72.263 14.9856C68.4511 16.6809 64.2857 28.9521 62.7609 37.5745C61.2362 46.197 67.0037 62.8917 67.0037 62.8917C67.0037 62.8917 70.7161 77.3186 109.133 79.5752C147.55 81.8319 145.23 62.5661 145.23 62.5661H145.241Z" fill="#031001"/>
<path d="M213.644 254.617C213.644 254.617 198.43 282.101 184.055 282.101C169.681 282.101 162.543 259.771 162.543 259.771L161.715 257.435V290.578H115.608L57.8773 290.387C57.8773 290.387 19.9907 291.948 10.6213 289.489C1.53909 287.097 -0.82537 268.494 0.235323 250.531C1.29601 232.567 18.3776 164.778 29.9899 151.519C41.7791 143.008 59.4904 135.464 73.2463 130.524L133.275 129.704C133.275 129.704 163.449 144.591 169.858 150.452C176.133 156.189 191.292 221.901 190.077 223.125L213.644 254.606V254.617Z" fill="#090E16"/>
<path d="M124.988 104.859V116.838C124.988 120.925 126.668 126.078 126.668 126.078L127.253 127.549L122.613 136.429C122.613 136.429 113.475 146.927 111.873 147.387C110.271 147.847 108.15 152.765 108.15 152.765C108.15 152.765 107.94 151.698 106.448 149.015C105.708 147.679 104.769 148.308 102.239 146.579C96.9903 142.986 85.0354 127.863 85.0354 127.863L83.1129 124.315C85.5105 116.423 84.9802 102.714 84.9802 102.714L124.977 104.87L124.988 104.859Z" fill="#E8B98E"/>
<path d="M77.6106 87.9507C77.6106 87.9507 75.6329 88.4334 72.6828 87.0974C69.7328 85.7614 69.9427 82.9883 68.197 78.7556C66.4513 74.5342 62.9488 67.1917 65.2469 63.5878C67.5451 59.9839 73.8098 61.9823 73.8098 61.9823L77.6217 87.9394L77.6106 87.9507Z" fill="#F7CBA4"/>
<path d="M136.424 84.212C136.424 84.212 137.518 85.1664 139.738 84.212C141.959 83.2577 142.501 79.7549 143.705 76.4204C144.909 73.086 147.672 63.9695 145.351 61.6006C143.02 59.2317 140.678 62.9815 140.678 62.9815L136.424 84.2008V84.212Z" fill="#F7CBA4"/>
<path d="M127.872 117.961C128.347 121.699 122.933 133.769 110.647 147.443C108.945 148.813 108.072 153.304 108.072 153.304C109.398 150.901 110.735 148.409 111.818 148.263C115.564 148.263 121.508 166.956 124.734 167.405C127.96 167.854 133.739 130.277 133.286 128.817C132.833 127.358 129.54 117.433 128.502 116.378C128.049 115.917 127.253 115.457 127.253 115.457C127.253 115.457 127.629 115.951 127.872 117.961Z" fill="#171A2C"/>
<path d="M41.4145 156.604C41.4145 156.604 51.1375 161.241 55.7007 181.012C60.2639 200.783 55.7007 213.279 55.7007 213.279L42.652 247.836" stroke="#171A2C" stroke-width="0.75" stroke-linecap="round" stroke-linejoin="round"/>
<path d="M11.6046 248.802C11.6046 248.802 27.3272 242.234 64.6724 254.617" stroke="#171A2C" stroke-width="0.75" stroke-linecap="round" stroke-linejoin="round"/>
<path d="M173.603 198.111C173.603 198.111 169.758 213.324 161.715 221.497" stroke="#171A2C" stroke-width="0.75" stroke-linecap="round" stroke-linejoin="round"/>
<path d="M269.22 177.218C270.712 176.578 272.27 176.892 271.96 179.238C271.474 182.899 269.828 185.032 269.828 185.032V185.065C272.181 184.976 271.32 187.872 269.806 190.365L268.966 191.757V191.824C270.093 191.521 270.601 192.397 269.751 195.585C268.933 198.661 266.922 201.906 265.607 203.242C264.292 204.578 257.718 209.215 255.254 210.809C252.791 212.403 235.3 218.107 225.257 221.082C222.881 223.013 219.743 230.266 219.743 230.266C219.743 230.266 213.412 234.308 207.634 228.436C201.855 222.564 204.861 215.727 204.861 215.727C207.214 213.784 208.595 211.775 209.457 209.541C209.457 209.541 210.352 201.311 214.186 195.316C218.02 189.32 227.897 184.134 227.897 184.134C227.897 184.134 237.134 173.243 240.637 172.48C244.139 171.716 244.117 174.343 243.123 175.938C242.128 177.532 236.405 186.682 236.405 186.682L235.974 187.378C235.974 187.378 244.25 187.075 247.056 186.143C249.863 185.211 257.674 182.315 259.497 180.451C261.32 178.599 264.038 175.837 265.331 174.523C266.624 173.21 268.999 173.737 269.452 175.129C269.905 176.522 269.22 177.229 269.22 177.229" fill="#FFD9B3"/>
<path d="M67.1694 254.427C62.9598 254.427 59.2032 259.041 57.4685 266.316C55.2808 275.5 55.2366 290.802 59.2032 291.24C63.1697 291.678 84.0963 292.61 84.0963 292.61V259.052C84.0963 259.052 71.379 254.415 67.1694 254.415V254.427Z" fill="#171A2C"/>
<path d="M170.222 159.355C168.874 180.316 166.62 200.559 161.715 218.747V290.578" stroke="#171A2C" stroke-width="0.75" stroke-linecap="round" stroke-linejoin="round"/>
<path d="M103.476 145.815C105.896 148.151 107.409 149.891 107.94 151.687C109.023 155.28 110.006 176.364 109.023 187.85" stroke="#171A2C" stroke-width="0.75" stroke-linecap="round" stroke-linejoin="round"/>
<path d="M79.6988 116.209C77.8868 118.803 73.3899 128.784 73.3899 130.85C73.3899 132.915 86.5491 168.517 89.0572 169.078C91.5653 169.639 101.542 148.847 105.244 149.127C106.415 149.127 107.465 149.419 107.465 149.419C106.382 145.827 101.399 142.47 93.1343 134.06C84.8587 125.651 81.776 123.574 80.4391 121.396C79.4116 119.712 78.9254 118.5 79.6988 116.209Z" fill="#171A2C"/>
<path d="M140.678 62.9927C140.678 62.9927 135.794 90.9146 132.435 98.055C129.076 105.195 119.453 111.528 116.713 113.593C113.972 115.659 100.548 114.155 97.8411 112.078C95.1341 110.001 82.8588 103.837 79.5 94.8441C76.1411 85.8399 73.3899 60.2982 73.3899 60.2982C77.8758 56.481 83.124 43.2217 88.0186 34.4534C102.846 30.0186 118.016 31.1077 129.949 35.4638C132.778 37.4398 137.286 45.5907 140.678 62.9927Z" fill="#FFD9B3"/>
<path d="M116.503 55.4032C117.541 54.3479 121.309 52.0238 124.723 51.4962C128.137 50.9685 131.75 54.4152 130.247 55.1001C128.745 55.7849 127.883 53.9549 124.723 54.4826C121.563 55.0103 117.099 57.2108 116.127 57.5476C115.155 57.8844 115.464 56.4586 116.503 55.4032Z" fill="black"/>
<path d="M86.284 54.9542C87.411 53.9886 88.6263 53.0231 92.0846 53.0231C95.5429 53.0231 102.504 56.3014 100.846 57.4241C99.4653 58.356 94.7364 55.4594 91.5433 55.7288C88.3501 55.9983 86.7149 57.0649 85.7205 57.3231C84.7261 57.5813 85.1681 55.9197 86.295 54.9429L86.284 54.9542Z" fill="black"/>
<path d="M114.823 75.2977C114.823 75.2977 116.735 80.1702 115.342 81.5849C113.95 82.9995 111.288 84.212 111.288 84.212" stroke="#E2AD86" stroke-width="0.75" stroke-linecap="round" stroke-linejoin="round"/>
<path d="M100.526 75.2977C100.526 75.2977 96.6921 82.6514 101.631 83.4037" stroke="#E2AD86" stroke-width="0.75" stroke-linecap="round" stroke-linejoin="round"/>
<path d="M103.122 82.3371C103.122 82.3371 105.144 81.9666 107.354 84.212" stroke="#E2AD86" stroke-width="0.75" stroke-linecap="round" stroke-linejoin="round"/>
<path d="M235.941 187.726C233.654 194.227 229.908 196.944 225.599 198.19" stroke="#E2AD86" stroke-width="0.75" stroke-linecap="round" stroke-linejoin="round"/>
<path d="M248.249 193.227C248.249 193.227 252.404 191.925 256.138 189.826C259.155 188.13 261.607 185.874 262.779 184.684C264.314 183.123 265.861 181.113 267.132 178.935C267.585 178.161 268.38 177.509 269.209 177.139" stroke="#E2AD86" stroke-width="0.75" stroke-linecap="round" stroke-linejoin="round"/>
<path d="M250.901 199.436C250.901 199.436 257.287 195.888 258.691 194.721C260.215 193.452 263.044 191.532 264.149 189.904C265.254 188.276 266.878 185.627 268.977 185.256C269.176 185.223 269.364 185.2 269.53 185.2" stroke="#E2AD86" stroke-width="0.75" stroke-linecap="round" stroke-linejoin="round"/>
<path d="M242.416 206.655C245.664 204.769 249.94 204.017 255.188 204.219C257.508 202.86 262.182 200.536 263.132 199.56C264.083 198.583 265.486 194.249 267.386 192.857C267.74 192.599 268.447 191.981 268.955 191.813" stroke="#E2AD86" stroke-width="0.75" stroke-linecap="round" stroke-linejoin="round"/>
<path d="M227.875 227.133C224.815 239.483 220.671 247.982 215.6 253.091C215.6 253.091 210.186 257.694 202.33 257.694C194.475 257.694 185.724 236.587 188.099 225.124C190.475 222.71 198.01 215.513 203.723 206.577C203.723 206.577 198.419 217.916 211.346 226.595C224.273 235.273 227.886 227.133 227.886 227.133H227.875Z" fill="#171A2C"/>
<path d="M116.039 67.7418C116.039 67.7418 117.652 63.7899 122.104 62.0833C126.557 60.3768 129.717 63.7786 129.717 63.7786C129.717 63.7786 127.529 67.6071 123.066 68.4379C118.602 69.2687 116.039 67.7306 116.039 67.7306V67.7418Z" fill="white"/>
<path d="M116.039 67.7193C115.276 68.1123 116.878 63.251 122.16 61.5669C127.441 59.8828 130.325 63.6214 129.916 64.0256C129.507 64.4298 127.076 61.0841 122.347 62.5212C118.171 63.6439 116.812 67.3264 116.039 67.7193Z" fill="black"/>
<path d="M125.983 61.8476C125.983 61.8476 126.911 66.9671 123.773 67.9663C120.635 68.9655 119.784 66.7538 119.596 66.0577C119.408 65.3616 119.596 63.5428 119.596 63.5428C119.596 63.5428 122.646 60.8034 125.972 61.8476H125.983Z" fill="black"/>
<path d="M85.1349 66.0578C85.1349 66.0578 89.3003 61.4771 94.0292 61.9823C98.7581 62.4876 101.333 65.8894 101.333 65.8894C101.333 65.8894 98.8686 69.4484 93.4547 69.033C88.0407 68.6176 85.1349 66.0466 85.1349 66.0466V66.0578Z" fill="white"/>
<path d="M85.1349 66.0128C84.3725 66.4058 86.5933 61.9935 92.0846 61.2189C97.8742 60.3993 102.294 65.6199 101.885 66.0353C101.476 66.4507 97.1119 61.9149 91.8526 62.757C87.3557 63.5878 85.8862 65.6199 85.1238 66.0128H85.1349Z" fill="black"/>
<path d="M89.5876 62.8019C89.5876 62.8019 89.223 68.5838 93.7199 68.5838C98.2168 68.5838 97.819 63.004 97.819 63.004C97.819 63.004 96.449 61.9486 94.0182 61.9486C91.5875 61.9486 89.5876 62.8131 89.5876 62.8131V62.8019Z" fill="black"/>
<path d="M100.703 68.1123C99.9735 68.8533 97.4102 71.3121 93.2337 70.9977C89.9853 70.7507 87.19 69.5382 86.3834 69.0779C85.5437 68.5951 85.378 69.0105 85.6431 69.381C86.0851 69.9873 89.9411 72.0643 93.2227 72.0643C96.5042 72.0643 100.15 70.4027 100.891 69.0779C101.631 67.7531 101.432 67.3714 100.703 68.1123Z" fill="#F4BD98"/>
<path d="M129.132 67.0794C128.557 67.8653 126.502 70.47 122.878 70.4026C120.06 70.3465 117.574 69.3136 116.845 68.8982C116.083 68.4604 115.972 68.8982 116.226 69.2462C116.646 69.8301 120.105 71.6601 122.944 71.4692C125.784 71.2784 128.811 69.4034 129.352 68.0337C129.894 66.664 129.706 66.3047 129.12 67.0794H129.132Z" fill="#F4BD98"/>
<path d="M96.5705 93.8449C96.5705 93.8449 103.111 92.2394 104.791 93.205C106.47 94.1705 107.586 94.9452 108.481 94.7206C109.376 94.4961 110.801 92.9018 112.282 92.9018C113.763 92.9018 117.398 95.2483 118.823 95.2483C120.248 95.2483 114.503 100.873 108.592 100.39C102.681 99.9076 97.2003 94.9339 96.5705 93.8561V93.8449Z" fill="white"/>
<path d="M99.1007 94.2715C99.1007 94.2715 102.935 96.6517 108.172 96.6517C113.409 96.6517 117.011 94.7094 117.011 94.7094L118.812 95.2371C118.812 95.2371 115.652 99.9749 107.973 99.436C100.294 98.8971 97.2555 94.2715 97.2555 94.2715H99.1007Z" fill="#F2EAE7"/>
<path d="M96.3385 94.7093C97.5318 95.1584 102.172 94.0806 104.073 94.4399C105.973 94.7992 106.305 96.1464 108.603 96.1464C110.901 96.1464 111.078 94.7879 112.845 94.4399C114.613 94.0919 118.005 96.6741 119.618 95.6973C121.232 94.7206 121.353 93.3284 120.193 93.8785C119.033 94.4287 118.16 94.3725 117.398 93.8561C115.641 92.666 113.508 90.7125 112.304 90.7125C110.569 90.7125 109.951 92.5762 108.603 92.5762C107.255 92.5762 106.161 90.7125 104.437 90.7125C103.2 90.7125 100.902 91.9362 98.946 92.8569C98.1726 93.2274 96.692 93.2723 95.9297 92.7671C95.1673 92.2618 95.1341 94.2715 96.3385 94.7206V94.7093Z" fill="#E8A381"/>
<path d="M98.2499 94.7094C98.2499 94.7094 104.26 98.1113 108.061 98.1113C111.862 98.1113 117.994 95.5402 117.994 95.5402L119.618 95.6974C119.618 95.6974 115.044 102.288 107.862 101.906C100.681 101.524 96.3385 94.7094 96.3385 94.7094H98.2499Z" fill="#E8A381"/>
<path d="M195.093 305.387L76.0306 311V218.039L195.093 212.426V305.387Z" fill="#7B4AE2"/>
<path d="M140.501 268.573C144.266 268.573 147.318 264.833 147.318 260.22C147.318 255.607 144.266 251.867 140.501 251.867C136.736 251.867 133.684 255.607 133.684 260.22C133.684 264.833 136.736 268.573 140.501 268.573Z" fill="#FBD300"/>
</svg>
