<svg width="500" height="500" viewBox="0 0 500 500" fill="none" xmlns="http://www.w3.org/2000/svg">
<path d="M250 450C360.457 450 450 360.457 450 250C450 139.543 360.457 50 250 50C139.543 50 50 139.543 50 250C50 360.457 139.543 450 250 450Z" fill="#7B4AE2" fill-opacity="0.2"/>
<path d="M210.031 423L175.414 399.053L294.787 394.382L329.093 417.386L210.031 423Z" fill="#232740"/>
<path d="M214.362 227.569C215.478 226.649 223.698 223.629 239.189 223.629C254.679 223.629 261.242 227.457 261.242 227.457C261.242 227.457 264.623 229.209 258.115 240.84C251.608 252.471 244.227 261.049 244.227 261.049L242.15 264.765L239.818 259.735L214.428 235.844C214.428 235.844 212.815 231.791 213.091 230.41C213.367 229.029 213.246 228.49 214.362 227.569Z" fill="#232740"/>
<path d="M342.485 316.432C350.141 316.432 361.356 322.427 362.77 333.553C362.77 333.553 363.334 351.371 347.556 340.773C331.778 330.174 334.872 316.432 342.485 316.432Z" fill="#232740"/>
<path d="M279.241 174.566C279.241 174.566 281.826 157.231 280.732 150.495C280.456 148.8 283.517 147.834 283.616 146.184C283.826 142.692 287.947 144.017 287.605 141.401C286.08 129.68 260.148 115.59 252.425 113.019C244.702 110.448 226.405 113.255 222.383 115.781C218.361 118.307 214.914 124.92 214.914 124.92C214.914 124.92 210.075 125.29 206.263 126.986C202.451 128.681 198.286 140.952 196.761 149.575C195.236 158.197 201.004 174.892 201.004 174.892C201.004 174.892 204.716 189.319 243.133 191.575C281.55 193.832 279.23 174.566 279.23 174.566H279.241Z" fill="#031001"/>
<path d="M347.644 366.617C347.644 366.617 332.43 394.101 318.055 394.101C303.681 394.101 296.543 371.771 296.543 371.771L295.715 369.435V402.578H249.608L191.877 402.387C191.877 402.387 153.991 403.948 144.621 401.489C135.539 399.097 133.175 380.494 134.235 362.531C135.296 344.567 152.378 276.778 163.99 263.519C175.779 255.008 193.49 247.464 207.246 242.524L267.275 241.704C267.275 241.704 297.449 256.591 303.858 262.452C310.133 268.189 325.292 333.901 324.077 335.125L347.644 366.606V366.617Z" fill="#090E16"/>
<path d="M258.988 216.859V228.838C258.988 232.925 260.668 238.078 260.668 238.078L261.253 239.549L256.613 248.429C256.613 248.429 247.475 258.927 245.873 259.387C244.271 259.847 242.15 264.765 242.15 264.765C242.15 264.765 241.94 263.698 240.448 261.015C239.708 259.679 238.769 260.308 236.239 258.579C230.99 254.986 219.035 239.863 219.035 239.863L217.113 236.315C219.511 228.423 218.98 214.714 218.98 214.714L258.977 216.87L258.988 216.859Z" fill="#E8B98E"/>
<path d="M211.611 199.951C211.611 199.951 209.633 200.433 206.683 199.097C203.733 197.761 203.943 194.988 202.197 190.756C200.451 186.534 196.949 179.192 199.247 175.588C201.545 171.984 207.81 173.982 207.81 173.982L211.622 199.939L211.611 199.951Z" fill="#F7CBA4"/>
<path d="M270.424 196.212C270.424 196.212 271.518 197.166 273.738 196.212C275.959 195.258 276.501 191.755 277.705 188.42C278.909 185.086 281.672 175.97 279.351 173.601C277.02 171.232 274.678 174.982 274.678 174.982L270.424 196.201V196.212Z" fill="#F7CBA4"/>
<path d="M261.872 229.961C262.347 233.699 256.933 245.769 244.647 259.443C242.945 260.813 242.072 265.304 242.072 265.304C243.398 262.901 244.735 260.409 245.818 260.263C249.564 260.263 255.508 278.956 258.734 279.405C261.96 279.854 267.739 242.277 267.286 240.817C266.833 239.358 263.54 229.433 262.502 228.378C262.049 227.917 261.253 227.457 261.253 227.457C261.253 227.457 261.629 227.951 261.872 229.961Z" fill="#171A2C"/>
<path d="M175.414 268.604C175.414 268.604 185.138 273.241 189.701 293.012C194.264 312.783 189.701 325.279 189.701 325.279L176.652 359.836" stroke="#171A2C" stroke-width="0.75" stroke-linecap="round" stroke-linejoin="round"/>
<path d="M145.605 360.802C145.605 360.802 161.327 354.234 198.672 366.617" stroke="#171A2C" stroke-width="0.75" stroke-linecap="round" stroke-linejoin="round"/>
<path d="M307.603 310.111C307.603 310.111 303.758 325.324 295.715 333.497" stroke="#171A2C" stroke-width="0.75" stroke-linecap="round" stroke-linejoin="round"/>
<path d="M403.22 289.218C404.712 288.578 406.27 288.892 405.96 291.238C405.474 294.899 403.828 297.032 403.828 297.032V297.065C406.181 296.976 405.32 299.872 403.806 302.365L402.966 303.757V303.824C404.093 303.521 404.601 304.397 403.751 307.585C402.933 310.661 400.922 313.906 399.607 315.242C398.292 316.578 391.718 321.215 389.254 322.809C386.791 324.403 369.3 330.107 359.257 333.082C356.881 335.013 353.743 342.266 353.743 342.266C353.743 342.266 347.412 346.308 341.634 340.436C335.855 334.564 338.861 327.727 338.861 327.727C341.214 325.784 342.595 323.775 343.457 321.541C343.457 321.541 344.352 313.311 348.186 307.316C352.02 301.32 361.897 296.134 361.897 296.134C361.897 296.134 371.134 285.243 374.637 284.48C378.139 283.716 378.117 286.343 377.123 287.938C376.128 289.532 370.405 298.682 370.405 298.682L369.974 299.378C369.974 299.378 378.25 299.075 381.056 298.143C383.863 297.211 391.674 294.315 393.497 292.451C395.32 290.599 398.038 287.837 399.331 286.523C400.624 285.21 402.999 285.737 403.452 287.129C403.905 288.522 403.22 289.229 403.22 289.229" fill="#FFD9B3"/>
<path d="M201.169 366.427C196.96 366.427 193.203 371.041 191.468 378.316C189.281 387.5 189.237 402.802 193.203 403.24C197.17 403.678 218.096 404.61 218.096 404.61V371.052C218.096 371.052 205.379 366.415 201.169 366.415V366.427Z" fill="#171A2C"/>
<path d="M304.222 271.355C302.874 292.316 300.62 312.559 295.715 330.747V402.578" stroke="#171A2C" stroke-width="0.75" stroke-linecap="round" stroke-linejoin="round"/>
<path d="M237.476 257.815C239.896 260.151 241.409 261.891 241.94 263.687C243.023 267.28 244.006 288.364 243.023 299.85" stroke="#171A2C" stroke-width="0.75" stroke-linecap="round" stroke-linejoin="round"/>
<path d="M213.699 228.209C211.887 230.803 207.39 240.784 207.39 242.85C207.39 244.915 220.549 280.517 223.057 281.078C225.565 281.639 235.542 260.847 239.244 261.127C240.415 261.127 241.465 261.419 241.465 261.419C240.382 257.827 235.399 254.47 227.134 246.06C218.859 237.651 215.776 235.574 214.439 233.396C213.412 231.712 212.925 230.5 213.699 228.209Z" fill="#171A2C"/>
<path d="M274.678 174.993C274.678 174.993 269.794 202.915 266.435 210.055C263.076 217.195 253.453 223.528 250.713 225.593C247.972 227.659 234.548 226.155 231.841 224.078C229.134 222.001 216.859 215.837 213.5 206.844C210.141 197.84 207.39 172.298 207.39 172.298C211.876 168.481 217.124 155.222 222.019 146.453C236.846 142.019 252.016 143.108 263.949 147.464C266.778 149.44 271.286 157.591 274.678 174.993Z" fill="#FFD9B3"/>
<path d="M250.503 167.403C251.541 166.348 255.309 164.024 258.723 163.496C262.137 162.968 265.75 166.415 264.247 167.1C262.745 167.785 261.883 165.955 258.723 166.483C255.563 167.01 251.099 169.211 250.127 169.548C249.155 169.884 249.464 168.459 250.503 167.403Z" fill="black"/>
<path d="M220.284 166.954C221.411 165.989 222.626 165.023 226.085 165.023C229.543 165.023 236.504 168.301 234.846 169.424C233.465 170.356 228.736 167.459 225.543 167.729C222.35 167.998 220.715 169.065 219.72 169.323C218.726 169.581 219.168 167.92 220.295 166.943L220.284 166.954Z" fill="black"/>
<path d="M248.823 187.298C248.823 187.298 250.735 192.17 249.342 193.585C247.95 194.999 245.288 196.212 245.288 196.212" stroke="#E2AD86" stroke-width="0.75" stroke-linecap="round" stroke-linejoin="round"/>
<path d="M234.526 187.298C234.526 187.298 230.692 194.651 235.631 195.404" stroke="#E2AD86" stroke-width="0.75" stroke-linecap="round" stroke-linejoin="round"/>
<path d="M237.122 194.337C237.122 194.337 239.144 193.967 241.354 196.212" stroke="#E2AD86" stroke-width="0.75" stroke-linecap="round" stroke-linejoin="round"/>
<path d="M369.941 299.726C367.654 306.227 363.908 308.944 359.599 310.19" stroke="#E2AD86" stroke-width="0.75" stroke-linecap="round" stroke-linejoin="round"/>
<path d="M382.249 305.227C382.249 305.227 386.404 303.925 390.138 301.826C393.155 300.13 395.607 297.874 396.779 296.684C398.314 295.123 399.861 293.113 401.132 290.935C401.585 290.161 402.38 289.509 403.209 289.139" stroke="#E2AD86" stroke-width="0.75" stroke-linecap="round" stroke-linejoin="round"/>
<path d="M384.901 311.436C384.901 311.436 391.287 307.888 392.691 306.721C394.215 305.452 397.044 303.532 398.149 301.904C399.254 300.276 400.878 297.627 402.977 297.256C403.176 297.223 403.364 297.2 403.53 297.2" stroke="#E2AD86" stroke-width="0.75" stroke-linecap="round" stroke-linejoin="round"/>
<path d="M376.416 318.655C379.664 316.769 383.94 316.017 389.188 316.219C391.508 314.86 396.182 312.536 397.132 311.56C398.083 310.583 399.486 306.249 401.386 304.857C401.74 304.599 402.447 303.981 402.955 303.813" stroke="#E2AD86" stroke-width="0.75" stroke-linecap="round" stroke-linejoin="round"/>
<path d="M361.875 339.133C358.815 351.483 354.671 359.982 349.6 365.091C349.6 365.091 344.186 369.694 336.33 369.694C328.475 369.694 319.724 348.587 322.099 337.124C324.475 334.71 332.01 327.513 337.723 318.577C337.723 318.577 332.419 329.916 345.346 338.595C358.273 347.273 361.886 339.133 361.886 339.133H361.875Z" fill="#171A2C"/>
<path d="M250.039 179.742C250.039 179.742 251.652 175.79 256.104 174.083C260.557 172.377 263.717 175.779 263.717 175.779C263.717 175.779 261.529 179.607 257.066 180.438C252.602 181.269 250.039 179.731 250.039 179.731V179.742Z" fill="white"/>
<path d="M250.039 179.719C249.276 180.112 250.878 175.251 256.16 173.567C261.441 171.883 264.325 175.621 263.916 176.026C263.507 176.43 261.076 173.084 256.347 174.521C252.171 175.644 250.812 179.326 250.039 179.719Z" fill="black"/>
<path d="M259.983 173.848C259.983 173.848 260.911 178.967 257.773 179.966C254.635 180.966 253.784 178.754 253.596 178.058C253.408 177.362 253.596 175.543 253.596 175.543C253.596 175.543 256.646 172.803 259.972 173.848H259.983Z" fill="black"/>
<path d="M219.135 178.058C219.135 178.058 223.3 173.477 228.029 173.982C232.758 174.488 235.333 177.889 235.333 177.889C235.333 177.889 232.869 181.448 227.455 181.033C222.041 180.618 219.135 178.047 219.135 178.047V178.058Z" fill="white"/>
<path d="M219.135 178.013C218.373 178.406 220.593 173.994 226.085 173.219C231.874 172.399 236.294 177.62 235.885 178.035C235.476 178.451 231.112 173.915 225.853 174.757C221.356 175.588 219.886 177.62 219.124 178.013H219.135Z" fill="black"/>
<path d="M223.588 174.802C223.588 174.802 223.223 180.584 227.72 180.584C232.217 180.584 231.819 175.004 231.819 175.004C231.819 175.004 230.449 173.949 228.018 173.949C225.587 173.949 223.588 174.813 223.588 174.813V174.802Z" fill="black"/>
<path d="M234.703 180.112C233.974 180.853 231.41 183.312 227.234 182.998C223.985 182.751 221.19 181.538 220.383 181.078C219.544 180.595 219.378 181.011 219.643 181.381C220.085 181.987 223.941 184.064 227.223 184.064C230.504 184.064 234.15 182.403 234.891 181.078C235.631 179.753 235.432 179.371 234.703 180.112Z" fill="#F4BD98"/>
<path d="M263.132 179.079C262.557 179.865 260.502 182.47 256.878 182.403C254.06 182.347 251.574 181.314 250.845 180.898C250.083 180.46 249.972 180.898 250.226 181.246C250.646 181.83 254.105 183.66 256.944 183.469C259.784 183.278 262.811 181.403 263.352 180.034C263.894 178.664 263.706 178.305 263.12 179.079H263.132Z" fill="#F4BD98"/>
<path d="M230.571 205.845C230.571 205.845 237.111 204.239 238.791 205.205C240.47 206.17 241.586 206.945 242.481 206.721C243.376 206.496 244.801 204.902 246.282 204.902C247.763 204.902 251.398 207.248 252.823 207.248C254.248 207.248 248.503 212.873 242.592 212.39C236.681 211.908 231.2 206.934 230.571 205.856V205.845Z" fill="white"/>
<path d="M233.101 206.272C233.101 206.272 236.935 208.652 242.172 208.652C247.409 208.652 251.011 206.709 251.011 206.709L252.812 207.237C252.812 207.237 249.652 211.975 241.973 211.436C234.294 210.897 231.256 206.272 231.256 206.272H233.101Z" fill="#F2EAE7"/>
<path d="M230.338 206.709C231.532 207.158 236.172 206.081 238.073 206.44C239.973 206.799 240.305 208.146 242.603 208.146C244.901 208.146 245.078 206.788 246.845 206.44C248.613 206.092 252.005 208.674 253.618 207.697C255.232 206.721 255.353 205.328 254.193 205.879C253.033 206.429 252.16 206.373 251.398 205.856C249.641 204.666 247.508 202.712 246.304 202.712C244.569 202.712 243.951 204.576 242.603 204.576C241.255 204.576 240.161 202.712 238.437 202.712C237.2 202.712 234.902 203.936 232.946 204.857C232.173 205.227 230.692 205.272 229.93 204.767C229.167 204.262 229.134 206.271 230.338 206.721V206.709Z" fill="#E8A381"/>
<path d="M232.25 206.709C232.25 206.709 238.26 210.111 242.061 210.111C245.862 210.111 251.994 207.54 251.994 207.54L253.618 207.697C253.618 207.697 249.044 214.288 241.862 213.906C234.681 213.524 230.338 206.709 230.338 206.709H232.25Z" fill="#E8A381"/>
<path d="M329.093 417.387L210.031 423V330.039L329.093 324.426V417.387Z" fill="#7B4AE2"/>
<path d="M274.501 380.573C278.266 380.573 281.318 376.833 281.318 372.22C281.318 367.607 278.266 363.867 274.501 363.867C270.736 363.867 267.684 367.607 267.684 372.22C267.684 376.833 270.736 380.573 274.501 380.573Z" fill="#FBD300"/>
<path d="M449.81 339.62C469.587 339.62 485.62 323.587 485.62 303.81C485.62 284.033 469.587 268 449.81 268C430.033 268 414 284.033 414 303.81C414 323.587 430.033 339.62 449.81 339.62Z" fill="#090E16"/>
<path d="M77.81 375.62C97.5873 375.62 113.62 359.587 113.62 339.81C113.62 320.033 97.5873 304 77.81 304C58.0327 304 42 320.033 42 339.81C42 359.587 58.0327 375.62 77.81 375.62Z" fill="#090E16"/>
<path d="M248.81 99.62C268.587 99.62 284.62 83.5873 284.62 63.81C284.62 44.0327 268.587 28 248.81 28C229.033 28 213 44.0327 213 63.81C213 83.5873 229.033 99.62 248.81 99.62Z" fill="#090E16"/>
</svg>
