<svg width="147" height="143" viewBox="0 0 147 143" fill="none" xmlns="http://www.w3.org/2000/svg">
<path fill-rule="evenodd" clip-rule="evenodd" d="M60.9985 4.36188C74.4744 3.76098 81.6478 8.10579 88.2217 12.7317C79.8878 22.1983 78.9894 35.0095 82.4121 44.6311C89.9725 65.8829 117.816 73.7431 135.401 56.938C140.395 52.1649 143.104 46.0228 144.269 41.8223C147.044 49.6686 147.228 58.2293 144.747 66.2278C143.58 70.1196 141.912 73.3299 140.251 76.5257C138.468 79.9583 136.694 83.374 135.557 87.6C134.185 92.7014 135.256 97.2057 136.381 101.94C137.973 108.635 139.674 115.788 134.728 125.737C130.455 134.334 119.873 138.265 110.339 138.52C101.282 138.761 92.1595 133.975 85.21 130.328C82.7892 129.058 80.6329 127.927 78.8338 127.194C70.488 123.794 64.9639 128.331 59.0403 133.195L59.0399 133.196H59.0394L59.0382 133.197H59.0374L59.0371 133.198H59.0364L59.0361 133.199C58.1766 133.905 57.3084 134.618 56.4222 135.314C51.5377 139.152 24.7445 153.914 7.40131 125.597C3.38074 119.04 -3.47451 101.838 4.56506 84.8933C8.39958 76.8124 13.0649 72.8347 17.2141 69.2973C22.0604 65.1656 26.2027 61.6341 27.4949 52.8646C27.9898 49.5051 27.8548 46.1018 27.7173 42.6373C27.4446 35.7603 27.1623 28.6426 31.7776 21.1493C34.8953 16.1668 39.1921 12.0289 44.2885 9.10108C49.3849 6.17324 55.1238 4.54555 60.9985 4.36188ZM46.7217 56.6783C47.9883 56.0682 49.9836 55.1072 50.5228 54.8837C50.5826 54.8652 50.6468 54.8666 50.7058 54.8878C50.7647 54.909 50.8152 54.9487 50.8496 55.0009C50.8839 55.0532 50.9005 55.1153 50.8966 55.1778C50.8927 55.2403 50.8685 55.2998 50.8279 55.3474C50.499 55.677 46.9806 57.6402 46.444 57.9368C46.574 58.1022 46.9827 58.3859 47.4456 58.7072C47.8369 58.9789 48.267 59.2775 48.6003 59.5542C49.4773 60.2798 49.487 60.3929 49.5056 60.6124C49.5072 60.6306 49.5088 60.6495 49.511 60.6696C49.5144 60.6974 49.5118 60.7256 49.5033 60.7523C49.4947 60.779 49.4805 60.8036 49.4615 60.8242C49.4426 60.8448 49.4194 60.8611 49.3935 60.8719C49.3675 60.8826 49.3396 60.8876 49.3117 60.8865C49.217 60.8821 49.1236 60.8627 49.0349 60.829C48.3595 60.4328 47.7297 59.9909 47.1987 59.6182C46.5214 59.1429 46.0045 58.7801 45.7579 58.7685C45.597 60.0178 45.5011 61.2746 45.4705 62.5338C45.4406 63.0175 45.413 63.3203 45.229 63.4537C45.1498 63.5201 45.0516 63.5598 44.9485 63.5671C44.6027 63.5671 44.5813 63.0842 44.5728 62.74C44.5437 61.545 44.7085 59.3925 44.7538 58.8306C44.638 58.8812 44.4517 58.974 44.1451 59.1372C43.0115 59.7371 42.378 60.1062 42.003 60.3248L42.0025 60.325C41.4734 60.6334 41.4592 60.6417 41.2797 60.5753C41.2203 60.5554 41.168 60.5185 41.1293 60.4692C41.0906 60.4198 41.0672 60.3603 41.062 60.2978C41.0124 59.6985 42.6906 58.8049 43.8516 58.1869C44.0522 58.0801 44.2376 57.9813 44.3958 57.8939L43.8354 57.5013C41.2098 55.6622 40.8553 55.4139 40.869 55.1877C40.8711 55.1525 40.8822 55.1178 40.895 55.0776L40.8965 55.073C41.152 54.2708 42.5699 55.3327 43.728 56.1999C44.2065 56.5583 44.6407 56.8834 44.9301 57.03C44.9255 56.764 44.96 56.0067 45.1662 53.7177C45.2721 52.5407 45.259 51.6374 45.2493 50.9701C45.234 49.9087 45.2273 49.4444 45.7219 49.4251C45.8324 49.434 45.9375 49.4766 46.0229 49.5472C46.1083 49.6178 46.17 49.713 46.1995 49.8198C46.2257 52.2425 46.1233 54.6649 45.8928 57.0768C46.0834 56.9857 46.3701 56.8476 46.7102 56.6838L46.7157 56.6812L46.7203 56.6789L46.7217 56.6783ZM128.486 81.0974C128.53 81.0498 128.556 80.9893 128.561 80.9249C128.567 80.8605 128.551 80.7969 128.515 80.7425C128.481 80.688 128.429 80.6474 128.367 80.6259C128.307 80.6045 128.241 80.6045 128.18 80.6244C127.57 80.8766 125.113 82.0632 123.937 82.6305L123.935 82.6312L123.55 82.8175C123.78 80.4052 123.882 77.9829 123.856 75.5598C123.826 75.4533 123.764 75.3582 123.679 75.2877C123.594 75.2172 123.489 75.175 123.379 75.1658C122.884 75.185 122.891 75.6495 122.907 76.7089C122.917 77.3765 122.93 78.2803 122.824 79.4585C122.618 81.7459 122.584 82.504 122.588 82.77C122.299 82.6243 121.863 82.2978 121.383 81.9383C120.227 81.0713 118.81 80.0096 118.554 80.8137L118.552 80.8199C118.54 80.8597 118.528 80.8942 118.527 80.9295C118.512 81.1556 118.868 81.4048 121.531 83.2682L122.053 83.6339C121.909 83.7136 121.739 83.8033 121.553 83.9022C120.407 84.5108 118.669 85.4337 118.72 86.0386C118.732 86.1045 118.762 86.1666 118.806 86.2172C118.85 86.2678 118.908 86.3053 118.971 86.3268C119.035 86.3482 119.103 86.3521 119.169 86.3375C119.235 86.3237 119.295 86.2923 119.345 86.2471C119.538 86.0937 122.105 84.7032 122.488 84.52C122.485 84.5568 122.481 84.6013 122.477 84.6511L122.476 84.6565C122.388 85.643 122.093 88.9323 122.811 88.9323C123.016 88.9323 123.025 88.8081 123.091 87.9059V87.9051V87.9043H123.091C123.127 87.403 123.181 86.6633 123.295 85.5725C123.33 85.2452 123.363 84.474 123.363 84.474C123.5 84.5422 123.642 84.6365 123.854 84.7768C124.135 84.9623 124.536 85.2291 125.211 85.6238C125.346 85.6737 125.54 85.7243 125.638 85.6193C125.698 85.5541 125.692 85.4989 125.685 85.4368C125.684 85.4253 125.682 85.4138 125.682 85.4023C125.662 85.1425 125.58 85.0137 124.776 84.3475C124.514 84.1306 124.326 83.9873 124.168 83.8662C124.108 83.8202 124.051 83.7765 123.997 83.7343C124.344 83.5588 128.149 81.4347 128.486 81.0974ZM63.5125 18.3168C63.5263 18.3443 63.5345 18.3743 63.5365 18.405C63.548 18.8795 59.6271 22.8257 57.953 24.289C58.1619 24.5432 59.4525 25.7129 60.5784 26.7332L60.5844 26.7386C60.7744 26.9109 60.9597 27.0787 61.1342 27.2372C62.2648 28.2628 62.2426 28.3564 62.2119 28.4844C62.2018 28.5202 62.183 28.5529 62.1572 28.5796C62.1314 28.6064 62.0994 28.6263 62.064 28.6377C61.637 28.758 58.255 26.0621 57.2347 25.0349C57.0636 25.7859 56.7985 28.6102 56.62 30.5112C56.525 31.5228 56.4546 32.2733 56.436 32.3103C56.4229 32.3368 56.4039 32.3599 56.3802 32.3778C56.3567 32.3957 56.3293 32.4079 56.3003 32.4134C56.2712 32.4189 56.2413 32.4176 56.2128 32.4095C56.1843 32.4014 56.1581 32.3869 56.1363 32.3669C55.5437 31.8302 55.8432 29.0943 56.0571 27.1412L56.0573 27.1392C56.1166 26.597 56.1694 26.1152 56.1945 25.7578C56.037 25.8763 55.8084 26.0642 55.3933 26.4054C55.1883 26.5739 54.9377 26.7799 54.6277 27.0333C54.0014 27.5479 53.9662 27.6231 53.8782 27.8107C53.8592 27.8511 53.8378 27.8968 53.8075 27.9531C53.4717 28.5963 52.6737 27.9502 53.0409 27.1928C53.2654 26.7307 53.3848 26.633 55.0715 25.2524C55.3605 25.016 55.6955 24.7418 56.0849 24.4217C56.1807 24.3427 56.2727 24.2668 56.3271 24.2162C56.2466 24.1465 52.21 20.3329 52.1839 20.224C52.0927 19.8837 52.2107 19.7442 52.3227 19.6874C52.9949 19.344 56.0443 22.4417 56.551 22.9982C56.5579 22.9215 56.564 22.828 56.5694 22.7406C56.5881 22.4361 56.6537 21.8372 56.7432 21.0195L56.7434 21.0175C56.8335 20.1951 56.9478 19.1516 57.063 17.9635L57.0632 17.9616C57.2309 16.2426 57.241 16.1391 57.605 16.0816C58.2139 15.9814 57.9603 18.3385 57.6576 21.1512C57.5807 21.8652 57.5008 22.6086 57.431 23.3485C60.1276 21.1016 61.508 19.7319 62.2759 18.9699C63.054 18.1979 63.2034 18.0496 63.456 18.2448C63.4795 18.2648 63.4987 18.2893 63.5125 18.3168ZM93.9003 87.4873C93.0594 87.9419 93.015 87.9611 92.8632 88.0247C92.7566 88.0699 92.5964 88.1381 92.0675 88.3965C91.7479 88.5528 91.3316 88.7667 90.9606 88.956C90.5451 89.1691 90.1872 89.3523 90.0883 89.393C90.1128 88.9836 90.247 86.4211 90.1818 86.1942C90.224 86.0209 90.2485 85.8439 90.2531 85.6652C90.2554 85.5411 90.2102 85.4199 90.1266 85.328C90.0431 85.236 89.9273 85.1792 89.8031 85.1693C89.2481 85.1333 89.2267 85.7825 89.229 86.336C89.2321 87.009 89.2045 87.3961 89.1792 87.7618C89.1539 88.1197 89.1301 88.4563 89.1378 89.0189C89.0987 88.9982 89.0542 88.9744 89.0052 88.9484L88.9262 88.9062L88.9247 88.9054C88.1435 88.4854 86.4456 87.574 85.8922 87.9235C85.8347 87.9664 85.7895 88.0247 85.7626 88.0914C85.735 88.1581 85.7274 88.2309 85.7389 88.3022C85.7504 88.3735 85.781 88.4402 85.8278 88.4946C85.8738 88.5498 85.9351 88.5904 86.0033 88.6134C87.8285 89.4581 88.3314 89.7011 88.5851 89.8238C88.7323 89.8951 88.7951 89.9257 88.9852 90.01C88.8833 90.0775 88.7675 90.1488 88.6272 90.2354C88.3176 90.4263 87.886 90.6915 87.2145 91.1599C86.3897 91.7394 86.9079 92.7397 87.3517 92.3304C87.8868 91.8735 88.4724 91.4803 89.0979 91.1583C89.1232 93.9555 89.4007 94.2054 89.5072 94.3012C89.5348 94.328 89.567 94.3495 89.6031 94.3633C89.6391 94.3771 89.6774 94.3832 89.7157 94.3809C89.7548 94.3794 89.7924 94.3694 89.8269 94.3526C89.8614 94.3357 89.892 94.3112 89.9166 94.282C90.0124 94.1609 89.994 94.0114 89.938 93.5607C89.9311 93.5063 89.9242 93.448 89.9166 93.3852C89.9449 93.2771 89.9664 92.673 89.9879 92.0537C90.0124 91.3584 90.0377 90.6432 90.0745 90.5896C90.1166 90.5934 90.1573 90.6064 90.1933 90.6287C90.9024 90.9782 91.4389 91.248 91.8483 91.4542C92.8854 91.9755 93.0978 92.082 93.1928 92.0169C93.2173 92.0008 93.2334 91.9724 93.2549 91.9364L93.2672 91.9157C93.5838 91.3615 92.1994 90.6302 91.3539 90.1825C91.2389 90.122 91.1339 90.066 91.0442 90.017C92.0767 89.4604 93.0763 88.8464 94.0399 88.1772C94.6048 87.6958 94.1495 87.3509 93.9003 87.4873ZM114.307 109.51C114.32 109.538 114.329 109.569 114.33 109.599C114.347 110.074 110.429 114.015 108.748 115.485C108.948 115.725 110.197 116.857 111.406 117.952L111.407 117.953L111.409 117.955C111.584 118.114 111.758 118.272 111.928 118.426C113.058 119.452 113.036 119.544 113.005 119.673C112.995 119.709 112.977 119.742 112.951 119.768C112.925 119.795 112.892 119.815 112.857 119.827C112.434 119.939 109.049 117.252 108.028 116.224C107.854 116.981 107.582 119.88 107.403 121.783V121.784C107.312 122.756 107.245 123.466 107.228 123.5C107.215 123.526 107.196 123.549 107.172 123.567C107.149 123.584 107.122 123.596 107.093 123.602C106.252 123.733 106.661 119.999 106.883 117.975L106.883 117.974V117.969C106.932 117.527 106.972 117.167 106.987 116.947C106.814 117.078 106.515 117.323 106.099 117.665L106.098 117.666L105.818 117.896C105.694 117.998 105.561 118.107 105.42 118.222C104.793 118.735 104.759 118.807 104.67 118.999C104.651 119.039 104.63 119.083 104.601 119.138C104.264 119.781 103.465 119.136 103.834 118.378C104.065 117.904 104.093 117.88 106.178 116.179L106.498 115.918L106.9 115.589L106.922 115.571C106.969 115.532 107.015 115.495 107.054 115.462C107.08 115.44 107.103 115.42 107.122 115.402C107.045 115.341 103.004 111.519 102.978 111.408C102.887 111.069 103.005 110.928 103.117 110.872C103.791 110.529 106.824 113.618 107.345 114.183C107.448 113.006 107.516 112.384 107.599 111.615C107.666 111.004 107.743 110.299 107.856 109.147C108.025 107.427 108.036 107.324 108.399 107.266C109.008 107.171 108.755 109.529 108.452 112.339C108.375 113.053 108.295 113.795 108.225 114.534C108.272 114.488 108.417 114.366 108.643 114.176C109.434 113.513 111.214 112.02 113.24 110L113.241 109.999C113.821 109.421 113.996 109.245 114.249 109.439C114.273 109.459 114.293 109.483 114.307 109.51ZM31.8428 91.1254C32.0186 91.1139 32.1999 91.0234 32.4435 90.9023C33.212 90.5198 34.6013 89.8291 38.4006 90.3128C38.7392 90.3259 38.9786 90.3703 39.1665 90.4056C39.5431 90.4761 39.7135 90.5075 40.0632 90.1695C40.5508 89.7096 43.9136 85.2636 43.9611 85.1953C44.2439 84.8044 44.6917 84.3084 45.145 83.8056C46.1576 82.6826 47.1974 81.5305 46.4846 81.4607C45.1055 81.2262 43.6968 81.2262 42.3177 81.4607C41.1943 81.6524 40.0967 81.9735 39.0468 82.4166C36.5689 83.6852 34.4475 85.5533 32.8753 87.8507C32.3387 88.7054 31.8742 89.5992 31.4265 90.5029C31.3914 90.5712 31.3752 90.6471 31.3795 90.7237C31.3838 90.7996 31.4085 90.8732 31.451 90.9368C31.4935 91.0004 31.5523 91.0518 31.6211 91.0848C31.6901 91.1177 31.7666 91.1315 31.8428 91.1254ZM45.8064 103.154C45.8759 103.192 45.9325 103.25 45.9687 103.32C46.1854 103.799 45.2901 104.9 41.0816 110.081C38.2309 113.589 33.8599 118.97 27.2848 127.294C26.853 127.84 26.5109 128.281 26.2367 128.633L26.2363 128.634C25.245 129.911 25.1422 130.044 24.8978 129.893C24.8196 129.842 24.7399 129.74 24.8089 129.51C25.5042 127.231 44.8618 103.107 45.5786 103.107C45.6574 103.1 45.7368 103.116 45.8064 103.154ZM31.5361 127.167C30.7949 128.074 31.5637 128.883 32.0942 128.107C32.4399 127.486 34.8814 126.135 37.6233 126.233C37.9545 126.245 38.0395 126.362 37.9062 126.709C37.5604 127.602 35.6785 128.766 34.9135 129.239C34.7441 129.344 34.6295 129.415 34.5985 129.441C34.4604 129.536 34.3482 129.664 34.272 129.813C34.1959 129.963 34.1582 130.128 34.1624 130.296C34.1665 130.463 34.2125 130.627 34.296 130.773C34.3796 130.918 34.498 131.04 34.6407 131.128C34.8167 131.257 34.996 131.382 35.168 131.503C35.7823 131.933 36.3058 132.299 36.2734 132.544C36.2106 133.018 34.4743 133.739 31.2908 134.906C30.7642 135.099 30.8432 135.749 32.0919 135.749C33.4602 135.654 34.7843 135.225 35.9492 134.501C39.2817 132.649 37.0655 131.28 35.8952 130.557C35.6528 130.406 35.4553 130.285 35.3612 130.192C35.3839 130.176 35.4512 130.14 35.5529 130.085C36.2558 129.707 38.6003 128.447 39.1595 126.89C40.2894 123.741 33.4111 124.877 31.5361 127.167ZM19.5013 119.017C20.4058 115.487 23.1501 112.967 24.7138 116.146C25.8039 118.361 24.9568 121.111 24.0063 121.031C23.9413 121.029 23.8777 121.012 23.8206 120.981C23.7635 120.95 23.7144 120.906 23.6775 120.852C23.6292 120.727 23.6084 120.593 23.6166 120.459C23.6248 120.326 23.6617 120.194 23.725 120.076C24.4164 118.035 23.413 115.397 22.4832 116.221C21.2506 117.317 20.2786 119.882 20.714 120.873C20.8995 121.297 20.8918 121.925 20.448 122.063C19.8577 122.25 19.6592 121.787 19.486 121.381C18.9754 120.198 17.9897 120.053 17.4163 120.538C16.7388 121.239 16.3335 122.158 16.2734 123.131C16.2734 123.485 16.5282 123.701 16.7455 123.886C16.9578 124.067 17.1342 124.217 17.0016 124.434C16.9568 124.503 16.8902 124.554 16.8126 124.579C16.735 124.604 16.6511 124.603 16.5746 124.575C16.1473 124.481 15.7679 124.237 15.506 123.886C15.2442 123.536 15.1173 123.103 15.1488 122.667C15.1332 122.159 15.2383 121.655 15.4554 121.196C15.9483 119.877 16.5968 119.213 17.624 118.973C18.2195 118.845 18.8415 118.957 19.3541 119.286L19.4246 119.318C19.445 119.216 19.4706 119.116 19.5013 119.017ZM51.6128 108.526C51.2163 107.565 50.5718 108.205 49.6334 109.137C49.2549 109.513 48.8284 109.937 48.3512 110.322C46.7805 111.586 42.0747 116.143 40.6274 117.548C35.6809 122.348 35.7798 122.475 35.93 122.668C35.9485 122.694 35.9731 122.715 36.0015 122.729C36.0299 122.744 36.0614 122.752 36.0933 122.751C36.9587 122.751 51.0977 109.474 51.5967 108.703C51.6136 108.677 51.6239 108.647 51.6266 108.617C51.6295 108.586 51.6247 108.554 51.6128 108.526ZM39.0128 102.736L39.0122 102.736C35.8967 107.183 31.1309 113.985 30.4154 115.289C30.2207 115.65 29.724 115.552 29.8505 115.024C30.2499 113.379 39.5711 99.5314 40.99 98.4022C41.0554 98.3271 41.1447 98.2765 41.2428 98.2589C41.341 98.242 41.4421 98.2589 41.5293 98.3072C41.6166 98.3555 41.6846 98.4321 41.722 98.5241C41.7595 98.6169 41.7641 98.7196 41.7351 98.8146C41.7151 98.8783 40.5702 100.513 39.0128 102.736ZM79.1741 77.2616C77.7031 76.6629 76.3011 75.9071 74.9926 75.0079C72.7242 73.3598 70.7527 71.338 69.1622 69.0289C68.9116 68.6175 68.7163 68.2853 68.5603 68.0198C68.1599 67.3388 68.0182 67.0978 67.8642 67.0897C67.7798 67.0852 67.6918 67.1507 67.5555 67.252L67.5287 67.2719C59.8748 71.842 53.0392 77.6609 47.3048 84.4863C46.1696 85.8661 46.1788 85.9006 46.408 86.2938C49.7241 92.0023 57.7828 98.2972 63.4875 101.527C63.9037 101.766 64.0325 101.764 68.1734 96.7319C72.9209 90.9644 76.8208 84.5484 79.7544 77.6786C79.7537 77.3244 79.6187 77.3183 79.4432 77.3114C79.3597 77.3075 79.2669 77.3037 79.1741 77.2616ZM66.011 87.4712C63.5634 87.1401 62.1514 86.5322 60.7609 84.474C57.3482 79.4148 62.9164 72.6278 68.8334 75.339C74.5312 77.9499 73.4419 87.1079 66.011 87.4712ZM61.3112 102.647C62.1544 103.118 62.3232 103.212 62.0701 103.492L62.0024 103.566C61.3315 104.295 58.669 107.189 57.664 107.472C53.5829 106.801 45.7863 100.063 43.131 96.3119C42.2918 95.2762 41.6364 94.1034 41.1931 92.8463L41.1554 92.7589L41.1225 92.6822C40.9287 92.2338 40.8891 92.1426 41.0015 91.9908C42.0409 90.5926 44.2578 87.8783 44.2754 87.8614C44.677 87.3953 44.9135 87.7449 45.6152 88.782C46.7072 90.3949 48.9256 93.6734 54.6453 98.1332C58.2075 100.913 60.2718 102.066 61.3112 102.647ZM83.7183 62.4403C83.7098 62.2804 83.6677 62.1241 83.5933 61.9821C83.519 61.8402 83.4155 61.7159 83.289 61.6178C83.1625 61.5197 83.0161 61.4501 82.8597 61.4137C82.7041 61.3773 82.5424 61.375 82.3852 61.4071C78.4045 61.867 75.4955 62.7163 69.8905 65.6023C69.5838 65.7611 69.5999 65.8768 70.1342 66.6756C72.4147 70.0791 74.6461 72.9489 79.3558 74.9972C79.5766 75.093 79.769 75.1781 79.9369 75.2517C81.0131 75.7246 81.0913 75.7591 81.1955 75.5721C83.22 71.8443 83.9881 64.7784 83.7183 62.4403ZM62.817 85.2406C62.1424 84.7032 61.6096 84.0087 61.2652 83.2184C60.8508 82.2495 60.7351 81.1786 60.9328 80.143C61.1305 79.1074 61.6326 78.1546 62.375 77.4064C63.1173 76.6575 64.0661 76.1478 65.0998 75.9416C66.1336 75.7354 67.2054 75.8427 68.178 76.2489C68.9714 76.587 69.67 77.1144 70.2128 77.7843C70.7556 78.4543 71.126 79.2469 71.2918 80.0932C71.4575 80.9395 71.4135 81.8141 71.1637 82.6389C70.9138 83.4645 70.4657 84.2165 69.8583 84.8289C69.251 85.4406 68.503 85.8952 67.6797 86.152C66.8564 86.4088 65.9827 86.4594 65.1351 86.3007C64.2874 86.142 63.4916 85.7779 62.817 85.2406ZM69.9167 82.2955C70.1772 81.5895 70.2366 80.8245 70.0882 80.0871C69.9611 79.4662 69.6908 78.8828 69.2987 78.3846C68.9066 77.8863 68.4036 77.4869 67.8297 77.2171C67.2558 76.9473 66.6269 76.8154 65.9932 76.8323C65.3593 76.8484 64.7381 77.0124 64.1789 77.3114C63.5164 77.6686 62.966 78.2021 62.5891 78.8529C62.2122 79.5045 62.0234 80.248 62.0441 81C62.0648 81.752 62.2939 82.4841 62.706 83.1134C63.1181 83.7427 63.697 84.2456 64.378 84.566C65.0591 84.8857 65.8157 85.0098 66.5634 84.9255C67.311 84.8404 68.0205 84.5491 68.6125 84.0854C69.2046 83.6209 69.6561 83.0007 69.9167 82.2955ZM68.1197 100.391C67.7571 100.32 67.2655 100.94 66.5278 101.869C66.0694 102.447 65.5161 103.143 64.8397 103.869C64.8167 103.894 64.8229 103.887 64.8305 103.878C64.8647 103.84 64.9279 103.77 62.55 106.322C62.2791 106.612 62.0668 106.818 61.8648 107.014C61.5269 107.343 61.2173 107.643 60.7103 108.259C60.3397 108.701 60.5152 109.173 60.7399 109.779C60.8443 110.06 60.9594 110.37 61.0353 110.718C61.1431 111.211 61.2192 111.551 61.2733 111.792C61.3721 112.232 61.3965 112.34 61.4033 112.449C61.4055 112.485 61.4058 112.521 61.4064 112.569C61.408 112.734 61.4111 113.043 61.4998 113.985C61.5165 115.138 61.2692 115.739 61.1125 116.12C60.9682 116.47 60.9011 116.633 61.1894 116.867C61.5555 117.166 61.5895 117.139 63.6389 115.538L63.7098 115.483C69.9694 110.582 69.4497 100.648 68.1197 100.391ZM65.4782 79.5305C66.206 79.158 66.9736 78.8698 67.7664 78.6697C67.9066 78.6429 68.0011 78.5992 68.076 78.5639C68.229 78.4919 68.2999 78.4589 68.5114 78.6927C68.9453 79.191 69.5915 80.1898 68.9645 80.3875C66.7186 81.0974 66.7191 81.0981 66.9132 81.3994C66.9678 81.4837 67.0377 81.5926 67.0772 81.7474C67.1092 81.8647 67.1062 81.9881 67.0688 82.1038C67.0313 82.2188 66.961 82.3208 66.8664 82.3967C66.208 82.8252 65.5008 83.1747 64.7599 83.4361C64.1697 83.5856 63.5419 83.4147 63.0636 82.0962C62.9661 81.8287 63.0997 81.798 63.4927 81.7075C63.8137 81.634 64.3079 81.5213 64.9907 81.2062C65.8133 80.8283 65.631 80.5447 65.4456 80.2572C65.3016 80.0334 65.1557 79.8065 65.4782 79.5305Z" fill="white"/>
<path d="M139.945 14.2067C129.504 -0.309479 110.36 -2.90118 95.5683 5.39978C73.5108 17.7773 73.4633 53.7307 100.202 64.5951C110.174 68.647 123.907 67.8445 133.053 60.5806C138.031 56.6268 141.402 51.2456 143.375 47.3661C148.217 36.0104 145.799 22.3451 139.945 14.2067ZM144.972 37.9414C144.896 40.9232 142.38 50.2675 135.401 56.938C117.816 73.7431 89.9725 65.8829 82.412 44.631C78.0143 32.2689 80.7501 14.6413 97.2248 5.60751C115.407 -4.36223 140.028 4.75971 144.304 26.7474C145.114 30.4204 145.34 34.1981 144.972 37.9414Z" fill="white"/>
<path d="M115.939 43.8936C113.67 43.0765 111.503 44.7046 110.316 46.5651C107.839 50.4476 108.691 55.9936 113.335 55.7131C114.684 55.7131 117.305 53.5123 118.138 50.3656C118.953 47.291 117.725 44.5368 115.939 43.8936ZM117.832 48.7543C117.561 52.0505 115.149 54.6675 113.644 54.9634C112.668 55.1543 115.1 53.2386 115.496 49.2296C115.972 44.3566 112.94 45.0657 113.561 44.5015C113.935 44.286 114.371 44.2049 114.797 44.2715C116.093 43.991 118.067 45.8989 117.832 48.7543Z" fill="white"/>
<path d="M96.8401 35.1204C94.8471 32.9212 91.0442 33.2148 89.1263 38.1199C87.3702 42.6104 91.4873 48.9283 96.4584 43.4743C98.1708 41.5962 98.6599 37.1319 96.8401 35.1204ZM95.5056 34.9273C94.8938 35.1402 94.3511 35.5144 93.9349 36.0104C93.1308 36.895 92.5712 37.9736 92.3106 39.1402C92.2707 39.4277 92.0806 39.6768 92.0607 39.9735C92.004 40.6733 91.7794 42.4877 92.2753 43.4229C92.5053 43.856 92.6532 44.3527 93.1262 44.6164C93.2979 44.7123 93.2557 44.9139 93.1262 44.91C92.5513 44.9812 91.9679 44.8923 91.4398 44.6532C88.9584 43.183 89.0581 38.924 90.5874 36.7999C92.8433 33.1282 96.0099 34.613 95.5056 34.9273Z" fill="white"/>
<path d="M111.007 16.7501C109.463 15.772 105.948 16.1453 104.041 16.8099C99.4932 18.3936 97.1123 21.8829 99.832 23.8484C102.147 25.5217 107.678 23.9817 110.065 22.3528C112.835 20.4617 112.872 17.9321 111.007 16.7501ZM100.215 22.234C99.9086 22.7116 100.021 22.9845 99.7277 22.6548C99.172 22.0301 99.438 21.0803 100.29 20.0823C103.208 16.6627 109.097 16.2304 110.757 17.3718C111.188 17.677 111.484 18.1367 111.584 18.655C111.684 19.1732 111.579 19.7101 111.293 20.1536C111.172 20.3345 110.618 19.8707 110.334 19.6392C108.32 17.9965 101.82 19.732 100.215 22.234Z" fill="white"/>
<path d="M124.692 32.9588C126.597 32.4721 126.733 30.5963 126.875 28.6408C126.675 26.624 126.508 24.7084 124.83 23.5364C121.538 21.2375 119.986 32.1087 124.692 32.9588ZM123.649 23.9572C124.394 23.6468 125.29 24.5291 125.548 25.2144C127.196 29.5837 125.689 32.4966 124.574 32.331C124.368 32.2996 124.312 32.2229 124.411 32.0382C125.147 30.6584 125.373 27.4918 124.15 25.071C123.872 24.5206 123.427 24.4639 123.453 24.0967C123.452 23.9588 123.568 23.9909 123.649 23.9572Z" fill="white"/>
<path d="M92.9344 16.123C93.0716 14.6666 92.0644 14.0127 90.9629 14.3055C88.5866 14.9372 86.234 18.8082 86.4739 20.9745C86.8879 24.7107 91.8574 21.8706 92.9344 16.123ZM88.1581 20.7124C88.0331 21.1054 87.9871 21.5195 88.0231 21.9304C87.9764 22.2033 87.4007 22.0071 87.2114 21.5356C86.1988 19.0328 90.7467 13.5727 92.0652 15.0414C92.9965 16.0778 90.9491 14.6857 88.4961 19.6875C88.3819 19.9205 88.2516 20.474 88.1581 20.7124Z" fill="white"/>
<path d="M131.822 42.7192C130.737 44.2914 130.315 46.6194 131.786 47.5301C133.556 48.6255 136.532 46.3205 136.757 43.2374C136.961 40.4357 133.734 39.9466 131.822 42.7192ZM135.232 45.6781C133.981 47.1637 132.861 47.317 132.69 47.2572C132.349 47.1369 132.407 46.9199 132.613 46.8233C133.283 46.3863 133.826 45.783 134.192 45.0725C135.827 42.3735 134.354 41.5311 135.122 41.5027C136.153 41.4652 136.665 43.9825 135.232 45.6781Z" fill="white"/>
<path d="M139.885 26.1825C138.364 26.4891 136.629 29.7323 137.569 32.482C138.821 36.1453 142.462 33.3942 142.251 29.3859C142.115 26.7351 140.822 25.9924 139.885 26.1825ZM139.097 33.5574C138.299 33.2753 139.262 32.8338 139.518 31.871C139.548 31.756 140.571 29.0723 139.532 27.5783C139.211 27.1184 139.19 27.1452 139.532 26.9291C139.712 26.8454 139.909 26.8031 140.107 26.8052C140.305 26.8073 140.5 26.8536 140.679 26.941C140.857 27.0283 141.013 27.1543 141.136 27.3097C141.259 27.4653 141.346 27.6463 141.39 27.8397C142.368 31.6319 140.268 33.9668 139.097 33.5574Z" fill="white"/>
<path d="M123.523 8.81166C121.466 10.1148 127.351 15.0537 129.587 13.4301C130.633 12.6705 129.296 10.9841 128.062 10.0121C126.987 9.16428 124.772 8.02058 123.523 8.81166ZM129.014 13.0499C128.707 13.2262 128.567 13.2699 128.025 12.5195C126.991 11.3727 125.695 10.4939 124.247 9.95842C123.979 9.89403 123.619 9.99215 123.711 9.6334C123.83 9.15738 124.069 9.2072 124.567 9.19494C126.788 9.14051 130.265 12.3393 129.014 13.0499Z" fill="white"/>
<path d="M122.056 57.3305C121.928 57.5311 121.855 57.7611 121.841 57.9985C121.828 58.2359 121.875 58.4729 121.98 58.6865C122.58 59.5696 124.348 59.6332 125.699 59.4255C126.66 59.2783 126.849 59.0506 127.055 58.5393C128.091 56.0212 123.417 55.7422 122.056 57.3305ZM126.537 57.6831C126.409 59.2538 125.873 57.1848 123.205 58.0273C123.042 58.0786 122.768 58.2687 122.591 58.3055C122.017 58.4228 122.591 56.3891 125.664 57.0078C125.917 57.0591 126.584 57.4278 126.537 57.6831Z" fill="white"/>
<path d="M96.5817 54.0145C95.8236 55.1283 98.4352 58.6828 100.317 58.3899C103.235 57.9338 98.2612 51.5477 96.5817 54.0145ZM99.6257 57.5015C99.5061 57.2617 99.3712 57.0299 99.221 56.8078C98.8637 56.2069 98.4099 55.6692 97.878 55.2164C97.4763 54.8286 97.1022 54.9435 97.126 54.4836C97.1382 54.2368 97.1827 54.1839 97.4426 54.177C98.8821 54.1302 99.9837 55.7607 100.6 57.2202C100.838 57.7805 99.8503 58.1393 99.6257 57.5015Z" fill="white"/>
<path d="M111.329 7.10622C116.562 7.48183 114.286 1.97643 109.777 4.72072C108.474 5.5141 108.548 6.90692 111.329 7.10622ZM113.585 5.03654C113.868 5.2849 113.714 5.56469 113.475 5.80309C113.034 6.24232 113.192 5.78316 112.348 5.70573C110.365 5.5233 110.732 6.50141 110.224 6.31897C107.945 5.50183 112.238 3.84838 113.585 5.03424V5.03654Z" fill="white"/>
<path d="M112.147 31.6664C110.618 32.3724 110.581 32.9175 110.341 33.7308C110.207 34.1823 110.502 34.544 110.805 34.8675C111.012 35.0875 111.333 35.0929 111.757 35.1664C112.207 35.1776 112.654 35.0887 113.066 34.9062C113.477 34.7237 113.844 34.452 114.137 34.1109C114.693 33.6709 115.05 32.5687 114.625 32.0658C114.316 31.7321 113.904 31.5115 113.454 31.4391C113.005 31.3667 112.545 31.4468 112.147 31.6664ZM114.102 32.6929C114.102 33.6526 113.314 32.6759 112.147 33.5161C111.499 33.9829 111.411 34.436 111.208 34.3279C110.824 34.1301 110.824 32.9948 112.147 32.3064C113.334 31.6878 114.232 32.1532 114.102 32.6929Z" fill="white"/>
</svg>
